G04 #@! TF.FileFunction,Soldermask,Top*
%FSLAX46Y46*%
G04 Gerber Fmt 4.6, Leading zero omitted, Abs format (unit mm)*
G04 Created by KiCad (PCBNEW 0.201509131501+6189~30~ubuntu14.04.1-product) date Sam 03 Okt 2015 13:55:26 CEST*
%MOMM*%
G01*
G04 APERTURE LIST*
%ADD10C,0.200000*%
%ADD11C,2.398980*%
%ADD12C,6.200000*%
%ADD13R,3.999180X2.000200*%
%ADD14R,1.400000X1.650000*%
%ADD15R,1.200000X1.150000*%
%ADD16R,1.650000X1.400000*%
%ADD17R,1.500000X1.200000*%
%ADD18R,2.600000X1.400000*%
%ADD19R,2.432000X2.432000*%
%ADD20O,2.432000X2.432000*%
%ADD21R,2.432000X4.057600*%
%ADD22R,2.432000X1.416000*%
%ADD23R,1.200100X1.200100*%
%ADD24R,1.700000X1.900000*%
%ADD25R,1.900000X1.700000*%
%ADD26R,2.127200X2.127200*%
%ADD27O,2.127200X2.127200*%
%ADD28R,1.197560X1.197560*%
%ADD29R,2.000200X3.399740*%
%ADD30C,3.900120*%
%ADD31R,2.432000X2.127200*%
%ADD32O,2.432000X2.127200*%
%ADD33R,2.127200X2.432000*%
%ADD34O,2.127200X2.432000*%
G04 APERTURE END LIST*
D10*
D11*
X100330000Y-81280000D03*
X100330000Y-73660000D03*
X100330000Y-81280000D03*
X100330000Y-81280000D03*
D12*
X100000000Y-38500000D03*
X100000000Y-87500000D03*
X42000000Y-87500000D03*
X42000000Y-38500000D03*
D13*
X41749180Y-47500000D03*
X47250820Y-47500000D03*
D14*
X50500000Y-77500000D03*
X48500000Y-77500000D03*
D15*
X47740000Y-52197000D03*
X46240000Y-52197000D03*
D14*
X50500000Y-82500000D03*
X48500000Y-82500000D03*
D15*
X75750000Y-85000000D03*
X77250000Y-85000000D03*
D16*
X58500000Y-46000000D03*
X58500000Y-48000000D03*
D17*
X53000000Y-74650000D03*
X53000000Y-72350000D03*
D18*
X49750000Y-58250000D03*
X49750000Y-60750000D03*
X49750000Y-63250000D03*
X49750000Y-65750000D03*
X62250000Y-65750000D03*
X62250000Y-63250000D03*
X62250000Y-60750000D03*
X62250000Y-58250000D03*
D19*
X100000000Y-45000000D03*
D20*
X100000000Y-47540000D03*
D21*
X57198000Y-72000000D03*
D22*
X63802000Y-72000000D03*
X63802000Y-69714000D03*
X63802000Y-74286000D03*
D21*
X59698000Y-80000000D03*
D22*
X66302000Y-80000000D03*
X66302000Y-77714000D03*
X66302000Y-82286000D03*
D23*
X77550000Y-78000760D03*
X79450000Y-78000760D03*
X78500000Y-76001780D03*
D24*
X68500000Y-66650000D03*
X68500000Y-69350000D03*
X71000000Y-66650000D03*
X71000000Y-69350000D03*
X68500000Y-74350000D03*
X68500000Y-71650000D03*
X71000000Y-74350000D03*
X71000000Y-71650000D03*
X46736000Y-58500000D03*
X46736000Y-55800000D03*
D25*
X55850000Y-77500000D03*
X53150000Y-77500000D03*
X53150000Y-80000000D03*
X55850000Y-80000000D03*
X53150000Y-82500000D03*
X55850000Y-82500000D03*
D24*
X73500000Y-80650000D03*
X73500000Y-83350000D03*
X79500000Y-83350000D03*
X79500000Y-80650000D03*
D26*
X46870000Y-39770000D03*
D27*
X46870000Y-37230000D03*
X49410000Y-39770000D03*
X49410000Y-37230000D03*
X51950000Y-39770000D03*
X51950000Y-37230000D03*
X54490000Y-39770000D03*
X54490000Y-37230000D03*
X57030000Y-39770000D03*
X57030000Y-37230000D03*
X59570000Y-39770000D03*
X59570000Y-37230000D03*
X62110000Y-39770000D03*
X62110000Y-37230000D03*
X64650000Y-39770000D03*
X64650000Y-37230000D03*
X67190000Y-39770000D03*
X67190000Y-37230000D03*
X69730000Y-39770000D03*
X69730000Y-37230000D03*
X72270000Y-39770000D03*
X72270000Y-37230000D03*
X74810000Y-39770000D03*
X74810000Y-37230000D03*
X77350000Y-39770000D03*
X77350000Y-37230000D03*
X79890000Y-39770000D03*
X79890000Y-37230000D03*
X82430000Y-39770000D03*
X82430000Y-37230000D03*
X84970000Y-39770000D03*
X84970000Y-37230000D03*
X87510000Y-39770000D03*
X87510000Y-37230000D03*
X90050000Y-39770000D03*
X90050000Y-37230000D03*
X92590000Y-39770000D03*
X92590000Y-37230000D03*
X95130000Y-39770000D03*
X95130000Y-37230000D03*
D28*
X68500000Y-64249300D03*
X68500000Y-62750700D03*
X71000000Y-64249300D03*
X71000000Y-62750700D03*
D29*
X53500000Y-44800360D03*
X53500000Y-49199640D03*
D30*
X56000000Y-86000000D03*
X71000000Y-86000000D03*
D11*
X76500000Y-80500000D03*
X78500000Y-73500000D03*
D28*
X86500000Y-44749300D03*
X86500000Y-43250700D03*
X89000000Y-44749300D03*
X89000000Y-43250700D03*
X91500000Y-44749300D03*
X91500000Y-43250700D03*
X94000000Y-44749300D03*
X94000000Y-43250700D03*
D31*
X100000000Y-65500000D03*
D32*
X100000000Y-62960000D03*
X100000000Y-60420000D03*
D19*
X100000000Y-55000000D03*
D20*
X100000000Y-52460000D03*
D24*
X86500000Y-49350000D03*
X86500000Y-46650000D03*
X89000000Y-49350000D03*
X89000000Y-46650000D03*
X91500000Y-49350000D03*
X91500000Y-46650000D03*
X94000000Y-49350000D03*
X94000000Y-46650000D03*
D31*
X41500000Y-80000000D03*
D32*
X41500000Y-77460000D03*
X41500000Y-74920000D03*
D33*
X64500000Y-54000000D03*
D34*
X61960000Y-54000000D03*
X59420000Y-54000000D03*
D19*
X45500000Y-80000000D03*
D20*
X45500000Y-77460000D03*
D19*
X64500000Y-50000000D03*
D20*
X61960000Y-50000000D03*
D11*
X100330000Y-71120000D03*
X100330000Y-76200000D03*
X100330000Y-78740000D03*
X100330000Y-81280000D03*
X97790000Y-71120000D03*
X97790000Y-73660000D03*
X97790000Y-76200000D03*
X97790000Y-78740000D03*
X97790000Y-81280000D03*
X95250000Y-71120000D03*
X95250000Y-73660000D03*
X95250000Y-76200000D03*
X95250000Y-78740000D03*
X95250000Y-81280000D03*
X92710000Y-71120000D03*
X92710000Y-73660000D03*
X90170000Y-71120000D03*
X90170000Y-73660000D03*
X87630000Y-71120000D03*
X87630000Y-73660000D03*
X87630000Y-76200000D03*
X92710000Y-76200000D03*
X90170000Y-76200000D03*
X87630000Y-78740000D03*
X90170000Y-78740000D03*
X92710000Y-78740000D03*
X92710000Y-81280000D03*
X90170000Y-81280000D03*
X87630000Y-81280000D03*
X87630000Y-83820000D03*
X90170000Y-83820000D03*
X92710000Y-83820000D03*
X95250000Y-83820000D03*
X95250000Y-86360000D03*
X92710000Y-86360000D03*
X90170000Y-86360000D03*
X87630000Y-86360000D03*
X87630000Y-88900000D03*
X90170000Y-88900000D03*
X92710000Y-88900000D03*
X95250000Y-88900000D03*
D33*
X55750000Y-53000000D03*
D34*
X53210000Y-53000000D03*
X50670000Y-53000000D03*
D11*
X51816000Y-56134000D03*
X49276000Y-56134000D03*
M02*
