G04 #@! TF.FileFunction,Profile,NP*
%FSLAX46Y46*%
G04 Gerber Fmt 4.6, Leading zero omitted, Abs format (unit mm)*
G04 Created by KiCad (PCBNEW 0.201512281231+6406~40~ubuntu14.04.1-stable) date Son 03 Jan 2016 21:13:02 CET*
%MOMM*%
G01*
G04 APERTURE LIST*
%ADD10C,0.200000*%
%ADD11C,0.100000*%
G04 APERTURE END LIST*
D10*
D11*
X103500000Y-38000000D02*
G75*
G03X100500000Y-35000000I-3000000J0D01*
G01*
X41500000Y-35000000D02*
X100500000Y-35000000D01*
X41500000Y-35000000D02*
G75*
G03X38500000Y-38000000I0J-3000000D01*
G01*
X84500000Y-87000000D02*
G75*
G02X82500000Y-87000000I-1000000J0D01*
G01*
X84500000Y-72000000D02*
G75*
G03X82500000Y-72000000I-1000000J0D01*
G01*
X84500000Y-72000000D02*
X84500000Y-87000000D01*
X82500000Y-72000000D02*
X82500000Y-87000000D01*
X39500000Y-71500000D02*
G75*
G03X38500000Y-72500000I0J-1000000D01*
G01*
X42500000Y-71500000D02*
G75*
G03X43500000Y-70500000I0J1000000D01*
G01*
X43500000Y-55500000D02*
G75*
G03X42500000Y-54500000I-1000000J0D01*
G01*
X38500000Y-53500000D02*
G75*
G03X39500000Y-54500000I1000000J0D01*
G01*
X100500000Y-91000000D02*
G75*
G03X103500000Y-88000000I0J3000000D01*
G01*
X38500000Y-88000000D02*
G75*
G03X41500000Y-91000000I3000000J0D01*
G01*
X38500000Y-72500000D02*
X38500000Y-88000000D01*
X38500000Y-37500000D02*
X38500000Y-53500000D01*
X39500000Y-71500000D02*
X42500000Y-71500000D01*
X39500000Y-54500000D02*
X42500000Y-54500000D01*
X43500000Y-55500000D02*
X43500000Y-70500000D01*
X41500000Y-91000000D02*
X100500000Y-91000000D01*
X103500000Y-37500000D02*
X103500000Y-88000000D01*
M02*
