G04 #@! TF.FileFunction,Copper,L1,Top,Signal*
%FSLAX46Y46*%
G04 Gerber Fmt 4.6, Leading zero omitted, Abs format (unit mm)*
G04 Created by KiCad (PCBNEW 0.201509131501+6189~30~ubuntu14.04.1-product) date Sam 03 Okt 2015 13:55:26 CEST*
%MOMM*%
G01*
G04 APERTURE LIST*
%ADD10C,0.200000*%
%ADD11C,1.998980*%
%ADD12R,3.599180X1.600200*%
%ADD13R,1.000000X1.250000*%
%ADD14R,0.800000X0.750000*%
%ADD15R,1.250000X1.000000*%
%ADD16R,1.100000X0.800000*%
%ADD17R,2.200000X1.000000*%
%ADD18R,2.032000X2.032000*%
%ADD19O,2.032000X2.032000*%
%ADD20R,2.032000X3.657600*%
%ADD21R,2.032000X1.016000*%
%ADD22R,0.800100X0.800100*%
%ADD23R,1.300000X1.500000*%
%ADD24R,1.500000X1.300000*%
%ADD25R,1.727200X1.727200*%
%ADD26O,1.727200X1.727200*%
%ADD27R,0.797560X0.797560*%
%ADD28R,1.600200X2.999740*%
%ADD29C,3.500120*%
%ADD30R,2.032000X1.727200*%
%ADD31O,2.032000X1.727200*%
%ADD32R,1.727200X2.032000*%
%ADD33O,1.727200X2.032000*%
%ADD34C,0.600000*%
%ADD35C,1.000000*%
%ADD36C,0.350000*%
%ADD37C,0.500000*%
%ADD38C,0.250000*%
%ADD39C,0.254000*%
G04 APERTURE END LIST*
D10*
D11*
X100330000Y-81280000D03*
X100330000Y-73660000D03*
X100330000Y-81280000D03*
X100330000Y-81280000D03*
D12*
X41749180Y-47500000D03*
X47250820Y-47500000D03*
D13*
X50500000Y-77500000D03*
X48500000Y-77500000D03*
D14*
X47740000Y-52197000D03*
X46240000Y-52197000D03*
D13*
X50500000Y-82500000D03*
X48500000Y-82500000D03*
D14*
X75750000Y-85000000D03*
X77250000Y-85000000D03*
D15*
X58500000Y-46000000D03*
X58500000Y-48000000D03*
D16*
X53000000Y-74650000D03*
X53000000Y-72350000D03*
D17*
X49750000Y-58250000D03*
X49750000Y-60750000D03*
X49750000Y-63250000D03*
X49750000Y-65750000D03*
X62250000Y-65750000D03*
X62250000Y-63250000D03*
X62250000Y-60750000D03*
X62250000Y-58250000D03*
D18*
X100000000Y-45000000D03*
D19*
X100000000Y-47540000D03*
D20*
X57198000Y-72000000D03*
D21*
X63802000Y-72000000D03*
X63802000Y-69714000D03*
X63802000Y-74286000D03*
D20*
X59698000Y-80000000D03*
D21*
X66302000Y-80000000D03*
X66302000Y-77714000D03*
X66302000Y-82286000D03*
D22*
X77550000Y-78000760D03*
X79450000Y-78000760D03*
X78500000Y-76001780D03*
D23*
X68500000Y-66650000D03*
X68500000Y-69350000D03*
X71000000Y-66650000D03*
X71000000Y-69350000D03*
X68500000Y-74350000D03*
X68500000Y-71650000D03*
X71000000Y-74350000D03*
X71000000Y-71650000D03*
X46736000Y-58500000D03*
X46736000Y-55800000D03*
D24*
X55850000Y-77500000D03*
X53150000Y-77500000D03*
X53150000Y-80000000D03*
X55850000Y-80000000D03*
X53150000Y-82500000D03*
X55850000Y-82500000D03*
D23*
X73500000Y-80650000D03*
X73500000Y-83350000D03*
X79500000Y-83350000D03*
X79500000Y-80650000D03*
D25*
X46870000Y-39770000D03*
D26*
X46870000Y-37230000D03*
X49410000Y-39770000D03*
X49410000Y-37230000D03*
X51950000Y-39770000D03*
X51950000Y-37230000D03*
X54490000Y-39770000D03*
X54490000Y-37230000D03*
X57030000Y-39770000D03*
X57030000Y-37230000D03*
X59570000Y-39770000D03*
X59570000Y-37230000D03*
X62110000Y-39770000D03*
X62110000Y-37230000D03*
X64650000Y-39770000D03*
X64650000Y-37230000D03*
X67190000Y-39770000D03*
X67190000Y-37230000D03*
X69730000Y-39770000D03*
X69730000Y-37230000D03*
X72270000Y-39770000D03*
X72270000Y-37230000D03*
X74810000Y-39770000D03*
X74810000Y-37230000D03*
X77350000Y-39770000D03*
X77350000Y-37230000D03*
X79890000Y-39770000D03*
X79890000Y-37230000D03*
X82430000Y-39770000D03*
X82430000Y-37230000D03*
X84970000Y-39770000D03*
X84970000Y-37230000D03*
X87510000Y-39770000D03*
X87510000Y-37230000D03*
X90050000Y-39770000D03*
X90050000Y-37230000D03*
X92590000Y-39770000D03*
X92590000Y-37230000D03*
X95130000Y-39770000D03*
X95130000Y-37230000D03*
D27*
X68500000Y-64249300D03*
X68500000Y-62750700D03*
X71000000Y-64249300D03*
X71000000Y-62750700D03*
D28*
X53500000Y-44800360D03*
X53500000Y-49199640D03*
D29*
X56000000Y-86000000D03*
X71000000Y-86000000D03*
D11*
X76500000Y-80500000D03*
X78500000Y-73500000D03*
D27*
X86500000Y-44749300D03*
X86500000Y-43250700D03*
X89000000Y-44749300D03*
X89000000Y-43250700D03*
X91500000Y-44749300D03*
X91500000Y-43250700D03*
X94000000Y-44749300D03*
X94000000Y-43250700D03*
D30*
X100000000Y-65500000D03*
D31*
X100000000Y-62960000D03*
X100000000Y-60420000D03*
D18*
X100000000Y-55000000D03*
D19*
X100000000Y-52460000D03*
D23*
X86500000Y-49350000D03*
X86500000Y-46650000D03*
X89000000Y-49350000D03*
X89000000Y-46650000D03*
X91500000Y-49350000D03*
X91500000Y-46650000D03*
X94000000Y-49350000D03*
X94000000Y-46650000D03*
D30*
X41500000Y-80000000D03*
D31*
X41500000Y-77460000D03*
X41500000Y-74920000D03*
D32*
X64500000Y-54000000D03*
D33*
X61960000Y-54000000D03*
X59420000Y-54000000D03*
D18*
X45500000Y-80000000D03*
D19*
X45500000Y-77460000D03*
D18*
X64500000Y-50000000D03*
D19*
X61960000Y-50000000D03*
D11*
X100330000Y-71120000D03*
X100330000Y-76200000D03*
X100330000Y-78740000D03*
X100330000Y-81280000D03*
X97790000Y-71120000D03*
X97790000Y-73660000D03*
X97790000Y-76200000D03*
X97790000Y-78740000D03*
X97790000Y-81280000D03*
X95250000Y-71120000D03*
X95250000Y-73660000D03*
X95250000Y-76200000D03*
X95250000Y-78740000D03*
X95250000Y-81280000D03*
X92710000Y-71120000D03*
X92710000Y-73660000D03*
X90170000Y-71120000D03*
X90170000Y-73660000D03*
X87630000Y-71120000D03*
X87630000Y-73660000D03*
X87630000Y-76200000D03*
X92710000Y-76200000D03*
X90170000Y-76200000D03*
X87630000Y-78740000D03*
X90170000Y-78740000D03*
X92710000Y-78740000D03*
X92710000Y-81280000D03*
X90170000Y-81280000D03*
X87630000Y-81280000D03*
X87630000Y-83820000D03*
X90170000Y-83820000D03*
X92710000Y-83820000D03*
X95250000Y-83820000D03*
X95250000Y-86360000D03*
X92710000Y-86360000D03*
X90170000Y-86360000D03*
X87630000Y-86360000D03*
X87630000Y-88900000D03*
X90170000Y-88900000D03*
X92710000Y-88900000D03*
X95250000Y-88900000D03*
D32*
X55750000Y-53000000D03*
D33*
X53210000Y-53000000D03*
X50670000Y-53000000D03*
D11*
X51816000Y-56134000D03*
X49276000Y-56134000D03*
D34*
X42418000Y-53086000D03*
X40132000Y-49784000D03*
X40132000Y-52832000D03*
X40132000Y-43180000D03*
X45974000Y-43688000D03*
X78740000Y-41910000D03*
X77216000Y-42418000D03*
X83566000Y-42926000D03*
X43434000Y-49530000D03*
X77089000Y-52832000D03*
X61000000Y-48000000D03*
X61000000Y-44500000D03*
X62000000Y-44500000D03*
X62000000Y-48000000D03*
X85500000Y-56500000D03*
X90500000Y-55500000D03*
X90500000Y-57500000D03*
X85000000Y-49000000D03*
X43500000Y-44000000D03*
X55750000Y-44750000D03*
X82500000Y-46000000D03*
X80500000Y-67500000D03*
X80500000Y-53500000D03*
X82000000Y-47500000D03*
X70000000Y-47000000D03*
X91000000Y-65500000D03*
X91000000Y-63000000D03*
X95000000Y-59000000D03*
X86500000Y-51000000D03*
X89000000Y-51000000D03*
X91500000Y-51000000D03*
X94000000Y-51000000D03*
X60500000Y-42200000D03*
X61200000Y-42900000D03*
X69250000Y-50750000D03*
X69500000Y-44600000D03*
X64500000Y-44300000D03*
X63100000Y-43700000D03*
D35*
X46240000Y-52197000D02*
X46240000Y-50534000D01*
X47250820Y-49523180D02*
X47250820Y-47500000D01*
X46240000Y-50534000D02*
X47250820Y-49523180D01*
X58500000Y-48000000D02*
X68828000Y-48000000D01*
X70612000Y-49784000D02*
X70612000Y-52832000D01*
X68828000Y-48000000D02*
X70612000Y-49784000D01*
X53210000Y-53000000D02*
X53210000Y-51790000D01*
X53500000Y-51500000D02*
X53500000Y-49199640D01*
X53210000Y-51790000D02*
X53500000Y-51500000D01*
X67310000Y-62750700D02*
X67310000Y-62738000D01*
X67310000Y-62738000D02*
X66548000Y-61976000D01*
X66548000Y-61976000D02*
X66548000Y-55245000D01*
X66548000Y-55245000D02*
X68961000Y-52832000D01*
X68961000Y-52832000D02*
X70612000Y-52832000D01*
X70612000Y-52832000D02*
X77089000Y-52832000D01*
D36*
X51950000Y-37230000D02*
X52230000Y-37230000D01*
X52230000Y-37230000D02*
X53500000Y-38500000D01*
X55760000Y-38500000D02*
X57030000Y-39770000D01*
X53500000Y-38500000D02*
X55760000Y-38500000D01*
D35*
X71000000Y-62750700D02*
X71249300Y-62750700D01*
X61000000Y-48000000D02*
X62000000Y-48000000D01*
X62000000Y-44500000D02*
X61000000Y-44500000D01*
X58500000Y-48000000D02*
X61000000Y-48000000D01*
X57030000Y-42030000D02*
X57030000Y-39770000D01*
X61000000Y-44500000D02*
X59000000Y-42500000D01*
X59000000Y-42500000D02*
X57500000Y-42500000D01*
X57500000Y-42500000D02*
X57030000Y-42030000D01*
D36*
X79500000Y-83350000D02*
X80650000Y-83350000D01*
X80500760Y-78000760D02*
X79450000Y-78000760D01*
X81000000Y-78500000D02*
X80500760Y-78000760D01*
X81000000Y-83000000D02*
X81000000Y-78500000D01*
X80650000Y-83350000D02*
X81000000Y-83000000D01*
X77250000Y-85000000D02*
X77250000Y-84250000D01*
X78150000Y-83350000D02*
X79500000Y-83350000D01*
X77250000Y-84250000D02*
X78150000Y-83350000D01*
D35*
X63500000Y-89000000D02*
X64500000Y-90000000D01*
X79500000Y-89000000D02*
X79500000Y-83350000D01*
X78500000Y-90000000D02*
X79500000Y-89000000D01*
X64500000Y-90000000D02*
X78500000Y-90000000D01*
D36*
X90500000Y-55500000D02*
X86500000Y-55500000D01*
X86500000Y-55500000D02*
X85500000Y-56500000D01*
X90500000Y-57500000D02*
X90500000Y-55500000D01*
D37*
X85749300Y-43250700D02*
X86500000Y-43250700D01*
X85000000Y-44000000D02*
X85749300Y-43250700D01*
X85000000Y-49000000D02*
X85000000Y-44000000D01*
D35*
X94000000Y-43250700D02*
X95750700Y-43250700D01*
X97500000Y-45000000D02*
X100000000Y-45000000D01*
X95750700Y-43250700D02*
X97500000Y-45000000D01*
X48500000Y-82500000D02*
X48500000Y-88500000D01*
X63500000Y-89000000D02*
X63500000Y-77714000D01*
X62500000Y-90000000D02*
X63500000Y-89000000D01*
X50000000Y-90000000D02*
X62500000Y-90000000D01*
X48500000Y-88500000D02*
X50000000Y-90000000D01*
X63802000Y-69714000D02*
X62286000Y-69714000D01*
X62286000Y-69714000D02*
X61000000Y-71000000D01*
X61000000Y-71000000D02*
X61000000Y-75500000D01*
X61000000Y-75500000D02*
X63214000Y-77714000D01*
X63214000Y-77714000D02*
X63500000Y-77714000D01*
X63500000Y-77714000D02*
X66302000Y-77714000D01*
X68500000Y-62750700D02*
X71000000Y-62750700D01*
X63802000Y-69714000D02*
X65786000Y-69714000D01*
X67249300Y-62750700D02*
X67310000Y-62750700D01*
X67310000Y-62750700D02*
X68500000Y-62750700D01*
X66500000Y-63500000D02*
X67249300Y-62750700D01*
X66500000Y-69000000D02*
X66500000Y-63500000D01*
X65786000Y-69714000D02*
X66500000Y-69000000D01*
X48500000Y-82500000D02*
X48500000Y-77500000D01*
X53500000Y-49199640D02*
X54800360Y-49199640D01*
X54800360Y-49199640D02*
X56000000Y-48000000D01*
X56000000Y-48000000D02*
X58500000Y-48000000D01*
X47250820Y-47500000D02*
X50500000Y-47500000D01*
X50500000Y-47500000D02*
X52199640Y-49199640D01*
X52199640Y-49199640D02*
X53500000Y-49199640D01*
D37*
X91500000Y-43250700D02*
X94000000Y-43250700D01*
X89000000Y-43250700D02*
X91500000Y-43250700D01*
X86500000Y-43250700D02*
X89000000Y-43250700D01*
X53150000Y-77500000D02*
X50500000Y-77500000D01*
X53000000Y-74650000D02*
X53000000Y-77350000D01*
X53000000Y-77350000D02*
X53150000Y-77500000D01*
D36*
X49750000Y-58250000D02*
X51224000Y-58250000D01*
X51816000Y-57658000D02*
X51816000Y-56134000D01*
X51224000Y-58250000D02*
X51816000Y-57658000D01*
D35*
X49750000Y-58250000D02*
X46986000Y-58250000D01*
X46986000Y-58250000D02*
X46736000Y-58500000D01*
X49750000Y-65750000D02*
X49750000Y-63250000D01*
X49750000Y-63250000D02*
X49750000Y-60750000D01*
X49750000Y-60750000D02*
X49750000Y-58250000D01*
D37*
X55850000Y-80000000D02*
X59698000Y-80000000D01*
X55850000Y-80000000D02*
X55850000Y-77500000D01*
D36*
X49276000Y-56134000D02*
X48260000Y-56134000D01*
X47926000Y-55800000D02*
X46736000Y-55800000D01*
X48260000Y-56134000D02*
X47926000Y-55800000D01*
D35*
X47740000Y-52197000D02*
X47740000Y-53848000D01*
X47752000Y-53721000D02*
X47752000Y-53848000D01*
X47752000Y-53836000D02*
X47752000Y-53721000D01*
X47740000Y-53848000D02*
X47752000Y-53836000D01*
X46736000Y-55800000D02*
X46736000Y-54229000D01*
X46736000Y-54229000D02*
X47117000Y-53848000D01*
X50670000Y-53000000D02*
X50124000Y-53000000D01*
X50124000Y-53000000D02*
X49276000Y-53848000D01*
X49276000Y-53848000D02*
X47752000Y-53848000D01*
X47752000Y-53848000D02*
X47117000Y-53848000D01*
X47117000Y-53848000D02*
X46609000Y-53848000D01*
X46609000Y-53848000D02*
X45212000Y-53848000D01*
X45212000Y-53848000D02*
X41749180Y-50385180D01*
X41749180Y-50385180D02*
X41749180Y-47500000D01*
X43500000Y-44000000D02*
X42000000Y-45500000D01*
X42000000Y-45500000D02*
X42000000Y-47249180D01*
X42000000Y-47249180D02*
X41749180Y-47500000D01*
D37*
X46870000Y-37230000D02*
X46270000Y-37230000D01*
X46270000Y-37230000D02*
X45500000Y-38000000D01*
X45500000Y-38000000D02*
X45500000Y-42000000D01*
X45500000Y-42000000D02*
X43500000Y-44000000D01*
D35*
X46870000Y-37230000D02*
X49410000Y-37230000D01*
D37*
X53150000Y-82500000D02*
X53150000Y-80000000D01*
X50500000Y-82500000D02*
X53150000Y-82500000D01*
D36*
X71000000Y-86000000D02*
X71000000Y-83750000D01*
X71400000Y-83350000D02*
X73500000Y-83350000D01*
X71000000Y-83750000D02*
X71400000Y-83350000D01*
D37*
X75750000Y-85000000D02*
X75750000Y-84250000D01*
X74850000Y-83350000D02*
X73500000Y-83350000D01*
X75750000Y-84250000D02*
X74850000Y-83350000D01*
X73350000Y-83500000D02*
X73500000Y-83350000D01*
D35*
X55750000Y-44750000D02*
X55750000Y-44800360D01*
X70000000Y-47000000D02*
X70000000Y-46000000D01*
X70000000Y-46000000D02*
X71000000Y-45000000D01*
X71000000Y-45000000D02*
X81500000Y-45000000D01*
X81500000Y-45000000D02*
X82500000Y-46000000D01*
D37*
X80500000Y-53500000D02*
X80500000Y-67500000D01*
X82000000Y-47500000D02*
X82000000Y-52000000D01*
X82000000Y-52000000D02*
X80500000Y-53500000D01*
D35*
X58500000Y-46000000D02*
X69000000Y-46000000D01*
X69000000Y-46000000D02*
X70000000Y-47000000D01*
X53500000Y-44800360D02*
X55750000Y-44800360D01*
X55750000Y-44800360D02*
X57300360Y-44800360D01*
X57300360Y-44800360D02*
X58500000Y-46000000D01*
X46870000Y-39770000D02*
X46870000Y-41870000D01*
X49800360Y-44800360D02*
X53500000Y-44800360D01*
X46870000Y-41870000D02*
X49800360Y-44800360D01*
X57198000Y-72000000D02*
X57500000Y-71698000D01*
X57500000Y-71698000D02*
X57500000Y-68000000D01*
X57500000Y-68000000D02*
X57500000Y-67000000D01*
X57500000Y-67000000D02*
X58750000Y-65750000D01*
X58750000Y-65750000D02*
X62250000Y-65750000D01*
X62250000Y-65750000D02*
X62250000Y-63250000D01*
X62250000Y-63250000D02*
X62250000Y-60750000D01*
X62250000Y-60750000D02*
X62250000Y-58250000D01*
D37*
X53000000Y-72350000D02*
X56848000Y-72350000D01*
X56848000Y-72350000D02*
X57198000Y-72000000D01*
X63802000Y-74286000D02*
X68436000Y-74286000D01*
X68436000Y-74286000D02*
X68500000Y-74350000D01*
X66302000Y-82286000D02*
X68214000Y-82286000D01*
X71000000Y-79500000D02*
X71000000Y-74350000D01*
X68214000Y-82286000D02*
X71000000Y-79500000D01*
X76500000Y-80500000D02*
X76500000Y-78500000D01*
X76999240Y-78000760D02*
X77550000Y-78000760D01*
X76500000Y-78500000D02*
X76999240Y-78000760D01*
X76500000Y-80500000D02*
X79350000Y-80500000D01*
X79350000Y-80500000D02*
X79500000Y-80650000D01*
X76500000Y-80500000D02*
X73650000Y-80500000D01*
X73650000Y-80500000D02*
X73500000Y-80650000D01*
X78500000Y-76001780D02*
X78500000Y-73500000D01*
D36*
X68500000Y-69350000D02*
X68500000Y-71650000D01*
X68500000Y-71650000D02*
X68500000Y-72000000D01*
X68500000Y-72000000D02*
X69500000Y-73000000D01*
X90000000Y-65500000D02*
X91000000Y-65500000D01*
X85500000Y-70000000D02*
X90000000Y-65500000D01*
X75500000Y-70000000D02*
X85500000Y-70000000D01*
X72500000Y-73000000D02*
X75500000Y-70000000D01*
X69500000Y-73000000D02*
X72500000Y-73000000D01*
D37*
X68500000Y-66650000D02*
X68500000Y-64249300D01*
X71000000Y-66650000D02*
X71000000Y-64249300D01*
D36*
X71000000Y-69350000D02*
X85150000Y-69350000D01*
X89000000Y-63000000D02*
X91000000Y-63000000D01*
X88000000Y-64000000D02*
X89000000Y-63000000D01*
X88000000Y-66500000D02*
X88000000Y-64000000D01*
X85150000Y-69350000D02*
X88000000Y-66500000D01*
X71000000Y-71650000D02*
X71000000Y-69350000D01*
X56000000Y-86000000D02*
X56000000Y-82650000D01*
X56000000Y-82650000D02*
X55850000Y-82500000D01*
D37*
X86500000Y-46650000D02*
X86500000Y-44749300D01*
X89000000Y-46650000D02*
X89000000Y-44749300D01*
X91500000Y-46650000D02*
X91500000Y-44749300D01*
X94000000Y-46650000D02*
X94000000Y-44749300D01*
D38*
X96420000Y-60420000D02*
X100000000Y-60420000D01*
X95000000Y-59000000D02*
X96420000Y-60420000D01*
X86500000Y-51000000D02*
X86500000Y-49350000D01*
X89000000Y-49350000D02*
X89000000Y-51000000D01*
X91500000Y-51000000D02*
X91500000Y-49350000D01*
X94000000Y-49350000D02*
X94000000Y-51000000D01*
D36*
X69730000Y-41270000D02*
X69730000Y-39770000D01*
X68800000Y-42200000D02*
X69730000Y-41270000D01*
X60500000Y-42200000D02*
X68800000Y-42200000D01*
X72270000Y-41030000D02*
X72270000Y-39770000D01*
X70400000Y-42900000D02*
X72270000Y-41030000D01*
X69800000Y-42900000D02*
X70400000Y-42900000D01*
X61200000Y-42900000D02*
X69800000Y-42900000D01*
X64500000Y-54000000D02*
X66000000Y-54000000D01*
X66000000Y-54000000D02*
X69250000Y-50750000D01*
X64800000Y-44600000D02*
X69500000Y-44600000D01*
X64500000Y-44300000D02*
X64800000Y-44600000D01*
X63100000Y-43700000D02*
X63200000Y-43600000D01*
X63200000Y-43600000D02*
X73500000Y-43600000D01*
X73500000Y-43600000D02*
X76100000Y-41000000D01*
X76100000Y-41000000D02*
X76100000Y-38480000D01*
X76100000Y-38480000D02*
X77350000Y-37230000D01*
D39*
G36*
X94070330Y-40859029D02*
X94556511Y-41183885D01*
X95130000Y-41297959D01*
X95703489Y-41183885D01*
X96189670Y-40859029D01*
X96373000Y-40584656D01*
X96373000Y-42000000D01*
X96383006Y-42049410D01*
X96411447Y-42091035D01*
X96453841Y-42118315D01*
X96500000Y-42127000D01*
X102815000Y-42127000D01*
X102815000Y-83873000D01*
X96884445Y-83873000D01*
X96884774Y-83496306D01*
X96636462Y-82895345D01*
X96291520Y-82549801D01*
X96520199Y-82321520D01*
X96862927Y-82664846D01*
X97463453Y-82914206D01*
X98113694Y-82914774D01*
X98714655Y-82666462D01*
X99060199Y-82321520D01*
X99402927Y-82664846D01*
X100003453Y-82914206D01*
X100653694Y-82914774D01*
X101254655Y-82666462D01*
X101714846Y-82207073D01*
X101964206Y-81606547D01*
X101964774Y-80956306D01*
X101716462Y-80355345D01*
X101371520Y-80009801D01*
X101714846Y-79667073D01*
X101964206Y-79066547D01*
X101964774Y-78416306D01*
X101716462Y-77815345D01*
X101371520Y-77469801D01*
X101714846Y-77127073D01*
X101964206Y-76526547D01*
X101964774Y-75876306D01*
X101716462Y-75275345D01*
X101371520Y-74929801D01*
X101714846Y-74587073D01*
X101964206Y-73986547D01*
X101964774Y-73336306D01*
X101716462Y-72735345D01*
X101371520Y-72389801D01*
X101714846Y-72047073D01*
X101964206Y-71446547D01*
X101964774Y-70796306D01*
X101716462Y-70195345D01*
X101257073Y-69735154D01*
X100656547Y-69485794D01*
X100006306Y-69485226D01*
X99405345Y-69733538D01*
X99059801Y-70078480D01*
X98717073Y-69735154D01*
X98116547Y-69485794D01*
X97466306Y-69485226D01*
X96865345Y-69733538D01*
X96519801Y-70078480D01*
X96177073Y-69735154D01*
X95576547Y-69485794D01*
X94926306Y-69485226D01*
X94325345Y-69733538D01*
X93979801Y-70078480D01*
X93637073Y-69735154D01*
X93036547Y-69485794D01*
X92386306Y-69485226D01*
X91785345Y-69733538D01*
X91439801Y-70078480D01*
X91097073Y-69735154D01*
X90496547Y-69485794D01*
X89846306Y-69485226D01*
X89245345Y-69733538D01*
X88899801Y-70078480D01*
X88557073Y-69735154D01*
X87956547Y-69485794D01*
X87306306Y-69485226D01*
X87057469Y-69588043D01*
X90335513Y-66310000D01*
X90512559Y-66310000D01*
X90813201Y-66434838D01*
X91185167Y-66435162D01*
X91528943Y-66293117D01*
X91792192Y-66030327D01*
X91934838Y-65686799D01*
X91935162Y-65314833D01*
X91793117Y-64971057D01*
X91530327Y-64707808D01*
X91186799Y-64565162D01*
X90814833Y-64564838D01*
X90511917Y-64690000D01*
X90000000Y-64690000D01*
X89690026Y-64751658D01*
X89619834Y-64798559D01*
X89427243Y-64927244D01*
X88810000Y-65544487D01*
X88810000Y-64335512D01*
X89335513Y-63810000D01*
X90512559Y-63810000D01*
X90813201Y-63934838D01*
X91185167Y-63935162D01*
X91528943Y-63793117D01*
X91792192Y-63530327D01*
X91934838Y-63186799D01*
X91935162Y-62814833D01*
X91793117Y-62471057D01*
X91530327Y-62207808D01*
X91186799Y-62065162D01*
X90814833Y-62064838D01*
X90511917Y-62190000D01*
X89000000Y-62190000D01*
X88690027Y-62251657D01*
X88427244Y-62427243D01*
X87427244Y-63427244D01*
X87251658Y-63690026D01*
X87190000Y-64000000D01*
X87190000Y-66164487D01*
X84814488Y-68540000D01*
X72286150Y-68540000D01*
X72253162Y-68364683D01*
X72114090Y-68148559D01*
X71901890Y-68003569D01*
X71888803Y-68000919D01*
X72101441Y-67864090D01*
X72246431Y-67651890D01*
X72297440Y-67400000D01*
X72297440Y-65900000D01*
X72253162Y-65664683D01*
X72114090Y-65448559D01*
X71901890Y-65303569D01*
X71885000Y-65300149D01*
X71885000Y-65061269D01*
X71995211Y-64899970D01*
X72046220Y-64648080D01*
X72046220Y-63850520D01*
X72001942Y-63615203D01*
X71935044Y-63511241D01*
X71937107Y-63509178D01*
X72033780Y-63275789D01*
X72033780Y-63036450D01*
X71875030Y-62877700D01*
X71127000Y-62877700D01*
X71127000Y-62897700D01*
X70873000Y-62897700D01*
X70873000Y-62877700D01*
X70124970Y-62877700D01*
X69966220Y-63036450D01*
X69966220Y-63275789D01*
X70062893Y-63509178D01*
X70064685Y-63510970D01*
X70004789Y-63598630D01*
X69953780Y-63850520D01*
X69953780Y-64648080D01*
X69998058Y-64883397D01*
X70115000Y-65065130D01*
X70115000Y-65296778D01*
X70114683Y-65296838D01*
X69898559Y-65435910D01*
X69753569Y-65648110D01*
X69750919Y-65661197D01*
X69614090Y-65448559D01*
X69401890Y-65303569D01*
X69385000Y-65300149D01*
X69385000Y-65061269D01*
X69495211Y-64899970D01*
X69546220Y-64648080D01*
X69546220Y-63850520D01*
X69501942Y-63615203D01*
X69435044Y-63511241D01*
X69437107Y-63509178D01*
X69533780Y-63275789D01*
X69533780Y-63036450D01*
X69375030Y-62877700D01*
X68627000Y-62877700D01*
X68627000Y-62897700D01*
X68373000Y-62897700D01*
X68373000Y-62877700D01*
X67624970Y-62877700D01*
X67466220Y-63036450D01*
X67466220Y-63275789D01*
X67562893Y-63509178D01*
X67564685Y-63510970D01*
X67504789Y-63598630D01*
X67453780Y-63850520D01*
X67453780Y-64648080D01*
X67498058Y-64883397D01*
X67615000Y-65065130D01*
X67615000Y-65296778D01*
X67614683Y-65296838D01*
X67398559Y-65435910D01*
X67253569Y-65648110D01*
X67202560Y-65900000D01*
X67202560Y-67400000D01*
X67246838Y-67635317D01*
X67385910Y-67851441D01*
X67598110Y-67996431D01*
X67611197Y-67999081D01*
X67398559Y-68135910D01*
X67253569Y-68348110D01*
X67202560Y-68600000D01*
X67202560Y-70100000D01*
X67246838Y-70335317D01*
X67353759Y-70501477D01*
X67253569Y-70648110D01*
X67202560Y-70900000D01*
X67202560Y-72400000D01*
X67246838Y-72635317D01*
X67385910Y-72851441D01*
X67598110Y-72996431D01*
X67611197Y-72999081D01*
X67398559Y-73135910D01*
X67253569Y-73348110D01*
X67242859Y-73401000D01*
X66127000Y-73401000D01*
X66127000Y-62225611D01*
X67466220Y-62225611D01*
X67466220Y-62464950D01*
X67624970Y-62623700D01*
X68373000Y-62623700D01*
X68373000Y-61875670D01*
X68627000Y-61875670D01*
X68627000Y-62623700D01*
X69375030Y-62623700D01*
X69533780Y-62464950D01*
X69533780Y-62225611D01*
X69966220Y-62225611D01*
X69966220Y-62464950D01*
X70124970Y-62623700D01*
X70873000Y-62623700D01*
X70873000Y-61875670D01*
X71127000Y-61875670D01*
X71127000Y-62623700D01*
X71875030Y-62623700D01*
X72033780Y-62464950D01*
X72033780Y-62225611D01*
X71937107Y-61992222D01*
X71758479Y-61813593D01*
X71525090Y-61716920D01*
X71285750Y-61716920D01*
X71127000Y-61875670D01*
X70873000Y-61875670D01*
X70714250Y-61716920D01*
X70474910Y-61716920D01*
X70241521Y-61813593D01*
X70062893Y-61992222D01*
X69966220Y-62225611D01*
X69533780Y-62225611D01*
X69437107Y-61992222D01*
X69258479Y-61813593D01*
X69025090Y-61716920D01*
X68785750Y-61716920D01*
X68627000Y-61875670D01*
X68373000Y-61875670D01*
X68214250Y-61716920D01*
X67974910Y-61716920D01*
X67741521Y-61813593D01*
X67562893Y-61992222D01*
X67466220Y-62225611D01*
X66127000Y-62225611D01*
X66127000Y-57500000D01*
X66117666Y-57452211D01*
X66089803Y-57410197D01*
X65089803Y-56410197D01*
X65049410Y-56383006D01*
X65000000Y-56373000D01*
X55500000Y-56373000D01*
X55453841Y-56381685D01*
X55411447Y-56408965D01*
X55383006Y-56450590D01*
X55373000Y-56500000D01*
X55373000Y-67947394D01*
X49410197Y-73910197D01*
X49383006Y-73950590D01*
X49373000Y-74000000D01*
X49373000Y-76349975D01*
X49359698Y-76336673D01*
X49126309Y-76240000D01*
X48785750Y-76240000D01*
X48627000Y-76398750D01*
X48627000Y-77373000D01*
X48647000Y-77373000D01*
X48647000Y-77627000D01*
X48627000Y-77627000D01*
X48627000Y-78601250D01*
X48785750Y-78760000D01*
X49126309Y-78760000D01*
X49359698Y-78663327D01*
X49373000Y-78650025D01*
X49373000Y-81349975D01*
X49359698Y-81336673D01*
X49126309Y-81240000D01*
X48785750Y-81240000D01*
X48627000Y-81398750D01*
X48627000Y-82373000D01*
X48647000Y-82373000D01*
X48647000Y-82627000D01*
X48627000Y-82627000D01*
X48627000Y-83601250D01*
X48785750Y-83760000D01*
X49126309Y-83760000D01*
X49359698Y-83663327D01*
X49373000Y-83650025D01*
X49373000Y-88000000D01*
X49382334Y-88047789D01*
X49410197Y-88089803D01*
X50410197Y-89089803D01*
X50450590Y-89116994D01*
X50500000Y-89127000D01*
X80500000Y-89127000D01*
X80547789Y-89117666D01*
X80589803Y-89089803D01*
X81980143Y-87699463D01*
X82006563Y-87763248D01*
X82223336Y-88087672D01*
X82412328Y-88276664D01*
X82736751Y-88493437D01*
X82839032Y-88535803D01*
X82983681Y-88595718D01*
X83366364Y-88671838D01*
X83633636Y-88671838D01*
X84016319Y-88595718D01*
X84263248Y-88493437D01*
X84263249Y-88493436D01*
X84587672Y-88276664D01*
X84776664Y-88087672D01*
X84993437Y-87763249D01*
X85035803Y-87660968D01*
X85095718Y-87516319D01*
X85171838Y-87133636D01*
X85171838Y-87066170D01*
X85185000Y-87000000D01*
X85185000Y-72000000D01*
X85171838Y-71933830D01*
X85171838Y-71866364D01*
X85095718Y-71483681D01*
X85025848Y-71315000D01*
X84993437Y-71236751D01*
X84776664Y-70912328D01*
X84674336Y-70810000D01*
X85500000Y-70810000D01*
X85809974Y-70748342D01*
X86072756Y-70572756D01*
X86097859Y-70547653D01*
X85995794Y-70793453D01*
X85995226Y-71443694D01*
X86243538Y-72044655D01*
X86588480Y-72390199D01*
X86245154Y-72732927D01*
X85995794Y-73333453D01*
X85995226Y-73983694D01*
X86243538Y-74584655D01*
X86588480Y-74930199D01*
X86245154Y-75272927D01*
X85995794Y-75873453D01*
X85995226Y-76523694D01*
X86243538Y-77124655D01*
X86588480Y-77470199D01*
X86245154Y-77812927D01*
X85995794Y-78413453D01*
X85995226Y-79063694D01*
X86243538Y-79664655D01*
X86588480Y-80010199D01*
X86245154Y-80352927D01*
X85995794Y-80953453D01*
X85995226Y-81603694D01*
X86243538Y-82204655D01*
X86588480Y-82550199D01*
X86245154Y-82892927D01*
X85995794Y-83493453D01*
X85995226Y-84143694D01*
X86243538Y-84744655D01*
X86588480Y-85090199D01*
X86245154Y-85432927D01*
X85995794Y-86033453D01*
X85995226Y-86683694D01*
X86243538Y-87284655D01*
X86588480Y-87630199D01*
X86245154Y-87972927D01*
X85995794Y-88573453D01*
X85995226Y-89223694D01*
X86243538Y-89824655D01*
X86702927Y-90284846D01*
X86775546Y-90315000D01*
X45627000Y-90315000D01*
X45627000Y-84000000D01*
X45616994Y-83950590D01*
X45588553Y-83908965D01*
X45546159Y-83881685D01*
X45500000Y-83873000D01*
X39185000Y-83873000D01*
X39185000Y-82785750D01*
X47365000Y-82785750D01*
X47365000Y-83251310D01*
X47461673Y-83484699D01*
X47640302Y-83663327D01*
X47873691Y-83760000D01*
X48214250Y-83760000D01*
X48373000Y-83601250D01*
X48373000Y-82627000D01*
X47523750Y-82627000D01*
X47365000Y-82785750D01*
X39185000Y-82785750D01*
X39185000Y-81748690D01*
X47365000Y-81748690D01*
X47365000Y-82214250D01*
X47523750Y-82373000D01*
X48373000Y-82373000D01*
X48373000Y-81398750D01*
X48214250Y-81240000D01*
X47873691Y-81240000D01*
X47640302Y-81336673D01*
X47461673Y-81515301D01*
X47365000Y-81748690D01*
X39185000Y-81748690D01*
X39185000Y-74920000D01*
X39816655Y-74920000D01*
X39930729Y-75493489D01*
X40255585Y-75979670D01*
X40570366Y-76190000D01*
X40255585Y-76400330D01*
X39930729Y-76886511D01*
X39816655Y-77460000D01*
X39930729Y-78033489D01*
X40255585Y-78519670D01*
X40269913Y-78529243D01*
X40248683Y-78533238D01*
X40032559Y-78672310D01*
X39887569Y-78884510D01*
X39836560Y-79136400D01*
X39836560Y-80863600D01*
X39880838Y-81098917D01*
X40019910Y-81315041D01*
X40232110Y-81460031D01*
X40484000Y-81511040D01*
X42516000Y-81511040D01*
X42751317Y-81466762D01*
X42967441Y-81327690D01*
X43112431Y-81115490D01*
X43163440Y-80863600D01*
X43163440Y-79136400D01*
X43119162Y-78901083D01*
X42980090Y-78684959D01*
X42767890Y-78539969D01*
X42726561Y-78531600D01*
X42744415Y-78519670D01*
X43069271Y-78033489D01*
X43183345Y-77460000D01*
X43816655Y-77460000D01*
X43942330Y-78091810D01*
X44169499Y-78431792D01*
X44032559Y-78519910D01*
X43887569Y-78732110D01*
X43836560Y-78984000D01*
X43836560Y-81016000D01*
X43880838Y-81251317D01*
X44019910Y-81467441D01*
X44232110Y-81612431D01*
X44484000Y-81663440D01*
X46516000Y-81663440D01*
X46751317Y-81619162D01*
X46967441Y-81480090D01*
X47112431Y-81267890D01*
X47163440Y-81016000D01*
X47163440Y-78984000D01*
X47119162Y-78748683D01*
X46980090Y-78532559D01*
X46831163Y-78430802D01*
X47057670Y-78091810D01*
X47118549Y-77785750D01*
X47365000Y-77785750D01*
X47365000Y-78251310D01*
X47461673Y-78484699D01*
X47640302Y-78663327D01*
X47873691Y-78760000D01*
X48214250Y-78760000D01*
X48373000Y-78601250D01*
X48373000Y-77627000D01*
X47523750Y-77627000D01*
X47365000Y-77785750D01*
X47118549Y-77785750D01*
X47183345Y-77460000D01*
X47057670Y-76828190D01*
X47004550Y-76748690D01*
X47365000Y-76748690D01*
X47365000Y-77214250D01*
X47523750Y-77373000D01*
X48373000Y-77373000D01*
X48373000Y-76398750D01*
X48214250Y-76240000D01*
X47873691Y-76240000D01*
X47640302Y-76336673D01*
X47461673Y-76515301D01*
X47365000Y-76748690D01*
X47004550Y-76748690D01*
X46699778Y-76292567D01*
X46164155Y-75934675D01*
X45532345Y-75809000D01*
X45467655Y-75809000D01*
X44835845Y-75934675D01*
X44300222Y-76292567D01*
X43942330Y-76828190D01*
X43816655Y-77460000D01*
X43183345Y-77460000D01*
X43069271Y-76886511D01*
X42744415Y-76400330D01*
X42429634Y-76190000D01*
X42744415Y-75979670D01*
X43069271Y-75493489D01*
X43183345Y-74920000D01*
X43069271Y-74346511D01*
X42744415Y-73860330D01*
X42258234Y-73535474D01*
X41684745Y-73421400D01*
X41315255Y-73421400D01*
X40741766Y-73535474D01*
X40255585Y-73860330D01*
X39930729Y-74346511D01*
X39816655Y-74920000D01*
X39185000Y-74920000D01*
X39185000Y-72567466D01*
X39221376Y-72384591D01*
X39286751Y-72286750D01*
X39384590Y-72221376D01*
X39567466Y-72185000D01*
X42500000Y-72185000D01*
X42566170Y-72171838D01*
X42633636Y-72171838D01*
X42859053Y-72127000D01*
X44000000Y-72127000D01*
X44049410Y-72116994D01*
X44091035Y-72088553D01*
X44118315Y-72046159D01*
X44127000Y-72000000D01*
X44127000Y-70859053D01*
X44171838Y-70633636D01*
X44171838Y-70566170D01*
X44185000Y-70500000D01*
X44185000Y-55500000D01*
X44171838Y-55433830D01*
X44171838Y-55366364D01*
X44127000Y-55140947D01*
X44127000Y-54368132D01*
X44409434Y-54650566D01*
X44777654Y-54896603D01*
X45212000Y-54983000D01*
X45452128Y-54983000D01*
X45438560Y-55050000D01*
X45438560Y-56550000D01*
X45482838Y-56785317D01*
X45621910Y-57001441D01*
X45834110Y-57146431D01*
X45847197Y-57149081D01*
X45634559Y-57285910D01*
X45489569Y-57498110D01*
X45438560Y-57750000D01*
X45438560Y-59250000D01*
X45482838Y-59485317D01*
X45621910Y-59701441D01*
X45834110Y-59846431D01*
X46086000Y-59897440D01*
X47386000Y-59897440D01*
X47621317Y-59853162D01*
X47837441Y-59714090D01*
X47982431Y-59501890D01*
X48006102Y-59385000D01*
X48588569Y-59385000D01*
X48615000Y-59390352D01*
X48615000Y-59609146D01*
X48414683Y-59646838D01*
X48198559Y-59785910D01*
X48053569Y-59998110D01*
X48002560Y-60250000D01*
X48002560Y-61250000D01*
X48046838Y-61485317D01*
X48185910Y-61701441D01*
X48398110Y-61846431D01*
X48615000Y-61890352D01*
X48615000Y-62109146D01*
X48414683Y-62146838D01*
X48198559Y-62285910D01*
X48053569Y-62498110D01*
X48002560Y-62750000D01*
X48002560Y-63750000D01*
X48046838Y-63985317D01*
X48185910Y-64201441D01*
X48398110Y-64346431D01*
X48615000Y-64390352D01*
X48615000Y-64609146D01*
X48414683Y-64646838D01*
X48198559Y-64785910D01*
X48053569Y-64998110D01*
X48002560Y-65250000D01*
X48002560Y-66250000D01*
X48046838Y-66485317D01*
X48185910Y-66701441D01*
X48398110Y-66846431D01*
X48650000Y-66897440D01*
X50850000Y-66897440D01*
X51085317Y-66853162D01*
X51301441Y-66714090D01*
X51446431Y-66501890D01*
X51497440Y-66250000D01*
X51497440Y-65250000D01*
X51453162Y-65014683D01*
X51314090Y-64798559D01*
X51101890Y-64653569D01*
X50885000Y-64609648D01*
X50885000Y-64390854D01*
X51085317Y-64353162D01*
X51301441Y-64214090D01*
X51446431Y-64001890D01*
X51497440Y-63750000D01*
X51497440Y-62750000D01*
X51453162Y-62514683D01*
X51314090Y-62298559D01*
X51101890Y-62153569D01*
X50885000Y-62109648D01*
X50885000Y-61890854D01*
X51085317Y-61853162D01*
X51301441Y-61714090D01*
X51446431Y-61501890D01*
X51497440Y-61250000D01*
X51497440Y-60250000D01*
X51453162Y-60014683D01*
X51314090Y-59798559D01*
X51101890Y-59653569D01*
X50885000Y-59609648D01*
X50885000Y-59390854D01*
X51085317Y-59353162D01*
X51301441Y-59214090D01*
X51435467Y-59017936D01*
X51533974Y-58998342D01*
X51796756Y-58822756D01*
X52388756Y-58230757D01*
X52499619Y-58064838D01*
X52564342Y-57967974D01*
X52626000Y-57658000D01*
X52626000Y-57567836D01*
X52740655Y-57520462D01*
X53200846Y-57061073D01*
X53450206Y-56460547D01*
X53450774Y-55810306D01*
X53202462Y-55209345D01*
X52743073Y-54749154D01*
X52142547Y-54499794D01*
X51492306Y-54499226D01*
X50891345Y-54747538D01*
X50545801Y-55092480D01*
X50203073Y-54749154D01*
X50035288Y-54679484D01*
X50078566Y-54650566D01*
X50149351Y-54579781D01*
X50670000Y-54683345D01*
X51243489Y-54569271D01*
X51729670Y-54244415D01*
X51936461Y-53934931D01*
X52307964Y-54350732D01*
X52835209Y-54604709D01*
X52850974Y-54607358D01*
X53083000Y-54486217D01*
X53083000Y-53127000D01*
X53063000Y-53127000D01*
X53063000Y-52873000D01*
X53083000Y-52873000D01*
X53083000Y-51513783D01*
X53337000Y-51513783D01*
X53337000Y-52873000D01*
X53357000Y-52873000D01*
X53357000Y-53127000D01*
X53337000Y-53127000D01*
X53337000Y-54486217D01*
X53569026Y-54607358D01*
X53584791Y-54604709D01*
X54112036Y-54350732D01*
X54268907Y-54175155D01*
X54283238Y-54251317D01*
X54422310Y-54467441D01*
X54634510Y-54612431D01*
X54886400Y-54663440D01*
X56613600Y-54663440D01*
X56848917Y-54619162D01*
X57065041Y-54480090D01*
X57210031Y-54267890D01*
X57261040Y-54016000D01*
X57261040Y-53815255D01*
X57921400Y-53815255D01*
X57921400Y-54184745D01*
X58035474Y-54758234D01*
X58360330Y-55244415D01*
X58846511Y-55569271D01*
X59420000Y-55683345D01*
X59993489Y-55569271D01*
X60479670Y-55244415D01*
X60690000Y-54929634D01*
X60900330Y-55244415D01*
X61386511Y-55569271D01*
X61960000Y-55683345D01*
X62533489Y-55569271D01*
X63019670Y-55244415D01*
X63029243Y-55230087D01*
X63033238Y-55251317D01*
X63172310Y-55467441D01*
X63384510Y-55612431D01*
X63636400Y-55663440D01*
X65363600Y-55663440D01*
X65598917Y-55619162D01*
X65815041Y-55480090D01*
X65960031Y-55267890D01*
X66011040Y-55016000D01*
X66011040Y-54807804D01*
X66309974Y-54748342D01*
X66572756Y-54572756D01*
X69478084Y-51667429D01*
X69778943Y-51543117D01*
X70042192Y-51280327D01*
X70184838Y-50936799D01*
X70185162Y-50564833D01*
X70043117Y-50221057D01*
X69780327Y-49957808D01*
X69436799Y-49815162D01*
X69064833Y-49814838D01*
X68721057Y-49956883D01*
X68457808Y-50219673D01*
X68332116Y-50522371D01*
X65988781Y-52865706D01*
X65966762Y-52748683D01*
X65827690Y-52532559D01*
X65615490Y-52387569D01*
X65363600Y-52336560D01*
X63636400Y-52336560D01*
X63401083Y-52380838D01*
X63184959Y-52519910D01*
X63039969Y-52732110D01*
X63031600Y-52773439D01*
X63019670Y-52755585D01*
X62533489Y-52430729D01*
X61960000Y-52316655D01*
X61386511Y-52430729D01*
X60900330Y-52755585D01*
X60690000Y-53070366D01*
X60479670Y-52755585D01*
X59993489Y-52430729D01*
X59420000Y-52316655D01*
X58846511Y-52430729D01*
X58360330Y-52755585D01*
X58035474Y-53241766D01*
X57921400Y-53815255D01*
X57261040Y-53815255D01*
X57261040Y-51984000D01*
X57216762Y-51748683D01*
X57077690Y-51532559D01*
X56865490Y-51387569D01*
X56613600Y-51336560D01*
X54886400Y-51336560D01*
X54651083Y-51380838D01*
X54434959Y-51519910D01*
X54289969Y-51732110D01*
X54270768Y-51826927D01*
X54112036Y-51649268D01*
X53584791Y-51395291D01*
X53569026Y-51392642D01*
X53337000Y-51513783D01*
X53083000Y-51513783D01*
X52850974Y-51392642D01*
X52835209Y-51395291D01*
X52307964Y-51649268D01*
X51936461Y-52065069D01*
X51729670Y-51755585D01*
X51243489Y-51430729D01*
X50670000Y-51316655D01*
X50096511Y-51430729D01*
X49610330Y-51755585D01*
X49302332Y-52216536D01*
X48875000Y-52643868D01*
X48875000Y-52197000D01*
X48788603Y-51762654D01*
X48771440Y-51736968D01*
X48743162Y-51586683D01*
X48604090Y-51370559D01*
X48391890Y-51225569D01*
X48245465Y-51195917D01*
X48174346Y-51148397D01*
X47740000Y-51062000D01*
X47305654Y-51148397D01*
X47237686Y-51193812D01*
X47104683Y-51218838D01*
X47001354Y-51285329D01*
X46999698Y-51283673D01*
X46766309Y-51187000D01*
X46525750Y-51187000D01*
X46367000Y-51345750D01*
X46367000Y-52070000D01*
X46387000Y-52070000D01*
X46387000Y-52324000D01*
X46367000Y-52324000D01*
X46367000Y-52344000D01*
X46113000Y-52344000D01*
X46113000Y-52324000D01*
X45363750Y-52324000D01*
X45328441Y-52359309D01*
X44664822Y-51695690D01*
X45205000Y-51695690D01*
X45205000Y-51911250D01*
X45363750Y-52070000D01*
X46113000Y-52070000D01*
X46113000Y-51345750D01*
X45954250Y-51187000D01*
X45713691Y-51187000D01*
X45480302Y-51283673D01*
X45301673Y-51462301D01*
X45205000Y-51695690D01*
X44664822Y-51695690D01*
X42884180Y-49915048D01*
X42884180Y-49485390D01*
X52064900Y-49485390D01*
X52064900Y-50825819D01*
X52161573Y-51059208D01*
X52340201Y-51237837D01*
X52573590Y-51334510D01*
X53214250Y-51334510D01*
X53373000Y-51175760D01*
X53373000Y-49326640D01*
X53627000Y-49326640D01*
X53627000Y-51175760D01*
X53785750Y-51334510D01*
X54426410Y-51334510D01*
X54659799Y-51237837D01*
X54838427Y-51059208D01*
X54935100Y-50825819D01*
X54935100Y-49967655D01*
X60309000Y-49967655D01*
X60309000Y-50032345D01*
X60434675Y-50664155D01*
X60792567Y-51199778D01*
X61328190Y-51557670D01*
X61960000Y-51683345D01*
X62591810Y-51557670D01*
X62931792Y-51330501D01*
X63019910Y-51467441D01*
X63232110Y-51612431D01*
X63484000Y-51663440D01*
X65516000Y-51663440D01*
X65751317Y-51619162D01*
X65967441Y-51480090D01*
X66112431Y-51267890D01*
X66163440Y-51016000D01*
X66163440Y-48984000D01*
X66119162Y-48748683D01*
X65980090Y-48532559D01*
X65767890Y-48387569D01*
X65516000Y-48336560D01*
X63484000Y-48336560D01*
X63248683Y-48380838D01*
X63032559Y-48519910D01*
X62930802Y-48668837D01*
X62591810Y-48442330D01*
X61960000Y-48316655D01*
X61328190Y-48442330D01*
X60792567Y-48800222D01*
X60434675Y-49335845D01*
X60309000Y-49967655D01*
X54935100Y-49967655D01*
X54935100Y-49485390D01*
X54776350Y-49326640D01*
X53627000Y-49326640D01*
X53373000Y-49326640D01*
X52223650Y-49326640D01*
X52064900Y-49485390D01*
X42884180Y-49485390D01*
X42884180Y-48947540D01*
X43548770Y-48947540D01*
X43784087Y-48903262D01*
X44000211Y-48764190D01*
X44145201Y-48551990D01*
X44196210Y-48300100D01*
X44196210Y-47785750D01*
X44816230Y-47785750D01*
X44816230Y-48426410D01*
X44912903Y-48659799D01*
X45091532Y-48838427D01*
X45324921Y-48935100D01*
X46965070Y-48935100D01*
X47123820Y-48776350D01*
X47123820Y-47627000D01*
X47377820Y-47627000D01*
X47377820Y-48776350D01*
X47536570Y-48935100D01*
X49176719Y-48935100D01*
X49410108Y-48838427D01*
X49588737Y-48659799D01*
X49685410Y-48426410D01*
X49685410Y-47785750D01*
X49526660Y-47627000D01*
X47377820Y-47627000D01*
X47123820Y-47627000D01*
X44974980Y-47627000D01*
X44816230Y-47785750D01*
X44196210Y-47785750D01*
X44196210Y-47573461D01*
X52064900Y-47573461D01*
X52064900Y-48913890D01*
X52223650Y-49072640D01*
X53373000Y-49072640D01*
X53373000Y-47223520D01*
X53627000Y-47223520D01*
X53627000Y-49072640D01*
X54776350Y-49072640D01*
X54935100Y-48913890D01*
X54935100Y-48285750D01*
X57240000Y-48285750D01*
X57240000Y-48626309D01*
X57336673Y-48859698D01*
X57515301Y-49038327D01*
X57748690Y-49135000D01*
X58214250Y-49135000D01*
X58373000Y-48976250D01*
X58373000Y-48127000D01*
X58627000Y-48127000D01*
X58627000Y-48976250D01*
X58785750Y-49135000D01*
X59251310Y-49135000D01*
X59484699Y-49038327D01*
X59663327Y-48859698D01*
X59760000Y-48626309D01*
X59760000Y-48285750D01*
X59601250Y-48127000D01*
X58627000Y-48127000D01*
X58373000Y-48127000D01*
X57398750Y-48127000D01*
X57240000Y-48285750D01*
X54935100Y-48285750D01*
X54935100Y-47573461D01*
X54838427Y-47340072D01*
X54659799Y-47161443D01*
X54426410Y-47064770D01*
X53785750Y-47064770D01*
X53627000Y-47223520D01*
X53373000Y-47223520D01*
X53214250Y-47064770D01*
X52573590Y-47064770D01*
X52340201Y-47161443D01*
X52161573Y-47340072D01*
X52064900Y-47573461D01*
X44196210Y-47573461D01*
X44196210Y-46699900D01*
X44172444Y-46573590D01*
X44816230Y-46573590D01*
X44816230Y-47214250D01*
X44974980Y-47373000D01*
X47123820Y-47373000D01*
X47123820Y-46223650D01*
X47377820Y-46223650D01*
X47377820Y-47373000D01*
X49526660Y-47373000D01*
X49685410Y-47214250D01*
X49685410Y-46573590D01*
X49588737Y-46340201D01*
X49410108Y-46161573D01*
X49176719Y-46064900D01*
X47536570Y-46064900D01*
X47377820Y-46223650D01*
X47123820Y-46223650D01*
X46965070Y-46064900D01*
X45324921Y-46064900D01*
X45091532Y-46161573D01*
X44912903Y-46340201D01*
X44816230Y-46573590D01*
X44172444Y-46573590D01*
X44151932Y-46464583D01*
X44012860Y-46248459D01*
X43800660Y-46103469D01*
X43548770Y-46052460D01*
X43135000Y-46052460D01*
X43135000Y-45970132D01*
X44302566Y-44802566D01*
X44548603Y-44434346D01*
X44606052Y-44145528D01*
X46073224Y-42678356D01*
X48997794Y-45602926D01*
X49366014Y-45848963D01*
X49800360Y-45935360D01*
X52052460Y-45935360D01*
X52052460Y-46300230D01*
X52096738Y-46535547D01*
X52235810Y-46751671D01*
X52448010Y-46896661D01*
X52699900Y-46947670D01*
X54300100Y-46947670D01*
X54535417Y-46903392D01*
X54751541Y-46764320D01*
X54896531Y-46552120D01*
X54947540Y-46300230D01*
X54947540Y-45935360D01*
X56830228Y-45935360D01*
X57227560Y-46332692D01*
X57227560Y-46500000D01*
X57271838Y-46735317D01*
X57410910Y-46951441D01*
X57479006Y-46997969D01*
X57336673Y-47140302D01*
X57240000Y-47373691D01*
X57240000Y-47714250D01*
X57398750Y-47873000D01*
X58373000Y-47873000D01*
X58373000Y-47853000D01*
X58627000Y-47853000D01*
X58627000Y-47873000D01*
X59601250Y-47873000D01*
X59760000Y-47714250D01*
X59760000Y-47373691D01*
X59663327Y-47140302D01*
X59658025Y-47135000D01*
X68529868Y-47135000D01*
X69197434Y-47802567D01*
X69565655Y-48048604D01*
X70000000Y-48135000D01*
X70434346Y-48048604D01*
X70802567Y-47802567D01*
X71048604Y-47434346D01*
X71135000Y-47000000D01*
X71135000Y-46470132D01*
X71470133Y-46135000D01*
X81029868Y-46135000D01*
X81563538Y-46668671D01*
X81471057Y-46706883D01*
X81207808Y-46969673D01*
X81065162Y-47313201D01*
X81064838Y-47685167D01*
X81115000Y-47806569D01*
X81115000Y-51633421D01*
X80091164Y-52657256D01*
X79971057Y-52706883D01*
X79707808Y-52969673D01*
X79565162Y-53313201D01*
X79564838Y-53685167D01*
X79615000Y-53806569D01*
X79615000Y-67193178D01*
X79565162Y-67313201D01*
X79564838Y-67685167D01*
X79706883Y-68028943D01*
X79969673Y-68292192D01*
X80313201Y-68434838D01*
X80685167Y-68435162D01*
X81028943Y-68293117D01*
X81292192Y-68030327D01*
X81434838Y-67686799D01*
X81435162Y-67314833D01*
X81385000Y-67193431D01*
X81385000Y-59185167D01*
X94064838Y-59185167D01*
X94206883Y-59528943D01*
X94469673Y-59792192D01*
X94813201Y-59934838D01*
X94860077Y-59934879D01*
X95882599Y-60957401D01*
X96129160Y-61122148D01*
X96420000Y-61180000D01*
X98555352Y-61180000D01*
X98755585Y-61479670D01*
X99070366Y-61690000D01*
X98755585Y-61900330D01*
X98430729Y-62386511D01*
X98316655Y-62960000D01*
X98430729Y-63533489D01*
X98755585Y-64019670D01*
X98769913Y-64029243D01*
X98748683Y-64033238D01*
X98532559Y-64172310D01*
X98387569Y-64384510D01*
X98336560Y-64636400D01*
X98336560Y-66363600D01*
X98380838Y-66598917D01*
X98519910Y-66815041D01*
X98732110Y-66960031D01*
X98984000Y-67011040D01*
X101016000Y-67011040D01*
X101251317Y-66966762D01*
X101467441Y-66827690D01*
X101612431Y-66615490D01*
X101663440Y-66363600D01*
X101663440Y-64636400D01*
X101619162Y-64401083D01*
X101480090Y-64184959D01*
X101267890Y-64039969D01*
X101226561Y-64031600D01*
X101244415Y-64019670D01*
X101569271Y-63533489D01*
X101683345Y-62960000D01*
X101569271Y-62386511D01*
X101244415Y-61900330D01*
X100929634Y-61690000D01*
X101244415Y-61479670D01*
X101569271Y-60993489D01*
X101683345Y-60420000D01*
X101569271Y-59846511D01*
X101244415Y-59360330D01*
X100758234Y-59035474D01*
X100184745Y-58921400D01*
X99815255Y-58921400D01*
X99241766Y-59035474D01*
X98755585Y-59360330D01*
X98555352Y-59660000D01*
X96734802Y-59660000D01*
X95935122Y-58860320D01*
X95935162Y-58814833D01*
X95793117Y-58471057D01*
X95530327Y-58207808D01*
X95186799Y-58065162D01*
X94814833Y-58064838D01*
X94471057Y-58206883D01*
X94207808Y-58469673D01*
X94065162Y-58813201D01*
X94064838Y-59185167D01*
X81385000Y-59185167D01*
X81385000Y-53866580D01*
X82625787Y-52625792D01*
X82625790Y-52625790D01*
X82736566Y-52460000D01*
X98316655Y-52460000D01*
X98442330Y-53091810D01*
X98669499Y-53431792D01*
X98532559Y-53519910D01*
X98387569Y-53732110D01*
X98336560Y-53984000D01*
X98336560Y-56016000D01*
X98380838Y-56251317D01*
X98519910Y-56467441D01*
X98732110Y-56612431D01*
X98984000Y-56663440D01*
X101016000Y-56663440D01*
X101251317Y-56619162D01*
X101467441Y-56480090D01*
X101612431Y-56267890D01*
X101663440Y-56016000D01*
X101663440Y-53984000D01*
X101619162Y-53748683D01*
X101480090Y-53532559D01*
X101331163Y-53430802D01*
X101557670Y-53091810D01*
X101683345Y-52460000D01*
X101557670Y-51828190D01*
X101199778Y-51292567D01*
X100664155Y-50934675D01*
X100032345Y-50809000D01*
X99967655Y-50809000D01*
X99335845Y-50934675D01*
X98800222Y-51292567D01*
X98442330Y-51828190D01*
X98316655Y-52460000D01*
X82736566Y-52460000D01*
X82817633Y-52338675D01*
X82885000Y-52000000D01*
X82885000Y-47806822D01*
X82934838Y-47686799D01*
X82935162Y-47314833D01*
X82833451Y-47068673D01*
X82934346Y-47048604D01*
X83302567Y-46802567D01*
X83548604Y-46434346D01*
X83635000Y-46000000D01*
X83615109Y-45900000D01*
X85202560Y-45900000D01*
X85202560Y-47400000D01*
X85246838Y-47635317D01*
X85385910Y-47851441D01*
X85598110Y-47996431D01*
X85611197Y-47999081D01*
X85398559Y-48135910D01*
X85253569Y-48348110D01*
X85202560Y-48600000D01*
X85202560Y-50100000D01*
X85246838Y-50335317D01*
X85385910Y-50551441D01*
X85598110Y-50696431D01*
X85612444Y-50699334D01*
X85565162Y-50813201D01*
X85564838Y-51185167D01*
X85706883Y-51528943D01*
X85969673Y-51792192D01*
X86313201Y-51934838D01*
X86685167Y-51935162D01*
X87028943Y-51793117D01*
X87292192Y-51530327D01*
X87434838Y-51186799D01*
X87435162Y-50814833D01*
X87388243Y-50701279D01*
X87601441Y-50564090D01*
X87746431Y-50351890D01*
X87749081Y-50338803D01*
X87885910Y-50551441D01*
X88098110Y-50696431D01*
X88112444Y-50699334D01*
X88065162Y-50813201D01*
X88064838Y-51185167D01*
X88206883Y-51528943D01*
X88469673Y-51792192D01*
X88813201Y-51934838D01*
X89185167Y-51935162D01*
X89528943Y-51793117D01*
X89792192Y-51530327D01*
X89934838Y-51186799D01*
X89935162Y-50814833D01*
X89888243Y-50701279D01*
X90101441Y-50564090D01*
X90246431Y-50351890D01*
X90249081Y-50338803D01*
X90385910Y-50551441D01*
X90598110Y-50696431D01*
X90612444Y-50699334D01*
X90565162Y-50813201D01*
X90564838Y-51185167D01*
X90706883Y-51528943D01*
X90969673Y-51792192D01*
X91313201Y-51934838D01*
X91685167Y-51935162D01*
X92028943Y-51793117D01*
X92292192Y-51530327D01*
X92434838Y-51186799D01*
X92435162Y-50814833D01*
X92388243Y-50701279D01*
X92601441Y-50564090D01*
X92746431Y-50351890D01*
X92749081Y-50338803D01*
X92885910Y-50551441D01*
X93098110Y-50696431D01*
X93112444Y-50699334D01*
X93065162Y-50813201D01*
X93064838Y-51185167D01*
X93206883Y-51528943D01*
X93469673Y-51792192D01*
X93813201Y-51934838D01*
X94185167Y-51935162D01*
X94528943Y-51793117D01*
X94792192Y-51530327D01*
X94934838Y-51186799D01*
X94935162Y-50814833D01*
X94888243Y-50701279D01*
X95101441Y-50564090D01*
X95246431Y-50351890D01*
X95297440Y-50100000D01*
X95297440Y-48600000D01*
X95253162Y-48364683D01*
X95114090Y-48148559D01*
X94901890Y-48003569D01*
X94888803Y-48000919D01*
X95101441Y-47864090D01*
X95246431Y-47651890D01*
X95269089Y-47540000D01*
X98316655Y-47540000D01*
X98442330Y-48171810D01*
X98800222Y-48707433D01*
X99335845Y-49065325D01*
X99967655Y-49191000D01*
X100032345Y-49191000D01*
X100664155Y-49065325D01*
X101199778Y-48707433D01*
X101557670Y-48171810D01*
X101683345Y-47540000D01*
X101557670Y-46908190D01*
X101333034Y-46571999D01*
X101375698Y-46554327D01*
X101554327Y-46375699D01*
X101651000Y-46142310D01*
X101651000Y-45285750D01*
X101492250Y-45127000D01*
X100127000Y-45127000D01*
X100127000Y-45147000D01*
X99873000Y-45147000D01*
X99873000Y-45127000D01*
X98507750Y-45127000D01*
X98349000Y-45285750D01*
X98349000Y-46142310D01*
X98445673Y-46375699D01*
X98624302Y-46554327D01*
X98666966Y-46571999D01*
X98442330Y-46908190D01*
X98316655Y-47540000D01*
X95269089Y-47540000D01*
X95297440Y-47400000D01*
X95297440Y-45900000D01*
X95253162Y-45664683D01*
X95114090Y-45448559D01*
X95001017Y-45371300D01*
X95046220Y-45148080D01*
X95046220Y-44350520D01*
X95001942Y-44115203D01*
X94935044Y-44011241D01*
X94937107Y-44009178D01*
X94999855Y-43857690D01*
X98349000Y-43857690D01*
X98349000Y-44714250D01*
X98507750Y-44873000D01*
X99873000Y-44873000D01*
X99873000Y-43507750D01*
X100127000Y-43507750D01*
X100127000Y-44873000D01*
X101492250Y-44873000D01*
X101651000Y-44714250D01*
X101651000Y-43857690D01*
X101554327Y-43624301D01*
X101375698Y-43445673D01*
X101142309Y-43349000D01*
X100285750Y-43349000D01*
X100127000Y-43507750D01*
X99873000Y-43507750D01*
X99714250Y-43349000D01*
X98857691Y-43349000D01*
X98624302Y-43445673D01*
X98445673Y-43624301D01*
X98349000Y-43857690D01*
X94999855Y-43857690D01*
X95033780Y-43775789D01*
X95033780Y-43536450D01*
X94875030Y-43377700D01*
X94127000Y-43377700D01*
X94127000Y-43397700D01*
X93873000Y-43397700D01*
X93873000Y-43377700D01*
X93124970Y-43377700D01*
X92966220Y-43536450D01*
X92966220Y-43775789D01*
X93062893Y-44009178D01*
X93064685Y-44010970D01*
X93004789Y-44098630D01*
X92953780Y-44350520D01*
X92953780Y-45148080D01*
X92996126Y-45373128D01*
X92898559Y-45435910D01*
X92753569Y-45648110D01*
X92750919Y-45661197D01*
X92614090Y-45448559D01*
X92501017Y-45371300D01*
X92546220Y-45148080D01*
X92546220Y-44350520D01*
X92501942Y-44115203D01*
X92435044Y-44011241D01*
X92437107Y-44009178D01*
X92533780Y-43775789D01*
X92533780Y-43536450D01*
X92375030Y-43377700D01*
X91627000Y-43377700D01*
X91627000Y-43397700D01*
X91373000Y-43397700D01*
X91373000Y-43377700D01*
X90624970Y-43377700D01*
X90466220Y-43536450D01*
X90466220Y-43775789D01*
X90562893Y-44009178D01*
X90564685Y-44010970D01*
X90504789Y-44098630D01*
X90453780Y-44350520D01*
X90453780Y-45148080D01*
X90496126Y-45373128D01*
X90398559Y-45435910D01*
X90253569Y-45648110D01*
X90250919Y-45661197D01*
X90114090Y-45448559D01*
X90001017Y-45371300D01*
X90046220Y-45148080D01*
X90046220Y-44350520D01*
X90001942Y-44115203D01*
X89935044Y-44011241D01*
X89937107Y-44009178D01*
X90033780Y-43775789D01*
X90033780Y-43536450D01*
X89875030Y-43377700D01*
X89127000Y-43377700D01*
X89127000Y-43397700D01*
X88873000Y-43397700D01*
X88873000Y-43377700D01*
X88124970Y-43377700D01*
X87966220Y-43536450D01*
X87966220Y-43775789D01*
X88062893Y-44009178D01*
X88064685Y-44010970D01*
X88004789Y-44098630D01*
X87953780Y-44350520D01*
X87953780Y-45148080D01*
X87996126Y-45373128D01*
X87898559Y-45435910D01*
X87753569Y-45648110D01*
X87750919Y-45661197D01*
X87614090Y-45448559D01*
X87501017Y-45371300D01*
X87546220Y-45148080D01*
X87546220Y-44350520D01*
X87501942Y-44115203D01*
X87435044Y-44011241D01*
X87437107Y-44009178D01*
X87533780Y-43775789D01*
X87533780Y-43536450D01*
X87375030Y-43377700D01*
X86627000Y-43377700D01*
X86627000Y-43397700D01*
X86373000Y-43397700D01*
X86373000Y-43377700D01*
X85624970Y-43377700D01*
X85466220Y-43536450D01*
X85466220Y-43775789D01*
X85562893Y-44009178D01*
X85564685Y-44010970D01*
X85504789Y-44098630D01*
X85453780Y-44350520D01*
X85453780Y-45148080D01*
X85496126Y-45373128D01*
X85398559Y-45435910D01*
X85253569Y-45648110D01*
X85202560Y-45900000D01*
X83615109Y-45900000D01*
X83548604Y-45565655D01*
X83302567Y-45197434D01*
X82302566Y-44197434D01*
X82191931Y-44123510D01*
X81934346Y-43951397D01*
X81500000Y-43865000D01*
X74380512Y-43865000D01*
X75519901Y-42725611D01*
X85466220Y-42725611D01*
X85466220Y-42964950D01*
X85624970Y-43123700D01*
X86373000Y-43123700D01*
X86373000Y-42375670D01*
X86627000Y-42375670D01*
X86627000Y-43123700D01*
X87375030Y-43123700D01*
X87533780Y-42964950D01*
X87533780Y-42725611D01*
X87966220Y-42725611D01*
X87966220Y-42964950D01*
X88124970Y-43123700D01*
X88873000Y-43123700D01*
X88873000Y-42375670D01*
X89127000Y-42375670D01*
X89127000Y-43123700D01*
X89875030Y-43123700D01*
X90033780Y-42964950D01*
X90033780Y-42725611D01*
X90466220Y-42725611D01*
X90466220Y-42964950D01*
X90624970Y-43123700D01*
X91373000Y-43123700D01*
X91373000Y-42375670D01*
X91627000Y-42375670D01*
X91627000Y-43123700D01*
X92375030Y-43123700D01*
X92533780Y-42964950D01*
X92533780Y-42725611D01*
X92966220Y-42725611D01*
X92966220Y-42964950D01*
X93124970Y-43123700D01*
X93873000Y-43123700D01*
X93873000Y-42375670D01*
X94127000Y-42375670D01*
X94127000Y-43123700D01*
X94875030Y-43123700D01*
X95033780Y-42964950D01*
X95033780Y-42725611D01*
X94937107Y-42492222D01*
X94758479Y-42313593D01*
X94525090Y-42216920D01*
X94285750Y-42216920D01*
X94127000Y-42375670D01*
X93873000Y-42375670D01*
X93714250Y-42216920D01*
X93474910Y-42216920D01*
X93241521Y-42313593D01*
X93062893Y-42492222D01*
X92966220Y-42725611D01*
X92533780Y-42725611D01*
X92437107Y-42492222D01*
X92258479Y-42313593D01*
X92025090Y-42216920D01*
X91785750Y-42216920D01*
X91627000Y-42375670D01*
X91373000Y-42375670D01*
X91214250Y-42216920D01*
X90974910Y-42216920D01*
X90741521Y-42313593D01*
X90562893Y-42492222D01*
X90466220Y-42725611D01*
X90033780Y-42725611D01*
X89937107Y-42492222D01*
X89758479Y-42313593D01*
X89525090Y-42216920D01*
X89285750Y-42216920D01*
X89127000Y-42375670D01*
X88873000Y-42375670D01*
X88714250Y-42216920D01*
X88474910Y-42216920D01*
X88241521Y-42313593D01*
X88062893Y-42492222D01*
X87966220Y-42725611D01*
X87533780Y-42725611D01*
X87437107Y-42492222D01*
X87258479Y-42313593D01*
X87025090Y-42216920D01*
X86785750Y-42216920D01*
X86627000Y-42375670D01*
X86373000Y-42375670D01*
X86214250Y-42216920D01*
X85974910Y-42216920D01*
X85741521Y-42313593D01*
X85562893Y-42492222D01*
X85466220Y-42725611D01*
X75519901Y-42725611D01*
X76672756Y-41572757D01*
X76805420Y-41374211D01*
X76848342Y-41309974D01*
X76869734Y-41202428D01*
X77350000Y-41297959D01*
X77923489Y-41183885D01*
X78409670Y-40859029D01*
X78620000Y-40544248D01*
X78830330Y-40859029D01*
X79316511Y-41183885D01*
X79890000Y-41297959D01*
X80463489Y-41183885D01*
X80949670Y-40859029D01*
X81160000Y-40544248D01*
X81370330Y-40859029D01*
X81856511Y-41183885D01*
X82430000Y-41297959D01*
X83003489Y-41183885D01*
X83489670Y-40859029D01*
X83700000Y-40544248D01*
X83910330Y-40859029D01*
X84396511Y-41183885D01*
X84970000Y-41297959D01*
X85543489Y-41183885D01*
X86029670Y-40859029D01*
X86240000Y-40544248D01*
X86450330Y-40859029D01*
X86936511Y-41183885D01*
X87510000Y-41297959D01*
X88083489Y-41183885D01*
X88569670Y-40859029D01*
X88780000Y-40544248D01*
X88990330Y-40859029D01*
X89476511Y-41183885D01*
X90050000Y-41297959D01*
X90623489Y-41183885D01*
X91109670Y-40859029D01*
X91320000Y-40544248D01*
X91530330Y-40859029D01*
X92016511Y-41183885D01*
X92590000Y-41297959D01*
X93163489Y-41183885D01*
X93649670Y-40859029D01*
X93860000Y-40544248D01*
X94070330Y-40859029D01*
X94070330Y-40859029D01*
G37*
X94070330Y-40859029D02*
X94556511Y-41183885D01*
X95130000Y-41297959D01*
X95703489Y-41183885D01*
X96189670Y-40859029D01*
X96373000Y-40584656D01*
X96373000Y-42000000D01*
X96383006Y-42049410D01*
X96411447Y-42091035D01*
X96453841Y-42118315D01*
X96500000Y-42127000D01*
X102815000Y-42127000D01*
X102815000Y-83873000D01*
X96884445Y-83873000D01*
X96884774Y-83496306D01*
X96636462Y-82895345D01*
X96291520Y-82549801D01*
X96520199Y-82321520D01*
X96862927Y-82664846D01*
X97463453Y-82914206D01*
X98113694Y-82914774D01*
X98714655Y-82666462D01*
X99060199Y-82321520D01*
X99402927Y-82664846D01*
X100003453Y-82914206D01*
X100653694Y-82914774D01*
X101254655Y-82666462D01*
X101714846Y-82207073D01*
X101964206Y-81606547D01*
X101964774Y-80956306D01*
X101716462Y-80355345D01*
X101371520Y-80009801D01*
X101714846Y-79667073D01*
X101964206Y-79066547D01*
X101964774Y-78416306D01*
X101716462Y-77815345D01*
X101371520Y-77469801D01*
X101714846Y-77127073D01*
X101964206Y-76526547D01*
X101964774Y-75876306D01*
X101716462Y-75275345D01*
X101371520Y-74929801D01*
X101714846Y-74587073D01*
X101964206Y-73986547D01*
X101964774Y-73336306D01*
X101716462Y-72735345D01*
X101371520Y-72389801D01*
X101714846Y-72047073D01*
X101964206Y-71446547D01*
X101964774Y-70796306D01*
X101716462Y-70195345D01*
X101257073Y-69735154D01*
X100656547Y-69485794D01*
X100006306Y-69485226D01*
X99405345Y-69733538D01*
X99059801Y-70078480D01*
X98717073Y-69735154D01*
X98116547Y-69485794D01*
X97466306Y-69485226D01*
X96865345Y-69733538D01*
X96519801Y-70078480D01*
X96177073Y-69735154D01*
X95576547Y-69485794D01*
X94926306Y-69485226D01*
X94325345Y-69733538D01*
X93979801Y-70078480D01*
X93637073Y-69735154D01*
X93036547Y-69485794D01*
X92386306Y-69485226D01*
X91785345Y-69733538D01*
X91439801Y-70078480D01*
X91097073Y-69735154D01*
X90496547Y-69485794D01*
X89846306Y-69485226D01*
X89245345Y-69733538D01*
X88899801Y-70078480D01*
X88557073Y-69735154D01*
X87956547Y-69485794D01*
X87306306Y-69485226D01*
X87057469Y-69588043D01*
X90335513Y-66310000D01*
X90512559Y-66310000D01*
X90813201Y-66434838D01*
X91185167Y-66435162D01*
X91528943Y-66293117D01*
X91792192Y-66030327D01*
X91934838Y-65686799D01*
X91935162Y-65314833D01*
X91793117Y-64971057D01*
X91530327Y-64707808D01*
X91186799Y-64565162D01*
X90814833Y-64564838D01*
X90511917Y-64690000D01*
X90000000Y-64690000D01*
X89690026Y-64751658D01*
X89619834Y-64798559D01*
X89427243Y-64927244D01*
X88810000Y-65544487D01*
X88810000Y-64335512D01*
X89335513Y-63810000D01*
X90512559Y-63810000D01*
X90813201Y-63934838D01*
X91185167Y-63935162D01*
X91528943Y-63793117D01*
X91792192Y-63530327D01*
X91934838Y-63186799D01*
X91935162Y-62814833D01*
X91793117Y-62471057D01*
X91530327Y-62207808D01*
X91186799Y-62065162D01*
X90814833Y-62064838D01*
X90511917Y-62190000D01*
X89000000Y-62190000D01*
X88690027Y-62251657D01*
X88427244Y-62427243D01*
X87427244Y-63427244D01*
X87251658Y-63690026D01*
X87190000Y-64000000D01*
X87190000Y-66164487D01*
X84814488Y-68540000D01*
X72286150Y-68540000D01*
X72253162Y-68364683D01*
X72114090Y-68148559D01*
X71901890Y-68003569D01*
X71888803Y-68000919D01*
X72101441Y-67864090D01*
X72246431Y-67651890D01*
X72297440Y-67400000D01*
X72297440Y-65900000D01*
X72253162Y-65664683D01*
X72114090Y-65448559D01*
X71901890Y-65303569D01*
X71885000Y-65300149D01*
X71885000Y-65061269D01*
X71995211Y-64899970D01*
X72046220Y-64648080D01*
X72046220Y-63850520D01*
X72001942Y-63615203D01*
X71935044Y-63511241D01*
X71937107Y-63509178D01*
X72033780Y-63275789D01*
X72033780Y-63036450D01*
X71875030Y-62877700D01*
X71127000Y-62877700D01*
X71127000Y-62897700D01*
X70873000Y-62897700D01*
X70873000Y-62877700D01*
X70124970Y-62877700D01*
X69966220Y-63036450D01*
X69966220Y-63275789D01*
X70062893Y-63509178D01*
X70064685Y-63510970D01*
X70004789Y-63598630D01*
X69953780Y-63850520D01*
X69953780Y-64648080D01*
X69998058Y-64883397D01*
X70115000Y-65065130D01*
X70115000Y-65296778D01*
X70114683Y-65296838D01*
X69898559Y-65435910D01*
X69753569Y-65648110D01*
X69750919Y-65661197D01*
X69614090Y-65448559D01*
X69401890Y-65303569D01*
X69385000Y-65300149D01*
X69385000Y-65061269D01*
X69495211Y-64899970D01*
X69546220Y-64648080D01*
X69546220Y-63850520D01*
X69501942Y-63615203D01*
X69435044Y-63511241D01*
X69437107Y-63509178D01*
X69533780Y-63275789D01*
X69533780Y-63036450D01*
X69375030Y-62877700D01*
X68627000Y-62877700D01*
X68627000Y-62897700D01*
X68373000Y-62897700D01*
X68373000Y-62877700D01*
X67624970Y-62877700D01*
X67466220Y-63036450D01*
X67466220Y-63275789D01*
X67562893Y-63509178D01*
X67564685Y-63510970D01*
X67504789Y-63598630D01*
X67453780Y-63850520D01*
X67453780Y-64648080D01*
X67498058Y-64883397D01*
X67615000Y-65065130D01*
X67615000Y-65296778D01*
X67614683Y-65296838D01*
X67398559Y-65435910D01*
X67253569Y-65648110D01*
X67202560Y-65900000D01*
X67202560Y-67400000D01*
X67246838Y-67635317D01*
X67385910Y-67851441D01*
X67598110Y-67996431D01*
X67611197Y-67999081D01*
X67398559Y-68135910D01*
X67253569Y-68348110D01*
X67202560Y-68600000D01*
X67202560Y-70100000D01*
X67246838Y-70335317D01*
X67353759Y-70501477D01*
X67253569Y-70648110D01*
X67202560Y-70900000D01*
X67202560Y-72400000D01*
X67246838Y-72635317D01*
X67385910Y-72851441D01*
X67598110Y-72996431D01*
X67611197Y-72999081D01*
X67398559Y-73135910D01*
X67253569Y-73348110D01*
X67242859Y-73401000D01*
X66127000Y-73401000D01*
X66127000Y-62225611D01*
X67466220Y-62225611D01*
X67466220Y-62464950D01*
X67624970Y-62623700D01*
X68373000Y-62623700D01*
X68373000Y-61875670D01*
X68627000Y-61875670D01*
X68627000Y-62623700D01*
X69375030Y-62623700D01*
X69533780Y-62464950D01*
X69533780Y-62225611D01*
X69966220Y-62225611D01*
X69966220Y-62464950D01*
X70124970Y-62623700D01*
X70873000Y-62623700D01*
X70873000Y-61875670D01*
X71127000Y-61875670D01*
X71127000Y-62623700D01*
X71875030Y-62623700D01*
X72033780Y-62464950D01*
X72033780Y-62225611D01*
X71937107Y-61992222D01*
X71758479Y-61813593D01*
X71525090Y-61716920D01*
X71285750Y-61716920D01*
X71127000Y-61875670D01*
X70873000Y-61875670D01*
X70714250Y-61716920D01*
X70474910Y-61716920D01*
X70241521Y-61813593D01*
X70062893Y-61992222D01*
X69966220Y-62225611D01*
X69533780Y-62225611D01*
X69437107Y-61992222D01*
X69258479Y-61813593D01*
X69025090Y-61716920D01*
X68785750Y-61716920D01*
X68627000Y-61875670D01*
X68373000Y-61875670D01*
X68214250Y-61716920D01*
X67974910Y-61716920D01*
X67741521Y-61813593D01*
X67562893Y-61992222D01*
X67466220Y-62225611D01*
X66127000Y-62225611D01*
X66127000Y-57500000D01*
X66117666Y-57452211D01*
X66089803Y-57410197D01*
X65089803Y-56410197D01*
X65049410Y-56383006D01*
X65000000Y-56373000D01*
X55500000Y-56373000D01*
X55453841Y-56381685D01*
X55411447Y-56408965D01*
X55383006Y-56450590D01*
X55373000Y-56500000D01*
X55373000Y-67947394D01*
X49410197Y-73910197D01*
X49383006Y-73950590D01*
X49373000Y-74000000D01*
X49373000Y-76349975D01*
X49359698Y-76336673D01*
X49126309Y-76240000D01*
X48785750Y-76240000D01*
X48627000Y-76398750D01*
X48627000Y-77373000D01*
X48647000Y-77373000D01*
X48647000Y-77627000D01*
X48627000Y-77627000D01*
X48627000Y-78601250D01*
X48785750Y-78760000D01*
X49126309Y-78760000D01*
X49359698Y-78663327D01*
X49373000Y-78650025D01*
X49373000Y-81349975D01*
X49359698Y-81336673D01*
X49126309Y-81240000D01*
X48785750Y-81240000D01*
X48627000Y-81398750D01*
X48627000Y-82373000D01*
X48647000Y-82373000D01*
X48647000Y-82627000D01*
X48627000Y-82627000D01*
X48627000Y-83601250D01*
X48785750Y-83760000D01*
X49126309Y-83760000D01*
X49359698Y-83663327D01*
X49373000Y-83650025D01*
X49373000Y-88000000D01*
X49382334Y-88047789D01*
X49410197Y-88089803D01*
X50410197Y-89089803D01*
X50450590Y-89116994D01*
X50500000Y-89127000D01*
X80500000Y-89127000D01*
X80547789Y-89117666D01*
X80589803Y-89089803D01*
X81980143Y-87699463D01*
X82006563Y-87763248D01*
X82223336Y-88087672D01*
X82412328Y-88276664D01*
X82736751Y-88493437D01*
X82839032Y-88535803D01*
X82983681Y-88595718D01*
X83366364Y-88671838D01*
X83633636Y-88671838D01*
X84016319Y-88595718D01*
X84263248Y-88493437D01*
X84263249Y-88493436D01*
X84587672Y-88276664D01*
X84776664Y-88087672D01*
X84993437Y-87763249D01*
X85035803Y-87660968D01*
X85095718Y-87516319D01*
X85171838Y-87133636D01*
X85171838Y-87066170D01*
X85185000Y-87000000D01*
X85185000Y-72000000D01*
X85171838Y-71933830D01*
X85171838Y-71866364D01*
X85095718Y-71483681D01*
X85025848Y-71315000D01*
X84993437Y-71236751D01*
X84776664Y-70912328D01*
X84674336Y-70810000D01*
X85500000Y-70810000D01*
X85809974Y-70748342D01*
X86072756Y-70572756D01*
X86097859Y-70547653D01*
X85995794Y-70793453D01*
X85995226Y-71443694D01*
X86243538Y-72044655D01*
X86588480Y-72390199D01*
X86245154Y-72732927D01*
X85995794Y-73333453D01*
X85995226Y-73983694D01*
X86243538Y-74584655D01*
X86588480Y-74930199D01*
X86245154Y-75272927D01*
X85995794Y-75873453D01*
X85995226Y-76523694D01*
X86243538Y-77124655D01*
X86588480Y-77470199D01*
X86245154Y-77812927D01*
X85995794Y-78413453D01*
X85995226Y-79063694D01*
X86243538Y-79664655D01*
X86588480Y-80010199D01*
X86245154Y-80352927D01*
X85995794Y-80953453D01*
X85995226Y-81603694D01*
X86243538Y-82204655D01*
X86588480Y-82550199D01*
X86245154Y-82892927D01*
X85995794Y-83493453D01*
X85995226Y-84143694D01*
X86243538Y-84744655D01*
X86588480Y-85090199D01*
X86245154Y-85432927D01*
X85995794Y-86033453D01*
X85995226Y-86683694D01*
X86243538Y-87284655D01*
X86588480Y-87630199D01*
X86245154Y-87972927D01*
X85995794Y-88573453D01*
X85995226Y-89223694D01*
X86243538Y-89824655D01*
X86702927Y-90284846D01*
X86775546Y-90315000D01*
X45627000Y-90315000D01*
X45627000Y-84000000D01*
X45616994Y-83950590D01*
X45588553Y-83908965D01*
X45546159Y-83881685D01*
X45500000Y-83873000D01*
X39185000Y-83873000D01*
X39185000Y-82785750D01*
X47365000Y-82785750D01*
X47365000Y-83251310D01*
X47461673Y-83484699D01*
X47640302Y-83663327D01*
X47873691Y-83760000D01*
X48214250Y-83760000D01*
X48373000Y-83601250D01*
X48373000Y-82627000D01*
X47523750Y-82627000D01*
X47365000Y-82785750D01*
X39185000Y-82785750D01*
X39185000Y-81748690D01*
X47365000Y-81748690D01*
X47365000Y-82214250D01*
X47523750Y-82373000D01*
X48373000Y-82373000D01*
X48373000Y-81398750D01*
X48214250Y-81240000D01*
X47873691Y-81240000D01*
X47640302Y-81336673D01*
X47461673Y-81515301D01*
X47365000Y-81748690D01*
X39185000Y-81748690D01*
X39185000Y-74920000D01*
X39816655Y-74920000D01*
X39930729Y-75493489D01*
X40255585Y-75979670D01*
X40570366Y-76190000D01*
X40255585Y-76400330D01*
X39930729Y-76886511D01*
X39816655Y-77460000D01*
X39930729Y-78033489D01*
X40255585Y-78519670D01*
X40269913Y-78529243D01*
X40248683Y-78533238D01*
X40032559Y-78672310D01*
X39887569Y-78884510D01*
X39836560Y-79136400D01*
X39836560Y-80863600D01*
X39880838Y-81098917D01*
X40019910Y-81315041D01*
X40232110Y-81460031D01*
X40484000Y-81511040D01*
X42516000Y-81511040D01*
X42751317Y-81466762D01*
X42967441Y-81327690D01*
X43112431Y-81115490D01*
X43163440Y-80863600D01*
X43163440Y-79136400D01*
X43119162Y-78901083D01*
X42980090Y-78684959D01*
X42767890Y-78539969D01*
X42726561Y-78531600D01*
X42744415Y-78519670D01*
X43069271Y-78033489D01*
X43183345Y-77460000D01*
X43816655Y-77460000D01*
X43942330Y-78091810D01*
X44169499Y-78431792D01*
X44032559Y-78519910D01*
X43887569Y-78732110D01*
X43836560Y-78984000D01*
X43836560Y-81016000D01*
X43880838Y-81251317D01*
X44019910Y-81467441D01*
X44232110Y-81612431D01*
X44484000Y-81663440D01*
X46516000Y-81663440D01*
X46751317Y-81619162D01*
X46967441Y-81480090D01*
X47112431Y-81267890D01*
X47163440Y-81016000D01*
X47163440Y-78984000D01*
X47119162Y-78748683D01*
X46980090Y-78532559D01*
X46831163Y-78430802D01*
X47057670Y-78091810D01*
X47118549Y-77785750D01*
X47365000Y-77785750D01*
X47365000Y-78251310D01*
X47461673Y-78484699D01*
X47640302Y-78663327D01*
X47873691Y-78760000D01*
X48214250Y-78760000D01*
X48373000Y-78601250D01*
X48373000Y-77627000D01*
X47523750Y-77627000D01*
X47365000Y-77785750D01*
X47118549Y-77785750D01*
X47183345Y-77460000D01*
X47057670Y-76828190D01*
X47004550Y-76748690D01*
X47365000Y-76748690D01*
X47365000Y-77214250D01*
X47523750Y-77373000D01*
X48373000Y-77373000D01*
X48373000Y-76398750D01*
X48214250Y-76240000D01*
X47873691Y-76240000D01*
X47640302Y-76336673D01*
X47461673Y-76515301D01*
X47365000Y-76748690D01*
X47004550Y-76748690D01*
X46699778Y-76292567D01*
X46164155Y-75934675D01*
X45532345Y-75809000D01*
X45467655Y-75809000D01*
X44835845Y-75934675D01*
X44300222Y-76292567D01*
X43942330Y-76828190D01*
X43816655Y-77460000D01*
X43183345Y-77460000D01*
X43069271Y-76886511D01*
X42744415Y-76400330D01*
X42429634Y-76190000D01*
X42744415Y-75979670D01*
X43069271Y-75493489D01*
X43183345Y-74920000D01*
X43069271Y-74346511D01*
X42744415Y-73860330D01*
X42258234Y-73535474D01*
X41684745Y-73421400D01*
X41315255Y-73421400D01*
X40741766Y-73535474D01*
X40255585Y-73860330D01*
X39930729Y-74346511D01*
X39816655Y-74920000D01*
X39185000Y-74920000D01*
X39185000Y-72567466D01*
X39221376Y-72384591D01*
X39286751Y-72286750D01*
X39384590Y-72221376D01*
X39567466Y-72185000D01*
X42500000Y-72185000D01*
X42566170Y-72171838D01*
X42633636Y-72171838D01*
X42859053Y-72127000D01*
X44000000Y-72127000D01*
X44049410Y-72116994D01*
X44091035Y-72088553D01*
X44118315Y-72046159D01*
X44127000Y-72000000D01*
X44127000Y-70859053D01*
X44171838Y-70633636D01*
X44171838Y-70566170D01*
X44185000Y-70500000D01*
X44185000Y-55500000D01*
X44171838Y-55433830D01*
X44171838Y-55366364D01*
X44127000Y-55140947D01*
X44127000Y-54368132D01*
X44409434Y-54650566D01*
X44777654Y-54896603D01*
X45212000Y-54983000D01*
X45452128Y-54983000D01*
X45438560Y-55050000D01*
X45438560Y-56550000D01*
X45482838Y-56785317D01*
X45621910Y-57001441D01*
X45834110Y-57146431D01*
X45847197Y-57149081D01*
X45634559Y-57285910D01*
X45489569Y-57498110D01*
X45438560Y-57750000D01*
X45438560Y-59250000D01*
X45482838Y-59485317D01*
X45621910Y-59701441D01*
X45834110Y-59846431D01*
X46086000Y-59897440D01*
X47386000Y-59897440D01*
X47621317Y-59853162D01*
X47837441Y-59714090D01*
X47982431Y-59501890D01*
X48006102Y-59385000D01*
X48588569Y-59385000D01*
X48615000Y-59390352D01*
X48615000Y-59609146D01*
X48414683Y-59646838D01*
X48198559Y-59785910D01*
X48053569Y-59998110D01*
X48002560Y-60250000D01*
X48002560Y-61250000D01*
X48046838Y-61485317D01*
X48185910Y-61701441D01*
X48398110Y-61846431D01*
X48615000Y-61890352D01*
X48615000Y-62109146D01*
X48414683Y-62146838D01*
X48198559Y-62285910D01*
X48053569Y-62498110D01*
X48002560Y-62750000D01*
X48002560Y-63750000D01*
X48046838Y-63985317D01*
X48185910Y-64201441D01*
X48398110Y-64346431D01*
X48615000Y-64390352D01*
X48615000Y-64609146D01*
X48414683Y-64646838D01*
X48198559Y-64785910D01*
X48053569Y-64998110D01*
X48002560Y-65250000D01*
X48002560Y-66250000D01*
X48046838Y-66485317D01*
X48185910Y-66701441D01*
X48398110Y-66846431D01*
X48650000Y-66897440D01*
X50850000Y-66897440D01*
X51085317Y-66853162D01*
X51301441Y-66714090D01*
X51446431Y-66501890D01*
X51497440Y-66250000D01*
X51497440Y-65250000D01*
X51453162Y-65014683D01*
X51314090Y-64798559D01*
X51101890Y-64653569D01*
X50885000Y-64609648D01*
X50885000Y-64390854D01*
X51085317Y-64353162D01*
X51301441Y-64214090D01*
X51446431Y-64001890D01*
X51497440Y-63750000D01*
X51497440Y-62750000D01*
X51453162Y-62514683D01*
X51314090Y-62298559D01*
X51101890Y-62153569D01*
X50885000Y-62109648D01*
X50885000Y-61890854D01*
X51085317Y-61853162D01*
X51301441Y-61714090D01*
X51446431Y-61501890D01*
X51497440Y-61250000D01*
X51497440Y-60250000D01*
X51453162Y-60014683D01*
X51314090Y-59798559D01*
X51101890Y-59653569D01*
X50885000Y-59609648D01*
X50885000Y-59390854D01*
X51085317Y-59353162D01*
X51301441Y-59214090D01*
X51435467Y-59017936D01*
X51533974Y-58998342D01*
X51796756Y-58822756D01*
X52388756Y-58230757D01*
X52499619Y-58064838D01*
X52564342Y-57967974D01*
X52626000Y-57658000D01*
X52626000Y-57567836D01*
X52740655Y-57520462D01*
X53200846Y-57061073D01*
X53450206Y-56460547D01*
X53450774Y-55810306D01*
X53202462Y-55209345D01*
X52743073Y-54749154D01*
X52142547Y-54499794D01*
X51492306Y-54499226D01*
X50891345Y-54747538D01*
X50545801Y-55092480D01*
X50203073Y-54749154D01*
X50035288Y-54679484D01*
X50078566Y-54650566D01*
X50149351Y-54579781D01*
X50670000Y-54683345D01*
X51243489Y-54569271D01*
X51729670Y-54244415D01*
X51936461Y-53934931D01*
X52307964Y-54350732D01*
X52835209Y-54604709D01*
X52850974Y-54607358D01*
X53083000Y-54486217D01*
X53083000Y-53127000D01*
X53063000Y-53127000D01*
X53063000Y-52873000D01*
X53083000Y-52873000D01*
X53083000Y-51513783D01*
X53337000Y-51513783D01*
X53337000Y-52873000D01*
X53357000Y-52873000D01*
X53357000Y-53127000D01*
X53337000Y-53127000D01*
X53337000Y-54486217D01*
X53569026Y-54607358D01*
X53584791Y-54604709D01*
X54112036Y-54350732D01*
X54268907Y-54175155D01*
X54283238Y-54251317D01*
X54422310Y-54467441D01*
X54634510Y-54612431D01*
X54886400Y-54663440D01*
X56613600Y-54663440D01*
X56848917Y-54619162D01*
X57065041Y-54480090D01*
X57210031Y-54267890D01*
X57261040Y-54016000D01*
X57261040Y-53815255D01*
X57921400Y-53815255D01*
X57921400Y-54184745D01*
X58035474Y-54758234D01*
X58360330Y-55244415D01*
X58846511Y-55569271D01*
X59420000Y-55683345D01*
X59993489Y-55569271D01*
X60479670Y-55244415D01*
X60690000Y-54929634D01*
X60900330Y-55244415D01*
X61386511Y-55569271D01*
X61960000Y-55683345D01*
X62533489Y-55569271D01*
X63019670Y-55244415D01*
X63029243Y-55230087D01*
X63033238Y-55251317D01*
X63172310Y-55467441D01*
X63384510Y-55612431D01*
X63636400Y-55663440D01*
X65363600Y-55663440D01*
X65598917Y-55619162D01*
X65815041Y-55480090D01*
X65960031Y-55267890D01*
X66011040Y-55016000D01*
X66011040Y-54807804D01*
X66309974Y-54748342D01*
X66572756Y-54572756D01*
X69478084Y-51667429D01*
X69778943Y-51543117D01*
X70042192Y-51280327D01*
X70184838Y-50936799D01*
X70185162Y-50564833D01*
X70043117Y-50221057D01*
X69780327Y-49957808D01*
X69436799Y-49815162D01*
X69064833Y-49814838D01*
X68721057Y-49956883D01*
X68457808Y-50219673D01*
X68332116Y-50522371D01*
X65988781Y-52865706D01*
X65966762Y-52748683D01*
X65827690Y-52532559D01*
X65615490Y-52387569D01*
X65363600Y-52336560D01*
X63636400Y-52336560D01*
X63401083Y-52380838D01*
X63184959Y-52519910D01*
X63039969Y-52732110D01*
X63031600Y-52773439D01*
X63019670Y-52755585D01*
X62533489Y-52430729D01*
X61960000Y-52316655D01*
X61386511Y-52430729D01*
X60900330Y-52755585D01*
X60690000Y-53070366D01*
X60479670Y-52755585D01*
X59993489Y-52430729D01*
X59420000Y-52316655D01*
X58846511Y-52430729D01*
X58360330Y-52755585D01*
X58035474Y-53241766D01*
X57921400Y-53815255D01*
X57261040Y-53815255D01*
X57261040Y-51984000D01*
X57216762Y-51748683D01*
X57077690Y-51532559D01*
X56865490Y-51387569D01*
X56613600Y-51336560D01*
X54886400Y-51336560D01*
X54651083Y-51380838D01*
X54434959Y-51519910D01*
X54289969Y-51732110D01*
X54270768Y-51826927D01*
X54112036Y-51649268D01*
X53584791Y-51395291D01*
X53569026Y-51392642D01*
X53337000Y-51513783D01*
X53083000Y-51513783D01*
X52850974Y-51392642D01*
X52835209Y-51395291D01*
X52307964Y-51649268D01*
X51936461Y-52065069D01*
X51729670Y-51755585D01*
X51243489Y-51430729D01*
X50670000Y-51316655D01*
X50096511Y-51430729D01*
X49610330Y-51755585D01*
X49302332Y-52216536D01*
X48875000Y-52643868D01*
X48875000Y-52197000D01*
X48788603Y-51762654D01*
X48771440Y-51736968D01*
X48743162Y-51586683D01*
X48604090Y-51370559D01*
X48391890Y-51225569D01*
X48245465Y-51195917D01*
X48174346Y-51148397D01*
X47740000Y-51062000D01*
X47305654Y-51148397D01*
X47237686Y-51193812D01*
X47104683Y-51218838D01*
X47001354Y-51285329D01*
X46999698Y-51283673D01*
X46766309Y-51187000D01*
X46525750Y-51187000D01*
X46367000Y-51345750D01*
X46367000Y-52070000D01*
X46387000Y-52070000D01*
X46387000Y-52324000D01*
X46367000Y-52324000D01*
X46367000Y-52344000D01*
X46113000Y-52344000D01*
X46113000Y-52324000D01*
X45363750Y-52324000D01*
X45328441Y-52359309D01*
X44664822Y-51695690D01*
X45205000Y-51695690D01*
X45205000Y-51911250D01*
X45363750Y-52070000D01*
X46113000Y-52070000D01*
X46113000Y-51345750D01*
X45954250Y-51187000D01*
X45713691Y-51187000D01*
X45480302Y-51283673D01*
X45301673Y-51462301D01*
X45205000Y-51695690D01*
X44664822Y-51695690D01*
X42884180Y-49915048D01*
X42884180Y-49485390D01*
X52064900Y-49485390D01*
X52064900Y-50825819D01*
X52161573Y-51059208D01*
X52340201Y-51237837D01*
X52573590Y-51334510D01*
X53214250Y-51334510D01*
X53373000Y-51175760D01*
X53373000Y-49326640D01*
X53627000Y-49326640D01*
X53627000Y-51175760D01*
X53785750Y-51334510D01*
X54426410Y-51334510D01*
X54659799Y-51237837D01*
X54838427Y-51059208D01*
X54935100Y-50825819D01*
X54935100Y-49967655D01*
X60309000Y-49967655D01*
X60309000Y-50032345D01*
X60434675Y-50664155D01*
X60792567Y-51199778D01*
X61328190Y-51557670D01*
X61960000Y-51683345D01*
X62591810Y-51557670D01*
X62931792Y-51330501D01*
X63019910Y-51467441D01*
X63232110Y-51612431D01*
X63484000Y-51663440D01*
X65516000Y-51663440D01*
X65751317Y-51619162D01*
X65967441Y-51480090D01*
X66112431Y-51267890D01*
X66163440Y-51016000D01*
X66163440Y-48984000D01*
X66119162Y-48748683D01*
X65980090Y-48532559D01*
X65767890Y-48387569D01*
X65516000Y-48336560D01*
X63484000Y-48336560D01*
X63248683Y-48380838D01*
X63032559Y-48519910D01*
X62930802Y-48668837D01*
X62591810Y-48442330D01*
X61960000Y-48316655D01*
X61328190Y-48442330D01*
X60792567Y-48800222D01*
X60434675Y-49335845D01*
X60309000Y-49967655D01*
X54935100Y-49967655D01*
X54935100Y-49485390D01*
X54776350Y-49326640D01*
X53627000Y-49326640D01*
X53373000Y-49326640D01*
X52223650Y-49326640D01*
X52064900Y-49485390D01*
X42884180Y-49485390D01*
X42884180Y-48947540D01*
X43548770Y-48947540D01*
X43784087Y-48903262D01*
X44000211Y-48764190D01*
X44145201Y-48551990D01*
X44196210Y-48300100D01*
X44196210Y-47785750D01*
X44816230Y-47785750D01*
X44816230Y-48426410D01*
X44912903Y-48659799D01*
X45091532Y-48838427D01*
X45324921Y-48935100D01*
X46965070Y-48935100D01*
X47123820Y-48776350D01*
X47123820Y-47627000D01*
X47377820Y-47627000D01*
X47377820Y-48776350D01*
X47536570Y-48935100D01*
X49176719Y-48935100D01*
X49410108Y-48838427D01*
X49588737Y-48659799D01*
X49685410Y-48426410D01*
X49685410Y-47785750D01*
X49526660Y-47627000D01*
X47377820Y-47627000D01*
X47123820Y-47627000D01*
X44974980Y-47627000D01*
X44816230Y-47785750D01*
X44196210Y-47785750D01*
X44196210Y-47573461D01*
X52064900Y-47573461D01*
X52064900Y-48913890D01*
X52223650Y-49072640D01*
X53373000Y-49072640D01*
X53373000Y-47223520D01*
X53627000Y-47223520D01*
X53627000Y-49072640D01*
X54776350Y-49072640D01*
X54935100Y-48913890D01*
X54935100Y-48285750D01*
X57240000Y-48285750D01*
X57240000Y-48626309D01*
X57336673Y-48859698D01*
X57515301Y-49038327D01*
X57748690Y-49135000D01*
X58214250Y-49135000D01*
X58373000Y-48976250D01*
X58373000Y-48127000D01*
X58627000Y-48127000D01*
X58627000Y-48976250D01*
X58785750Y-49135000D01*
X59251310Y-49135000D01*
X59484699Y-49038327D01*
X59663327Y-48859698D01*
X59760000Y-48626309D01*
X59760000Y-48285750D01*
X59601250Y-48127000D01*
X58627000Y-48127000D01*
X58373000Y-48127000D01*
X57398750Y-48127000D01*
X57240000Y-48285750D01*
X54935100Y-48285750D01*
X54935100Y-47573461D01*
X54838427Y-47340072D01*
X54659799Y-47161443D01*
X54426410Y-47064770D01*
X53785750Y-47064770D01*
X53627000Y-47223520D01*
X53373000Y-47223520D01*
X53214250Y-47064770D01*
X52573590Y-47064770D01*
X52340201Y-47161443D01*
X52161573Y-47340072D01*
X52064900Y-47573461D01*
X44196210Y-47573461D01*
X44196210Y-46699900D01*
X44172444Y-46573590D01*
X44816230Y-46573590D01*
X44816230Y-47214250D01*
X44974980Y-47373000D01*
X47123820Y-47373000D01*
X47123820Y-46223650D01*
X47377820Y-46223650D01*
X47377820Y-47373000D01*
X49526660Y-47373000D01*
X49685410Y-47214250D01*
X49685410Y-46573590D01*
X49588737Y-46340201D01*
X49410108Y-46161573D01*
X49176719Y-46064900D01*
X47536570Y-46064900D01*
X47377820Y-46223650D01*
X47123820Y-46223650D01*
X46965070Y-46064900D01*
X45324921Y-46064900D01*
X45091532Y-46161573D01*
X44912903Y-46340201D01*
X44816230Y-46573590D01*
X44172444Y-46573590D01*
X44151932Y-46464583D01*
X44012860Y-46248459D01*
X43800660Y-46103469D01*
X43548770Y-46052460D01*
X43135000Y-46052460D01*
X43135000Y-45970132D01*
X44302566Y-44802566D01*
X44548603Y-44434346D01*
X44606052Y-44145528D01*
X46073224Y-42678356D01*
X48997794Y-45602926D01*
X49366014Y-45848963D01*
X49800360Y-45935360D01*
X52052460Y-45935360D01*
X52052460Y-46300230D01*
X52096738Y-46535547D01*
X52235810Y-46751671D01*
X52448010Y-46896661D01*
X52699900Y-46947670D01*
X54300100Y-46947670D01*
X54535417Y-46903392D01*
X54751541Y-46764320D01*
X54896531Y-46552120D01*
X54947540Y-46300230D01*
X54947540Y-45935360D01*
X56830228Y-45935360D01*
X57227560Y-46332692D01*
X57227560Y-46500000D01*
X57271838Y-46735317D01*
X57410910Y-46951441D01*
X57479006Y-46997969D01*
X57336673Y-47140302D01*
X57240000Y-47373691D01*
X57240000Y-47714250D01*
X57398750Y-47873000D01*
X58373000Y-47873000D01*
X58373000Y-47853000D01*
X58627000Y-47853000D01*
X58627000Y-47873000D01*
X59601250Y-47873000D01*
X59760000Y-47714250D01*
X59760000Y-47373691D01*
X59663327Y-47140302D01*
X59658025Y-47135000D01*
X68529868Y-47135000D01*
X69197434Y-47802567D01*
X69565655Y-48048604D01*
X70000000Y-48135000D01*
X70434346Y-48048604D01*
X70802567Y-47802567D01*
X71048604Y-47434346D01*
X71135000Y-47000000D01*
X71135000Y-46470132D01*
X71470133Y-46135000D01*
X81029868Y-46135000D01*
X81563538Y-46668671D01*
X81471057Y-46706883D01*
X81207808Y-46969673D01*
X81065162Y-47313201D01*
X81064838Y-47685167D01*
X81115000Y-47806569D01*
X81115000Y-51633421D01*
X80091164Y-52657256D01*
X79971057Y-52706883D01*
X79707808Y-52969673D01*
X79565162Y-53313201D01*
X79564838Y-53685167D01*
X79615000Y-53806569D01*
X79615000Y-67193178D01*
X79565162Y-67313201D01*
X79564838Y-67685167D01*
X79706883Y-68028943D01*
X79969673Y-68292192D01*
X80313201Y-68434838D01*
X80685167Y-68435162D01*
X81028943Y-68293117D01*
X81292192Y-68030327D01*
X81434838Y-67686799D01*
X81435162Y-67314833D01*
X81385000Y-67193431D01*
X81385000Y-59185167D01*
X94064838Y-59185167D01*
X94206883Y-59528943D01*
X94469673Y-59792192D01*
X94813201Y-59934838D01*
X94860077Y-59934879D01*
X95882599Y-60957401D01*
X96129160Y-61122148D01*
X96420000Y-61180000D01*
X98555352Y-61180000D01*
X98755585Y-61479670D01*
X99070366Y-61690000D01*
X98755585Y-61900330D01*
X98430729Y-62386511D01*
X98316655Y-62960000D01*
X98430729Y-63533489D01*
X98755585Y-64019670D01*
X98769913Y-64029243D01*
X98748683Y-64033238D01*
X98532559Y-64172310D01*
X98387569Y-64384510D01*
X98336560Y-64636400D01*
X98336560Y-66363600D01*
X98380838Y-66598917D01*
X98519910Y-66815041D01*
X98732110Y-66960031D01*
X98984000Y-67011040D01*
X101016000Y-67011040D01*
X101251317Y-66966762D01*
X101467441Y-66827690D01*
X101612431Y-66615490D01*
X101663440Y-66363600D01*
X101663440Y-64636400D01*
X101619162Y-64401083D01*
X101480090Y-64184959D01*
X101267890Y-64039969D01*
X101226561Y-64031600D01*
X101244415Y-64019670D01*
X101569271Y-63533489D01*
X101683345Y-62960000D01*
X101569271Y-62386511D01*
X101244415Y-61900330D01*
X100929634Y-61690000D01*
X101244415Y-61479670D01*
X101569271Y-60993489D01*
X101683345Y-60420000D01*
X101569271Y-59846511D01*
X101244415Y-59360330D01*
X100758234Y-59035474D01*
X100184745Y-58921400D01*
X99815255Y-58921400D01*
X99241766Y-59035474D01*
X98755585Y-59360330D01*
X98555352Y-59660000D01*
X96734802Y-59660000D01*
X95935122Y-58860320D01*
X95935162Y-58814833D01*
X95793117Y-58471057D01*
X95530327Y-58207808D01*
X95186799Y-58065162D01*
X94814833Y-58064838D01*
X94471057Y-58206883D01*
X94207808Y-58469673D01*
X94065162Y-58813201D01*
X94064838Y-59185167D01*
X81385000Y-59185167D01*
X81385000Y-53866580D01*
X82625787Y-52625792D01*
X82625790Y-52625790D01*
X82736566Y-52460000D01*
X98316655Y-52460000D01*
X98442330Y-53091810D01*
X98669499Y-53431792D01*
X98532559Y-53519910D01*
X98387569Y-53732110D01*
X98336560Y-53984000D01*
X98336560Y-56016000D01*
X98380838Y-56251317D01*
X98519910Y-56467441D01*
X98732110Y-56612431D01*
X98984000Y-56663440D01*
X101016000Y-56663440D01*
X101251317Y-56619162D01*
X101467441Y-56480090D01*
X101612431Y-56267890D01*
X101663440Y-56016000D01*
X101663440Y-53984000D01*
X101619162Y-53748683D01*
X101480090Y-53532559D01*
X101331163Y-53430802D01*
X101557670Y-53091810D01*
X101683345Y-52460000D01*
X101557670Y-51828190D01*
X101199778Y-51292567D01*
X100664155Y-50934675D01*
X100032345Y-50809000D01*
X99967655Y-50809000D01*
X99335845Y-50934675D01*
X98800222Y-51292567D01*
X98442330Y-51828190D01*
X98316655Y-52460000D01*
X82736566Y-52460000D01*
X82817633Y-52338675D01*
X82885000Y-52000000D01*
X82885000Y-47806822D01*
X82934838Y-47686799D01*
X82935162Y-47314833D01*
X82833451Y-47068673D01*
X82934346Y-47048604D01*
X83302567Y-46802567D01*
X83548604Y-46434346D01*
X83635000Y-46000000D01*
X83615109Y-45900000D01*
X85202560Y-45900000D01*
X85202560Y-47400000D01*
X85246838Y-47635317D01*
X85385910Y-47851441D01*
X85598110Y-47996431D01*
X85611197Y-47999081D01*
X85398559Y-48135910D01*
X85253569Y-48348110D01*
X85202560Y-48600000D01*
X85202560Y-50100000D01*
X85246838Y-50335317D01*
X85385910Y-50551441D01*
X85598110Y-50696431D01*
X85612444Y-50699334D01*
X85565162Y-50813201D01*
X85564838Y-51185167D01*
X85706883Y-51528943D01*
X85969673Y-51792192D01*
X86313201Y-51934838D01*
X86685167Y-51935162D01*
X87028943Y-51793117D01*
X87292192Y-51530327D01*
X87434838Y-51186799D01*
X87435162Y-50814833D01*
X87388243Y-50701279D01*
X87601441Y-50564090D01*
X87746431Y-50351890D01*
X87749081Y-50338803D01*
X87885910Y-50551441D01*
X88098110Y-50696431D01*
X88112444Y-50699334D01*
X88065162Y-50813201D01*
X88064838Y-51185167D01*
X88206883Y-51528943D01*
X88469673Y-51792192D01*
X88813201Y-51934838D01*
X89185167Y-51935162D01*
X89528943Y-51793117D01*
X89792192Y-51530327D01*
X89934838Y-51186799D01*
X89935162Y-50814833D01*
X89888243Y-50701279D01*
X90101441Y-50564090D01*
X90246431Y-50351890D01*
X90249081Y-50338803D01*
X90385910Y-50551441D01*
X90598110Y-50696431D01*
X90612444Y-50699334D01*
X90565162Y-50813201D01*
X90564838Y-51185167D01*
X90706883Y-51528943D01*
X90969673Y-51792192D01*
X91313201Y-51934838D01*
X91685167Y-51935162D01*
X92028943Y-51793117D01*
X92292192Y-51530327D01*
X92434838Y-51186799D01*
X92435162Y-50814833D01*
X92388243Y-50701279D01*
X92601441Y-50564090D01*
X92746431Y-50351890D01*
X92749081Y-50338803D01*
X92885910Y-50551441D01*
X93098110Y-50696431D01*
X93112444Y-50699334D01*
X93065162Y-50813201D01*
X93064838Y-51185167D01*
X93206883Y-51528943D01*
X93469673Y-51792192D01*
X93813201Y-51934838D01*
X94185167Y-51935162D01*
X94528943Y-51793117D01*
X94792192Y-51530327D01*
X94934838Y-51186799D01*
X94935162Y-50814833D01*
X94888243Y-50701279D01*
X95101441Y-50564090D01*
X95246431Y-50351890D01*
X95297440Y-50100000D01*
X95297440Y-48600000D01*
X95253162Y-48364683D01*
X95114090Y-48148559D01*
X94901890Y-48003569D01*
X94888803Y-48000919D01*
X95101441Y-47864090D01*
X95246431Y-47651890D01*
X95269089Y-47540000D01*
X98316655Y-47540000D01*
X98442330Y-48171810D01*
X98800222Y-48707433D01*
X99335845Y-49065325D01*
X99967655Y-49191000D01*
X100032345Y-49191000D01*
X100664155Y-49065325D01*
X101199778Y-48707433D01*
X101557670Y-48171810D01*
X101683345Y-47540000D01*
X101557670Y-46908190D01*
X101333034Y-46571999D01*
X101375698Y-46554327D01*
X101554327Y-46375699D01*
X101651000Y-46142310D01*
X101651000Y-45285750D01*
X101492250Y-45127000D01*
X100127000Y-45127000D01*
X100127000Y-45147000D01*
X99873000Y-45147000D01*
X99873000Y-45127000D01*
X98507750Y-45127000D01*
X98349000Y-45285750D01*
X98349000Y-46142310D01*
X98445673Y-46375699D01*
X98624302Y-46554327D01*
X98666966Y-46571999D01*
X98442330Y-46908190D01*
X98316655Y-47540000D01*
X95269089Y-47540000D01*
X95297440Y-47400000D01*
X95297440Y-45900000D01*
X95253162Y-45664683D01*
X95114090Y-45448559D01*
X95001017Y-45371300D01*
X95046220Y-45148080D01*
X95046220Y-44350520D01*
X95001942Y-44115203D01*
X94935044Y-44011241D01*
X94937107Y-44009178D01*
X94999855Y-43857690D01*
X98349000Y-43857690D01*
X98349000Y-44714250D01*
X98507750Y-44873000D01*
X99873000Y-44873000D01*
X99873000Y-43507750D01*
X100127000Y-43507750D01*
X100127000Y-44873000D01*
X101492250Y-44873000D01*
X101651000Y-44714250D01*
X101651000Y-43857690D01*
X101554327Y-43624301D01*
X101375698Y-43445673D01*
X101142309Y-43349000D01*
X100285750Y-43349000D01*
X100127000Y-43507750D01*
X99873000Y-43507750D01*
X99714250Y-43349000D01*
X98857691Y-43349000D01*
X98624302Y-43445673D01*
X98445673Y-43624301D01*
X98349000Y-43857690D01*
X94999855Y-43857690D01*
X95033780Y-43775789D01*
X95033780Y-43536450D01*
X94875030Y-43377700D01*
X94127000Y-43377700D01*
X94127000Y-43397700D01*
X93873000Y-43397700D01*
X93873000Y-43377700D01*
X93124970Y-43377700D01*
X92966220Y-43536450D01*
X92966220Y-43775789D01*
X93062893Y-44009178D01*
X93064685Y-44010970D01*
X93004789Y-44098630D01*
X92953780Y-44350520D01*
X92953780Y-45148080D01*
X92996126Y-45373128D01*
X92898559Y-45435910D01*
X92753569Y-45648110D01*
X92750919Y-45661197D01*
X92614090Y-45448559D01*
X92501017Y-45371300D01*
X92546220Y-45148080D01*
X92546220Y-44350520D01*
X92501942Y-44115203D01*
X92435044Y-44011241D01*
X92437107Y-44009178D01*
X92533780Y-43775789D01*
X92533780Y-43536450D01*
X92375030Y-43377700D01*
X91627000Y-43377700D01*
X91627000Y-43397700D01*
X91373000Y-43397700D01*
X91373000Y-43377700D01*
X90624970Y-43377700D01*
X90466220Y-43536450D01*
X90466220Y-43775789D01*
X90562893Y-44009178D01*
X90564685Y-44010970D01*
X90504789Y-44098630D01*
X90453780Y-44350520D01*
X90453780Y-45148080D01*
X90496126Y-45373128D01*
X90398559Y-45435910D01*
X90253569Y-45648110D01*
X90250919Y-45661197D01*
X90114090Y-45448559D01*
X90001017Y-45371300D01*
X90046220Y-45148080D01*
X90046220Y-44350520D01*
X90001942Y-44115203D01*
X89935044Y-44011241D01*
X89937107Y-44009178D01*
X90033780Y-43775789D01*
X90033780Y-43536450D01*
X89875030Y-43377700D01*
X89127000Y-43377700D01*
X89127000Y-43397700D01*
X88873000Y-43397700D01*
X88873000Y-43377700D01*
X88124970Y-43377700D01*
X87966220Y-43536450D01*
X87966220Y-43775789D01*
X88062893Y-44009178D01*
X88064685Y-44010970D01*
X88004789Y-44098630D01*
X87953780Y-44350520D01*
X87953780Y-45148080D01*
X87996126Y-45373128D01*
X87898559Y-45435910D01*
X87753569Y-45648110D01*
X87750919Y-45661197D01*
X87614090Y-45448559D01*
X87501017Y-45371300D01*
X87546220Y-45148080D01*
X87546220Y-44350520D01*
X87501942Y-44115203D01*
X87435044Y-44011241D01*
X87437107Y-44009178D01*
X87533780Y-43775789D01*
X87533780Y-43536450D01*
X87375030Y-43377700D01*
X86627000Y-43377700D01*
X86627000Y-43397700D01*
X86373000Y-43397700D01*
X86373000Y-43377700D01*
X85624970Y-43377700D01*
X85466220Y-43536450D01*
X85466220Y-43775789D01*
X85562893Y-44009178D01*
X85564685Y-44010970D01*
X85504789Y-44098630D01*
X85453780Y-44350520D01*
X85453780Y-45148080D01*
X85496126Y-45373128D01*
X85398559Y-45435910D01*
X85253569Y-45648110D01*
X85202560Y-45900000D01*
X83615109Y-45900000D01*
X83548604Y-45565655D01*
X83302567Y-45197434D01*
X82302566Y-44197434D01*
X82191931Y-44123510D01*
X81934346Y-43951397D01*
X81500000Y-43865000D01*
X74380512Y-43865000D01*
X75519901Y-42725611D01*
X85466220Y-42725611D01*
X85466220Y-42964950D01*
X85624970Y-43123700D01*
X86373000Y-43123700D01*
X86373000Y-42375670D01*
X86627000Y-42375670D01*
X86627000Y-43123700D01*
X87375030Y-43123700D01*
X87533780Y-42964950D01*
X87533780Y-42725611D01*
X87966220Y-42725611D01*
X87966220Y-42964950D01*
X88124970Y-43123700D01*
X88873000Y-43123700D01*
X88873000Y-42375670D01*
X89127000Y-42375670D01*
X89127000Y-43123700D01*
X89875030Y-43123700D01*
X90033780Y-42964950D01*
X90033780Y-42725611D01*
X90466220Y-42725611D01*
X90466220Y-42964950D01*
X90624970Y-43123700D01*
X91373000Y-43123700D01*
X91373000Y-42375670D01*
X91627000Y-42375670D01*
X91627000Y-43123700D01*
X92375030Y-43123700D01*
X92533780Y-42964950D01*
X92533780Y-42725611D01*
X92966220Y-42725611D01*
X92966220Y-42964950D01*
X93124970Y-43123700D01*
X93873000Y-43123700D01*
X93873000Y-42375670D01*
X94127000Y-42375670D01*
X94127000Y-43123700D01*
X94875030Y-43123700D01*
X95033780Y-42964950D01*
X95033780Y-42725611D01*
X94937107Y-42492222D01*
X94758479Y-42313593D01*
X94525090Y-42216920D01*
X94285750Y-42216920D01*
X94127000Y-42375670D01*
X93873000Y-42375670D01*
X93714250Y-42216920D01*
X93474910Y-42216920D01*
X93241521Y-42313593D01*
X93062893Y-42492222D01*
X92966220Y-42725611D01*
X92533780Y-42725611D01*
X92437107Y-42492222D01*
X92258479Y-42313593D01*
X92025090Y-42216920D01*
X91785750Y-42216920D01*
X91627000Y-42375670D01*
X91373000Y-42375670D01*
X91214250Y-42216920D01*
X90974910Y-42216920D01*
X90741521Y-42313593D01*
X90562893Y-42492222D01*
X90466220Y-42725611D01*
X90033780Y-42725611D01*
X89937107Y-42492222D01*
X89758479Y-42313593D01*
X89525090Y-42216920D01*
X89285750Y-42216920D01*
X89127000Y-42375670D01*
X88873000Y-42375670D01*
X88714250Y-42216920D01*
X88474910Y-42216920D01*
X88241521Y-42313593D01*
X88062893Y-42492222D01*
X87966220Y-42725611D01*
X87533780Y-42725611D01*
X87437107Y-42492222D01*
X87258479Y-42313593D01*
X87025090Y-42216920D01*
X86785750Y-42216920D01*
X86627000Y-42375670D01*
X86373000Y-42375670D01*
X86214250Y-42216920D01*
X85974910Y-42216920D01*
X85741521Y-42313593D01*
X85562893Y-42492222D01*
X85466220Y-42725611D01*
X75519901Y-42725611D01*
X76672756Y-41572757D01*
X76805420Y-41374211D01*
X76848342Y-41309974D01*
X76869734Y-41202428D01*
X77350000Y-41297959D01*
X77923489Y-41183885D01*
X78409670Y-40859029D01*
X78620000Y-40544248D01*
X78830330Y-40859029D01*
X79316511Y-41183885D01*
X79890000Y-41297959D01*
X80463489Y-41183885D01*
X80949670Y-40859029D01*
X81160000Y-40544248D01*
X81370330Y-40859029D01*
X81856511Y-41183885D01*
X82430000Y-41297959D01*
X83003489Y-41183885D01*
X83489670Y-40859029D01*
X83700000Y-40544248D01*
X83910330Y-40859029D01*
X84396511Y-41183885D01*
X84970000Y-41297959D01*
X85543489Y-41183885D01*
X86029670Y-40859029D01*
X86240000Y-40544248D01*
X86450330Y-40859029D01*
X86936511Y-41183885D01*
X87510000Y-41297959D01*
X88083489Y-41183885D01*
X88569670Y-40859029D01*
X88780000Y-40544248D01*
X88990330Y-40859029D01*
X89476511Y-41183885D01*
X90050000Y-41297959D01*
X90623489Y-41183885D01*
X91109670Y-40859029D01*
X91320000Y-40544248D01*
X91530330Y-40859029D01*
X92016511Y-41183885D01*
X92590000Y-41297959D01*
X93163489Y-41183885D01*
X93649670Y-40859029D01*
X93860000Y-40544248D01*
X94070330Y-40859029D01*
G36*
X43354472Y-42893948D02*
X43065654Y-42951397D01*
X42697434Y-43197434D01*
X41197434Y-44697434D01*
X40951397Y-45065654D01*
X40865000Y-45500000D01*
X40865000Y-46052460D01*
X39949590Y-46052460D01*
X39714273Y-46096738D01*
X39498149Y-46235810D01*
X39353159Y-46448010D01*
X39302150Y-46699900D01*
X39302150Y-48300100D01*
X39346428Y-48535417D01*
X39485500Y-48751541D01*
X39697700Y-48896531D01*
X39949590Y-48947540D01*
X40614180Y-48947540D01*
X40614180Y-50385180D01*
X40700577Y-50819526D01*
X40821166Y-51000000D01*
X40946614Y-51187746D01*
X43631868Y-53873000D01*
X42859053Y-53873000D01*
X42633636Y-53828162D01*
X42566170Y-53828162D01*
X42500000Y-53815000D01*
X39567466Y-53815000D01*
X39384590Y-53778624D01*
X39286751Y-53713250D01*
X39221376Y-53615409D01*
X39185000Y-53432534D01*
X39185000Y-42127000D01*
X44121421Y-42127000D01*
X43354472Y-42893948D01*
X43354472Y-42893948D01*
G37*
X43354472Y-42893948D02*
X43065654Y-42951397D01*
X42697434Y-43197434D01*
X41197434Y-44697434D01*
X40951397Y-45065654D01*
X40865000Y-45500000D01*
X40865000Y-46052460D01*
X39949590Y-46052460D01*
X39714273Y-46096738D01*
X39498149Y-46235810D01*
X39353159Y-46448010D01*
X39302150Y-46699900D01*
X39302150Y-48300100D01*
X39346428Y-48535417D01*
X39485500Y-48751541D01*
X39697700Y-48896531D01*
X39949590Y-48947540D01*
X40614180Y-48947540D01*
X40614180Y-50385180D01*
X40700577Y-50819526D01*
X40821166Y-51000000D01*
X40946614Y-51187746D01*
X43631868Y-53873000D01*
X42859053Y-53873000D01*
X42633636Y-53828162D01*
X42566170Y-53828162D01*
X42500000Y-53815000D01*
X39567466Y-53815000D01*
X39384590Y-53778624D01*
X39286751Y-53713250D01*
X39221376Y-53615409D01*
X39185000Y-53432534D01*
X39185000Y-42127000D01*
X44121421Y-42127000D01*
X43354472Y-42893948D01*
G36*
X57157000Y-39643000D02*
X57177000Y-39643000D01*
X57177000Y-39897000D01*
X57157000Y-39897000D01*
X57157000Y-41103817D01*
X57389026Y-41224958D01*
X57804947Y-41052688D01*
X58236821Y-40658490D01*
X58294336Y-40535772D01*
X58510330Y-40859029D01*
X58996511Y-41183885D01*
X59570000Y-41297959D01*
X60143489Y-41183885D01*
X60629670Y-40859029D01*
X60840000Y-40544248D01*
X61050330Y-40859029D01*
X61536511Y-41183885D01*
X62110000Y-41297959D01*
X62683489Y-41183885D01*
X63169670Y-40859029D01*
X63380000Y-40544248D01*
X63590330Y-40859029D01*
X64076511Y-41183885D01*
X64650000Y-41297959D01*
X65223489Y-41183885D01*
X65709670Y-40859029D01*
X65920000Y-40544248D01*
X66130330Y-40859029D01*
X66616511Y-41183885D01*
X67190000Y-41297959D01*
X67763489Y-41183885D01*
X68249670Y-40859029D01*
X68460000Y-40544248D01*
X68670330Y-40859029D01*
X68865230Y-40989257D01*
X68464488Y-41390000D01*
X60987441Y-41390000D01*
X60686799Y-41265162D01*
X60314833Y-41264838D01*
X59971057Y-41406883D01*
X59707808Y-41669673D01*
X59565162Y-42013201D01*
X59564838Y-42385167D01*
X59706883Y-42728943D01*
X59969673Y-42992192D01*
X60279596Y-43120884D01*
X60406883Y-43428943D01*
X60669673Y-43692192D01*
X61013201Y-43834838D01*
X61385167Y-43835162D01*
X61688083Y-43710000D01*
X62164991Y-43710000D01*
X62164838Y-43885167D01*
X62306883Y-44228943D01*
X62569673Y-44492192D01*
X62913201Y-44634838D01*
X63285167Y-44635162D01*
X63576992Y-44514583D01*
X63706883Y-44828943D01*
X63742877Y-44865000D01*
X59186431Y-44865000D01*
X59125000Y-44852560D01*
X58957692Y-44852560D01*
X58102926Y-43997794D01*
X58033488Y-43951397D01*
X57734706Y-43751757D01*
X57300360Y-43665360D01*
X56003176Y-43665360D01*
X55750000Y-43615000D01*
X55496824Y-43665360D01*
X54947540Y-43665360D01*
X54947540Y-43300490D01*
X54903262Y-43065173D01*
X54764190Y-42849049D01*
X54551990Y-42704059D01*
X54300100Y-42653050D01*
X52699900Y-42653050D01*
X52464583Y-42697328D01*
X52248459Y-42836400D01*
X52103469Y-43048600D01*
X52052460Y-43300490D01*
X52052460Y-43665360D01*
X50270492Y-43665360D01*
X48005000Y-41399868D01*
X48005000Y-41213543D01*
X48185041Y-41097690D01*
X48330031Y-40885490D01*
X48338864Y-40841869D01*
X48350330Y-40859029D01*
X48836511Y-41183885D01*
X49410000Y-41297959D01*
X49983489Y-41183885D01*
X50469670Y-40859029D01*
X50680000Y-40544248D01*
X50890330Y-40859029D01*
X51376511Y-41183885D01*
X51950000Y-41297959D01*
X52523489Y-41183885D01*
X53009670Y-40859029D01*
X53220000Y-40544248D01*
X53430330Y-40859029D01*
X53916511Y-41183885D01*
X54490000Y-41297959D01*
X55063489Y-41183885D01*
X55549670Y-40859029D01*
X55765664Y-40535772D01*
X55823179Y-40658490D01*
X56255053Y-41052688D01*
X56670974Y-41224958D01*
X56903000Y-41103817D01*
X56903000Y-39897000D01*
X56883000Y-39897000D01*
X56883000Y-39643000D01*
X56903000Y-39643000D01*
X56903000Y-39623000D01*
X57157000Y-39623000D01*
X57157000Y-39643000D01*
X57157000Y-39643000D01*
G37*
X57157000Y-39643000D02*
X57177000Y-39643000D01*
X57177000Y-39897000D01*
X57157000Y-39897000D01*
X57157000Y-41103817D01*
X57389026Y-41224958D01*
X57804947Y-41052688D01*
X58236821Y-40658490D01*
X58294336Y-40535772D01*
X58510330Y-40859029D01*
X58996511Y-41183885D01*
X59570000Y-41297959D01*
X60143489Y-41183885D01*
X60629670Y-40859029D01*
X60840000Y-40544248D01*
X61050330Y-40859029D01*
X61536511Y-41183885D01*
X62110000Y-41297959D01*
X62683489Y-41183885D01*
X63169670Y-40859029D01*
X63380000Y-40544248D01*
X63590330Y-40859029D01*
X64076511Y-41183885D01*
X64650000Y-41297959D01*
X65223489Y-41183885D01*
X65709670Y-40859029D01*
X65920000Y-40544248D01*
X66130330Y-40859029D01*
X66616511Y-41183885D01*
X67190000Y-41297959D01*
X67763489Y-41183885D01*
X68249670Y-40859029D01*
X68460000Y-40544248D01*
X68670330Y-40859029D01*
X68865230Y-40989257D01*
X68464488Y-41390000D01*
X60987441Y-41390000D01*
X60686799Y-41265162D01*
X60314833Y-41264838D01*
X59971057Y-41406883D01*
X59707808Y-41669673D01*
X59565162Y-42013201D01*
X59564838Y-42385167D01*
X59706883Y-42728943D01*
X59969673Y-42992192D01*
X60279596Y-43120884D01*
X60406883Y-43428943D01*
X60669673Y-43692192D01*
X61013201Y-43834838D01*
X61385167Y-43835162D01*
X61688083Y-43710000D01*
X62164991Y-43710000D01*
X62164838Y-43885167D01*
X62306883Y-44228943D01*
X62569673Y-44492192D01*
X62913201Y-44634838D01*
X63285167Y-44635162D01*
X63576992Y-44514583D01*
X63706883Y-44828943D01*
X63742877Y-44865000D01*
X59186431Y-44865000D01*
X59125000Y-44852560D01*
X58957692Y-44852560D01*
X58102926Y-43997794D01*
X58033488Y-43951397D01*
X57734706Y-43751757D01*
X57300360Y-43665360D01*
X56003176Y-43665360D01*
X55750000Y-43615000D01*
X55496824Y-43665360D01*
X54947540Y-43665360D01*
X54947540Y-43300490D01*
X54903262Y-43065173D01*
X54764190Y-42849049D01*
X54551990Y-42704059D01*
X54300100Y-42653050D01*
X52699900Y-42653050D01*
X52464583Y-42697328D01*
X52248459Y-42836400D01*
X52103469Y-43048600D01*
X52052460Y-43300490D01*
X52052460Y-43665360D01*
X50270492Y-43665360D01*
X48005000Y-41399868D01*
X48005000Y-41213543D01*
X48185041Y-41097690D01*
X48330031Y-40885490D01*
X48338864Y-40841869D01*
X48350330Y-40859029D01*
X48836511Y-41183885D01*
X49410000Y-41297959D01*
X49983489Y-41183885D01*
X50469670Y-40859029D01*
X50680000Y-40544248D01*
X50890330Y-40859029D01*
X51376511Y-41183885D01*
X51950000Y-41297959D01*
X52523489Y-41183885D01*
X53009670Y-40859029D01*
X53220000Y-40544248D01*
X53430330Y-40859029D01*
X53916511Y-41183885D01*
X54490000Y-41297959D01*
X55063489Y-41183885D01*
X55549670Y-40859029D01*
X55765664Y-40535772D01*
X55823179Y-40658490D01*
X56255053Y-41052688D01*
X56670974Y-41224958D01*
X56903000Y-41103817D01*
X56903000Y-39897000D01*
X56883000Y-39897000D01*
X56883000Y-39643000D01*
X56903000Y-39643000D01*
X56903000Y-39623000D01*
X57157000Y-39623000D01*
X57157000Y-39643000D01*
G36*
X55970330Y-38319029D02*
X56241161Y-38499992D01*
X55823179Y-38881510D01*
X55765664Y-39004228D01*
X55549670Y-38680971D01*
X55278828Y-38500000D01*
X55549670Y-38319029D01*
X55760000Y-38004248D01*
X55970330Y-38319029D01*
X55970330Y-38319029D01*
G37*
X55970330Y-38319029D02*
X56241161Y-38499992D01*
X55823179Y-38881510D01*
X55765664Y-39004228D01*
X55549670Y-38680971D01*
X55278828Y-38500000D01*
X55549670Y-38319029D01*
X55760000Y-38004248D01*
X55970330Y-38319029D01*
G36*
X53430330Y-38319029D02*
X53701172Y-38500000D01*
X53430330Y-38680971D01*
X53220000Y-38995752D01*
X53009670Y-38680971D01*
X52738839Y-38500008D01*
X53156821Y-38118490D01*
X53214336Y-37995772D01*
X53430330Y-38319029D01*
X53430330Y-38319029D01*
G37*
X53430330Y-38319029D02*
X53701172Y-38500000D01*
X53430330Y-38680971D01*
X53220000Y-38995752D01*
X53009670Y-38680971D01*
X52738839Y-38500008D01*
X53156821Y-38118490D01*
X53214336Y-37995772D01*
X53430330Y-38319029D01*
G36*
X96373000Y-36415344D02*
X96189670Y-36140971D01*
X95703489Y-35816115D01*
X95130000Y-35702041D01*
X94556511Y-35816115D01*
X94070330Y-36140971D01*
X93860000Y-36455752D01*
X93649670Y-36140971D01*
X93163489Y-35816115D01*
X92590000Y-35702041D01*
X92016511Y-35816115D01*
X91530330Y-36140971D01*
X91320000Y-36455752D01*
X91109670Y-36140971D01*
X90623489Y-35816115D01*
X90050000Y-35702041D01*
X89476511Y-35816115D01*
X88990330Y-36140971D01*
X88780000Y-36455752D01*
X88569670Y-36140971D01*
X88083489Y-35816115D01*
X87510000Y-35702041D01*
X86936511Y-35816115D01*
X86450330Y-36140971D01*
X86240000Y-36455752D01*
X86029670Y-36140971D01*
X85543489Y-35816115D01*
X84970000Y-35702041D01*
X84396511Y-35816115D01*
X83910330Y-36140971D01*
X83700000Y-36455752D01*
X83489670Y-36140971D01*
X83003489Y-35816115D01*
X82430000Y-35702041D01*
X81856511Y-35816115D01*
X81370330Y-36140971D01*
X81160000Y-36455752D01*
X80949670Y-36140971D01*
X80463489Y-35816115D01*
X79890000Y-35702041D01*
X79316511Y-35816115D01*
X78830330Y-36140971D01*
X78620000Y-36455752D01*
X78409670Y-36140971D01*
X77923489Y-35816115D01*
X77350000Y-35702041D01*
X76776511Y-35816115D01*
X76290330Y-36140971D01*
X76080000Y-36455752D01*
X75869670Y-36140971D01*
X75383489Y-35816115D01*
X74810000Y-35702041D01*
X74236511Y-35816115D01*
X73750330Y-36140971D01*
X73540000Y-36455752D01*
X73329670Y-36140971D01*
X72843489Y-35816115D01*
X72270000Y-35702041D01*
X71696511Y-35816115D01*
X71210330Y-36140971D01*
X71000000Y-36455752D01*
X70789670Y-36140971D01*
X70303489Y-35816115D01*
X69730000Y-35702041D01*
X69156511Y-35816115D01*
X68670330Y-36140971D01*
X68460000Y-36455752D01*
X68249670Y-36140971D01*
X67763489Y-35816115D01*
X67190000Y-35702041D01*
X66616511Y-35816115D01*
X66130330Y-36140971D01*
X65920000Y-36455752D01*
X65709670Y-36140971D01*
X65223489Y-35816115D01*
X64650000Y-35702041D01*
X64076511Y-35816115D01*
X63590330Y-36140971D01*
X63380000Y-36455752D01*
X63169670Y-36140971D01*
X62683489Y-35816115D01*
X62110000Y-35702041D01*
X61536511Y-35816115D01*
X61050330Y-36140971D01*
X60840000Y-36455752D01*
X60629670Y-36140971D01*
X60143489Y-35816115D01*
X59570000Y-35702041D01*
X58996511Y-35816115D01*
X58510330Y-36140971D01*
X58300000Y-36455752D01*
X58089670Y-36140971D01*
X57603489Y-35816115D01*
X57030000Y-35702041D01*
X56456511Y-35816115D01*
X55970330Y-36140971D01*
X55760000Y-36455752D01*
X55549670Y-36140971D01*
X55063489Y-35816115D01*
X54490000Y-35702041D01*
X53916511Y-35816115D01*
X53430330Y-36140971D01*
X53214336Y-36464228D01*
X53156821Y-36341510D01*
X52724947Y-35947312D01*
X52309026Y-35775042D01*
X52077000Y-35896183D01*
X52077000Y-37103000D01*
X52097000Y-37103000D01*
X52097000Y-37357000D01*
X52077000Y-37357000D01*
X52077000Y-37377000D01*
X51823000Y-37377000D01*
X51823000Y-37357000D01*
X51803000Y-37357000D01*
X51803000Y-37103000D01*
X51823000Y-37103000D01*
X51823000Y-35896183D01*
X51590974Y-35775042D01*
X51175053Y-35947312D01*
X50743179Y-36341510D01*
X50685664Y-36464228D01*
X50469670Y-36140971D01*
X49983489Y-35816115D01*
X49410000Y-35702041D01*
X48836511Y-35816115D01*
X48419130Y-36095000D01*
X47860870Y-36095000D01*
X47443489Y-35816115D01*
X46870000Y-35702041D01*
X46296511Y-35816115D01*
X45810330Y-36140971D01*
X45627000Y-36415344D01*
X45627000Y-35685000D01*
X96373000Y-35685000D01*
X96373000Y-36415344D01*
X96373000Y-36415344D01*
G37*
X96373000Y-36415344D02*
X96189670Y-36140971D01*
X95703489Y-35816115D01*
X95130000Y-35702041D01*
X94556511Y-35816115D01*
X94070330Y-36140971D01*
X93860000Y-36455752D01*
X93649670Y-36140971D01*
X93163489Y-35816115D01*
X92590000Y-35702041D01*
X92016511Y-35816115D01*
X91530330Y-36140971D01*
X91320000Y-36455752D01*
X91109670Y-36140971D01*
X90623489Y-35816115D01*
X90050000Y-35702041D01*
X89476511Y-35816115D01*
X88990330Y-36140971D01*
X88780000Y-36455752D01*
X88569670Y-36140971D01*
X88083489Y-35816115D01*
X87510000Y-35702041D01*
X86936511Y-35816115D01*
X86450330Y-36140971D01*
X86240000Y-36455752D01*
X86029670Y-36140971D01*
X85543489Y-35816115D01*
X84970000Y-35702041D01*
X84396511Y-35816115D01*
X83910330Y-36140971D01*
X83700000Y-36455752D01*
X83489670Y-36140971D01*
X83003489Y-35816115D01*
X82430000Y-35702041D01*
X81856511Y-35816115D01*
X81370330Y-36140971D01*
X81160000Y-36455752D01*
X80949670Y-36140971D01*
X80463489Y-35816115D01*
X79890000Y-35702041D01*
X79316511Y-35816115D01*
X78830330Y-36140971D01*
X78620000Y-36455752D01*
X78409670Y-36140971D01*
X77923489Y-35816115D01*
X77350000Y-35702041D01*
X76776511Y-35816115D01*
X76290330Y-36140971D01*
X76080000Y-36455752D01*
X75869670Y-36140971D01*
X75383489Y-35816115D01*
X74810000Y-35702041D01*
X74236511Y-35816115D01*
X73750330Y-36140971D01*
X73540000Y-36455752D01*
X73329670Y-36140971D01*
X72843489Y-35816115D01*
X72270000Y-35702041D01*
X71696511Y-35816115D01*
X71210330Y-36140971D01*
X71000000Y-36455752D01*
X70789670Y-36140971D01*
X70303489Y-35816115D01*
X69730000Y-35702041D01*
X69156511Y-35816115D01*
X68670330Y-36140971D01*
X68460000Y-36455752D01*
X68249670Y-36140971D01*
X67763489Y-35816115D01*
X67190000Y-35702041D01*
X66616511Y-35816115D01*
X66130330Y-36140971D01*
X65920000Y-36455752D01*
X65709670Y-36140971D01*
X65223489Y-35816115D01*
X64650000Y-35702041D01*
X64076511Y-35816115D01*
X63590330Y-36140971D01*
X63380000Y-36455752D01*
X63169670Y-36140971D01*
X62683489Y-35816115D01*
X62110000Y-35702041D01*
X61536511Y-35816115D01*
X61050330Y-36140971D01*
X60840000Y-36455752D01*
X60629670Y-36140971D01*
X60143489Y-35816115D01*
X59570000Y-35702041D01*
X58996511Y-35816115D01*
X58510330Y-36140971D01*
X58300000Y-36455752D01*
X58089670Y-36140971D01*
X57603489Y-35816115D01*
X57030000Y-35702041D01*
X56456511Y-35816115D01*
X55970330Y-36140971D01*
X55760000Y-36455752D01*
X55549670Y-36140971D01*
X55063489Y-35816115D01*
X54490000Y-35702041D01*
X53916511Y-35816115D01*
X53430330Y-36140971D01*
X53214336Y-36464228D01*
X53156821Y-36341510D01*
X52724947Y-35947312D01*
X52309026Y-35775042D01*
X52077000Y-35896183D01*
X52077000Y-37103000D01*
X52097000Y-37103000D01*
X52097000Y-37357000D01*
X52077000Y-37357000D01*
X52077000Y-37377000D01*
X51823000Y-37377000D01*
X51823000Y-37357000D01*
X51803000Y-37357000D01*
X51803000Y-37103000D01*
X51823000Y-37103000D01*
X51823000Y-35896183D01*
X51590974Y-35775042D01*
X51175053Y-35947312D01*
X50743179Y-36341510D01*
X50685664Y-36464228D01*
X50469670Y-36140971D01*
X49983489Y-35816115D01*
X49410000Y-35702041D01*
X48836511Y-35816115D01*
X48419130Y-36095000D01*
X47860870Y-36095000D01*
X47443489Y-35816115D01*
X46870000Y-35702041D01*
X46296511Y-35816115D01*
X45810330Y-36140971D01*
X45627000Y-36415344D01*
X45627000Y-35685000D01*
X96373000Y-35685000D01*
X96373000Y-36415344D01*
M02*
