G04 #@! TF.FileFunction,Legend,Bot*
%FSLAX46Y46*%
G04 Gerber Fmt 4.6, Leading zero omitted, Abs format (unit mm)*
G04 Created by KiCad (PCBNEW 0.201509131501+6189~30~ubuntu14.04.1-product) date Sam 03 Okt 2015 10:07:37 CEST*
%MOMM*%
G01*
G04 APERTURE LIST*
%ADD10C,0.200000*%
%ADD11C,0.150000*%
G04 APERTURE END LIST*
D10*
D11*
X92125000Y-54425000D02*
X92125000Y-54760000D01*
X84375000Y-54425000D02*
X84375000Y-54760000D01*
X84375000Y-67575000D02*
X84375000Y-67240000D01*
X92125000Y-67575000D02*
X92125000Y-67240000D01*
X92125000Y-54425000D02*
X84375000Y-54425000D01*
X92125000Y-67575000D02*
X84375000Y-67575000D01*
X92125000Y-54760000D02*
X93925000Y-54760000D01*
X82150000Y-49000000D02*
X82150000Y-48000000D01*
X83850000Y-48000000D02*
X83850000Y-49000000D01*
X79650000Y-56500000D02*
X79650000Y-55500000D01*
X81350000Y-55500000D02*
X81350000Y-56500000D01*
X81575000Y-50575000D02*
X81430000Y-50575000D01*
X81575000Y-46425000D02*
X81430000Y-46425000D01*
X76425000Y-46425000D02*
X76570000Y-46425000D01*
X76425000Y-50575000D02*
X76570000Y-50575000D01*
X81575000Y-50575000D02*
X81575000Y-46425000D01*
X76425000Y-50575000D02*
X76425000Y-46425000D01*
X81430000Y-50575000D02*
X81430000Y-51975000D01*
X81400000Y-70375000D02*
X82600000Y-70375000D01*
X82600000Y-68625000D02*
X81400000Y-68625000D01*
X74100000Y-50125000D02*
X72900000Y-50125000D01*
X72900000Y-51875000D02*
X74100000Y-51875000D01*
X74100000Y-46125000D02*
X72900000Y-46125000D01*
X72900000Y-47875000D02*
X74100000Y-47875000D01*
X74100000Y-48125000D02*
X72900000Y-48125000D01*
X72900000Y-49875000D02*
X74100000Y-49875000D01*
X87375000Y-48600000D02*
X87375000Y-47400000D01*
X85625000Y-47400000D02*
X85625000Y-48600000D01*
X89875000Y-48600000D02*
X89875000Y-47400000D01*
X88125000Y-47400000D02*
X88125000Y-48600000D01*
X92375000Y-48600000D02*
X92375000Y-47400000D01*
X90625000Y-47400000D02*
X90625000Y-48600000D01*
X94875000Y-48600000D02*
X94875000Y-47400000D01*
X93125000Y-47400000D02*
X93125000Y-48600000D01*
D10*
X88899905Y-60412381D02*
X88899905Y-61221905D01*
X88852286Y-61317143D01*
X88804667Y-61364762D01*
X88709429Y-61412381D01*
X88518952Y-61412381D01*
X88423714Y-61364762D01*
X88376095Y-61317143D01*
X88328476Y-61221905D01*
X88328476Y-60412381D01*
X87328476Y-61412381D02*
X87899905Y-61412381D01*
X87614191Y-61412381D02*
X87614191Y-60412381D01*
X87709429Y-60555238D01*
X87804667Y-60650476D01*
X87899905Y-60698095D01*
X83224666Y-51665143D02*
X83272285Y-51712762D01*
X83415142Y-51760381D01*
X83510380Y-51760381D01*
X83653238Y-51712762D01*
X83748476Y-51617524D01*
X83796095Y-51522286D01*
X83843714Y-51331810D01*
X83843714Y-51188952D01*
X83796095Y-50998476D01*
X83748476Y-50903238D01*
X83653238Y-50808000D01*
X83510380Y-50760381D01*
X83415142Y-50760381D01*
X83272285Y-50808000D01*
X83224666Y-50855619D01*
X82367523Y-50760381D02*
X82558000Y-50760381D01*
X82653238Y-50808000D01*
X82700857Y-50855619D01*
X82796095Y-50998476D01*
X82843714Y-51188952D01*
X82843714Y-51569905D01*
X82796095Y-51665143D01*
X82748476Y-51712762D01*
X82653238Y-51760381D01*
X82462761Y-51760381D01*
X82367523Y-51712762D01*
X82319904Y-51665143D01*
X82272285Y-51569905D01*
X82272285Y-51331810D01*
X82319904Y-51236571D01*
X82367523Y-51188952D01*
X82462761Y-51141333D01*
X82653238Y-51141333D01*
X82748476Y-51188952D01*
X82796095Y-51236571D01*
X82843714Y-51331810D01*
X78757143Y-55833334D02*
X78804762Y-55785715D01*
X78852381Y-55642858D01*
X78852381Y-55547620D01*
X78804762Y-55404762D01*
X78709524Y-55309524D01*
X78614286Y-55261905D01*
X78423810Y-55214286D01*
X78280952Y-55214286D01*
X78090476Y-55261905D01*
X77995238Y-55309524D01*
X77900000Y-55404762D01*
X77852381Y-55547620D01*
X77852381Y-55642858D01*
X77900000Y-55785715D01*
X77947619Y-55833334D01*
X78852381Y-56309524D02*
X78852381Y-56500000D01*
X78804762Y-56595239D01*
X78757143Y-56642858D01*
X78614286Y-56738096D01*
X78423810Y-56785715D01*
X78042857Y-56785715D01*
X77947619Y-56738096D01*
X77900000Y-56690477D01*
X77852381Y-56595239D01*
X77852381Y-56404762D01*
X77900000Y-56309524D01*
X77947619Y-56261905D01*
X78042857Y-56214286D01*
X78280952Y-56214286D01*
X78376190Y-56261905D01*
X78423810Y-56309524D01*
X78471429Y-56404762D01*
X78471429Y-56595239D01*
X78423810Y-56690477D01*
X78376190Y-56738096D01*
X78280952Y-56785715D01*
D11*
X82952381Y-47523810D02*
X81952381Y-47523810D01*
X82857143Y-48571429D02*
X82904762Y-48523810D01*
X82952381Y-48380953D01*
X82952381Y-48285715D01*
X82904762Y-48142857D01*
X82809524Y-48047619D01*
X82714286Y-48000000D01*
X82523810Y-47952381D01*
X82380952Y-47952381D01*
X82190476Y-48000000D01*
X82095238Y-48047619D01*
X82000000Y-48142857D01*
X81952381Y-48285715D01*
X81952381Y-48380953D01*
X82000000Y-48523810D01*
X82047619Y-48571429D01*
X82952381Y-49523810D02*
X82952381Y-48952381D01*
X82952381Y-49238095D02*
X81952381Y-49238095D01*
X82095238Y-49142857D01*
X82190476Y-49047619D01*
X82238095Y-48952381D01*
D10*
X80652857Y-67762381D02*
X80986191Y-67286190D01*
X81224286Y-67762381D02*
X81224286Y-66762381D01*
X80843333Y-66762381D01*
X80748095Y-66810000D01*
X80700476Y-66857619D01*
X80652857Y-66952857D01*
X80652857Y-67095714D01*
X80700476Y-67190952D01*
X80748095Y-67238571D01*
X80843333Y-67286190D01*
X81224286Y-67286190D01*
X79700476Y-67762381D02*
X80271905Y-67762381D01*
X79986191Y-67762381D02*
X79986191Y-66762381D01*
X80081429Y-66905238D01*
X80176667Y-67000476D01*
X80271905Y-67048095D01*
X78748095Y-67762381D02*
X79319524Y-67762381D01*
X79033810Y-67762381D02*
X79033810Y-66762381D01*
X79129048Y-66905238D01*
X79224286Y-67000476D01*
X79319524Y-67048095D01*
X70238857Y-51506381D02*
X70572191Y-51030190D01*
X70810286Y-51506381D02*
X70810286Y-50506381D01*
X70429333Y-50506381D01*
X70334095Y-50554000D01*
X70286476Y-50601619D01*
X70238857Y-50696857D01*
X70238857Y-50839714D01*
X70286476Y-50934952D01*
X70334095Y-50982571D01*
X70429333Y-51030190D01*
X70810286Y-51030190D01*
X69286476Y-51506381D02*
X69857905Y-51506381D01*
X69572191Y-51506381D02*
X69572191Y-50506381D01*
X69667429Y-50649238D01*
X69762667Y-50744476D01*
X69857905Y-50792095D01*
X68905524Y-50601619D02*
X68857905Y-50554000D01*
X68762667Y-50506381D01*
X68524571Y-50506381D01*
X68429333Y-50554000D01*
X68381714Y-50601619D01*
X68334095Y-50696857D01*
X68334095Y-50792095D01*
X68381714Y-50934952D01*
X68953143Y-51506381D01*
X68334095Y-51506381D01*
X70238857Y-47442381D02*
X70572191Y-46966190D01*
X70810286Y-47442381D02*
X70810286Y-46442381D01*
X70429333Y-46442381D01*
X70334095Y-46490000D01*
X70286476Y-46537619D01*
X70238857Y-46632857D01*
X70238857Y-46775714D01*
X70286476Y-46870952D01*
X70334095Y-46918571D01*
X70429333Y-46966190D01*
X70810286Y-46966190D01*
X69286476Y-47442381D02*
X69857905Y-47442381D01*
X69572191Y-47442381D02*
X69572191Y-46442381D01*
X69667429Y-46585238D01*
X69762667Y-46680476D01*
X69857905Y-46728095D01*
X68953143Y-46442381D02*
X68334095Y-46442381D01*
X68667429Y-46823333D01*
X68524571Y-46823333D01*
X68429333Y-46870952D01*
X68381714Y-46918571D01*
X68334095Y-47013810D01*
X68334095Y-47251905D01*
X68381714Y-47347143D01*
X68429333Y-47394762D01*
X68524571Y-47442381D01*
X68810286Y-47442381D01*
X68905524Y-47394762D01*
X68953143Y-47347143D01*
X70238857Y-49474381D02*
X70572191Y-48998190D01*
X70810286Y-49474381D02*
X70810286Y-48474381D01*
X70429333Y-48474381D01*
X70334095Y-48522000D01*
X70286476Y-48569619D01*
X70238857Y-48664857D01*
X70238857Y-48807714D01*
X70286476Y-48902952D01*
X70334095Y-48950571D01*
X70429333Y-48998190D01*
X70810286Y-48998190D01*
X69286476Y-49474381D02*
X69857905Y-49474381D01*
X69572191Y-49474381D02*
X69572191Y-48474381D01*
X69667429Y-48617238D01*
X69762667Y-48712476D01*
X69857905Y-48760095D01*
X68429333Y-48807714D02*
X68429333Y-49474381D01*
X68667429Y-48426762D02*
X68905524Y-49141048D01*
X68286476Y-49141048D01*
X87066381Y-51427143D02*
X86590190Y-51093809D01*
X87066381Y-50855714D02*
X86066381Y-50855714D01*
X86066381Y-51236667D01*
X86114000Y-51331905D01*
X86161619Y-51379524D01*
X86256857Y-51427143D01*
X86399714Y-51427143D01*
X86494952Y-51379524D01*
X86542571Y-51331905D01*
X86590190Y-51236667D01*
X86590190Y-50855714D01*
X87066381Y-52379524D02*
X87066381Y-51808095D01*
X87066381Y-52093809D02*
X86066381Y-52093809D01*
X86209238Y-51998571D01*
X86304476Y-51903333D01*
X86352095Y-51808095D01*
X87066381Y-52855714D02*
X87066381Y-53046190D01*
X87018762Y-53141429D01*
X86971143Y-53189048D01*
X86828286Y-53284286D01*
X86637810Y-53331905D01*
X86256857Y-53331905D01*
X86161619Y-53284286D01*
X86114000Y-53236667D01*
X86066381Y-53141429D01*
X86066381Y-52950952D01*
X86114000Y-52855714D01*
X86161619Y-52808095D01*
X86256857Y-52760476D01*
X86494952Y-52760476D01*
X86590190Y-52808095D01*
X86637810Y-52855714D01*
X86685429Y-52950952D01*
X86685429Y-53141429D01*
X86637810Y-53236667D01*
X86590190Y-53284286D01*
X86494952Y-53331905D01*
X89352381Y-51427143D02*
X88876190Y-51093809D01*
X89352381Y-50855714D02*
X88352381Y-50855714D01*
X88352381Y-51236667D01*
X88400000Y-51331905D01*
X88447619Y-51379524D01*
X88542857Y-51427143D01*
X88685714Y-51427143D01*
X88780952Y-51379524D01*
X88828571Y-51331905D01*
X88876190Y-51236667D01*
X88876190Y-50855714D01*
X88447619Y-51808095D02*
X88400000Y-51855714D01*
X88352381Y-51950952D01*
X88352381Y-52189048D01*
X88400000Y-52284286D01*
X88447619Y-52331905D01*
X88542857Y-52379524D01*
X88638095Y-52379524D01*
X88780952Y-52331905D01*
X89352381Y-51760476D01*
X89352381Y-52379524D01*
X88352381Y-52998571D02*
X88352381Y-53093810D01*
X88400000Y-53189048D01*
X88447619Y-53236667D01*
X88542857Y-53284286D01*
X88733333Y-53331905D01*
X88971429Y-53331905D01*
X89161905Y-53284286D01*
X89257143Y-53236667D01*
X89304762Y-53189048D01*
X89352381Y-53093810D01*
X89352381Y-52998571D01*
X89304762Y-52903333D01*
X89257143Y-52855714D01*
X89161905Y-52808095D01*
X88971429Y-52760476D01*
X88733333Y-52760476D01*
X88542857Y-52808095D01*
X88447619Y-52855714D01*
X88400000Y-52903333D01*
X88352381Y-52998571D01*
X91892381Y-51427143D02*
X91416190Y-51093809D01*
X91892381Y-50855714D02*
X90892381Y-50855714D01*
X90892381Y-51236667D01*
X90940000Y-51331905D01*
X90987619Y-51379524D01*
X91082857Y-51427143D01*
X91225714Y-51427143D01*
X91320952Y-51379524D01*
X91368571Y-51331905D01*
X91416190Y-51236667D01*
X91416190Y-50855714D01*
X90987619Y-51808095D02*
X90940000Y-51855714D01*
X90892381Y-51950952D01*
X90892381Y-52189048D01*
X90940000Y-52284286D01*
X90987619Y-52331905D01*
X91082857Y-52379524D01*
X91178095Y-52379524D01*
X91320952Y-52331905D01*
X91892381Y-51760476D01*
X91892381Y-52379524D01*
X91892381Y-53331905D02*
X91892381Y-52760476D01*
X91892381Y-53046190D02*
X90892381Y-53046190D01*
X91035238Y-52950952D01*
X91130476Y-52855714D01*
X91178095Y-52760476D01*
X94432381Y-51427143D02*
X93956190Y-51093809D01*
X94432381Y-50855714D02*
X93432381Y-50855714D01*
X93432381Y-51236667D01*
X93480000Y-51331905D01*
X93527619Y-51379524D01*
X93622857Y-51427143D01*
X93765714Y-51427143D01*
X93860952Y-51379524D01*
X93908571Y-51331905D01*
X93956190Y-51236667D01*
X93956190Y-50855714D01*
X93527619Y-51808095D02*
X93480000Y-51855714D01*
X93432381Y-51950952D01*
X93432381Y-52189048D01*
X93480000Y-52284286D01*
X93527619Y-52331905D01*
X93622857Y-52379524D01*
X93718095Y-52379524D01*
X93860952Y-52331905D01*
X94432381Y-51760476D01*
X94432381Y-52379524D01*
X93527619Y-52760476D02*
X93480000Y-52808095D01*
X93432381Y-52903333D01*
X93432381Y-53141429D01*
X93480000Y-53236667D01*
X93527619Y-53284286D01*
X93622857Y-53331905D01*
X93718095Y-53331905D01*
X93860952Y-53284286D01*
X94432381Y-52712857D01*
X94432381Y-53331905D01*
M02*
