G04 #@! TF.FileFunction,Soldermask,Bot*
%FSLAX46Y46*%
G04 Gerber Fmt 4.6, Leading zero omitted, Abs format (unit mm)*
G04 Created by KiCad (PCBNEW 0.201509131501+6189~30~ubuntu14.04.1-product) date Sam 03 Okt 2015 13:55:26 CEST*
%MOMM*%
G01*
G04 APERTURE LIST*
%ADD10C,0.200000*%
%ADD11R,2.350000X1.000000*%
%ADD12C,2.398980*%
%ADD13C,6.200000*%
%ADD14R,1.650000X1.400000*%
%ADD15R,1.000000X1.950000*%
%ADD16R,2.432000X2.432000*%
%ADD17O,2.432000X2.432000*%
%ADD18R,1.900000X1.700000*%
%ADD19R,2.127200X2.127200*%
%ADD20O,2.127200X2.127200*%
%ADD21C,3.900120*%
%ADD22R,2.432000X2.127200*%
%ADD23O,2.432000X2.127200*%
%ADD24R,1.700000X1.900000*%
%ADD25R,2.127200X2.432000*%
%ADD26O,2.127200X2.432000*%
G04 APERTURE END LIST*
D10*
D11*
X92950000Y-55285000D03*
X92950000Y-56555000D03*
X92950000Y-57825000D03*
X92950000Y-59095000D03*
X92950000Y-60365000D03*
X92950000Y-61635000D03*
X92950000Y-62905000D03*
X92950000Y-64175000D03*
X92950000Y-65445000D03*
X92950000Y-66715000D03*
X83550000Y-66715000D03*
X83550000Y-65445000D03*
X83550000Y-64175000D03*
X83550000Y-62905000D03*
X83550000Y-61635000D03*
X83550000Y-60365000D03*
X83550000Y-59095000D03*
X83550000Y-57825000D03*
X83550000Y-56555000D03*
X83550000Y-55285000D03*
D12*
X100330000Y-81280000D03*
X100330000Y-73660000D03*
X100330000Y-81280000D03*
X100330000Y-81280000D03*
D13*
X100000000Y-38500000D03*
X100000000Y-87500000D03*
X42000000Y-87500000D03*
X42000000Y-38500000D03*
D14*
X83000000Y-47500000D03*
X83000000Y-49500000D03*
X80500000Y-55000000D03*
X80500000Y-57000000D03*
D15*
X80905000Y-51200000D03*
X79635000Y-51200000D03*
X78365000Y-51200000D03*
X77095000Y-51200000D03*
X77095000Y-45800000D03*
X78365000Y-45800000D03*
X79635000Y-45800000D03*
X80905000Y-45800000D03*
D16*
X100000000Y-45000000D03*
D17*
X100000000Y-47540000D03*
D18*
X83350000Y-69500000D03*
X80650000Y-69500000D03*
D19*
X46870000Y-39770000D03*
D20*
X46870000Y-37230000D03*
X49410000Y-39770000D03*
X49410000Y-37230000D03*
X51950000Y-39770000D03*
X51950000Y-37230000D03*
X54490000Y-39770000D03*
X54490000Y-37230000D03*
X57030000Y-39770000D03*
X57030000Y-37230000D03*
X59570000Y-39770000D03*
X59570000Y-37230000D03*
X62110000Y-39770000D03*
X62110000Y-37230000D03*
X64650000Y-39770000D03*
X64650000Y-37230000D03*
X67190000Y-39770000D03*
X67190000Y-37230000D03*
X69730000Y-39770000D03*
X69730000Y-37230000D03*
X72270000Y-39770000D03*
X72270000Y-37230000D03*
X74810000Y-39770000D03*
X74810000Y-37230000D03*
X77350000Y-39770000D03*
X77350000Y-37230000D03*
X79890000Y-39770000D03*
X79890000Y-37230000D03*
X82430000Y-39770000D03*
X82430000Y-37230000D03*
X84970000Y-39770000D03*
X84970000Y-37230000D03*
X87510000Y-39770000D03*
X87510000Y-37230000D03*
X90050000Y-39770000D03*
X90050000Y-37230000D03*
X92590000Y-39770000D03*
X92590000Y-37230000D03*
X95130000Y-39770000D03*
X95130000Y-37230000D03*
D21*
X56000000Y-86000000D03*
X71000000Y-86000000D03*
D12*
X76500000Y-80500000D03*
X78500000Y-73500000D03*
D22*
X100000000Y-65500000D03*
D23*
X100000000Y-62960000D03*
X100000000Y-60420000D03*
D16*
X100000000Y-55000000D03*
D17*
X100000000Y-52460000D03*
D18*
X72150000Y-51000000D03*
X74850000Y-51000000D03*
X72150000Y-47000000D03*
X74850000Y-47000000D03*
X72150000Y-49000000D03*
X74850000Y-49000000D03*
D24*
X86500000Y-46650000D03*
X86500000Y-49350000D03*
X89000000Y-46650000D03*
X89000000Y-49350000D03*
X91500000Y-46650000D03*
X91500000Y-49350000D03*
X94000000Y-46650000D03*
X94000000Y-49350000D03*
D22*
X41500000Y-80000000D03*
D23*
X41500000Y-77460000D03*
X41500000Y-74920000D03*
D25*
X64500000Y-54000000D03*
D26*
X61960000Y-54000000D03*
X59420000Y-54000000D03*
D16*
X45500000Y-80000000D03*
D17*
X45500000Y-77460000D03*
D16*
X64500000Y-50000000D03*
D17*
X61960000Y-50000000D03*
D12*
X100330000Y-71120000D03*
X100330000Y-76200000D03*
X100330000Y-78740000D03*
X100330000Y-81280000D03*
X97790000Y-71120000D03*
X97790000Y-73660000D03*
X97790000Y-76200000D03*
X97790000Y-78740000D03*
X97790000Y-81280000D03*
X95250000Y-71120000D03*
X95250000Y-73660000D03*
X95250000Y-76200000D03*
X95250000Y-78740000D03*
X95250000Y-81280000D03*
X92710000Y-71120000D03*
X92710000Y-73660000D03*
X90170000Y-71120000D03*
X90170000Y-73660000D03*
X87630000Y-71120000D03*
X87630000Y-73660000D03*
X87630000Y-76200000D03*
X92710000Y-76200000D03*
X90170000Y-76200000D03*
X87630000Y-78740000D03*
X90170000Y-78740000D03*
X92710000Y-78740000D03*
X92710000Y-81280000D03*
X90170000Y-81280000D03*
X87630000Y-81280000D03*
X87630000Y-83820000D03*
X90170000Y-83820000D03*
X92710000Y-83820000D03*
X95250000Y-83820000D03*
X95250000Y-86360000D03*
X92710000Y-86360000D03*
X90170000Y-86360000D03*
X87630000Y-86360000D03*
X87630000Y-88900000D03*
X90170000Y-88900000D03*
X92710000Y-88900000D03*
X95250000Y-88900000D03*
D25*
X55750000Y-53000000D03*
D26*
X53210000Y-53000000D03*
X50670000Y-53000000D03*
D12*
X51816000Y-56134000D03*
X49276000Y-56134000D03*
M02*
