M48
;DRILL file {KiCad 0.201509131501+6189~30~ubuntu14.04.1-product} date Sam 03 Okt 2015 13:55:32 CEST
;FORMAT={-:-/ absolute / metric / decimal}
FMAT,2
METRIC,TZ
T1C0.400
T2C0.800
T3C1.016
T4C1.199
T5C2.750
%
G90
G05
M71
T1
X40.132Y-43.18
X40.132Y-49.784
X40.132Y-52.832
X42.418Y-53.086
X43.434Y-49.53
X43.5Y-44.
X45.974Y-43.688
X55.75Y-44.75
X60.5Y-42.2
X61.Y-44.5
X61.Y-48.
X61.2Y-42.9
X62.Y-44.5
X62.Y-48.
X63.1Y-43.7
X64.5Y-44.3
X69.25Y-50.75
X69.5Y-44.6
X70.Y-47.
X77.089Y-52.832
X77.216Y-42.418
X78.74Y-41.91
X80.5Y-53.5
X80.5Y-67.5
X82.Y-47.5
X82.5Y-46.
X83.566Y-42.926
X85.Y-49.
X85.5Y-56.5
X86.5Y-51.
X89.Y-51.
X90.5Y-55.5
X90.5Y-57.5
X91.Y-63.
X91.Y-65.5
X91.5Y-51.
X94.Y-51.
X95.Y-59.
T2
X49.276Y-56.134
X51.816Y-56.134
X76.5Y-80.5
X78.5Y-73.5
X87.63Y-71.12
X87.63Y-73.66
X87.63Y-76.2
X87.63Y-78.74
X87.63Y-81.28
X87.63Y-83.82
X87.63Y-86.36
X87.63Y-88.9
X90.17Y-71.12
X90.17Y-73.66
X90.17Y-76.2
X90.17Y-78.74
X90.17Y-81.28
X90.17Y-83.82
X90.17Y-86.36
X90.17Y-88.9
X92.71Y-71.12
X92.71Y-73.66
X92.71Y-76.2
X92.71Y-78.74
X92.71Y-81.28
X92.71Y-83.82
X92.71Y-86.36
X92.71Y-88.9
X95.25Y-71.12
X95.25Y-73.66
X95.25Y-76.2
X95.25Y-78.74
X95.25Y-81.28
X95.25Y-83.82
X95.25Y-86.36
X95.25Y-88.9
X97.79Y-71.12
X97.79Y-73.66
X97.79Y-76.2
X97.79Y-78.74
X97.79Y-81.28
X100.33Y-71.12
X100.33Y-73.66
X100.33Y-76.2
X100.33Y-78.74
X100.33Y-81.28
X100.33Y-81.28
X100.33Y-81.28
X100.33Y-81.28
T3
X41.5Y-74.92
X41.5Y-77.46
X41.5Y-80.
X45.5Y-77.46
X45.5Y-80.
X46.87Y-37.23
X46.87Y-39.77
X49.41Y-37.23
X49.41Y-39.77
X50.67Y-53.
X51.95Y-37.23
X51.95Y-39.77
X53.21Y-53.
X54.49Y-37.23
X54.49Y-39.77
X55.75Y-53.
X57.03Y-37.23
X57.03Y-39.77
X59.42Y-54.
X59.57Y-37.23
X59.57Y-39.77
X61.96Y-50.
X61.96Y-54.
X62.11Y-37.23
X62.11Y-39.77
X64.5Y-50.
X64.5Y-54.
X64.65Y-37.23
X64.65Y-39.77
X67.19Y-37.23
X67.19Y-39.77
X69.73Y-37.23
X69.73Y-39.77
X72.27Y-37.23
X72.27Y-39.77
X74.81Y-37.23
X74.81Y-39.77
X77.35Y-37.23
X77.35Y-39.77
X79.89Y-37.23
X79.89Y-39.77
X82.43Y-37.23
X82.43Y-39.77
X84.97Y-37.23
X84.97Y-39.77
X87.51Y-37.23
X87.51Y-39.77
X90.05Y-37.23
X90.05Y-39.77
X92.59Y-37.23
X92.59Y-39.77
X95.13Y-37.23
X95.13Y-39.77
X100.Y-45.
X100.Y-47.54
X100.Y-52.46
X100.Y-55.
X100.Y-60.42
X100.Y-62.96
X100.Y-65.5
T4
X56.Y-86.
X71.Y-86.
T5
X42.Y-38.5
X42.Y-87.5
X100.Y-38.5
X100.Y-87.5
T0
M30
