G04 #@! TF.FileFunction,Copper,L2,Bot,Signal*
%FSLAX46Y46*%
G04 Gerber Fmt 4.6, Leading zero omitted, Abs format (unit mm)*
G04 Created by KiCad (PCBNEW 0.201509131501+6189~30~ubuntu14.04.1-product) date Sam 03 Okt 2015 10:07:37 CEST*
%MOMM*%
G01*
G04 APERTURE LIST*
%ADD10C,0.200000*%
%ADD11R,1.950000X0.600000*%
%ADD12C,1.998980*%
%ADD13R,1.250000X1.000000*%
%ADD14R,0.600000X1.550000*%
%ADD15R,2.032000X2.032000*%
%ADD16O,2.032000X2.032000*%
%ADD17R,1.500000X1.300000*%
%ADD18R,1.727200X1.727200*%
%ADD19O,1.727200X1.727200*%
%ADD20C,3.500120*%
%ADD21R,2.032000X1.727200*%
%ADD22O,2.032000X1.727200*%
%ADD23R,1.300000X1.500000*%
%ADD24R,1.727200X2.032000*%
%ADD25O,1.727200X2.032000*%
%ADD26C,0.600000*%
%ADD27C,1.000000*%
%ADD28C,0.350000*%
%ADD29C,0.500000*%
%ADD30C,0.250000*%
%ADD31C,0.254000*%
G04 APERTURE END LIST*
D10*
D11*
X92950000Y-55285000D03*
X92950000Y-56555000D03*
X92950000Y-57825000D03*
X92950000Y-59095000D03*
X92950000Y-60365000D03*
X92950000Y-61635000D03*
X92950000Y-62905000D03*
X92950000Y-64175000D03*
X92950000Y-65445000D03*
X92950000Y-66715000D03*
X83550000Y-66715000D03*
X83550000Y-65445000D03*
X83550000Y-64175000D03*
X83550000Y-62905000D03*
X83550000Y-61635000D03*
X83550000Y-60365000D03*
X83550000Y-59095000D03*
X83550000Y-57825000D03*
X83550000Y-56555000D03*
X83550000Y-55285000D03*
D12*
X100330000Y-81280000D03*
X100330000Y-73660000D03*
X100330000Y-81280000D03*
X100330000Y-81280000D03*
D13*
X83000000Y-47500000D03*
X83000000Y-49500000D03*
X80500000Y-55000000D03*
X80500000Y-57000000D03*
D14*
X80905000Y-51200000D03*
X79635000Y-51200000D03*
X78365000Y-51200000D03*
X77095000Y-51200000D03*
X77095000Y-45800000D03*
X78365000Y-45800000D03*
X79635000Y-45800000D03*
X80905000Y-45800000D03*
D15*
X100000000Y-45000000D03*
D16*
X100000000Y-47540000D03*
D17*
X83350000Y-69500000D03*
X80650000Y-69500000D03*
D18*
X46870000Y-39770000D03*
D19*
X46870000Y-37230000D03*
X49410000Y-39770000D03*
X49410000Y-37230000D03*
X51950000Y-39770000D03*
X51950000Y-37230000D03*
X54490000Y-39770000D03*
X54490000Y-37230000D03*
X57030000Y-39770000D03*
X57030000Y-37230000D03*
X59570000Y-39770000D03*
X59570000Y-37230000D03*
X62110000Y-39770000D03*
X62110000Y-37230000D03*
X64650000Y-39770000D03*
X64650000Y-37230000D03*
X67190000Y-39770000D03*
X67190000Y-37230000D03*
X69730000Y-39770000D03*
X69730000Y-37230000D03*
X72270000Y-39770000D03*
X72270000Y-37230000D03*
X74810000Y-39770000D03*
X74810000Y-37230000D03*
X77350000Y-39770000D03*
X77350000Y-37230000D03*
X79890000Y-39770000D03*
X79890000Y-37230000D03*
X82430000Y-39770000D03*
X82430000Y-37230000D03*
X84970000Y-39770000D03*
X84970000Y-37230000D03*
X87510000Y-39770000D03*
X87510000Y-37230000D03*
X90050000Y-39770000D03*
X90050000Y-37230000D03*
X92590000Y-39770000D03*
X92590000Y-37230000D03*
X95130000Y-39770000D03*
X95130000Y-37230000D03*
D20*
X56000000Y-86000000D03*
X71000000Y-86000000D03*
D12*
X76500000Y-80500000D03*
X78500000Y-73500000D03*
D21*
X100000000Y-65500000D03*
D22*
X100000000Y-62960000D03*
X100000000Y-60420000D03*
D15*
X100000000Y-55000000D03*
D16*
X100000000Y-52460000D03*
D17*
X72150000Y-51000000D03*
X74850000Y-51000000D03*
X72150000Y-47000000D03*
X74850000Y-47000000D03*
X72150000Y-49000000D03*
X74850000Y-49000000D03*
D23*
X86500000Y-46650000D03*
X86500000Y-49350000D03*
X89000000Y-46650000D03*
X89000000Y-49350000D03*
X91500000Y-46650000D03*
X91500000Y-49350000D03*
X94000000Y-46650000D03*
X94000000Y-49350000D03*
D21*
X41500000Y-80000000D03*
D22*
X41500000Y-77460000D03*
X41500000Y-74920000D03*
D24*
X64500000Y-54000000D03*
D25*
X61960000Y-54000000D03*
X59420000Y-54000000D03*
D15*
X45500000Y-80000000D03*
D16*
X45500000Y-77460000D03*
D15*
X64500000Y-50000000D03*
D16*
X61960000Y-50000000D03*
D12*
X100330000Y-71120000D03*
X100330000Y-76200000D03*
X100330000Y-78740000D03*
X100330000Y-81280000D03*
X97790000Y-71120000D03*
X97790000Y-73660000D03*
X97790000Y-76200000D03*
X97790000Y-78740000D03*
X97790000Y-81280000D03*
X95250000Y-71120000D03*
X95250000Y-73660000D03*
X95250000Y-76200000D03*
X95250000Y-78740000D03*
X95250000Y-81280000D03*
X92710000Y-71120000D03*
X92710000Y-73660000D03*
X90170000Y-71120000D03*
X90170000Y-73660000D03*
X87630000Y-71120000D03*
X87630000Y-73660000D03*
X87630000Y-76200000D03*
X92710000Y-76200000D03*
X90170000Y-76200000D03*
X87630000Y-78740000D03*
X90170000Y-78740000D03*
X92710000Y-78740000D03*
X92710000Y-81280000D03*
X90170000Y-81280000D03*
X87630000Y-81280000D03*
X87630000Y-83820000D03*
X90170000Y-83820000D03*
X92710000Y-83820000D03*
X95250000Y-83820000D03*
X95250000Y-86360000D03*
X92710000Y-86360000D03*
X90170000Y-86360000D03*
X87630000Y-86360000D03*
X87630000Y-88900000D03*
X90170000Y-88900000D03*
X92710000Y-88900000D03*
X95250000Y-88900000D03*
D24*
X55750000Y-53000000D03*
D25*
X53210000Y-53000000D03*
X50670000Y-53000000D03*
D26*
X39878000Y-52578000D03*
X40132000Y-44196000D03*
X40132000Y-42926000D03*
X83820000Y-43688000D03*
X84836000Y-42672000D03*
X82804000Y-42672000D03*
X76708000Y-42672000D03*
X45212000Y-44704000D03*
X46228000Y-43688000D03*
X43434000Y-49530000D03*
X44196000Y-45720000D03*
X77089000Y-52832000D03*
X61000000Y-48000000D03*
X61000000Y-44500000D03*
X62000000Y-44500000D03*
X62000000Y-48000000D03*
X85500000Y-56500000D03*
X90500000Y-55500000D03*
X90500000Y-57500000D03*
X85000000Y-49000000D03*
X43500000Y-44000000D03*
X55750000Y-44750000D03*
X82500000Y-46000000D03*
X80500000Y-67500000D03*
X80500000Y-53500000D03*
X82000000Y-47500000D03*
X70000000Y-47000000D03*
X91000000Y-65500000D03*
X91000000Y-63000000D03*
X95000000Y-59000000D03*
X86500000Y-51000000D03*
X89000000Y-51000000D03*
X91500000Y-51000000D03*
X94000000Y-51000000D03*
X60500000Y-42200000D03*
X61200000Y-42900000D03*
X69250000Y-50750000D03*
X69500000Y-44600000D03*
X64500000Y-44300000D03*
X63100000Y-43700000D03*
D27*
X77089000Y-52832000D02*
X77095000Y-52832000D01*
D28*
X51950000Y-37230000D02*
X52230000Y-37230000D01*
D27*
X61000000Y-48000000D02*
X61000000Y-44500000D01*
X62000000Y-48000000D02*
X62000000Y-44500000D01*
D28*
X85445000Y-56555000D02*
X83550000Y-56555000D01*
X85500000Y-56500000D02*
X85445000Y-56555000D01*
X92950000Y-66715000D02*
X91215000Y-66715000D01*
X90715000Y-55285000D02*
X92950000Y-55285000D01*
X90500000Y-55500000D02*
X90715000Y-55285000D01*
X90000000Y-58000000D02*
X90500000Y-57500000D01*
X90000000Y-65500000D02*
X90000000Y-58000000D01*
X91215000Y-66715000D02*
X90000000Y-65500000D01*
D29*
X80500000Y-57000000D02*
X81500000Y-57000000D01*
X81500000Y-57000000D02*
X81945000Y-56555000D01*
X81945000Y-56555000D02*
X83550000Y-56555000D01*
X83000000Y-49500000D02*
X84500000Y-49500000D01*
X84500000Y-49500000D02*
X85000000Y-49000000D01*
D27*
X80905000Y-51200000D02*
X82800000Y-51200000D01*
X83000000Y-51000000D02*
X83000000Y-49500000D01*
X82800000Y-51200000D02*
X83000000Y-51000000D01*
X79635000Y-51200000D02*
X80905000Y-51200000D01*
X78365000Y-51200000D02*
X79635000Y-51200000D01*
X77095000Y-51200000D02*
X78365000Y-51200000D01*
X77095000Y-51200000D02*
X77095000Y-52832000D01*
X77095000Y-52832000D02*
X77095000Y-55095000D01*
X78000000Y-56000000D02*
X79000000Y-57000000D01*
X77095000Y-55095000D02*
X78000000Y-56000000D01*
X79000000Y-57000000D02*
X80500000Y-57000000D01*
D29*
X46870000Y-37230000D02*
X46270000Y-37230000D01*
X46270000Y-37230000D02*
X45500000Y-38000000D01*
X45500000Y-38000000D02*
X45500000Y-42000000D01*
X45500000Y-42000000D02*
X43500000Y-44000000D01*
D27*
X55750000Y-53000000D02*
X55750000Y-44750000D01*
X72150000Y-49000000D02*
X72150000Y-51000000D01*
D29*
X80650000Y-68650000D02*
X80650000Y-69500000D01*
X80500000Y-68500000D02*
X80650000Y-68650000D01*
X80500000Y-67500000D02*
X80500000Y-68500000D01*
X80500000Y-53500000D02*
X80500000Y-55000000D01*
X80500000Y-55000000D02*
X82500000Y-55000000D01*
X82500000Y-55000000D02*
X82785000Y-55285000D01*
X82785000Y-55285000D02*
X83550000Y-55285000D01*
X82000000Y-47500000D02*
X83000000Y-47500000D01*
D27*
X72150000Y-47000000D02*
X72150000Y-49000000D01*
X83000000Y-47500000D02*
X83000000Y-46500000D01*
X83000000Y-46500000D02*
X82500000Y-46000000D01*
X82500000Y-46000000D02*
X82300000Y-45800000D01*
X82300000Y-45800000D02*
X80905000Y-45800000D01*
X70000000Y-47000000D02*
X72150000Y-47000000D01*
D30*
X77095000Y-45800000D02*
X77095000Y-44405000D01*
X79890000Y-42610000D02*
X79890000Y-39770000D01*
X79500000Y-43000000D02*
X79890000Y-42610000D01*
X78500000Y-43000000D02*
X79500000Y-43000000D01*
X77095000Y-44405000D02*
X78500000Y-43000000D01*
X74850000Y-47000000D02*
X76750000Y-47000000D01*
X77095000Y-46655000D02*
X77095000Y-45800000D01*
X76750000Y-47000000D02*
X77095000Y-46655000D01*
X79890000Y-37230000D02*
X79980000Y-37230000D01*
X79980000Y-37230000D02*
X81200000Y-38450000D01*
X81200000Y-38450000D02*
X81200000Y-43300000D01*
X81200000Y-43300000D02*
X80500000Y-44000000D01*
X80500000Y-44000000D02*
X79000000Y-44000000D01*
X79000000Y-44000000D02*
X78365000Y-44635000D01*
X78365000Y-44635000D02*
X78365000Y-45800000D01*
X74850000Y-49000000D02*
X77750000Y-49000000D01*
X78365000Y-48385000D02*
X78365000Y-45800000D01*
X77750000Y-49000000D02*
X78365000Y-48385000D01*
X100000000Y-47540000D02*
X95960000Y-47540000D01*
X84000000Y-48500000D02*
X79635000Y-48500000D01*
X84500000Y-48000000D02*
X84000000Y-48500000D01*
X95500000Y-48000000D02*
X84500000Y-48000000D01*
X95960000Y-47540000D02*
X95500000Y-48000000D01*
X74850000Y-51000000D02*
X75500000Y-51000000D01*
X75500000Y-51000000D02*
X77000000Y-49500000D01*
X77000000Y-49500000D02*
X79250000Y-49500000D01*
X79250000Y-49500000D02*
X79635000Y-49115000D01*
X79635000Y-49115000D02*
X79635000Y-48500000D01*
X79635000Y-48500000D02*
X79635000Y-45800000D01*
D28*
X78500000Y-73500000D02*
X78500000Y-72000000D01*
X81850000Y-71000000D02*
X83350000Y-69500000D01*
X79500000Y-71000000D02*
X81850000Y-71000000D01*
X78500000Y-72000000D02*
X79500000Y-71000000D01*
X78500000Y-73500000D02*
X79350000Y-73500000D01*
X83350000Y-69500000D02*
X86000000Y-69500000D01*
X86000000Y-69500000D02*
X89000000Y-66500000D01*
X89000000Y-66500000D02*
X89000000Y-57500000D01*
X89000000Y-57500000D02*
X89945000Y-56555000D01*
X89945000Y-56555000D02*
X92950000Y-56555000D01*
X91055000Y-65445000D02*
X92950000Y-65445000D01*
X91000000Y-65500000D02*
X91055000Y-65445000D01*
X83550000Y-66715000D02*
X80939000Y-66715000D01*
X60833000Y-38493000D02*
X59570000Y-37230000D01*
X60833000Y-40894000D02*
X60833000Y-38493000D01*
X61976000Y-42037000D02*
X60833000Y-40894000D01*
X65405000Y-42037000D02*
X61976000Y-42037000D01*
X66548000Y-43180000D02*
X65405000Y-42037000D01*
X66548000Y-51689000D02*
X66548000Y-43180000D01*
X75819000Y-60960000D02*
X66548000Y-51689000D01*
X79629000Y-60960000D02*
X75819000Y-60960000D01*
X80094998Y-61425998D02*
X79629000Y-60960000D01*
X80094998Y-65870998D02*
X80094998Y-61425998D01*
X80939000Y-66715000D02*
X80094998Y-65870998D01*
X83550000Y-64175000D02*
X81574000Y-64175000D01*
X63373000Y-38493000D02*
X62110000Y-37230000D01*
X63373000Y-40894000D02*
X63373000Y-38493000D01*
X63881000Y-41402000D02*
X63373000Y-40894000D01*
X65659000Y-41402000D02*
X63881000Y-41402000D01*
X67183000Y-42926000D02*
X65659000Y-41402000D01*
X67183000Y-51435000D02*
X67183000Y-42926000D01*
X76073000Y-60325000D02*
X67183000Y-51435000D01*
X80264000Y-60325000D02*
X76073000Y-60325000D01*
X80645000Y-60706000D02*
X80264000Y-60325000D01*
X80645000Y-63246000D02*
X80645000Y-60706000D01*
X81574000Y-64175000D02*
X80645000Y-63246000D01*
D30*
X84970000Y-37230000D02*
X84982000Y-37230000D01*
X84982000Y-37230000D02*
X86233000Y-38481000D01*
X86233000Y-38481000D02*
X86233000Y-41084500D01*
X86233000Y-41084500D02*
X86500000Y-41351500D01*
X86500000Y-41351500D02*
X86500000Y-46650000D01*
D28*
X91095000Y-62905000D02*
X92950000Y-62905000D01*
X91000000Y-63000000D02*
X91095000Y-62905000D01*
X67310000Y-41656000D02*
X66802000Y-41656000D01*
X68061000Y-51439820D02*
X67818000Y-51196820D01*
X67818000Y-51196820D02*
X67818000Y-42164000D01*
X67818000Y-42164000D02*
X67310000Y-41656000D01*
X68061000Y-51446000D02*
X68061000Y-51439820D01*
X65913000Y-38493000D02*
X64650000Y-37230000D01*
X65913000Y-40767000D02*
X65913000Y-38493000D01*
X66802000Y-41656000D02*
X65913000Y-40767000D01*
X83550000Y-61635000D02*
X81828000Y-61635000D01*
X76305000Y-59690000D02*
X68061000Y-51446000D01*
X68061000Y-51446000D02*
X68050000Y-51435000D01*
X80772000Y-59690000D02*
X76305000Y-59690000D01*
X81280000Y-60198000D02*
X80772000Y-59690000D01*
X81280000Y-61087000D02*
X81280000Y-60198000D01*
X81828000Y-61635000D02*
X81280000Y-61087000D01*
D30*
X64650000Y-37230000D02*
X64730000Y-37230000D01*
D28*
X83550000Y-59095000D02*
X76494000Y-59095000D01*
X68453000Y-38493000D02*
X67190000Y-37230000D01*
X68453000Y-41656000D02*
X68453000Y-38493000D01*
X68389500Y-41719500D02*
X68453000Y-41656000D01*
X68389500Y-50990500D02*
X68389500Y-41719500D01*
X76494000Y-59095000D02*
X68389500Y-50990500D01*
D30*
X90050000Y-37230000D02*
X90024000Y-37230000D01*
X90024000Y-37230000D02*
X88773000Y-38481000D01*
X88773000Y-38481000D02*
X88773000Y-46423000D01*
X88773000Y-46423000D02*
X89000000Y-46650000D01*
X92590000Y-37230000D02*
X92564000Y-37230000D01*
X92564000Y-37230000D02*
X91313000Y-38481000D01*
X91313000Y-38481000D02*
X91313000Y-46463000D01*
X91313000Y-46463000D02*
X91500000Y-46650000D01*
X95130000Y-37230000D02*
X95020000Y-37230000D01*
X95020000Y-37230000D02*
X93853000Y-38397000D01*
X93853000Y-38397000D02*
X93853000Y-41046400D01*
X93853000Y-41046400D02*
X94000000Y-41193400D01*
X94000000Y-41193400D02*
X94000000Y-46650000D01*
X92950000Y-64175000D02*
X96175000Y-64175000D01*
X97500000Y-65500000D02*
X100000000Y-65500000D01*
X96175000Y-64175000D02*
X97500000Y-65500000D01*
X92950000Y-61635000D02*
X96135000Y-61635000D01*
X97460000Y-62960000D02*
X100000000Y-62960000D01*
X96135000Y-61635000D02*
X97460000Y-62960000D01*
X92950000Y-59095000D02*
X94905000Y-59095000D01*
X94905000Y-59095000D02*
X95000000Y-59000000D01*
X92950000Y-60365000D02*
X95635000Y-60365000D01*
X97000000Y-55000000D02*
X100000000Y-55000000D01*
X96500000Y-55500000D02*
X97000000Y-55000000D01*
X96500000Y-59500000D02*
X96500000Y-55500000D01*
X95635000Y-60365000D02*
X96500000Y-59500000D01*
X92950000Y-57825000D02*
X95175000Y-57825000D01*
X96540000Y-52460000D02*
X100000000Y-52460000D01*
X96000000Y-53000000D02*
X96540000Y-52460000D01*
X96000000Y-57000000D02*
X96000000Y-53000000D01*
X95175000Y-57825000D02*
X96000000Y-57000000D01*
X83550000Y-57825000D02*
X85675000Y-57825000D01*
X86500000Y-57000000D02*
X86500000Y-51000000D01*
X85675000Y-57825000D02*
X86500000Y-57000000D01*
X86500000Y-49350000D02*
X86500000Y-50750000D01*
X86500000Y-50750000D02*
X86500000Y-51000000D01*
X83550000Y-60365000D02*
X86135000Y-60365000D01*
X87000000Y-53000000D02*
X89000000Y-51000000D01*
X87000000Y-59500000D02*
X87000000Y-53000000D01*
X86135000Y-60365000D02*
X87000000Y-59500000D01*
X89000000Y-51000000D02*
X89000000Y-49350000D01*
X83550000Y-62905000D02*
X86595000Y-62905000D01*
X90000000Y-51000000D02*
X91500000Y-51000000D01*
X87500000Y-53500000D02*
X90000000Y-51000000D01*
X87500000Y-62000000D02*
X87500000Y-53500000D01*
X86595000Y-62905000D02*
X87500000Y-62000000D01*
X91500000Y-49350000D02*
X91500000Y-51000000D01*
X83550000Y-65445000D02*
X87055000Y-65445000D01*
X93000000Y-52000000D02*
X94000000Y-51000000D01*
X90000000Y-52000000D02*
X93000000Y-52000000D01*
X88000000Y-54000000D02*
X90000000Y-52000000D01*
X88000000Y-64500000D02*
X88000000Y-54000000D01*
X87055000Y-65445000D02*
X88000000Y-64500000D01*
X94000000Y-51000000D02*
X94000000Y-49350000D01*
D28*
X41500000Y-74920000D02*
X43080000Y-74920000D01*
X49410000Y-42090000D02*
X49410000Y-39770000D01*
X44500000Y-47000000D02*
X49410000Y-42090000D01*
X44500000Y-73500000D02*
X44500000Y-47000000D01*
X43080000Y-74920000D02*
X44500000Y-73500000D01*
X41500000Y-77460000D02*
X41500000Y-77300000D01*
X41500000Y-77300000D02*
X45088910Y-73711090D01*
X45088910Y-47188910D02*
X51950000Y-40327820D01*
X45088910Y-73711090D02*
X45088910Y-47188910D01*
X51950000Y-40327820D02*
X51950000Y-39770000D01*
X41500000Y-77460000D02*
X41540000Y-77460000D01*
X41500000Y-80000000D02*
X42200000Y-80000000D01*
X42200000Y-80000000D02*
X43300000Y-78900000D01*
X43300000Y-78900000D02*
X43300000Y-76300000D01*
X43300000Y-76300000D02*
X45677820Y-73922180D01*
X45677820Y-73922180D02*
X45677820Y-47422180D01*
X45677820Y-47422180D02*
X51400000Y-41700000D01*
X51400000Y-41700000D02*
X52560000Y-41700000D01*
X52560000Y-41700000D02*
X54490000Y-39770000D01*
X45500000Y-80000000D02*
X44800000Y-80000000D01*
X44800000Y-80000000D02*
X43900000Y-79100000D01*
X43900000Y-79100000D02*
X43900000Y-76600000D01*
X43900000Y-76600000D02*
X46300000Y-74200000D01*
X46300000Y-74200000D02*
X46300000Y-47600000D01*
X46300000Y-47600000D02*
X51600000Y-42300000D01*
X51600000Y-42300000D02*
X54600000Y-42300000D01*
X54600000Y-42300000D02*
X55750000Y-41150000D01*
X55750000Y-41150000D02*
X55750000Y-38490000D01*
X55750000Y-38490000D02*
X54490000Y-37230000D01*
X45500000Y-77460000D02*
X45500000Y-75900000D01*
X58300000Y-38500000D02*
X57030000Y-37230000D01*
X58300000Y-41300000D02*
X58300000Y-38500000D01*
X56700000Y-42900000D02*
X58300000Y-41300000D01*
X51800000Y-42900000D02*
X56700000Y-42900000D01*
X46900000Y-47800000D02*
X51800000Y-42900000D01*
X46900000Y-74500000D02*
X46900000Y-47800000D01*
X45500000Y-75900000D02*
X46900000Y-74500000D01*
X59420000Y-54000000D02*
X59420000Y-43280000D01*
X59420000Y-43280000D02*
X60500000Y-42200000D01*
X61960000Y-54000000D02*
X61960000Y-52660000D01*
X60800000Y-42900000D02*
X61200000Y-42900000D01*
X60000000Y-43700000D02*
X60800000Y-42900000D01*
X60000000Y-51729998D02*
X60000000Y-43700000D01*
X60270002Y-52000000D02*
X60000000Y-51729998D01*
X61300000Y-52000000D02*
X60270002Y-52000000D01*
X61960000Y-52660000D02*
X61300000Y-52000000D01*
X74810000Y-40690000D02*
X74810000Y-39770000D01*
X69000002Y-46499998D02*
X74810000Y-40690000D01*
X69000002Y-48250002D02*
X69000002Y-46499998D01*
X69250000Y-48500000D02*
X69000002Y-48250002D01*
X69250000Y-50750000D02*
X69250000Y-48500000D01*
X64500000Y-50000000D02*
X64500000Y-44300000D01*
X73550000Y-38490000D02*
X74810000Y-37230000D01*
X73550000Y-40550000D02*
X73550000Y-38490000D01*
X69500000Y-44600000D02*
X73550000Y-40550000D01*
X61960000Y-50000000D02*
X62000000Y-50000000D01*
X62000000Y-50000000D02*
X63100000Y-48900000D01*
X63100000Y-48900000D02*
X63100000Y-43700000D01*
D31*
G36*
X60084658Y-41203974D02*
X60166327Y-41326199D01*
X59971057Y-41406883D01*
X59707808Y-41669673D01*
X59582116Y-41972371D01*
X58847244Y-42707244D01*
X58671658Y-42970026D01*
X58610000Y-43280000D01*
X58610000Y-52588761D01*
X58360330Y-52755585D01*
X58035474Y-53241766D01*
X57921400Y-53815255D01*
X57921400Y-54184745D01*
X58035474Y-54758234D01*
X58360330Y-55244415D01*
X58846511Y-55569271D01*
X59420000Y-55683345D01*
X59993489Y-55569271D01*
X60479670Y-55244415D01*
X60690000Y-54929634D01*
X60900330Y-55244415D01*
X61386511Y-55569271D01*
X61960000Y-55683345D01*
X62533489Y-55569271D01*
X63019670Y-55244415D01*
X63029243Y-55230087D01*
X63033238Y-55251317D01*
X63172310Y-55467441D01*
X63384510Y-55612431D01*
X63636400Y-55663440D01*
X65363600Y-55663440D01*
X65598917Y-55619162D01*
X65815041Y-55480090D01*
X65960031Y-55267890D01*
X66011040Y-55016000D01*
X66011040Y-52984000D01*
X65966762Y-52748683D01*
X65827690Y-52532559D01*
X65615490Y-52387569D01*
X65363600Y-52336560D01*
X63636400Y-52336560D01*
X63401083Y-52380838D01*
X63184959Y-52519910D01*
X63039969Y-52732110D01*
X63031600Y-52773439D01*
X63019670Y-52755585D01*
X62753657Y-52577841D01*
X62708342Y-52350026D01*
X62596967Y-52183342D01*
X62532757Y-52087244D01*
X62100842Y-51655330D01*
X62591810Y-51557670D01*
X62931792Y-51330501D01*
X63019910Y-51467441D01*
X63232110Y-51612431D01*
X63484000Y-51663440D01*
X65516000Y-51663440D01*
X65738000Y-51621668D01*
X65738000Y-51689000D01*
X65799658Y-51998974D01*
X65890548Y-52135000D01*
X65975244Y-52261756D01*
X75246244Y-61532757D01*
X75399262Y-61635000D01*
X75509026Y-61708342D01*
X75819000Y-61770000D01*
X79284998Y-61770000D01*
X79284998Y-65870998D01*
X79346656Y-66180972D01*
X79516501Y-66435162D01*
X79522242Y-66443754D01*
X79878133Y-66799645D01*
X79707808Y-66969673D01*
X79565162Y-67313201D01*
X79564838Y-67685167D01*
X79615000Y-67806569D01*
X79615000Y-68278808D01*
X79448559Y-68385910D01*
X79303569Y-68598110D01*
X79252560Y-68850000D01*
X79252560Y-70150000D01*
X79268742Y-70236000D01*
X79190027Y-70251657D01*
X78927244Y-70427243D01*
X77927244Y-71427244D01*
X77751658Y-71690026D01*
X77715262Y-71873000D01*
X75500000Y-71873000D01*
X75452211Y-71882334D01*
X75410197Y-71910197D01*
X71947394Y-75373000D01*
X67052606Y-75373000D01*
X66127000Y-74447394D01*
X66127000Y-57500000D01*
X66117666Y-57452211D01*
X66089803Y-57410197D01*
X65089803Y-56410197D01*
X65049410Y-56383006D01*
X65000000Y-56373000D01*
X55500000Y-56373000D01*
X55453841Y-56381685D01*
X55411447Y-56408965D01*
X55383006Y-56450590D01*
X55373000Y-56500000D01*
X55373000Y-67947394D01*
X49410197Y-73910197D01*
X49383006Y-73950590D01*
X49373000Y-74000000D01*
X49373000Y-88000000D01*
X49382334Y-88047789D01*
X49410197Y-88089803D01*
X50410197Y-89089803D01*
X50450590Y-89116994D01*
X50500000Y-89127000D01*
X80500000Y-89127000D01*
X80547789Y-89117666D01*
X80589803Y-89089803D01*
X81980143Y-87699463D01*
X82006563Y-87763248D01*
X82223336Y-88087672D01*
X82412328Y-88276664D01*
X82736751Y-88493437D01*
X82839032Y-88535803D01*
X82983681Y-88595718D01*
X83366364Y-88671838D01*
X83633636Y-88671838D01*
X84016319Y-88595718D01*
X84263248Y-88493437D01*
X84263249Y-88493436D01*
X84587672Y-88276664D01*
X84776664Y-88087672D01*
X84993437Y-87763249D01*
X85035803Y-87660968D01*
X85095718Y-87516319D01*
X85171838Y-87133636D01*
X85171838Y-87066170D01*
X85185000Y-87000000D01*
X85185000Y-72000000D01*
X85171838Y-71933830D01*
X85171838Y-71866364D01*
X85095718Y-71483681D01*
X85025848Y-71315000D01*
X84993437Y-71236751D01*
X84776664Y-70912328D01*
X84587672Y-70723336D01*
X84486609Y-70655808D01*
X84551441Y-70614090D01*
X84696431Y-70401890D01*
X84715039Y-70310000D01*
X86000000Y-70310000D01*
X86214236Y-70267386D01*
X85995794Y-70793453D01*
X85995226Y-71443694D01*
X86243538Y-72044655D01*
X86588480Y-72390199D01*
X86245154Y-72732927D01*
X85995794Y-73333453D01*
X85995226Y-73983694D01*
X86243538Y-74584655D01*
X86588480Y-74930199D01*
X86245154Y-75272927D01*
X85995794Y-75873453D01*
X85995226Y-76523694D01*
X86243538Y-77124655D01*
X86588480Y-77470199D01*
X86245154Y-77812927D01*
X85995794Y-78413453D01*
X85995226Y-79063694D01*
X86243538Y-79664655D01*
X86588480Y-80010199D01*
X86245154Y-80352927D01*
X85995794Y-80953453D01*
X85995226Y-81603694D01*
X86243538Y-82204655D01*
X86588480Y-82550199D01*
X86245154Y-82892927D01*
X85995794Y-83493453D01*
X85995226Y-84143694D01*
X86243538Y-84744655D01*
X86588480Y-85090199D01*
X86245154Y-85432927D01*
X85995794Y-86033453D01*
X85995226Y-86683694D01*
X86243538Y-87284655D01*
X86588480Y-87630199D01*
X86245154Y-87972927D01*
X85995794Y-88573453D01*
X85995226Y-89223694D01*
X86243538Y-89824655D01*
X86702927Y-90284846D01*
X86775546Y-90315000D01*
X45627000Y-90315000D01*
X45627000Y-84000000D01*
X45616994Y-83950590D01*
X45588553Y-83908965D01*
X45546159Y-83881685D01*
X45500000Y-83873000D01*
X39185000Y-83873000D01*
X39185000Y-72567466D01*
X39221376Y-72384591D01*
X39286751Y-72286750D01*
X39384590Y-72221376D01*
X39567466Y-72185000D01*
X42500000Y-72185000D01*
X42566170Y-72171838D01*
X42633636Y-72171838D01*
X42859053Y-72127000D01*
X43690000Y-72127000D01*
X43690000Y-73164487D01*
X42844448Y-74010040D01*
X42744415Y-73860330D01*
X42258234Y-73535474D01*
X41684745Y-73421400D01*
X41315255Y-73421400D01*
X40741766Y-73535474D01*
X40255585Y-73860330D01*
X39930729Y-74346511D01*
X39816655Y-74920000D01*
X39930729Y-75493489D01*
X40255585Y-75979670D01*
X40570366Y-76190000D01*
X40255585Y-76400330D01*
X39930729Y-76886511D01*
X39816655Y-77460000D01*
X39930729Y-78033489D01*
X40255585Y-78519670D01*
X40269913Y-78529243D01*
X40248683Y-78533238D01*
X40032559Y-78672310D01*
X39887569Y-78884510D01*
X39836560Y-79136400D01*
X39836560Y-80863600D01*
X39880838Y-81098917D01*
X40019910Y-81315041D01*
X40232110Y-81460031D01*
X40484000Y-81511040D01*
X42516000Y-81511040D01*
X42751317Y-81466762D01*
X42967441Y-81327690D01*
X43112431Y-81115490D01*
X43163440Y-80863600D01*
X43163440Y-80182072D01*
X43500000Y-79845512D01*
X43836560Y-80182073D01*
X43836560Y-81016000D01*
X43880838Y-81251317D01*
X44019910Y-81467441D01*
X44232110Y-81612431D01*
X44484000Y-81663440D01*
X46516000Y-81663440D01*
X46751317Y-81619162D01*
X46967441Y-81480090D01*
X47112431Y-81267890D01*
X47163440Y-81016000D01*
X47163440Y-78984000D01*
X47119162Y-78748683D01*
X46980090Y-78532559D01*
X46831163Y-78430802D01*
X47057670Y-78091810D01*
X47183345Y-77460000D01*
X47057670Y-76828190D01*
X46699778Y-76292567D01*
X46431921Y-76113591D01*
X47472757Y-75072756D01*
X47598314Y-74884846D01*
X47648342Y-74809974D01*
X47710000Y-74500000D01*
X47710000Y-52815255D01*
X49171400Y-52815255D01*
X49171400Y-53184745D01*
X49285474Y-53758234D01*
X49610330Y-54244415D01*
X50096511Y-54569271D01*
X50670000Y-54683345D01*
X51243489Y-54569271D01*
X51729670Y-54244415D01*
X51936461Y-53934931D01*
X52307964Y-54350732D01*
X52835209Y-54604709D01*
X52850974Y-54607358D01*
X53083000Y-54486217D01*
X53083000Y-53127000D01*
X53063000Y-53127000D01*
X53063000Y-52873000D01*
X53083000Y-52873000D01*
X53083000Y-51513783D01*
X52850974Y-51392642D01*
X52835209Y-51395291D01*
X52307964Y-51649268D01*
X51936461Y-52065069D01*
X51729670Y-51755585D01*
X51243489Y-51430729D01*
X50670000Y-51316655D01*
X50096511Y-51430729D01*
X49610330Y-51755585D01*
X49285474Y-52241766D01*
X49171400Y-52815255D01*
X47710000Y-52815255D01*
X47710000Y-48135512D01*
X52135513Y-43710000D01*
X55302779Y-43710000D01*
X54947434Y-43947434D01*
X54701397Y-44315654D01*
X54615000Y-44750000D01*
X54615000Y-51404057D01*
X54434959Y-51519910D01*
X54289969Y-51732110D01*
X54270768Y-51826927D01*
X54112036Y-51649268D01*
X53584791Y-51395291D01*
X53569026Y-51392642D01*
X53337000Y-51513783D01*
X53337000Y-52873000D01*
X53357000Y-52873000D01*
X53357000Y-53127000D01*
X53337000Y-53127000D01*
X53337000Y-54486217D01*
X53569026Y-54607358D01*
X53584791Y-54604709D01*
X54112036Y-54350732D01*
X54268907Y-54175155D01*
X54283238Y-54251317D01*
X54422310Y-54467441D01*
X54634510Y-54612431D01*
X54886400Y-54663440D01*
X56613600Y-54663440D01*
X56848917Y-54619162D01*
X57065041Y-54480090D01*
X57210031Y-54267890D01*
X57261040Y-54016000D01*
X57261040Y-51984000D01*
X57216762Y-51748683D01*
X57077690Y-51532559D01*
X56885000Y-51400900D01*
X56885000Y-44750000D01*
X56798603Y-44315654D01*
X56552566Y-43947434D01*
X56197221Y-43710000D01*
X56700000Y-43710000D01*
X57009974Y-43648342D01*
X57272756Y-43472756D01*
X58872757Y-41872756D01*
X59048343Y-41609973D01*
X59110000Y-41300000D01*
X59110000Y-41206459D01*
X59570000Y-41297959D01*
X60083053Y-41195906D01*
X60084658Y-41203974D01*
X60084658Y-41203974D01*
G37*
X60084658Y-41203974D02*
X60166327Y-41326199D01*
X59971057Y-41406883D01*
X59707808Y-41669673D01*
X59582116Y-41972371D01*
X58847244Y-42707244D01*
X58671658Y-42970026D01*
X58610000Y-43280000D01*
X58610000Y-52588761D01*
X58360330Y-52755585D01*
X58035474Y-53241766D01*
X57921400Y-53815255D01*
X57921400Y-54184745D01*
X58035474Y-54758234D01*
X58360330Y-55244415D01*
X58846511Y-55569271D01*
X59420000Y-55683345D01*
X59993489Y-55569271D01*
X60479670Y-55244415D01*
X60690000Y-54929634D01*
X60900330Y-55244415D01*
X61386511Y-55569271D01*
X61960000Y-55683345D01*
X62533489Y-55569271D01*
X63019670Y-55244415D01*
X63029243Y-55230087D01*
X63033238Y-55251317D01*
X63172310Y-55467441D01*
X63384510Y-55612431D01*
X63636400Y-55663440D01*
X65363600Y-55663440D01*
X65598917Y-55619162D01*
X65815041Y-55480090D01*
X65960031Y-55267890D01*
X66011040Y-55016000D01*
X66011040Y-52984000D01*
X65966762Y-52748683D01*
X65827690Y-52532559D01*
X65615490Y-52387569D01*
X65363600Y-52336560D01*
X63636400Y-52336560D01*
X63401083Y-52380838D01*
X63184959Y-52519910D01*
X63039969Y-52732110D01*
X63031600Y-52773439D01*
X63019670Y-52755585D01*
X62753657Y-52577841D01*
X62708342Y-52350026D01*
X62596967Y-52183342D01*
X62532757Y-52087244D01*
X62100842Y-51655330D01*
X62591810Y-51557670D01*
X62931792Y-51330501D01*
X63019910Y-51467441D01*
X63232110Y-51612431D01*
X63484000Y-51663440D01*
X65516000Y-51663440D01*
X65738000Y-51621668D01*
X65738000Y-51689000D01*
X65799658Y-51998974D01*
X65890548Y-52135000D01*
X65975244Y-52261756D01*
X75246244Y-61532757D01*
X75399262Y-61635000D01*
X75509026Y-61708342D01*
X75819000Y-61770000D01*
X79284998Y-61770000D01*
X79284998Y-65870998D01*
X79346656Y-66180972D01*
X79516501Y-66435162D01*
X79522242Y-66443754D01*
X79878133Y-66799645D01*
X79707808Y-66969673D01*
X79565162Y-67313201D01*
X79564838Y-67685167D01*
X79615000Y-67806569D01*
X79615000Y-68278808D01*
X79448559Y-68385910D01*
X79303569Y-68598110D01*
X79252560Y-68850000D01*
X79252560Y-70150000D01*
X79268742Y-70236000D01*
X79190027Y-70251657D01*
X78927244Y-70427243D01*
X77927244Y-71427244D01*
X77751658Y-71690026D01*
X77715262Y-71873000D01*
X75500000Y-71873000D01*
X75452211Y-71882334D01*
X75410197Y-71910197D01*
X71947394Y-75373000D01*
X67052606Y-75373000D01*
X66127000Y-74447394D01*
X66127000Y-57500000D01*
X66117666Y-57452211D01*
X66089803Y-57410197D01*
X65089803Y-56410197D01*
X65049410Y-56383006D01*
X65000000Y-56373000D01*
X55500000Y-56373000D01*
X55453841Y-56381685D01*
X55411447Y-56408965D01*
X55383006Y-56450590D01*
X55373000Y-56500000D01*
X55373000Y-67947394D01*
X49410197Y-73910197D01*
X49383006Y-73950590D01*
X49373000Y-74000000D01*
X49373000Y-88000000D01*
X49382334Y-88047789D01*
X49410197Y-88089803D01*
X50410197Y-89089803D01*
X50450590Y-89116994D01*
X50500000Y-89127000D01*
X80500000Y-89127000D01*
X80547789Y-89117666D01*
X80589803Y-89089803D01*
X81980143Y-87699463D01*
X82006563Y-87763248D01*
X82223336Y-88087672D01*
X82412328Y-88276664D01*
X82736751Y-88493437D01*
X82839032Y-88535803D01*
X82983681Y-88595718D01*
X83366364Y-88671838D01*
X83633636Y-88671838D01*
X84016319Y-88595718D01*
X84263248Y-88493437D01*
X84263249Y-88493436D01*
X84587672Y-88276664D01*
X84776664Y-88087672D01*
X84993437Y-87763249D01*
X85035803Y-87660968D01*
X85095718Y-87516319D01*
X85171838Y-87133636D01*
X85171838Y-87066170D01*
X85185000Y-87000000D01*
X85185000Y-72000000D01*
X85171838Y-71933830D01*
X85171838Y-71866364D01*
X85095718Y-71483681D01*
X85025848Y-71315000D01*
X84993437Y-71236751D01*
X84776664Y-70912328D01*
X84587672Y-70723336D01*
X84486609Y-70655808D01*
X84551441Y-70614090D01*
X84696431Y-70401890D01*
X84715039Y-70310000D01*
X86000000Y-70310000D01*
X86214236Y-70267386D01*
X85995794Y-70793453D01*
X85995226Y-71443694D01*
X86243538Y-72044655D01*
X86588480Y-72390199D01*
X86245154Y-72732927D01*
X85995794Y-73333453D01*
X85995226Y-73983694D01*
X86243538Y-74584655D01*
X86588480Y-74930199D01*
X86245154Y-75272927D01*
X85995794Y-75873453D01*
X85995226Y-76523694D01*
X86243538Y-77124655D01*
X86588480Y-77470199D01*
X86245154Y-77812927D01*
X85995794Y-78413453D01*
X85995226Y-79063694D01*
X86243538Y-79664655D01*
X86588480Y-80010199D01*
X86245154Y-80352927D01*
X85995794Y-80953453D01*
X85995226Y-81603694D01*
X86243538Y-82204655D01*
X86588480Y-82550199D01*
X86245154Y-82892927D01*
X85995794Y-83493453D01*
X85995226Y-84143694D01*
X86243538Y-84744655D01*
X86588480Y-85090199D01*
X86245154Y-85432927D01*
X85995794Y-86033453D01*
X85995226Y-86683694D01*
X86243538Y-87284655D01*
X86588480Y-87630199D01*
X86245154Y-87972927D01*
X85995794Y-88573453D01*
X85995226Y-89223694D01*
X86243538Y-89824655D01*
X86702927Y-90284846D01*
X86775546Y-90315000D01*
X45627000Y-90315000D01*
X45627000Y-84000000D01*
X45616994Y-83950590D01*
X45588553Y-83908965D01*
X45546159Y-83881685D01*
X45500000Y-83873000D01*
X39185000Y-83873000D01*
X39185000Y-72567466D01*
X39221376Y-72384591D01*
X39286751Y-72286750D01*
X39384590Y-72221376D01*
X39567466Y-72185000D01*
X42500000Y-72185000D01*
X42566170Y-72171838D01*
X42633636Y-72171838D01*
X42859053Y-72127000D01*
X43690000Y-72127000D01*
X43690000Y-73164487D01*
X42844448Y-74010040D01*
X42744415Y-73860330D01*
X42258234Y-73535474D01*
X41684745Y-73421400D01*
X41315255Y-73421400D01*
X40741766Y-73535474D01*
X40255585Y-73860330D01*
X39930729Y-74346511D01*
X39816655Y-74920000D01*
X39930729Y-75493489D01*
X40255585Y-75979670D01*
X40570366Y-76190000D01*
X40255585Y-76400330D01*
X39930729Y-76886511D01*
X39816655Y-77460000D01*
X39930729Y-78033489D01*
X40255585Y-78519670D01*
X40269913Y-78529243D01*
X40248683Y-78533238D01*
X40032559Y-78672310D01*
X39887569Y-78884510D01*
X39836560Y-79136400D01*
X39836560Y-80863600D01*
X39880838Y-81098917D01*
X40019910Y-81315041D01*
X40232110Y-81460031D01*
X40484000Y-81511040D01*
X42516000Y-81511040D01*
X42751317Y-81466762D01*
X42967441Y-81327690D01*
X43112431Y-81115490D01*
X43163440Y-80863600D01*
X43163440Y-80182072D01*
X43500000Y-79845512D01*
X43836560Y-80182073D01*
X43836560Y-81016000D01*
X43880838Y-81251317D01*
X44019910Y-81467441D01*
X44232110Y-81612431D01*
X44484000Y-81663440D01*
X46516000Y-81663440D01*
X46751317Y-81619162D01*
X46967441Y-81480090D01*
X47112431Y-81267890D01*
X47163440Y-81016000D01*
X47163440Y-78984000D01*
X47119162Y-78748683D01*
X46980090Y-78532559D01*
X46831163Y-78430802D01*
X47057670Y-78091810D01*
X47183345Y-77460000D01*
X47057670Y-76828190D01*
X46699778Y-76292567D01*
X46431921Y-76113591D01*
X47472757Y-75072756D01*
X47598314Y-74884846D01*
X47648342Y-74809974D01*
X47710000Y-74500000D01*
X47710000Y-52815255D01*
X49171400Y-52815255D01*
X49171400Y-53184745D01*
X49285474Y-53758234D01*
X49610330Y-54244415D01*
X50096511Y-54569271D01*
X50670000Y-54683345D01*
X51243489Y-54569271D01*
X51729670Y-54244415D01*
X51936461Y-53934931D01*
X52307964Y-54350732D01*
X52835209Y-54604709D01*
X52850974Y-54607358D01*
X53083000Y-54486217D01*
X53083000Y-53127000D01*
X53063000Y-53127000D01*
X53063000Y-52873000D01*
X53083000Y-52873000D01*
X53083000Y-51513783D01*
X52850974Y-51392642D01*
X52835209Y-51395291D01*
X52307964Y-51649268D01*
X51936461Y-52065069D01*
X51729670Y-51755585D01*
X51243489Y-51430729D01*
X50670000Y-51316655D01*
X50096511Y-51430729D01*
X49610330Y-51755585D01*
X49285474Y-52241766D01*
X49171400Y-52815255D01*
X47710000Y-52815255D01*
X47710000Y-48135512D01*
X52135513Y-43710000D01*
X55302779Y-43710000D01*
X54947434Y-43947434D01*
X54701397Y-44315654D01*
X54615000Y-44750000D01*
X54615000Y-51404057D01*
X54434959Y-51519910D01*
X54289969Y-51732110D01*
X54270768Y-51826927D01*
X54112036Y-51649268D01*
X53584791Y-51395291D01*
X53569026Y-51392642D01*
X53337000Y-51513783D01*
X53337000Y-52873000D01*
X53357000Y-52873000D01*
X53357000Y-53127000D01*
X53337000Y-53127000D01*
X53337000Y-54486217D01*
X53569026Y-54607358D01*
X53584791Y-54604709D01*
X54112036Y-54350732D01*
X54268907Y-54175155D01*
X54283238Y-54251317D01*
X54422310Y-54467441D01*
X54634510Y-54612431D01*
X54886400Y-54663440D01*
X56613600Y-54663440D01*
X56848917Y-54619162D01*
X57065041Y-54480090D01*
X57210031Y-54267890D01*
X57261040Y-54016000D01*
X57261040Y-51984000D01*
X57216762Y-51748683D01*
X57077690Y-51532559D01*
X56885000Y-51400900D01*
X56885000Y-44750000D01*
X56798603Y-44315654D01*
X56552566Y-43947434D01*
X56197221Y-43710000D01*
X56700000Y-43710000D01*
X57009974Y-43648342D01*
X57272756Y-43472756D01*
X58872757Y-41872756D01*
X59048343Y-41609973D01*
X59110000Y-41300000D01*
X59110000Y-41206459D01*
X59570000Y-41297959D01*
X60083053Y-41195906D01*
X60084658Y-41203974D01*
G36*
X96373000Y-42000000D02*
X96383006Y-42049410D01*
X96411447Y-42091035D01*
X96453841Y-42118315D01*
X96500000Y-42127000D01*
X102815000Y-42127000D01*
X102815000Y-83873000D01*
X96884445Y-83873000D01*
X96884774Y-83496306D01*
X96636462Y-82895345D01*
X96291520Y-82549801D01*
X96520199Y-82321520D01*
X96862927Y-82664846D01*
X97463453Y-82914206D01*
X98113694Y-82914774D01*
X98714655Y-82666462D01*
X99060199Y-82321520D01*
X99402927Y-82664846D01*
X100003453Y-82914206D01*
X100653694Y-82914774D01*
X101254655Y-82666462D01*
X101714846Y-82207073D01*
X101964206Y-81606547D01*
X101964774Y-80956306D01*
X101716462Y-80355345D01*
X101371520Y-80009801D01*
X101714846Y-79667073D01*
X101964206Y-79066547D01*
X101964774Y-78416306D01*
X101716462Y-77815345D01*
X101371520Y-77469801D01*
X101714846Y-77127073D01*
X101964206Y-76526547D01*
X101964774Y-75876306D01*
X101716462Y-75275345D01*
X101371520Y-74929801D01*
X101714846Y-74587073D01*
X101964206Y-73986547D01*
X101964774Y-73336306D01*
X101716462Y-72735345D01*
X101371520Y-72389801D01*
X101714846Y-72047073D01*
X101964206Y-71446547D01*
X101964774Y-70796306D01*
X101716462Y-70195345D01*
X101257073Y-69735154D01*
X100656547Y-69485794D01*
X100006306Y-69485226D01*
X99405345Y-69733538D01*
X99059801Y-70078480D01*
X98717073Y-69735154D01*
X98116547Y-69485794D01*
X97466306Y-69485226D01*
X96865345Y-69733538D01*
X96519801Y-70078480D01*
X96177073Y-69735154D01*
X95576547Y-69485794D01*
X94926306Y-69485226D01*
X94325345Y-69733538D01*
X93979801Y-70078480D01*
X93637073Y-69735154D01*
X93036547Y-69485794D01*
X92386306Y-69485226D01*
X91785345Y-69733538D01*
X91439801Y-70078480D01*
X91097073Y-69735154D01*
X90496547Y-69485794D01*
X89846306Y-69485226D01*
X89245345Y-69733538D01*
X88899801Y-70078480D01*
X88557073Y-69735154D01*
X87956547Y-69485794D01*
X87306306Y-69485226D01*
X87057469Y-69588043D01*
X89572757Y-67072756D01*
X89620869Y-67000750D01*
X91340000Y-67000750D01*
X91340000Y-67141310D01*
X91436673Y-67374699D01*
X91615302Y-67553327D01*
X91848691Y-67650000D01*
X92664250Y-67650000D01*
X92823000Y-67491250D01*
X92823000Y-66842000D01*
X93077000Y-66842000D01*
X93077000Y-67491250D01*
X93235750Y-67650000D01*
X94051309Y-67650000D01*
X94284698Y-67553327D01*
X94463327Y-67374699D01*
X94560000Y-67141310D01*
X94560000Y-67000750D01*
X94401250Y-66842000D01*
X93077000Y-66842000D01*
X92823000Y-66842000D01*
X91498750Y-66842000D01*
X91340000Y-67000750D01*
X89620869Y-67000750D01*
X89748343Y-66809973D01*
X89810000Y-66500000D01*
X89810000Y-57835512D01*
X90280513Y-57365000D01*
X91359961Y-57365000D01*
X91327560Y-57525000D01*
X91327560Y-58125000D01*
X91371838Y-58360317D01*
X91435678Y-58459528D01*
X91378569Y-58543110D01*
X91327560Y-58795000D01*
X91327560Y-59395000D01*
X91371838Y-59630317D01*
X91435678Y-59729528D01*
X91378569Y-59813110D01*
X91327560Y-60065000D01*
X91327560Y-60665000D01*
X91371838Y-60900317D01*
X91435678Y-60999528D01*
X91378569Y-61083110D01*
X91327560Y-61335000D01*
X91327560Y-61935000D01*
X91357666Y-62095000D01*
X91258657Y-62095000D01*
X91186799Y-62065162D01*
X90814833Y-62064838D01*
X90471057Y-62206883D01*
X90207808Y-62469673D01*
X90065162Y-62813201D01*
X90064838Y-63185167D01*
X90206883Y-63528943D01*
X90469673Y-63792192D01*
X90813201Y-63934838D01*
X91185167Y-63935162D01*
X91327560Y-63876327D01*
X91327560Y-64475000D01*
X91357666Y-64635000D01*
X91354987Y-64635000D01*
X91186799Y-64565162D01*
X90814833Y-64564838D01*
X90471057Y-64706883D01*
X90207808Y-64969673D01*
X90065162Y-65313201D01*
X90064838Y-65685167D01*
X90206883Y-66028943D01*
X90469673Y-66292192D01*
X90813201Y-66434838D01*
X91185167Y-66435162D01*
X91340000Y-66371186D01*
X91340000Y-66429250D01*
X91498750Y-66588000D01*
X92823000Y-66588000D01*
X92823000Y-66568000D01*
X93077000Y-66568000D01*
X93077000Y-66588000D01*
X94401250Y-66588000D01*
X94560000Y-66429250D01*
X94560000Y-66288690D01*
X94470194Y-66071878D01*
X94521431Y-65996890D01*
X94572440Y-65745000D01*
X94572440Y-65145000D01*
X94532926Y-64935000D01*
X95860198Y-64935000D01*
X96962599Y-66037401D01*
X97209161Y-66202148D01*
X97500000Y-66260000D01*
X98336560Y-66260000D01*
X98336560Y-66363600D01*
X98380838Y-66598917D01*
X98519910Y-66815041D01*
X98732110Y-66960031D01*
X98984000Y-67011040D01*
X101016000Y-67011040D01*
X101251317Y-66966762D01*
X101467441Y-66827690D01*
X101612431Y-66615490D01*
X101663440Y-66363600D01*
X101663440Y-64636400D01*
X101619162Y-64401083D01*
X101480090Y-64184959D01*
X101267890Y-64039969D01*
X101226561Y-64031600D01*
X101244415Y-64019670D01*
X101569271Y-63533489D01*
X101683345Y-62960000D01*
X101569271Y-62386511D01*
X101244415Y-61900330D01*
X100929634Y-61690000D01*
X101244415Y-61479670D01*
X101569271Y-60993489D01*
X101683345Y-60420000D01*
X101569271Y-59846511D01*
X101244415Y-59360330D01*
X100758234Y-59035474D01*
X100184745Y-58921400D01*
X99815255Y-58921400D01*
X99241766Y-59035474D01*
X98755585Y-59360330D01*
X98430729Y-59846511D01*
X98316655Y-60420000D01*
X98430729Y-60993489D01*
X98755585Y-61479670D01*
X99070366Y-61690000D01*
X98755585Y-61900330D01*
X98555352Y-62200000D01*
X97774802Y-62200000D01*
X96672401Y-61097599D01*
X96425839Y-60932852D01*
X96189051Y-60885751D01*
X97037401Y-60037401D01*
X97202148Y-59790839D01*
X97260000Y-59500000D01*
X97260000Y-55814802D01*
X97314802Y-55760000D01*
X98336560Y-55760000D01*
X98336560Y-56016000D01*
X98380838Y-56251317D01*
X98519910Y-56467441D01*
X98732110Y-56612431D01*
X98984000Y-56663440D01*
X101016000Y-56663440D01*
X101251317Y-56619162D01*
X101467441Y-56480090D01*
X101612431Y-56267890D01*
X101663440Y-56016000D01*
X101663440Y-53984000D01*
X101619162Y-53748683D01*
X101480090Y-53532559D01*
X101331163Y-53430802D01*
X101557670Y-53091810D01*
X101683345Y-52460000D01*
X101557670Y-51828190D01*
X101199778Y-51292567D01*
X100664155Y-50934675D01*
X100032345Y-50809000D01*
X99967655Y-50809000D01*
X99335845Y-50934675D01*
X98800222Y-51292567D01*
X98527984Y-51700000D01*
X96540000Y-51700000D01*
X96249160Y-51757852D01*
X96002599Y-51922599D01*
X95462599Y-52462599D01*
X95297852Y-52709161D01*
X95240000Y-53000000D01*
X95240000Y-56685198D01*
X94860198Y-57065000D01*
X94529914Y-57065000D01*
X94572440Y-56855000D01*
X94572440Y-56255000D01*
X94528162Y-56019683D01*
X94469822Y-55929020D01*
X94560000Y-55711310D01*
X94560000Y-55570750D01*
X94401250Y-55412000D01*
X93077000Y-55412000D01*
X93077000Y-55432000D01*
X92823000Y-55432000D01*
X92823000Y-55412000D01*
X91498750Y-55412000D01*
X91340000Y-55570750D01*
X91340000Y-55711310D01*
X91353955Y-55745000D01*
X89945000Y-55745000D01*
X89775328Y-55778750D01*
X89635027Y-55806657D01*
X89372244Y-55982243D01*
X88760000Y-56594488D01*
X88760000Y-54858690D01*
X91340000Y-54858690D01*
X91340000Y-54999250D01*
X91498750Y-55158000D01*
X92823000Y-55158000D01*
X92823000Y-54508750D01*
X93077000Y-54508750D01*
X93077000Y-55158000D01*
X94401250Y-55158000D01*
X94560000Y-54999250D01*
X94560000Y-54858690D01*
X94463327Y-54625301D01*
X94284698Y-54446673D01*
X94051309Y-54350000D01*
X93235750Y-54350000D01*
X93077000Y-54508750D01*
X92823000Y-54508750D01*
X92664250Y-54350000D01*
X91848691Y-54350000D01*
X91615302Y-54446673D01*
X91436673Y-54625301D01*
X91340000Y-54858690D01*
X88760000Y-54858690D01*
X88760000Y-54314802D01*
X90314802Y-52760000D01*
X93000000Y-52760000D01*
X93290839Y-52702148D01*
X93537401Y-52537401D01*
X94139680Y-51935122D01*
X94185167Y-51935162D01*
X94528943Y-51793117D01*
X94792192Y-51530327D01*
X94934838Y-51186799D01*
X94935162Y-50814833D01*
X94888243Y-50701279D01*
X95101441Y-50564090D01*
X95246431Y-50351890D01*
X95297440Y-50100000D01*
X95297440Y-48760000D01*
X95500000Y-48760000D01*
X95790839Y-48702148D01*
X96037401Y-48537401D01*
X96274802Y-48300000D01*
X98527984Y-48300000D01*
X98800222Y-48707433D01*
X99335845Y-49065325D01*
X99967655Y-49191000D01*
X100032345Y-49191000D01*
X100664155Y-49065325D01*
X101199778Y-48707433D01*
X101557670Y-48171810D01*
X101683345Y-47540000D01*
X101557670Y-46908190D01*
X101333034Y-46571999D01*
X101375698Y-46554327D01*
X101554327Y-46375699D01*
X101651000Y-46142310D01*
X101651000Y-45285750D01*
X101492250Y-45127000D01*
X100127000Y-45127000D01*
X100127000Y-45147000D01*
X99873000Y-45147000D01*
X99873000Y-45127000D01*
X98507750Y-45127000D01*
X98349000Y-45285750D01*
X98349000Y-46142310D01*
X98445673Y-46375699D01*
X98624302Y-46554327D01*
X98666966Y-46571999D01*
X98527984Y-46780000D01*
X95960000Y-46780000D01*
X95669160Y-46837852D01*
X95422599Y-47002599D01*
X95297440Y-47127758D01*
X95297440Y-45900000D01*
X95253162Y-45664683D01*
X95114090Y-45448559D01*
X94901890Y-45303569D01*
X94760000Y-45274836D01*
X94760000Y-43857690D01*
X98349000Y-43857690D01*
X98349000Y-44714250D01*
X98507750Y-44873000D01*
X99873000Y-44873000D01*
X99873000Y-43507750D01*
X100127000Y-43507750D01*
X100127000Y-44873000D01*
X101492250Y-44873000D01*
X101651000Y-44714250D01*
X101651000Y-43857690D01*
X101554327Y-43624301D01*
X101375698Y-43445673D01*
X101142309Y-43349000D01*
X100285750Y-43349000D01*
X100127000Y-43507750D01*
X99873000Y-43507750D01*
X99714250Y-43349000D01*
X98857691Y-43349000D01*
X98624302Y-43445673D01*
X98445673Y-43624301D01*
X98349000Y-43857690D01*
X94760000Y-43857690D01*
X94760000Y-41224361D01*
X95130000Y-41297959D01*
X95703489Y-41183885D01*
X96189670Y-40859029D01*
X96373000Y-40584656D01*
X96373000Y-42000000D01*
X96373000Y-42000000D01*
G37*
X96373000Y-42000000D02*
X96383006Y-42049410D01*
X96411447Y-42091035D01*
X96453841Y-42118315D01*
X96500000Y-42127000D01*
X102815000Y-42127000D01*
X102815000Y-83873000D01*
X96884445Y-83873000D01*
X96884774Y-83496306D01*
X96636462Y-82895345D01*
X96291520Y-82549801D01*
X96520199Y-82321520D01*
X96862927Y-82664846D01*
X97463453Y-82914206D01*
X98113694Y-82914774D01*
X98714655Y-82666462D01*
X99060199Y-82321520D01*
X99402927Y-82664846D01*
X100003453Y-82914206D01*
X100653694Y-82914774D01*
X101254655Y-82666462D01*
X101714846Y-82207073D01*
X101964206Y-81606547D01*
X101964774Y-80956306D01*
X101716462Y-80355345D01*
X101371520Y-80009801D01*
X101714846Y-79667073D01*
X101964206Y-79066547D01*
X101964774Y-78416306D01*
X101716462Y-77815345D01*
X101371520Y-77469801D01*
X101714846Y-77127073D01*
X101964206Y-76526547D01*
X101964774Y-75876306D01*
X101716462Y-75275345D01*
X101371520Y-74929801D01*
X101714846Y-74587073D01*
X101964206Y-73986547D01*
X101964774Y-73336306D01*
X101716462Y-72735345D01*
X101371520Y-72389801D01*
X101714846Y-72047073D01*
X101964206Y-71446547D01*
X101964774Y-70796306D01*
X101716462Y-70195345D01*
X101257073Y-69735154D01*
X100656547Y-69485794D01*
X100006306Y-69485226D01*
X99405345Y-69733538D01*
X99059801Y-70078480D01*
X98717073Y-69735154D01*
X98116547Y-69485794D01*
X97466306Y-69485226D01*
X96865345Y-69733538D01*
X96519801Y-70078480D01*
X96177073Y-69735154D01*
X95576547Y-69485794D01*
X94926306Y-69485226D01*
X94325345Y-69733538D01*
X93979801Y-70078480D01*
X93637073Y-69735154D01*
X93036547Y-69485794D01*
X92386306Y-69485226D01*
X91785345Y-69733538D01*
X91439801Y-70078480D01*
X91097073Y-69735154D01*
X90496547Y-69485794D01*
X89846306Y-69485226D01*
X89245345Y-69733538D01*
X88899801Y-70078480D01*
X88557073Y-69735154D01*
X87956547Y-69485794D01*
X87306306Y-69485226D01*
X87057469Y-69588043D01*
X89572757Y-67072756D01*
X89620869Y-67000750D01*
X91340000Y-67000750D01*
X91340000Y-67141310D01*
X91436673Y-67374699D01*
X91615302Y-67553327D01*
X91848691Y-67650000D01*
X92664250Y-67650000D01*
X92823000Y-67491250D01*
X92823000Y-66842000D01*
X93077000Y-66842000D01*
X93077000Y-67491250D01*
X93235750Y-67650000D01*
X94051309Y-67650000D01*
X94284698Y-67553327D01*
X94463327Y-67374699D01*
X94560000Y-67141310D01*
X94560000Y-67000750D01*
X94401250Y-66842000D01*
X93077000Y-66842000D01*
X92823000Y-66842000D01*
X91498750Y-66842000D01*
X91340000Y-67000750D01*
X89620869Y-67000750D01*
X89748343Y-66809973D01*
X89810000Y-66500000D01*
X89810000Y-57835512D01*
X90280513Y-57365000D01*
X91359961Y-57365000D01*
X91327560Y-57525000D01*
X91327560Y-58125000D01*
X91371838Y-58360317D01*
X91435678Y-58459528D01*
X91378569Y-58543110D01*
X91327560Y-58795000D01*
X91327560Y-59395000D01*
X91371838Y-59630317D01*
X91435678Y-59729528D01*
X91378569Y-59813110D01*
X91327560Y-60065000D01*
X91327560Y-60665000D01*
X91371838Y-60900317D01*
X91435678Y-60999528D01*
X91378569Y-61083110D01*
X91327560Y-61335000D01*
X91327560Y-61935000D01*
X91357666Y-62095000D01*
X91258657Y-62095000D01*
X91186799Y-62065162D01*
X90814833Y-62064838D01*
X90471057Y-62206883D01*
X90207808Y-62469673D01*
X90065162Y-62813201D01*
X90064838Y-63185167D01*
X90206883Y-63528943D01*
X90469673Y-63792192D01*
X90813201Y-63934838D01*
X91185167Y-63935162D01*
X91327560Y-63876327D01*
X91327560Y-64475000D01*
X91357666Y-64635000D01*
X91354987Y-64635000D01*
X91186799Y-64565162D01*
X90814833Y-64564838D01*
X90471057Y-64706883D01*
X90207808Y-64969673D01*
X90065162Y-65313201D01*
X90064838Y-65685167D01*
X90206883Y-66028943D01*
X90469673Y-66292192D01*
X90813201Y-66434838D01*
X91185167Y-66435162D01*
X91340000Y-66371186D01*
X91340000Y-66429250D01*
X91498750Y-66588000D01*
X92823000Y-66588000D01*
X92823000Y-66568000D01*
X93077000Y-66568000D01*
X93077000Y-66588000D01*
X94401250Y-66588000D01*
X94560000Y-66429250D01*
X94560000Y-66288690D01*
X94470194Y-66071878D01*
X94521431Y-65996890D01*
X94572440Y-65745000D01*
X94572440Y-65145000D01*
X94532926Y-64935000D01*
X95860198Y-64935000D01*
X96962599Y-66037401D01*
X97209161Y-66202148D01*
X97500000Y-66260000D01*
X98336560Y-66260000D01*
X98336560Y-66363600D01*
X98380838Y-66598917D01*
X98519910Y-66815041D01*
X98732110Y-66960031D01*
X98984000Y-67011040D01*
X101016000Y-67011040D01*
X101251317Y-66966762D01*
X101467441Y-66827690D01*
X101612431Y-66615490D01*
X101663440Y-66363600D01*
X101663440Y-64636400D01*
X101619162Y-64401083D01*
X101480090Y-64184959D01*
X101267890Y-64039969D01*
X101226561Y-64031600D01*
X101244415Y-64019670D01*
X101569271Y-63533489D01*
X101683345Y-62960000D01*
X101569271Y-62386511D01*
X101244415Y-61900330D01*
X100929634Y-61690000D01*
X101244415Y-61479670D01*
X101569271Y-60993489D01*
X101683345Y-60420000D01*
X101569271Y-59846511D01*
X101244415Y-59360330D01*
X100758234Y-59035474D01*
X100184745Y-58921400D01*
X99815255Y-58921400D01*
X99241766Y-59035474D01*
X98755585Y-59360330D01*
X98430729Y-59846511D01*
X98316655Y-60420000D01*
X98430729Y-60993489D01*
X98755585Y-61479670D01*
X99070366Y-61690000D01*
X98755585Y-61900330D01*
X98555352Y-62200000D01*
X97774802Y-62200000D01*
X96672401Y-61097599D01*
X96425839Y-60932852D01*
X96189051Y-60885751D01*
X97037401Y-60037401D01*
X97202148Y-59790839D01*
X97260000Y-59500000D01*
X97260000Y-55814802D01*
X97314802Y-55760000D01*
X98336560Y-55760000D01*
X98336560Y-56016000D01*
X98380838Y-56251317D01*
X98519910Y-56467441D01*
X98732110Y-56612431D01*
X98984000Y-56663440D01*
X101016000Y-56663440D01*
X101251317Y-56619162D01*
X101467441Y-56480090D01*
X101612431Y-56267890D01*
X101663440Y-56016000D01*
X101663440Y-53984000D01*
X101619162Y-53748683D01*
X101480090Y-53532559D01*
X101331163Y-53430802D01*
X101557670Y-53091810D01*
X101683345Y-52460000D01*
X101557670Y-51828190D01*
X101199778Y-51292567D01*
X100664155Y-50934675D01*
X100032345Y-50809000D01*
X99967655Y-50809000D01*
X99335845Y-50934675D01*
X98800222Y-51292567D01*
X98527984Y-51700000D01*
X96540000Y-51700000D01*
X96249160Y-51757852D01*
X96002599Y-51922599D01*
X95462599Y-52462599D01*
X95297852Y-52709161D01*
X95240000Y-53000000D01*
X95240000Y-56685198D01*
X94860198Y-57065000D01*
X94529914Y-57065000D01*
X94572440Y-56855000D01*
X94572440Y-56255000D01*
X94528162Y-56019683D01*
X94469822Y-55929020D01*
X94560000Y-55711310D01*
X94560000Y-55570750D01*
X94401250Y-55412000D01*
X93077000Y-55412000D01*
X93077000Y-55432000D01*
X92823000Y-55432000D01*
X92823000Y-55412000D01*
X91498750Y-55412000D01*
X91340000Y-55570750D01*
X91340000Y-55711310D01*
X91353955Y-55745000D01*
X89945000Y-55745000D01*
X89775328Y-55778750D01*
X89635027Y-55806657D01*
X89372244Y-55982243D01*
X88760000Y-56594488D01*
X88760000Y-54858690D01*
X91340000Y-54858690D01*
X91340000Y-54999250D01*
X91498750Y-55158000D01*
X92823000Y-55158000D01*
X92823000Y-54508750D01*
X93077000Y-54508750D01*
X93077000Y-55158000D01*
X94401250Y-55158000D01*
X94560000Y-54999250D01*
X94560000Y-54858690D01*
X94463327Y-54625301D01*
X94284698Y-54446673D01*
X94051309Y-54350000D01*
X93235750Y-54350000D01*
X93077000Y-54508750D01*
X92823000Y-54508750D01*
X92664250Y-54350000D01*
X91848691Y-54350000D01*
X91615302Y-54446673D01*
X91436673Y-54625301D01*
X91340000Y-54858690D01*
X88760000Y-54858690D01*
X88760000Y-54314802D01*
X90314802Y-52760000D01*
X93000000Y-52760000D01*
X93290839Y-52702148D01*
X93537401Y-52537401D01*
X94139680Y-51935122D01*
X94185167Y-51935162D01*
X94528943Y-51793117D01*
X94792192Y-51530327D01*
X94934838Y-51186799D01*
X94935162Y-50814833D01*
X94888243Y-50701279D01*
X95101441Y-50564090D01*
X95246431Y-50351890D01*
X95297440Y-50100000D01*
X95297440Y-48760000D01*
X95500000Y-48760000D01*
X95790839Y-48702148D01*
X96037401Y-48537401D01*
X96274802Y-48300000D01*
X98527984Y-48300000D01*
X98800222Y-48707433D01*
X99335845Y-49065325D01*
X99967655Y-49191000D01*
X100032345Y-49191000D01*
X100664155Y-49065325D01*
X101199778Y-48707433D01*
X101557670Y-48171810D01*
X101683345Y-47540000D01*
X101557670Y-46908190D01*
X101333034Y-46571999D01*
X101375698Y-46554327D01*
X101554327Y-46375699D01*
X101651000Y-46142310D01*
X101651000Y-45285750D01*
X101492250Y-45127000D01*
X100127000Y-45127000D01*
X100127000Y-45147000D01*
X99873000Y-45147000D01*
X99873000Y-45127000D01*
X98507750Y-45127000D01*
X98349000Y-45285750D01*
X98349000Y-46142310D01*
X98445673Y-46375699D01*
X98624302Y-46554327D01*
X98666966Y-46571999D01*
X98527984Y-46780000D01*
X95960000Y-46780000D01*
X95669160Y-46837852D01*
X95422599Y-47002599D01*
X95297440Y-47127758D01*
X95297440Y-45900000D01*
X95253162Y-45664683D01*
X95114090Y-45448559D01*
X94901890Y-45303569D01*
X94760000Y-45274836D01*
X94760000Y-43857690D01*
X98349000Y-43857690D01*
X98349000Y-44714250D01*
X98507750Y-44873000D01*
X99873000Y-44873000D01*
X99873000Y-43507750D01*
X100127000Y-43507750D01*
X100127000Y-44873000D01*
X101492250Y-44873000D01*
X101651000Y-44714250D01*
X101651000Y-43857690D01*
X101554327Y-43624301D01*
X101375698Y-43445673D01*
X101142309Y-43349000D01*
X100285750Y-43349000D01*
X100127000Y-43507750D01*
X99873000Y-43507750D01*
X99714250Y-43349000D01*
X98857691Y-43349000D01*
X98624302Y-43445673D01*
X98445673Y-43624301D01*
X98349000Y-43857690D01*
X94760000Y-43857690D01*
X94760000Y-41224361D01*
X95130000Y-41297959D01*
X95703489Y-41183885D01*
X96189670Y-40859029D01*
X96373000Y-40584656D01*
X96373000Y-42000000D01*
G36*
X70000000Y-48135000D02*
X70796099Y-48135000D01*
X70752560Y-48350000D01*
X70752560Y-49650000D01*
X70796838Y-49885317D01*
X70870620Y-49999978D01*
X70803569Y-50098110D01*
X70752560Y-50350000D01*
X70752560Y-51650000D01*
X70796838Y-51885317D01*
X70935910Y-52101441D01*
X71148110Y-52246431D01*
X71400000Y-52297440D01*
X72900000Y-52297440D01*
X73135317Y-52253162D01*
X73351441Y-52114090D01*
X73496431Y-51901890D01*
X73499081Y-51888803D01*
X73635910Y-52101441D01*
X73848110Y-52246431D01*
X74100000Y-52297440D01*
X75600000Y-52297440D01*
X75835317Y-52253162D01*
X76051441Y-52114090D01*
X76160000Y-51955209D01*
X76160000Y-52101309D01*
X76256673Y-52334698D01*
X76435301Y-52513327D01*
X76668690Y-52610000D01*
X76809250Y-52610000D01*
X76968000Y-52451250D01*
X76968000Y-51327000D01*
X77222000Y-51327000D01*
X77222000Y-52451250D01*
X77380750Y-52610000D01*
X77521310Y-52610000D01*
X77730000Y-52523558D01*
X77938690Y-52610000D01*
X78079250Y-52610000D01*
X78238000Y-52451250D01*
X78238000Y-51327000D01*
X78492000Y-51327000D01*
X78492000Y-52451250D01*
X78650750Y-52610000D01*
X78791310Y-52610000D01*
X79000000Y-52523558D01*
X79208690Y-52610000D01*
X79349250Y-52610000D01*
X79508000Y-52451250D01*
X79508000Y-51327000D01*
X78492000Y-51327000D01*
X78238000Y-51327000D01*
X77222000Y-51327000D01*
X76968000Y-51327000D01*
X76948000Y-51327000D01*
X76948000Y-51073000D01*
X76968000Y-51073000D01*
X76968000Y-51053000D01*
X77222000Y-51053000D01*
X77222000Y-51073000D01*
X78238000Y-51073000D01*
X78238000Y-51053000D01*
X78492000Y-51053000D01*
X78492000Y-51073000D01*
X79508000Y-51073000D01*
X79508000Y-51053000D01*
X79762000Y-51053000D01*
X79762000Y-51073000D01*
X80778000Y-51073000D01*
X80778000Y-49948750D01*
X81032000Y-49948750D01*
X81032000Y-51073000D01*
X81681250Y-51073000D01*
X81840000Y-50914250D01*
X81840000Y-50363025D01*
X82015301Y-50538327D01*
X82248690Y-50635000D01*
X82714250Y-50635000D01*
X82873000Y-50476250D01*
X82873000Y-49627000D01*
X83127000Y-49627000D01*
X83127000Y-50476250D01*
X83285750Y-50635000D01*
X83751310Y-50635000D01*
X83984699Y-50538327D01*
X84163327Y-50359698D01*
X84260000Y-50126309D01*
X84260000Y-49785750D01*
X84101250Y-49627000D01*
X83127000Y-49627000D01*
X82873000Y-49627000D01*
X81898750Y-49627000D01*
X81740000Y-49785750D01*
X81740000Y-50061975D01*
X81564699Y-49886673D01*
X81331310Y-49790000D01*
X81190750Y-49790000D01*
X81032000Y-49948750D01*
X80778000Y-49948750D01*
X80619250Y-49790000D01*
X80478690Y-49790000D01*
X80270000Y-49876442D01*
X80061310Y-49790000D01*
X80034802Y-49790000D01*
X80172401Y-49652401D01*
X80337148Y-49405840D01*
X80366158Y-49260000D01*
X81785750Y-49260000D01*
X81898750Y-49373000D01*
X82873000Y-49373000D01*
X82873000Y-49353000D01*
X83127000Y-49353000D01*
X83127000Y-49373000D01*
X84101250Y-49373000D01*
X84260000Y-49214250D01*
X84260000Y-49208282D01*
X84290839Y-49202148D01*
X84537401Y-49037401D01*
X84814802Y-48760000D01*
X85202560Y-48760000D01*
X85202560Y-50100000D01*
X85246838Y-50335317D01*
X85385910Y-50551441D01*
X85598110Y-50696431D01*
X85612444Y-50699334D01*
X85565162Y-50813201D01*
X85564838Y-51185167D01*
X85706883Y-51528943D01*
X85740000Y-51562118D01*
X85740000Y-56685198D01*
X85360198Y-57065000D01*
X85125334Y-57065000D01*
X85160000Y-56981310D01*
X85160000Y-56840750D01*
X85001250Y-56682000D01*
X83677000Y-56682000D01*
X83677000Y-56702000D01*
X83423000Y-56702000D01*
X83423000Y-56682000D01*
X82098750Y-56682000D01*
X81940000Y-56840750D01*
X81940000Y-56981310D01*
X82029806Y-57198122D01*
X81978569Y-57273110D01*
X81927560Y-57525000D01*
X81927560Y-58125000D01*
X81957666Y-58285000D01*
X76829513Y-58285000D01*
X75830263Y-57285750D01*
X79240000Y-57285750D01*
X79240000Y-57626309D01*
X79336673Y-57859698D01*
X79515301Y-58038327D01*
X79748690Y-58135000D01*
X80214250Y-58135000D01*
X80373000Y-57976250D01*
X80373000Y-57127000D01*
X80627000Y-57127000D01*
X80627000Y-57976250D01*
X80785750Y-58135000D01*
X81251310Y-58135000D01*
X81484699Y-58038327D01*
X81663327Y-57859698D01*
X81760000Y-57626309D01*
X81760000Y-57285750D01*
X81601250Y-57127000D01*
X80627000Y-57127000D01*
X80373000Y-57127000D01*
X79398750Y-57127000D01*
X79240000Y-57285750D01*
X75830263Y-57285750D01*
X73044513Y-54500000D01*
X79227560Y-54500000D01*
X79227560Y-55500000D01*
X79271838Y-55735317D01*
X79410910Y-55951441D01*
X79479006Y-55997969D01*
X79336673Y-56140302D01*
X79240000Y-56373691D01*
X79240000Y-56714250D01*
X79398750Y-56873000D01*
X80373000Y-56873000D01*
X80373000Y-56853000D01*
X80627000Y-56853000D01*
X80627000Y-56873000D01*
X81601250Y-56873000D01*
X81760000Y-56714250D01*
X81760000Y-56373691D01*
X81663327Y-56140302D01*
X81522090Y-55999064D01*
X81576441Y-55964090D01*
X81630481Y-55885000D01*
X82013460Y-55885000D01*
X82030178Y-55910980D01*
X81940000Y-56128690D01*
X81940000Y-56269250D01*
X82098750Y-56428000D01*
X83423000Y-56428000D01*
X83423000Y-56408000D01*
X83677000Y-56408000D01*
X83677000Y-56428000D01*
X85001250Y-56428000D01*
X85160000Y-56269250D01*
X85160000Y-56128690D01*
X85070194Y-55911878D01*
X85121431Y-55836890D01*
X85172440Y-55585000D01*
X85172440Y-54985000D01*
X85128162Y-54749683D01*
X84989090Y-54533559D01*
X84776890Y-54388569D01*
X84525000Y-54337560D01*
X83070939Y-54337560D01*
X83029653Y-54309974D01*
X82838675Y-54182367D01*
X82782484Y-54171190D01*
X82500000Y-54114999D01*
X82499995Y-54115000D01*
X81631844Y-54115000D01*
X81589090Y-54048559D01*
X81385000Y-53909110D01*
X81385000Y-53806822D01*
X81434838Y-53686799D01*
X81435162Y-53314833D01*
X81293117Y-52971057D01*
X81030327Y-52707808D01*
X80686799Y-52565162D01*
X80664108Y-52565142D01*
X80778000Y-52451250D01*
X80778000Y-51327000D01*
X81032000Y-51327000D01*
X81032000Y-52451250D01*
X81190750Y-52610000D01*
X81331310Y-52610000D01*
X81564699Y-52513327D01*
X81743327Y-52334698D01*
X81840000Y-52101309D01*
X81840000Y-51485750D01*
X81681250Y-51327000D01*
X81032000Y-51327000D01*
X80778000Y-51327000D01*
X79762000Y-51327000D01*
X79762000Y-52451250D01*
X79920750Y-52610000D01*
X80061310Y-52610000D01*
X80270000Y-52523558D01*
X80369775Y-52564886D01*
X80314833Y-52564838D01*
X79971057Y-52706883D01*
X79707808Y-52969673D01*
X79565162Y-53313201D01*
X79564838Y-53685167D01*
X79615000Y-53806569D01*
X79615000Y-53912721D01*
X79423559Y-54035910D01*
X79278569Y-54248110D01*
X79227560Y-54500000D01*
X73044513Y-54500000D01*
X69933421Y-51388909D01*
X70042192Y-51280327D01*
X70184838Y-50936799D01*
X70185162Y-50564833D01*
X70060000Y-50261917D01*
X70060000Y-48500000D01*
X70052857Y-48464090D01*
X69998343Y-48190027D01*
X69955685Y-48126185D01*
X70000000Y-48135000D01*
X70000000Y-48135000D01*
G37*
X70000000Y-48135000D02*
X70796099Y-48135000D01*
X70752560Y-48350000D01*
X70752560Y-49650000D01*
X70796838Y-49885317D01*
X70870620Y-49999978D01*
X70803569Y-50098110D01*
X70752560Y-50350000D01*
X70752560Y-51650000D01*
X70796838Y-51885317D01*
X70935910Y-52101441D01*
X71148110Y-52246431D01*
X71400000Y-52297440D01*
X72900000Y-52297440D01*
X73135317Y-52253162D01*
X73351441Y-52114090D01*
X73496431Y-51901890D01*
X73499081Y-51888803D01*
X73635910Y-52101441D01*
X73848110Y-52246431D01*
X74100000Y-52297440D01*
X75600000Y-52297440D01*
X75835317Y-52253162D01*
X76051441Y-52114090D01*
X76160000Y-51955209D01*
X76160000Y-52101309D01*
X76256673Y-52334698D01*
X76435301Y-52513327D01*
X76668690Y-52610000D01*
X76809250Y-52610000D01*
X76968000Y-52451250D01*
X76968000Y-51327000D01*
X77222000Y-51327000D01*
X77222000Y-52451250D01*
X77380750Y-52610000D01*
X77521310Y-52610000D01*
X77730000Y-52523558D01*
X77938690Y-52610000D01*
X78079250Y-52610000D01*
X78238000Y-52451250D01*
X78238000Y-51327000D01*
X78492000Y-51327000D01*
X78492000Y-52451250D01*
X78650750Y-52610000D01*
X78791310Y-52610000D01*
X79000000Y-52523558D01*
X79208690Y-52610000D01*
X79349250Y-52610000D01*
X79508000Y-52451250D01*
X79508000Y-51327000D01*
X78492000Y-51327000D01*
X78238000Y-51327000D01*
X77222000Y-51327000D01*
X76968000Y-51327000D01*
X76948000Y-51327000D01*
X76948000Y-51073000D01*
X76968000Y-51073000D01*
X76968000Y-51053000D01*
X77222000Y-51053000D01*
X77222000Y-51073000D01*
X78238000Y-51073000D01*
X78238000Y-51053000D01*
X78492000Y-51053000D01*
X78492000Y-51073000D01*
X79508000Y-51073000D01*
X79508000Y-51053000D01*
X79762000Y-51053000D01*
X79762000Y-51073000D01*
X80778000Y-51073000D01*
X80778000Y-49948750D01*
X81032000Y-49948750D01*
X81032000Y-51073000D01*
X81681250Y-51073000D01*
X81840000Y-50914250D01*
X81840000Y-50363025D01*
X82015301Y-50538327D01*
X82248690Y-50635000D01*
X82714250Y-50635000D01*
X82873000Y-50476250D01*
X82873000Y-49627000D01*
X83127000Y-49627000D01*
X83127000Y-50476250D01*
X83285750Y-50635000D01*
X83751310Y-50635000D01*
X83984699Y-50538327D01*
X84163327Y-50359698D01*
X84260000Y-50126309D01*
X84260000Y-49785750D01*
X84101250Y-49627000D01*
X83127000Y-49627000D01*
X82873000Y-49627000D01*
X81898750Y-49627000D01*
X81740000Y-49785750D01*
X81740000Y-50061975D01*
X81564699Y-49886673D01*
X81331310Y-49790000D01*
X81190750Y-49790000D01*
X81032000Y-49948750D01*
X80778000Y-49948750D01*
X80619250Y-49790000D01*
X80478690Y-49790000D01*
X80270000Y-49876442D01*
X80061310Y-49790000D01*
X80034802Y-49790000D01*
X80172401Y-49652401D01*
X80337148Y-49405840D01*
X80366158Y-49260000D01*
X81785750Y-49260000D01*
X81898750Y-49373000D01*
X82873000Y-49373000D01*
X82873000Y-49353000D01*
X83127000Y-49353000D01*
X83127000Y-49373000D01*
X84101250Y-49373000D01*
X84260000Y-49214250D01*
X84260000Y-49208282D01*
X84290839Y-49202148D01*
X84537401Y-49037401D01*
X84814802Y-48760000D01*
X85202560Y-48760000D01*
X85202560Y-50100000D01*
X85246838Y-50335317D01*
X85385910Y-50551441D01*
X85598110Y-50696431D01*
X85612444Y-50699334D01*
X85565162Y-50813201D01*
X85564838Y-51185167D01*
X85706883Y-51528943D01*
X85740000Y-51562118D01*
X85740000Y-56685198D01*
X85360198Y-57065000D01*
X85125334Y-57065000D01*
X85160000Y-56981310D01*
X85160000Y-56840750D01*
X85001250Y-56682000D01*
X83677000Y-56682000D01*
X83677000Y-56702000D01*
X83423000Y-56702000D01*
X83423000Y-56682000D01*
X82098750Y-56682000D01*
X81940000Y-56840750D01*
X81940000Y-56981310D01*
X82029806Y-57198122D01*
X81978569Y-57273110D01*
X81927560Y-57525000D01*
X81927560Y-58125000D01*
X81957666Y-58285000D01*
X76829513Y-58285000D01*
X75830263Y-57285750D01*
X79240000Y-57285750D01*
X79240000Y-57626309D01*
X79336673Y-57859698D01*
X79515301Y-58038327D01*
X79748690Y-58135000D01*
X80214250Y-58135000D01*
X80373000Y-57976250D01*
X80373000Y-57127000D01*
X80627000Y-57127000D01*
X80627000Y-57976250D01*
X80785750Y-58135000D01*
X81251310Y-58135000D01*
X81484699Y-58038327D01*
X81663327Y-57859698D01*
X81760000Y-57626309D01*
X81760000Y-57285750D01*
X81601250Y-57127000D01*
X80627000Y-57127000D01*
X80373000Y-57127000D01*
X79398750Y-57127000D01*
X79240000Y-57285750D01*
X75830263Y-57285750D01*
X73044513Y-54500000D01*
X79227560Y-54500000D01*
X79227560Y-55500000D01*
X79271838Y-55735317D01*
X79410910Y-55951441D01*
X79479006Y-55997969D01*
X79336673Y-56140302D01*
X79240000Y-56373691D01*
X79240000Y-56714250D01*
X79398750Y-56873000D01*
X80373000Y-56873000D01*
X80373000Y-56853000D01*
X80627000Y-56853000D01*
X80627000Y-56873000D01*
X81601250Y-56873000D01*
X81760000Y-56714250D01*
X81760000Y-56373691D01*
X81663327Y-56140302D01*
X81522090Y-55999064D01*
X81576441Y-55964090D01*
X81630481Y-55885000D01*
X82013460Y-55885000D01*
X82030178Y-55910980D01*
X81940000Y-56128690D01*
X81940000Y-56269250D01*
X82098750Y-56428000D01*
X83423000Y-56428000D01*
X83423000Y-56408000D01*
X83677000Y-56408000D01*
X83677000Y-56428000D01*
X85001250Y-56428000D01*
X85160000Y-56269250D01*
X85160000Y-56128690D01*
X85070194Y-55911878D01*
X85121431Y-55836890D01*
X85172440Y-55585000D01*
X85172440Y-54985000D01*
X85128162Y-54749683D01*
X84989090Y-54533559D01*
X84776890Y-54388569D01*
X84525000Y-54337560D01*
X83070939Y-54337560D01*
X83029653Y-54309974D01*
X82838675Y-54182367D01*
X82782484Y-54171190D01*
X82500000Y-54114999D01*
X82499995Y-54115000D01*
X81631844Y-54115000D01*
X81589090Y-54048559D01*
X81385000Y-53909110D01*
X81385000Y-53806822D01*
X81434838Y-53686799D01*
X81435162Y-53314833D01*
X81293117Y-52971057D01*
X81030327Y-52707808D01*
X80686799Y-52565162D01*
X80664108Y-52565142D01*
X80778000Y-52451250D01*
X80778000Y-51327000D01*
X81032000Y-51327000D01*
X81032000Y-52451250D01*
X81190750Y-52610000D01*
X81331310Y-52610000D01*
X81564699Y-52513327D01*
X81743327Y-52334698D01*
X81840000Y-52101309D01*
X81840000Y-51485750D01*
X81681250Y-51327000D01*
X81032000Y-51327000D01*
X80778000Y-51327000D01*
X79762000Y-51327000D01*
X79762000Y-52451250D01*
X79920750Y-52610000D01*
X80061310Y-52610000D01*
X80270000Y-52523558D01*
X80369775Y-52564886D01*
X80314833Y-52564838D01*
X79971057Y-52706883D01*
X79707808Y-52969673D01*
X79565162Y-53313201D01*
X79564838Y-53685167D01*
X79615000Y-53806569D01*
X79615000Y-53912721D01*
X79423559Y-54035910D01*
X79278569Y-54248110D01*
X79227560Y-54500000D01*
X73044513Y-54500000D01*
X69933421Y-51388909D01*
X70042192Y-51280327D01*
X70184838Y-50936799D01*
X70185162Y-50564833D01*
X70060000Y-50261917D01*
X70060000Y-48500000D01*
X70052857Y-48464090D01*
X69998343Y-48190027D01*
X69955685Y-48126185D01*
X70000000Y-48135000D01*
G36*
X48350330Y-40859029D02*
X48600000Y-41025853D01*
X48600000Y-41754487D01*
X43927244Y-46427244D01*
X43751658Y-46690026D01*
X43690000Y-47000000D01*
X43690000Y-53873000D01*
X42859053Y-53873000D01*
X42633636Y-53828162D01*
X42566170Y-53828162D01*
X42500000Y-53815000D01*
X39567466Y-53815000D01*
X39384590Y-53778624D01*
X39286751Y-53713250D01*
X39221376Y-53615409D01*
X39185000Y-53432534D01*
X39185000Y-42127000D01*
X44121421Y-42127000D01*
X43091164Y-43157256D01*
X42971057Y-43206883D01*
X42707808Y-43469673D01*
X42565162Y-43813201D01*
X42564838Y-44185167D01*
X42706883Y-44528943D01*
X42969673Y-44792192D01*
X43313201Y-44934838D01*
X43685167Y-44935162D01*
X44028943Y-44793117D01*
X44292192Y-44530327D01*
X44342566Y-44409014D01*
X46125787Y-42625792D01*
X46125790Y-42625790D01*
X46317633Y-42338675D01*
X46339497Y-42228757D01*
X46385001Y-42000000D01*
X46385000Y-41999995D01*
X46385000Y-41281040D01*
X47733600Y-41281040D01*
X47968917Y-41236762D01*
X48185041Y-41097690D01*
X48330031Y-40885490D01*
X48338864Y-40841869D01*
X48350330Y-40859029D01*
X48350330Y-40859029D01*
G37*
X48350330Y-40859029D02*
X48600000Y-41025853D01*
X48600000Y-41754487D01*
X43927244Y-46427244D01*
X43751658Y-46690026D01*
X43690000Y-47000000D01*
X43690000Y-53873000D01*
X42859053Y-53873000D01*
X42633636Y-53828162D01*
X42566170Y-53828162D01*
X42500000Y-53815000D01*
X39567466Y-53815000D01*
X39384590Y-53778624D01*
X39286751Y-53713250D01*
X39221376Y-53615409D01*
X39185000Y-53432534D01*
X39185000Y-42127000D01*
X44121421Y-42127000D01*
X43091164Y-43157256D01*
X42971057Y-43206883D01*
X42707808Y-43469673D01*
X42565162Y-43813201D01*
X42564838Y-44185167D01*
X42706883Y-44528943D01*
X42969673Y-44792192D01*
X43313201Y-44934838D01*
X43685167Y-44935162D01*
X44028943Y-44793117D01*
X44292192Y-44530327D01*
X44342566Y-44409014D01*
X46125787Y-42625792D01*
X46125790Y-42625790D01*
X46317633Y-42338675D01*
X46339497Y-42228757D01*
X46385001Y-42000000D01*
X46385000Y-41999995D01*
X46385000Y-41281040D01*
X47733600Y-41281040D01*
X47968917Y-41236762D01*
X48185041Y-41097690D01*
X48330031Y-40885490D01*
X48338864Y-40841869D01*
X48350330Y-40859029D01*
G36*
X62571057Y-42906883D02*
X62307808Y-43169673D01*
X62165162Y-43513201D01*
X62164838Y-43885167D01*
X62290000Y-44188083D01*
X62290000Y-48382296D01*
X61960000Y-48316655D01*
X61328190Y-48442330D01*
X60810000Y-48788574D01*
X60810000Y-44035512D01*
X61011416Y-43834097D01*
X61013201Y-43834838D01*
X61385167Y-43835162D01*
X61728943Y-43693117D01*
X61992192Y-43430327D01*
X62134838Y-43086799D01*
X62135047Y-42847000D01*
X62715985Y-42847000D01*
X62571057Y-42906883D01*
X62571057Y-42906883D01*
G37*
X62571057Y-42906883D02*
X62307808Y-43169673D01*
X62165162Y-43513201D01*
X62164838Y-43885167D01*
X62290000Y-44188083D01*
X62290000Y-48382296D01*
X61960000Y-48316655D01*
X61328190Y-48442330D01*
X60810000Y-48788574D01*
X60810000Y-44035512D01*
X61011416Y-43834097D01*
X61013201Y-43834838D01*
X61385167Y-43835162D01*
X61728943Y-43693117D01*
X61992192Y-43430327D01*
X62134838Y-43086799D01*
X62135047Y-42847000D01*
X62715985Y-42847000D01*
X62571057Y-42906883D01*
G36*
X83910330Y-40859029D02*
X84396511Y-41183885D01*
X84970000Y-41297959D01*
X85494700Y-41193590D01*
X85530852Y-41375339D01*
X85695599Y-41621901D01*
X85740000Y-41666302D01*
X85740000Y-45273258D01*
X85614683Y-45296838D01*
X85398559Y-45435910D01*
X85253569Y-45648110D01*
X85202560Y-45900000D01*
X85202560Y-47240000D01*
X84500000Y-47240000D01*
X84272440Y-47285265D01*
X84272440Y-47000000D01*
X84228162Y-46764683D01*
X84135000Y-46619905D01*
X84135000Y-46500000D01*
X84048603Y-46065654D01*
X83802566Y-45697434D01*
X83102566Y-44997434D01*
X83009369Y-44935162D01*
X82734346Y-44751397D01*
X82300000Y-44665000D01*
X81727931Y-44665000D01*
X81669090Y-44573559D01*
X81456890Y-44428569D01*
X81205000Y-44377560D01*
X81197242Y-44377560D01*
X81737401Y-43837402D01*
X81902147Y-43590840D01*
X81902148Y-43590839D01*
X81960000Y-43300000D01*
X81960000Y-41204470D01*
X82430000Y-41297959D01*
X83003489Y-41183885D01*
X83489670Y-40859029D01*
X83700000Y-40544248D01*
X83910330Y-40859029D01*
X83910330Y-40859029D01*
G37*
X83910330Y-40859029D02*
X84396511Y-41183885D01*
X84970000Y-41297959D01*
X85494700Y-41193590D01*
X85530852Y-41375339D01*
X85695599Y-41621901D01*
X85740000Y-41666302D01*
X85740000Y-45273258D01*
X85614683Y-45296838D01*
X85398559Y-45435910D01*
X85253569Y-45648110D01*
X85202560Y-45900000D01*
X85202560Y-47240000D01*
X84500000Y-47240000D01*
X84272440Y-47285265D01*
X84272440Y-47000000D01*
X84228162Y-46764683D01*
X84135000Y-46619905D01*
X84135000Y-46500000D01*
X84048603Y-46065654D01*
X83802566Y-45697434D01*
X83102566Y-44997434D01*
X83009369Y-44935162D01*
X82734346Y-44751397D01*
X82300000Y-44665000D01*
X81727931Y-44665000D01*
X81669090Y-44573559D01*
X81456890Y-44428569D01*
X81205000Y-44377560D01*
X81197242Y-44377560D01*
X81737401Y-43837402D01*
X81902147Y-43590840D01*
X81902148Y-43590839D01*
X81960000Y-43300000D01*
X81960000Y-41204470D01*
X82430000Y-41297959D01*
X83003489Y-41183885D01*
X83489670Y-40859029D01*
X83700000Y-40544248D01*
X83910330Y-40859029D01*
G36*
X78830330Y-40859029D02*
X79130000Y-41059262D01*
X79130000Y-42240000D01*
X78500000Y-42240000D01*
X78209161Y-42297852D01*
X77962599Y-42462599D01*
X76557599Y-43867599D01*
X76392852Y-44114161D01*
X76335000Y-44405000D01*
X76335000Y-44573437D01*
X76198569Y-44773110D01*
X76147560Y-45025000D01*
X76147560Y-46028275D01*
X76064090Y-45898559D01*
X75851890Y-45753569D01*
X75600000Y-45702560D01*
X74100000Y-45702560D01*
X73864683Y-45746838D01*
X73648559Y-45885910D01*
X73503569Y-46098110D01*
X73500919Y-46111197D01*
X73364090Y-45898559D01*
X73151890Y-45753569D01*
X72900000Y-45702560D01*
X71400000Y-45702560D01*
X71164683Y-45746838D01*
X70981054Y-45865000D01*
X70780512Y-45865000D01*
X75382757Y-41262756D01*
X75477371Y-41121155D01*
X75869670Y-40859029D01*
X76080000Y-40544248D01*
X76290330Y-40859029D01*
X76776511Y-41183885D01*
X77350000Y-41297959D01*
X77923489Y-41183885D01*
X78409670Y-40859029D01*
X78620000Y-40544248D01*
X78830330Y-40859029D01*
X78830330Y-40859029D01*
G37*
X78830330Y-40859029D02*
X79130000Y-41059262D01*
X79130000Y-42240000D01*
X78500000Y-42240000D01*
X78209161Y-42297852D01*
X77962599Y-42462599D01*
X76557599Y-43867599D01*
X76392852Y-44114161D01*
X76335000Y-44405000D01*
X76335000Y-44573437D01*
X76198569Y-44773110D01*
X76147560Y-45025000D01*
X76147560Y-46028275D01*
X76064090Y-45898559D01*
X75851890Y-45753569D01*
X75600000Y-45702560D01*
X74100000Y-45702560D01*
X73864683Y-45746838D01*
X73648559Y-45885910D01*
X73503569Y-46098110D01*
X73500919Y-46111197D01*
X73364090Y-45898559D01*
X73151890Y-45753569D01*
X72900000Y-45702560D01*
X71400000Y-45702560D01*
X71164683Y-45746838D01*
X70981054Y-45865000D01*
X70780512Y-45865000D01*
X75382757Y-41262756D01*
X75477371Y-41121155D01*
X75869670Y-40859029D01*
X76080000Y-40544248D01*
X76290330Y-40859029D01*
X76776511Y-41183885D01*
X77350000Y-41297959D01*
X77923489Y-41183885D01*
X78409670Y-40859029D01*
X78620000Y-40544248D01*
X78830330Y-40859029D01*
G36*
X57157000Y-39643000D02*
X57177000Y-39643000D01*
X57177000Y-39897000D01*
X57157000Y-39897000D01*
X57157000Y-41103817D01*
X57284239Y-41170248D01*
X56364488Y-42090000D01*
X55955513Y-42090000D01*
X56322757Y-41722756D01*
X56498343Y-41459973D01*
X56554672Y-41176787D01*
X56670974Y-41224958D01*
X56903000Y-41103817D01*
X56903000Y-39897000D01*
X56883000Y-39897000D01*
X56883000Y-39643000D01*
X56903000Y-39643000D01*
X56903000Y-39623000D01*
X57157000Y-39623000D01*
X57157000Y-39643000D01*
X57157000Y-39643000D01*
G37*
X57157000Y-39643000D02*
X57177000Y-39643000D01*
X57177000Y-39897000D01*
X57157000Y-39897000D01*
X57157000Y-41103817D01*
X57284239Y-41170248D01*
X56364488Y-42090000D01*
X55955513Y-42090000D01*
X56322757Y-41722756D01*
X56498343Y-41459973D01*
X56554672Y-41176787D01*
X56670974Y-41224958D01*
X56903000Y-41103817D01*
X56903000Y-39897000D01*
X56883000Y-39897000D01*
X56883000Y-39643000D01*
X56903000Y-39643000D01*
X56903000Y-39623000D01*
X57157000Y-39623000D01*
X57157000Y-39643000D01*
G36*
X96373000Y-36415344D02*
X96189670Y-36140971D01*
X95703489Y-35816115D01*
X95130000Y-35702041D01*
X94556511Y-35816115D01*
X94070330Y-36140971D01*
X93860000Y-36455752D01*
X93649670Y-36140971D01*
X93163489Y-35816115D01*
X92590000Y-35702041D01*
X92016511Y-35816115D01*
X91530330Y-36140971D01*
X91320000Y-36455752D01*
X91109670Y-36140971D01*
X90623489Y-35816115D01*
X90050000Y-35702041D01*
X89476511Y-35816115D01*
X88990330Y-36140971D01*
X88780000Y-36455752D01*
X88569670Y-36140971D01*
X88083489Y-35816115D01*
X87510000Y-35702041D01*
X86936511Y-35816115D01*
X86450330Y-36140971D01*
X86240000Y-36455752D01*
X86029670Y-36140971D01*
X85543489Y-35816115D01*
X84970000Y-35702041D01*
X84396511Y-35816115D01*
X83910330Y-36140971D01*
X83700000Y-36455752D01*
X83489670Y-36140971D01*
X83003489Y-35816115D01*
X82430000Y-35702041D01*
X81856511Y-35816115D01*
X81370330Y-36140971D01*
X81160000Y-36455752D01*
X80949670Y-36140971D01*
X80463489Y-35816115D01*
X79890000Y-35702041D01*
X79316511Y-35816115D01*
X78830330Y-36140971D01*
X78620000Y-36455752D01*
X78409670Y-36140971D01*
X77923489Y-35816115D01*
X77350000Y-35702041D01*
X76776511Y-35816115D01*
X76290330Y-36140971D01*
X76080000Y-36455752D01*
X75869670Y-36140971D01*
X75383489Y-35816115D01*
X74810000Y-35702041D01*
X74236511Y-35816115D01*
X73750330Y-36140971D01*
X73540000Y-36455752D01*
X73329670Y-36140971D01*
X72843489Y-35816115D01*
X72270000Y-35702041D01*
X71696511Y-35816115D01*
X71210330Y-36140971D01*
X71000000Y-36455752D01*
X70789670Y-36140971D01*
X70303489Y-35816115D01*
X69730000Y-35702041D01*
X69156511Y-35816115D01*
X68670330Y-36140971D01*
X68460000Y-36455752D01*
X68249670Y-36140971D01*
X67763489Y-35816115D01*
X67190000Y-35702041D01*
X66616511Y-35816115D01*
X66130330Y-36140971D01*
X65920000Y-36455752D01*
X65709670Y-36140971D01*
X65223489Y-35816115D01*
X64650000Y-35702041D01*
X64076511Y-35816115D01*
X63590330Y-36140971D01*
X63380000Y-36455752D01*
X63169670Y-36140971D01*
X62683489Y-35816115D01*
X62110000Y-35702041D01*
X61536511Y-35816115D01*
X61050330Y-36140971D01*
X60840000Y-36455752D01*
X60629670Y-36140971D01*
X60143489Y-35816115D01*
X59570000Y-35702041D01*
X58996511Y-35816115D01*
X58510330Y-36140971D01*
X58300000Y-36455752D01*
X58089670Y-36140971D01*
X57603489Y-35816115D01*
X57030000Y-35702041D01*
X56456511Y-35816115D01*
X55970330Y-36140971D01*
X55760000Y-36455752D01*
X55549670Y-36140971D01*
X55063489Y-35816115D01*
X54490000Y-35702041D01*
X53916511Y-35816115D01*
X53430330Y-36140971D01*
X53214336Y-36464228D01*
X53156821Y-36341510D01*
X52724947Y-35947312D01*
X52309026Y-35775042D01*
X52077000Y-35896183D01*
X52077000Y-37103000D01*
X52097000Y-37103000D01*
X52097000Y-37357000D01*
X52077000Y-37357000D01*
X52077000Y-37377000D01*
X51823000Y-37377000D01*
X51823000Y-37357000D01*
X51803000Y-37357000D01*
X51803000Y-37103000D01*
X51823000Y-37103000D01*
X51823000Y-35896183D01*
X51590974Y-35775042D01*
X51175053Y-35947312D01*
X50743179Y-36341510D01*
X50685664Y-36464228D01*
X50469670Y-36140971D01*
X49983489Y-35816115D01*
X49410000Y-35702041D01*
X48836511Y-35816115D01*
X48350330Y-36140971D01*
X48140000Y-36455752D01*
X47929670Y-36140971D01*
X47443489Y-35816115D01*
X46870000Y-35702041D01*
X46296511Y-35816115D01*
X45810330Y-36140971D01*
X45627000Y-36415344D01*
X45627000Y-35685000D01*
X96373000Y-35685000D01*
X96373000Y-36415344D01*
X96373000Y-36415344D01*
G37*
X96373000Y-36415344D02*
X96189670Y-36140971D01*
X95703489Y-35816115D01*
X95130000Y-35702041D01*
X94556511Y-35816115D01*
X94070330Y-36140971D01*
X93860000Y-36455752D01*
X93649670Y-36140971D01*
X93163489Y-35816115D01*
X92590000Y-35702041D01*
X92016511Y-35816115D01*
X91530330Y-36140971D01*
X91320000Y-36455752D01*
X91109670Y-36140971D01*
X90623489Y-35816115D01*
X90050000Y-35702041D01*
X89476511Y-35816115D01*
X88990330Y-36140971D01*
X88780000Y-36455752D01*
X88569670Y-36140971D01*
X88083489Y-35816115D01*
X87510000Y-35702041D01*
X86936511Y-35816115D01*
X86450330Y-36140971D01*
X86240000Y-36455752D01*
X86029670Y-36140971D01*
X85543489Y-35816115D01*
X84970000Y-35702041D01*
X84396511Y-35816115D01*
X83910330Y-36140971D01*
X83700000Y-36455752D01*
X83489670Y-36140971D01*
X83003489Y-35816115D01*
X82430000Y-35702041D01*
X81856511Y-35816115D01*
X81370330Y-36140971D01*
X81160000Y-36455752D01*
X80949670Y-36140971D01*
X80463489Y-35816115D01*
X79890000Y-35702041D01*
X79316511Y-35816115D01*
X78830330Y-36140971D01*
X78620000Y-36455752D01*
X78409670Y-36140971D01*
X77923489Y-35816115D01*
X77350000Y-35702041D01*
X76776511Y-35816115D01*
X76290330Y-36140971D01*
X76080000Y-36455752D01*
X75869670Y-36140971D01*
X75383489Y-35816115D01*
X74810000Y-35702041D01*
X74236511Y-35816115D01*
X73750330Y-36140971D01*
X73540000Y-36455752D01*
X73329670Y-36140971D01*
X72843489Y-35816115D01*
X72270000Y-35702041D01*
X71696511Y-35816115D01*
X71210330Y-36140971D01*
X71000000Y-36455752D01*
X70789670Y-36140971D01*
X70303489Y-35816115D01*
X69730000Y-35702041D01*
X69156511Y-35816115D01*
X68670330Y-36140971D01*
X68460000Y-36455752D01*
X68249670Y-36140971D01*
X67763489Y-35816115D01*
X67190000Y-35702041D01*
X66616511Y-35816115D01*
X66130330Y-36140971D01*
X65920000Y-36455752D01*
X65709670Y-36140971D01*
X65223489Y-35816115D01*
X64650000Y-35702041D01*
X64076511Y-35816115D01*
X63590330Y-36140971D01*
X63380000Y-36455752D01*
X63169670Y-36140971D01*
X62683489Y-35816115D01*
X62110000Y-35702041D01*
X61536511Y-35816115D01*
X61050330Y-36140971D01*
X60840000Y-36455752D01*
X60629670Y-36140971D01*
X60143489Y-35816115D01*
X59570000Y-35702041D01*
X58996511Y-35816115D01*
X58510330Y-36140971D01*
X58300000Y-36455752D01*
X58089670Y-36140971D01*
X57603489Y-35816115D01*
X57030000Y-35702041D01*
X56456511Y-35816115D01*
X55970330Y-36140971D01*
X55760000Y-36455752D01*
X55549670Y-36140971D01*
X55063489Y-35816115D01*
X54490000Y-35702041D01*
X53916511Y-35816115D01*
X53430330Y-36140971D01*
X53214336Y-36464228D01*
X53156821Y-36341510D01*
X52724947Y-35947312D01*
X52309026Y-35775042D01*
X52077000Y-35896183D01*
X52077000Y-37103000D01*
X52097000Y-37103000D01*
X52097000Y-37357000D01*
X52077000Y-37357000D01*
X52077000Y-37377000D01*
X51823000Y-37377000D01*
X51823000Y-37357000D01*
X51803000Y-37357000D01*
X51803000Y-37103000D01*
X51823000Y-37103000D01*
X51823000Y-35896183D01*
X51590974Y-35775042D01*
X51175053Y-35947312D01*
X50743179Y-36341510D01*
X50685664Y-36464228D01*
X50469670Y-36140971D01*
X49983489Y-35816115D01*
X49410000Y-35702041D01*
X48836511Y-35816115D01*
X48350330Y-36140971D01*
X48140000Y-36455752D01*
X47929670Y-36140971D01*
X47443489Y-35816115D01*
X46870000Y-35702041D01*
X46296511Y-35816115D01*
X45810330Y-36140971D01*
X45627000Y-36415344D01*
X45627000Y-35685000D01*
X96373000Y-35685000D01*
X96373000Y-36415344D01*
M02*
