M48
;DRILL file {KiCad 0.201512281231+6406~40~ubuntu14.04.1-stable} date Son 03 Jan 2016 21:46:07 CET
;FORMAT={-:-/ absolute / metric / decimal}
FMAT,2
METRIC,TZ
T1C0.400
T2C0.610
T3C0.762
T4C0.800
T5C0.800
T6C1.016
T7C1.199
T8C2.750
%
G90
G05
M71
T1
X44.45Y-43.18
X44.45Y-69.85
X45.085Y-69.85
X45.72Y-69.85
X56.134Y-77.343
X57.15Y-80.01
X57.15Y-84.455
X59.182Y-57.023
X59.69Y-81.915
X62.103Y-56.642
X62.865Y-51.435
X62.865Y-53.34
X62.865Y-55.245
X62.865Y-57.15
X62.865Y-83.185
X62.865Y-84.455
X66.04Y-80.01
X66.675Y-50.165
X66.675Y-84.455
X67.945Y-76.835
X68.326Y-49.276
X69.85Y-53.34
X70.485Y-46.355
X71.12Y-46.99
X71.374Y-59.69
X71.755Y-46.355
X72.39Y-46.99
X73.025Y-46.355
X73.025Y-53.975
X73.025Y-77.343
X73.279Y-60.198
X73.914Y-62.865
X74.295Y-54.61
X76.2Y-50.165
X81.153Y-57.785
X81.28Y-43.18
X81.28Y-48.895
X81.28Y-51.435
X83.185Y-43.18
X83.185Y-51.435
X85.09Y-51.435
X86.995Y-44.45
X86.995Y-45.72
X86.995Y-51.435
X86.995Y-57.785
X88.9Y-59.69
T2
X57.15Y-86.995
X64.77Y-86.995
T3
X64.135Y-67.945
X65.405Y-78.105
T4
X47.625Y-52.705
X47.625Y-57.785
X55.245Y-53.34
X55.245Y-58.42
T5
X88.9Y-57.785
X92.075Y-57.785
T6
X41.91Y-45.72
X41.91Y-48.26
X41.91Y-50.8
X46.87Y-37.23
X46.87Y-39.77
X48.895Y-47.625
X49.41Y-37.23
X49.41Y-39.77
X51.435Y-47.625
X51.95Y-37.23
X51.95Y-39.77
X52.705Y-43.815
X53.975Y-47.625
X54.49Y-37.23
X54.49Y-39.77
X55.245Y-43.815
X57.03Y-37.23
X57.03Y-39.77
X59.57Y-37.23
X59.57Y-39.77
X59.69Y-47.625
X62.11Y-37.23
X62.11Y-39.77
X62.23Y-47.625
X64.65Y-37.23
X64.65Y-39.77
X64.77Y-47.625
X64.77Y-60.96
X64.77Y-64.77
X67.19Y-37.23
X67.19Y-39.77
X67.31Y-60.96
X67.31Y-64.77
X69.73Y-37.23
X69.73Y-39.77
X70.485Y-43.815
X71.755Y-66.675
X72.27Y-37.23
X72.27Y-39.77
X73.025Y-43.815
X74.295Y-66.675
X74.81Y-37.23
X74.81Y-39.77
X75.565Y-43.815
X75.565Y-47.625
X76.2Y-62.865
X76.835Y-66.675
X77.35Y-37.23
X77.35Y-39.77
X78.105Y-47.625
X78.74Y-62.865
X79.89Y-37.23
X79.89Y-39.77
X82.43Y-37.23
X82.43Y-39.77
X84.97Y-37.23
X84.97Y-39.77
X87.51Y-37.23
X87.51Y-39.77
X90.05Y-37.23
X90.05Y-39.77
X92.59Y-37.23
X92.59Y-39.77
X95.13Y-37.23
X95.13Y-39.77
X97.155Y-44.45
X99.695Y-44.45
T7
X41.91Y-77.47
X100.33Y-77.47
T8
X42.Y-38.5
X42.Y-87.5
X100.Y-38.5
X100.Y-87.5
T0
M30
