G04 #@! TF.FileFunction,Legend,Top*
%FSLAX46Y46*%
G04 Gerber Fmt 4.6, Leading zero omitted, Abs format (unit mm)*
G04 Created by KiCad (PCBNEW 0.201509131501+6189~30~ubuntu14.04.1-product) date Sam 03 Okt 2015 13:55:26 CEST*
%MOMM*%
G01*
G04 APERTURE LIST*
%ADD10C,0.200000*%
%ADD11C,0.300000*%
%ADD12C,0.150000*%
%ADD13C,0.203200*%
G04 APERTURE END LIST*
D10*
D11*
X62865333Y-87010762D02*
X62865333Y-85010762D01*
X62865333Y-85963143D02*
X64008191Y-85963143D01*
X64008191Y-87010762D02*
X64008191Y-85010762D01*
X64674857Y-85010762D02*
X65341524Y-87010762D01*
X66008191Y-85010762D01*
X66674857Y-86248857D02*
X68198667Y-86248857D01*
X48387333Y-87518762D02*
X48387333Y-85518762D01*
X48387333Y-86471143D02*
X49530191Y-86471143D01*
X49530191Y-87518762D02*
X49530191Y-85518762D01*
X50196857Y-85518762D02*
X50863524Y-87518762D01*
X51530191Y-85518762D01*
X52196857Y-86756857D02*
X53720667Y-86756857D01*
X52958762Y-87518762D02*
X52958762Y-85994952D01*
X44924858Y-89761143D02*
X45067715Y-89832571D01*
X45353430Y-89832571D01*
X45496287Y-89761143D01*
X45567715Y-89618286D01*
X45567715Y-89546857D01*
X45496287Y-89404000D01*
X45353430Y-89332571D01*
X45139144Y-89332571D01*
X44996287Y-89261143D01*
X44924858Y-89118286D01*
X44924858Y-89046857D01*
X44996287Y-88904000D01*
X45139144Y-88832571D01*
X45353430Y-88832571D01*
X45496287Y-88904000D01*
X46853430Y-89761143D02*
X46710573Y-89832571D01*
X46424859Y-89832571D01*
X46282001Y-89761143D01*
X46210573Y-89689714D01*
X46139144Y-89546857D01*
X46139144Y-89118286D01*
X46210573Y-88975429D01*
X46282001Y-88904000D01*
X46424859Y-88832571D01*
X46710573Y-88832571D01*
X46853430Y-88904000D01*
X47496287Y-89832571D02*
X47496287Y-88332571D01*
X48139144Y-89832571D02*
X48139144Y-89046857D01*
X48067715Y-88904000D01*
X47924858Y-88832571D01*
X47710573Y-88832571D01*
X47567715Y-88904000D01*
X47496287Y-88975429D01*
X48853430Y-89832571D02*
X48853430Y-88832571D01*
X48853430Y-89118286D02*
X48924858Y-88975429D01*
X48996287Y-88904000D01*
X49139144Y-88832571D01*
X49282001Y-88832571D01*
X49996287Y-89832571D02*
X49853429Y-89761143D01*
X49782001Y-89689714D01*
X49710572Y-89546857D01*
X49710572Y-89118286D01*
X49782001Y-88975429D01*
X49853429Y-88904000D01*
X49996287Y-88832571D01*
X50210572Y-88832571D01*
X50353429Y-88904000D01*
X50424858Y-88975429D01*
X50496287Y-89118286D01*
X50496287Y-89546857D01*
X50424858Y-89689714D01*
X50353429Y-89761143D01*
X50210572Y-89832571D01*
X49996287Y-89832571D01*
X51710572Y-89761143D02*
X51567715Y-89832571D01*
X51282001Y-89832571D01*
X51139144Y-89761143D01*
X51067715Y-89618286D01*
X51067715Y-89046857D01*
X51139144Y-88904000D01*
X51282001Y-88832571D01*
X51567715Y-88832571D01*
X51710572Y-88904000D01*
X51782001Y-89046857D01*
X51782001Y-89189714D01*
X51067715Y-89332571D01*
X53067715Y-89832571D02*
X53067715Y-88332571D01*
X53067715Y-89761143D02*
X52924858Y-89832571D01*
X52639144Y-89832571D01*
X52496286Y-89761143D01*
X52424858Y-89689714D01*
X52353429Y-89546857D01*
X52353429Y-89118286D01*
X52424858Y-88975429D01*
X52496286Y-88904000D01*
X52639144Y-88832571D01*
X52924858Y-88832571D01*
X53067715Y-88904000D01*
X53782001Y-89832571D02*
X53782001Y-88832571D01*
X53782001Y-88332571D02*
X53710572Y-88404000D01*
X53782001Y-88475429D01*
X53853429Y-88404000D01*
X53782001Y-88332571D01*
X53782001Y-88475429D01*
X54496287Y-88832571D02*
X54496287Y-89832571D01*
X54496287Y-88975429D02*
X54567715Y-88904000D01*
X54710573Y-88832571D01*
X54924858Y-88832571D01*
X55067715Y-88904000D01*
X55139144Y-89046857D01*
X55139144Y-89832571D01*
X56496287Y-88832571D02*
X56496287Y-90046857D01*
X56424858Y-90189714D01*
X56353430Y-90261143D01*
X56210573Y-90332571D01*
X55996287Y-90332571D01*
X55853430Y-90261143D01*
X56496287Y-89761143D02*
X56353430Y-89832571D01*
X56067716Y-89832571D01*
X55924858Y-89761143D01*
X55853430Y-89689714D01*
X55782001Y-89546857D01*
X55782001Y-89118286D01*
X55853430Y-88975429D01*
X55924858Y-88904000D01*
X56067716Y-88832571D01*
X56353430Y-88832571D01*
X56496287Y-88904000D01*
X57782001Y-89761143D02*
X57639144Y-89832571D01*
X57353430Y-89832571D01*
X57210573Y-89761143D01*
X57139144Y-89618286D01*
X57139144Y-89046857D01*
X57210573Y-88904000D01*
X57353430Y-88832571D01*
X57639144Y-88832571D01*
X57782001Y-88904000D01*
X57853430Y-89046857D01*
X57853430Y-89189714D01*
X57139144Y-89332571D01*
X58496287Y-89832571D02*
X58496287Y-88832571D01*
X58496287Y-89118286D02*
X58567715Y-88975429D01*
X58639144Y-88904000D01*
X58782001Y-88832571D01*
X58924858Y-88832571D01*
X59353429Y-89761143D02*
X59496286Y-89832571D01*
X59782001Y-89832571D01*
X59924858Y-89761143D01*
X59996286Y-89618286D01*
X59996286Y-89546857D01*
X59924858Y-89404000D01*
X59782001Y-89332571D01*
X59567715Y-89332571D01*
X59424858Y-89261143D01*
X59353429Y-89118286D01*
X59353429Y-89046857D01*
X59424858Y-88904000D01*
X59567715Y-88832571D01*
X59782001Y-88832571D01*
X59924858Y-88904000D01*
X60639144Y-89832571D02*
X60639144Y-88332571D01*
X60782001Y-89261143D02*
X61210572Y-89832571D01*
X61210572Y-88832571D02*
X60639144Y-89404000D01*
X61853430Y-89832571D02*
X61853430Y-88832571D01*
X61853430Y-88332571D02*
X61782001Y-88404000D01*
X61853430Y-88475429D01*
X61924858Y-88404000D01*
X61853430Y-88332571D01*
X61853430Y-88475429D01*
X62353430Y-88832571D02*
X62924859Y-88832571D01*
X62567716Y-88332571D02*
X62567716Y-89618286D01*
X62639144Y-89761143D01*
X62782002Y-89832571D01*
X62924859Y-89832571D01*
X63210573Y-88832571D02*
X63782002Y-88832571D01*
X63424859Y-88332571D02*
X63424859Y-89618286D01*
X63496287Y-89761143D01*
X63639145Y-89832571D01*
X63782002Y-89832571D01*
X64853430Y-89761143D02*
X64710573Y-89832571D01*
X64424859Y-89832571D01*
X64282002Y-89761143D01*
X64210573Y-89618286D01*
X64210573Y-89046857D01*
X64282002Y-88904000D01*
X64424859Y-88832571D01*
X64710573Y-88832571D01*
X64853430Y-88904000D01*
X64924859Y-89046857D01*
X64924859Y-89189714D01*
X64210573Y-89332571D01*
X65567716Y-88832571D02*
X65567716Y-89832571D01*
X65567716Y-88975429D02*
X65639144Y-88904000D01*
X65782002Y-88832571D01*
X65996287Y-88832571D01*
X66139144Y-88904000D01*
X66210573Y-89046857D01*
X66210573Y-89832571D01*
X66996287Y-89761143D02*
X66996287Y-89832571D01*
X66924859Y-89975429D01*
X66853430Y-90046857D01*
X68639145Y-88832571D02*
X68996288Y-89832571D01*
X69353430Y-88832571D02*
X68996288Y-89832571D01*
X68853430Y-90189714D01*
X68782002Y-90261143D01*
X68639145Y-90332571D01*
X70567716Y-89832571D02*
X70567716Y-89046857D01*
X70496287Y-88904000D01*
X70353430Y-88832571D01*
X70067716Y-88832571D01*
X69924859Y-88904000D01*
X70567716Y-89761143D02*
X70424859Y-89832571D01*
X70067716Y-89832571D01*
X69924859Y-89761143D01*
X69853430Y-89618286D01*
X69853430Y-89475429D01*
X69924859Y-89332571D01*
X70067716Y-89261143D01*
X70424859Y-89261143D01*
X70567716Y-89189714D01*
X71924859Y-88832571D02*
X71924859Y-90046857D01*
X71853430Y-90189714D01*
X71782002Y-90261143D01*
X71639145Y-90332571D01*
X71424859Y-90332571D01*
X71282002Y-90261143D01*
X71924859Y-89761143D02*
X71782002Y-89832571D01*
X71496288Y-89832571D01*
X71353430Y-89761143D01*
X71282002Y-89689714D01*
X71210573Y-89546857D01*
X71210573Y-89118286D01*
X71282002Y-88975429D01*
X71353430Y-88904000D01*
X71496288Y-88832571D01*
X71782002Y-88832571D01*
X71924859Y-88904000D01*
X72639145Y-89832571D02*
X72639145Y-88832571D01*
X72639145Y-88332571D02*
X72567716Y-88404000D01*
X72639145Y-88475429D01*
X72710573Y-88404000D01*
X72639145Y-88332571D01*
X72639145Y-88475429D01*
X74353431Y-88832571D02*
X74710574Y-89832571D01*
X75067716Y-88832571D01*
X75924859Y-88332571D02*
X76067716Y-88332571D01*
X76210573Y-88404000D01*
X76282002Y-88475429D01*
X76353431Y-88618286D01*
X76424859Y-88904000D01*
X76424859Y-89261143D01*
X76353431Y-89546857D01*
X76282002Y-89689714D01*
X76210573Y-89761143D01*
X76067716Y-89832571D01*
X75924859Y-89832571D01*
X75782002Y-89761143D01*
X75710573Y-89689714D01*
X75639145Y-89546857D01*
X75567716Y-89261143D01*
X75567716Y-88904000D01*
X75639145Y-88618286D01*
X75710573Y-88475429D01*
X75782002Y-88404000D01*
X75924859Y-88332571D01*
X77067716Y-89689714D02*
X77139144Y-89761143D01*
X77067716Y-89832571D01*
X76996287Y-89761143D01*
X77067716Y-89689714D01*
X77067716Y-89832571D01*
X78567716Y-89832571D02*
X77710573Y-89832571D01*
X78139145Y-89832571D02*
X78139145Y-88332571D01*
X77996288Y-88546857D01*
X77853430Y-88689714D01*
X77710573Y-88761143D01*
X79282001Y-89761143D02*
X79282001Y-89832571D01*
X79210573Y-89975429D01*
X79139144Y-90046857D01*
X80996287Y-88475429D02*
X81067716Y-88404000D01*
X81210573Y-88332571D01*
X81567716Y-88332571D01*
X81710573Y-88404000D01*
X81782002Y-88475429D01*
X81853430Y-88618286D01*
X81853430Y-88761143D01*
X81782002Y-88975429D01*
X80924859Y-89832571D01*
X81853430Y-89832571D01*
X82782001Y-88332571D02*
X82924858Y-88332571D01*
X83067715Y-88404000D01*
X83139144Y-88475429D01*
X83210573Y-88618286D01*
X83282001Y-88904000D01*
X83282001Y-89261143D01*
X83210573Y-89546857D01*
X83139144Y-89689714D01*
X83067715Y-89761143D01*
X82924858Y-89832571D01*
X82782001Y-89832571D01*
X82639144Y-89761143D01*
X82567715Y-89689714D01*
X82496287Y-89546857D01*
X82424858Y-89261143D01*
X82424858Y-88904000D01*
X82496287Y-88618286D01*
X82567715Y-88475429D01*
X82639144Y-88404000D01*
X82782001Y-88332571D01*
X84710572Y-89832571D02*
X83853429Y-89832571D01*
X84282001Y-89832571D02*
X84282001Y-88332571D01*
X84139144Y-88546857D01*
X83996286Y-88689714D01*
X83853429Y-88761143D01*
X86067715Y-88332571D02*
X85353429Y-88332571D01*
X85282000Y-89046857D01*
X85353429Y-88975429D01*
X85496286Y-88904000D01*
X85853429Y-88904000D01*
X85996286Y-88975429D01*
X86067715Y-89046857D01*
X86139143Y-89189714D01*
X86139143Y-89546857D01*
X86067715Y-89689714D01*
X85996286Y-89761143D01*
X85853429Y-89832571D01*
X85496286Y-89832571D01*
X85353429Y-89761143D01*
X85282000Y-89689714D01*
D12*
X47421000Y-48262000D02*
X47421000Y-46738000D01*
X47294000Y-46357000D02*
X47294000Y-48643000D01*
X47167000Y-48897000D02*
X47167000Y-46103000D01*
X47040000Y-45849000D02*
X47040000Y-49151000D01*
X46913000Y-49278000D02*
X46913000Y-45722000D01*
X47802000Y-50802000D02*
X47802000Y-44198000D01*
X47802000Y-44198000D02*
X41960000Y-44198000D01*
X41960000Y-44198000D02*
X41198000Y-44960000D01*
X41198000Y-44960000D02*
X41198000Y-50040000D01*
X41198000Y-50040000D02*
X41960000Y-50802000D01*
X41960000Y-50802000D02*
X47802000Y-50802000D01*
X42341000Y-47500000D02*
X43103000Y-47500000D01*
X42722000Y-47881000D02*
X42722000Y-47119000D01*
X47548000Y-47500000D02*
G75*
G03X47548000Y-47500000I-3048000J0D01*
G01*
X49000000Y-78350000D02*
X50000000Y-78350000D01*
X50000000Y-76650000D02*
X49000000Y-76650000D01*
X47340000Y-52797000D02*
X46640000Y-52797000D01*
X46640000Y-51597000D02*
X47340000Y-51597000D01*
X49000000Y-83350000D02*
X50000000Y-83350000D01*
X50000000Y-81650000D02*
X49000000Y-81650000D01*
X76150000Y-84400000D02*
X76850000Y-84400000D01*
X76850000Y-85600000D02*
X76150000Y-85600000D01*
X59350000Y-47500000D02*
X59350000Y-46500000D01*
X57650000Y-46500000D02*
X57650000Y-47500000D01*
D10*
X53000000Y-74050000D02*
X53500000Y-73150000D01*
X53500000Y-73150000D02*
X52500000Y-73150000D01*
X52500000Y-73150000D02*
X53000000Y-74050000D01*
X53500000Y-74050000D02*
X52500000Y-74050000D01*
X52300000Y-74450000D02*
X52300000Y-72450000D01*
X53700000Y-72450000D02*
X53700000Y-74450000D01*
X52500000Y-62000000D02*
G75*
G03X52500000Y-62000000I-250000J0D01*
G01*
X60750000Y-62000000D02*
G75*
G03X60750000Y-62000000I-4750000J0D01*
G01*
X51000000Y-57250000D02*
X51000000Y-66750000D01*
X51000000Y-66750000D02*
X61000000Y-66750000D01*
X61000000Y-66750000D02*
X61000000Y-57250000D01*
X51000000Y-57250000D02*
X61000000Y-57250000D01*
D12*
X101270000Y-46270000D02*
X101270000Y-48810000D01*
X101550000Y-43450000D02*
X101550000Y-45000000D01*
X101270000Y-46270000D02*
X98730000Y-46270000D01*
X98450000Y-45000000D02*
X98450000Y-43450000D01*
X98450000Y-43450000D02*
X101550000Y-43450000D01*
X98730000Y-46270000D02*
X98730000Y-48810000D01*
X98730000Y-48810000D02*
X101270000Y-48810000D01*
D13*
X62024000Y-75556000D02*
X65072000Y-75556000D01*
X65072000Y-75556000D02*
X65072000Y-68444000D01*
X65072000Y-68444000D02*
X62024000Y-68444000D01*
X58976000Y-75556000D02*
X58214000Y-75556000D01*
X58214000Y-75556000D02*
X55928000Y-74032000D01*
X55928000Y-74032000D02*
X55928000Y-69968000D01*
X55928000Y-69968000D02*
X58214000Y-68444000D01*
X58214000Y-68444000D02*
X58976000Y-68444000D01*
X64524000Y-83556000D02*
X67572000Y-83556000D01*
X67572000Y-83556000D02*
X67572000Y-76444000D01*
X67572000Y-76444000D02*
X64524000Y-76444000D01*
X61476000Y-83556000D02*
X60714000Y-83556000D01*
X60714000Y-83556000D02*
X58428000Y-82032000D01*
X58428000Y-82032000D02*
X58428000Y-77968000D01*
X58428000Y-77968000D02*
X60714000Y-76444000D01*
X60714000Y-76444000D02*
X61476000Y-76444000D01*
D12*
X79799160Y-76349760D02*
X79750900Y-76349760D01*
X77000180Y-77050800D02*
X77000180Y-76349760D01*
X77000180Y-76349760D02*
X77249100Y-76349760D01*
X79799160Y-76349760D02*
X79999820Y-76349760D01*
X79999820Y-76349760D02*
X79999820Y-77050800D01*
X67625000Y-68600000D02*
X67625000Y-67400000D01*
X69375000Y-67400000D02*
X69375000Y-68600000D01*
X70125000Y-68600000D02*
X70125000Y-67400000D01*
X71875000Y-67400000D02*
X71875000Y-68600000D01*
X69375000Y-72400000D02*
X69375000Y-73600000D01*
X67625000Y-73600000D02*
X67625000Y-72400000D01*
X71875000Y-72400000D02*
X71875000Y-73600000D01*
X70125000Y-73600000D02*
X70125000Y-72400000D01*
X47611000Y-56550000D02*
X47611000Y-57750000D01*
X45861000Y-57750000D02*
X45861000Y-56550000D01*
X53900000Y-76625000D02*
X55100000Y-76625000D01*
X55100000Y-78375000D02*
X53900000Y-78375000D01*
X55100000Y-80875000D02*
X53900000Y-80875000D01*
X53900000Y-79125000D02*
X55100000Y-79125000D01*
X55100000Y-83375000D02*
X53900000Y-83375000D01*
X53900000Y-81625000D02*
X55100000Y-81625000D01*
X72625000Y-82600000D02*
X72625000Y-81400000D01*
X74375000Y-81400000D02*
X74375000Y-82600000D01*
X80375000Y-81400000D02*
X80375000Y-82600000D01*
X78625000Y-82600000D02*
X78625000Y-81400000D01*
X96400000Y-35960000D02*
X45600000Y-35960000D01*
X48140000Y-41040000D02*
X96400000Y-41040000D01*
X96400000Y-35960000D02*
X96400000Y-41040000D01*
X45600000Y-35960000D02*
X45600000Y-38500000D01*
X45320000Y-39770000D02*
X45320000Y-41320000D01*
X45600000Y-38500000D02*
X48140000Y-38500000D01*
X48140000Y-38500000D02*
X48140000Y-41040000D01*
X45320000Y-41320000D02*
X46870000Y-41320000D01*
X67950000Y-62400000D02*
X67950000Y-64300000D01*
X69050000Y-62400000D02*
X69050000Y-64300000D01*
X68500000Y-63300000D02*
X68500000Y-63750000D01*
X68750000Y-63250000D02*
X68250000Y-63250000D01*
X68500000Y-63250000D02*
X68750000Y-63500000D01*
X68750000Y-63500000D02*
X68250000Y-63500000D01*
X68250000Y-63500000D02*
X68500000Y-63250000D01*
X70450000Y-62400000D02*
X70450000Y-64300000D01*
X71550000Y-62400000D02*
X71550000Y-64300000D01*
X71000000Y-63300000D02*
X71000000Y-63750000D01*
X71250000Y-63250000D02*
X70750000Y-63250000D01*
X71000000Y-63250000D02*
X71250000Y-63500000D01*
X71250000Y-63500000D02*
X70750000Y-63500000D01*
X70750000Y-63500000D02*
X71000000Y-63250000D01*
X52865000Y-49286000D02*
X54262000Y-49286000D01*
X52611000Y-49159000D02*
X54389000Y-49159000D01*
X52230000Y-49032000D02*
X54770000Y-49032000D01*
X54897000Y-48905000D02*
X52103000Y-48905000D01*
X51976000Y-48778000D02*
X55024000Y-48778000D01*
X55151000Y-48651000D02*
X51849000Y-48651000D01*
X51722000Y-48524000D02*
X55278000Y-48524000D01*
X50833000Y-49667000D02*
X50833000Y-45095000D01*
X50833000Y-45095000D02*
X51595000Y-44333000D01*
X51595000Y-44333000D02*
X55405000Y-44333000D01*
X55405000Y-44333000D02*
X56167000Y-45095000D01*
X56167000Y-45095000D02*
X56167000Y-49667000D01*
X56167000Y-49667000D02*
X50833000Y-49667000D01*
X53500000Y-44841000D02*
X53500000Y-45603000D01*
X53119000Y-45222000D02*
X53881000Y-45222000D01*
X55913000Y-47000000D02*
G75*
G03X55913000Y-47000000I-2413000J0D01*
G01*
X85950000Y-42900000D02*
X85950000Y-44800000D01*
X87050000Y-42900000D02*
X87050000Y-44800000D01*
X86500000Y-43800000D02*
X86500000Y-44250000D01*
X86750000Y-43750000D02*
X86250000Y-43750000D01*
X86500000Y-43750000D02*
X86750000Y-44000000D01*
X86750000Y-44000000D02*
X86250000Y-44000000D01*
X86250000Y-44000000D02*
X86500000Y-43750000D01*
X88450000Y-42900000D02*
X88450000Y-44800000D01*
X89550000Y-42900000D02*
X89550000Y-44800000D01*
X89000000Y-43800000D02*
X89000000Y-44250000D01*
X89250000Y-43750000D02*
X88750000Y-43750000D01*
X89000000Y-43750000D02*
X89250000Y-44000000D01*
X89250000Y-44000000D02*
X88750000Y-44000000D01*
X88750000Y-44000000D02*
X89000000Y-43750000D01*
X90950000Y-42900000D02*
X90950000Y-44800000D01*
X92050000Y-42900000D02*
X92050000Y-44800000D01*
X91500000Y-43800000D02*
X91500000Y-44250000D01*
X91750000Y-43750000D02*
X91250000Y-43750000D01*
X91500000Y-43750000D02*
X91750000Y-44000000D01*
X91750000Y-44000000D02*
X91250000Y-44000000D01*
X91250000Y-44000000D02*
X91500000Y-43750000D01*
X93450000Y-42900000D02*
X93450000Y-44800000D01*
X94550000Y-42900000D02*
X94550000Y-44800000D01*
X94000000Y-43800000D02*
X94000000Y-44250000D01*
X94250000Y-43750000D02*
X93750000Y-43750000D01*
X94000000Y-43750000D02*
X94250000Y-44000000D01*
X94250000Y-44000000D02*
X93750000Y-44000000D01*
X93750000Y-44000000D02*
X94000000Y-43750000D01*
X101270000Y-64230000D02*
X101270000Y-59150000D01*
X101270000Y-59150000D02*
X98730000Y-59150000D01*
X98730000Y-59150000D02*
X98730000Y-64230000D01*
X98450000Y-67050000D02*
X98450000Y-65500000D01*
X98730000Y-64230000D02*
X101270000Y-64230000D01*
X101550000Y-65500000D02*
X101550000Y-67050000D01*
X101550000Y-67050000D02*
X98450000Y-67050000D01*
X98730000Y-53730000D02*
X98730000Y-51190000D01*
X98450000Y-56550000D02*
X98450000Y-55000000D01*
X98730000Y-53730000D02*
X101270000Y-53730000D01*
X101550000Y-55000000D02*
X101550000Y-56550000D01*
X101550000Y-56550000D02*
X98450000Y-56550000D01*
X101270000Y-53730000D02*
X101270000Y-51190000D01*
X101270000Y-51190000D02*
X98730000Y-51190000D01*
X87375000Y-47400000D02*
X87375000Y-48600000D01*
X85625000Y-48600000D02*
X85625000Y-47400000D01*
X89875000Y-47400000D02*
X89875000Y-48600000D01*
X88125000Y-48600000D02*
X88125000Y-47400000D01*
X92375000Y-47400000D02*
X92375000Y-48600000D01*
X90625000Y-48600000D02*
X90625000Y-47400000D01*
X94875000Y-47400000D02*
X94875000Y-48600000D01*
X93125000Y-48600000D02*
X93125000Y-47400000D01*
X42770000Y-78730000D02*
X42770000Y-73650000D01*
X42770000Y-73650000D02*
X40230000Y-73650000D01*
X40230000Y-73650000D02*
X40230000Y-78730000D01*
X39950000Y-81550000D02*
X39950000Y-80000000D01*
X40230000Y-78730000D02*
X42770000Y-78730000D01*
X43050000Y-80000000D02*
X43050000Y-81550000D01*
X43050000Y-81550000D02*
X39950000Y-81550000D01*
X63230000Y-52730000D02*
X58150000Y-52730000D01*
X58150000Y-52730000D02*
X58150000Y-55270000D01*
X58150000Y-55270000D02*
X63230000Y-55270000D01*
X66050000Y-55550000D02*
X64500000Y-55550000D01*
X63230000Y-55270000D02*
X63230000Y-52730000D01*
X64500000Y-52450000D02*
X66050000Y-52450000D01*
X66050000Y-52450000D02*
X66050000Y-55550000D01*
X44230000Y-78730000D02*
X44230000Y-76190000D01*
X43950000Y-81550000D02*
X43950000Y-80000000D01*
X44230000Y-78730000D02*
X46770000Y-78730000D01*
X47050000Y-80000000D02*
X47050000Y-81550000D01*
X47050000Y-81550000D02*
X43950000Y-81550000D01*
X46770000Y-78730000D02*
X46770000Y-76190000D01*
X46770000Y-76190000D02*
X44230000Y-76190000D01*
X63230000Y-51270000D02*
X60690000Y-51270000D01*
X66050000Y-51550000D02*
X64500000Y-51550000D01*
X63230000Y-51270000D02*
X63230000Y-48730000D01*
X64500000Y-48450000D02*
X66050000Y-48450000D01*
X66050000Y-48450000D02*
X66050000Y-51550000D01*
X63230000Y-48730000D02*
X60690000Y-48730000D01*
X60690000Y-48730000D02*
X60690000Y-51270000D01*
X54480000Y-51730000D02*
X49400000Y-51730000D01*
X49400000Y-51730000D02*
X49400000Y-54270000D01*
X49400000Y-54270000D02*
X54480000Y-54270000D01*
X57300000Y-54550000D02*
X55750000Y-54550000D01*
X54480000Y-54270000D02*
X54480000Y-51730000D01*
X55750000Y-51450000D02*
X57300000Y-51450000D01*
X57300000Y-51450000D02*
X57300000Y-54550000D01*
D10*
X41362334Y-52300143D02*
X41314715Y-52347762D01*
X41171858Y-52395381D01*
X41076620Y-52395381D01*
X40933762Y-52347762D01*
X40838524Y-52252524D01*
X40790905Y-52157286D01*
X40743286Y-51966810D01*
X40743286Y-51823952D01*
X40790905Y-51633476D01*
X40838524Y-51538238D01*
X40933762Y-51443000D01*
X41076620Y-51395381D01*
X41171858Y-51395381D01*
X41314715Y-51443000D01*
X41362334Y-51490619D01*
X42314715Y-52395381D02*
X41743286Y-52395381D01*
X42029000Y-52395381D02*
X42029000Y-51395381D01*
X41933762Y-51538238D01*
X41838524Y-51633476D01*
X41743286Y-51681095D01*
X49363334Y-76049143D02*
X49315715Y-76096762D01*
X49172858Y-76144381D01*
X49077620Y-76144381D01*
X48934762Y-76096762D01*
X48839524Y-76001524D01*
X48791905Y-75906286D01*
X48744286Y-75715810D01*
X48744286Y-75572952D01*
X48791905Y-75382476D01*
X48839524Y-75287238D01*
X48934762Y-75192000D01*
X49077620Y-75144381D01*
X49172858Y-75144381D01*
X49315715Y-75192000D01*
X49363334Y-75239619D01*
X49744286Y-75239619D02*
X49791905Y-75192000D01*
X49887143Y-75144381D01*
X50125239Y-75144381D01*
X50220477Y-75192000D01*
X50268096Y-75239619D01*
X50315715Y-75334857D01*
X50315715Y-75430095D01*
X50268096Y-75572952D01*
X49696667Y-76144381D01*
X50315715Y-76144381D01*
X46823334Y-54078143D02*
X46775715Y-54125762D01*
X46632858Y-54173381D01*
X46537620Y-54173381D01*
X46394762Y-54125762D01*
X46299524Y-54030524D01*
X46251905Y-53935286D01*
X46204286Y-53744810D01*
X46204286Y-53601952D01*
X46251905Y-53411476D01*
X46299524Y-53316238D01*
X46394762Y-53221000D01*
X46537620Y-53173381D01*
X46632858Y-53173381D01*
X46775715Y-53221000D01*
X46823334Y-53268619D01*
X47156667Y-53173381D02*
X47775715Y-53173381D01*
X47442381Y-53554333D01*
X47585239Y-53554333D01*
X47680477Y-53601952D01*
X47728096Y-53649571D01*
X47775715Y-53744810D01*
X47775715Y-53982905D01*
X47728096Y-54078143D01*
X47680477Y-54125762D01*
X47585239Y-54173381D01*
X47299524Y-54173381D01*
X47204286Y-54125762D01*
X47156667Y-54078143D01*
X49363334Y-84812143D02*
X49315715Y-84859762D01*
X49172858Y-84907381D01*
X49077620Y-84907381D01*
X48934762Y-84859762D01*
X48839524Y-84764524D01*
X48791905Y-84669286D01*
X48744286Y-84478810D01*
X48744286Y-84335952D01*
X48791905Y-84145476D01*
X48839524Y-84050238D01*
X48934762Y-83955000D01*
X49077620Y-83907381D01*
X49172858Y-83907381D01*
X49315715Y-83955000D01*
X49363334Y-84002619D01*
X50220477Y-84240714D02*
X50220477Y-84907381D01*
X49982381Y-83859762D02*
X49744286Y-84574048D01*
X50363334Y-84574048D01*
X76287334Y-86971143D02*
X76239715Y-87018762D01*
X76096858Y-87066381D01*
X76001620Y-87066381D01*
X75858762Y-87018762D01*
X75763524Y-86923524D01*
X75715905Y-86828286D01*
X75668286Y-86637810D01*
X75668286Y-86494952D01*
X75715905Y-86304476D01*
X75763524Y-86209238D01*
X75858762Y-86114000D01*
X76001620Y-86066381D01*
X76096858Y-86066381D01*
X76239715Y-86114000D01*
X76287334Y-86161619D01*
X77192096Y-86066381D02*
X76715905Y-86066381D01*
X76668286Y-86542571D01*
X76715905Y-86494952D01*
X76811143Y-86447333D01*
X77049239Y-86447333D01*
X77144477Y-86494952D01*
X77192096Y-86542571D01*
X77239715Y-86637810D01*
X77239715Y-86875905D01*
X77192096Y-86971143D01*
X77144477Y-87018762D01*
X77049239Y-87066381D01*
X76811143Y-87066381D01*
X76715905Y-87018762D01*
X76668286Y-86971143D01*
X59523334Y-44680143D02*
X59475715Y-44727762D01*
X59332858Y-44775381D01*
X59237620Y-44775381D01*
X59094762Y-44727762D01*
X58999524Y-44632524D01*
X58951905Y-44537286D01*
X58904286Y-44346810D01*
X58904286Y-44203952D01*
X58951905Y-44013476D01*
X58999524Y-43918238D01*
X59094762Y-43823000D01*
X59237620Y-43775381D01*
X59332858Y-43775381D01*
X59475715Y-43823000D01*
X59523334Y-43870619D01*
X60094762Y-44203952D02*
X59999524Y-44156333D01*
X59951905Y-44108714D01*
X59904286Y-44013476D01*
X59904286Y-43965857D01*
X59951905Y-43870619D01*
X59999524Y-43823000D01*
X60094762Y-43775381D01*
X60285239Y-43775381D01*
X60380477Y-43823000D01*
X60428096Y-43870619D01*
X60475715Y-43965857D01*
X60475715Y-44013476D01*
X60428096Y-44108714D01*
X60380477Y-44156333D01*
X60285239Y-44203952D01*
X60094762Y-44203952D01*
X59999524Y-44251571D01*
X59951905Y-44299190D01*
X59904286Y-44394429D01*
X59904286Y-44584905D01*
X59951905Y-44680143D01*
X59999524Y-44727762D01*
X60094762Y-44775381D01*
X60285239Y-44775381D01*
X60380477Y-44727762D01*
X60428096Y-44680143D01*
X60475715Y-44584905D01*
X60475715Y-44394429D01*
X60428096Y-44299190D01*
X60380477Y-44251571D01*
X60285239Y-44203952D01*
X51752381Y-74238095D02*
X50752381Y-74238095D01*
X50752381Y-74000000D01*
X50800000Y-73857142D01*
X50895238Y-73761904D01*
X50990476Y-73714285D01*
X51180952Y-73666666D01*
X51323810Y-73666666D01*
X51514286Y-73714285D01*
X51609524Y-73761904D01*
X51704762Y-73857142D01*
X51752381Y-74000000D01*
X51752381Y-74238095D01*
X50752381Y-73333333D02*
X50752381Y-72714285D01*
X51133333Y-73047619D01*
X51133333Y-72904761D01*
X51180952Y-72809523D01*
X51228571Y-72761904D01*
X51323810Y-72714285D01*
X51561905Y-72714285D01*
X51657143Y-72761904D01*
X51704762Y-72809523D01*
X51752381Y-72904761D01*
X51752381Y-73190476D01*
X51704762Y-73285714D01*
X51657143Y-73333333D01*
X55896834Y-60293381D02*
X55420643Y-60293381D01*
X55420643Y-59293381D01*
X56753977Y-60293381D02*
X56182548Y-60293381D01*
X56468262Y-60293381D02*
X56468262Y-59293381D01*
X56373024Y-59436238D01*
X56277786Y-59531476D01*
X56182548Y-59579095D01*
X97734381Y-46966095D02*
X96734381Y-46966095D01*
X96734381Y-46585142D01*
X96782000Y-46489904D01*
X96829619Y-46442285D01*
X96924857Y-46394666D01*
X97067714Y-46394666D01*
X97162952Y-46442285D01*
X97210571Y-46489904D01*
X97258190Y-46585142D01*
X97258190Y-46966095D01*
X96734381Y-45489904D02*
X96734381Y-45966095D01*
X97210571Y-46013714D01*
X97162952Y-45966095D01*
X97115333Y-45870857D01*
X97115333Y-45632761D01*
X97162952Y-45537523D01*
X97210571Y-45489904D01*
X97305810Y-45442285D01*
X97543905Y-45442285D01*
X97639143Y-45489904D01*
X97686762Y-45537523D01*
X97734381Y-45632761D01*
X97734381Y-45870857D01*
X97686762Y-45966095D01*
X97639143Y-46013714D01*
D13*
X60294381Y-72096762D02*
X60246000Y-72193524D01*
X60149238Y-72290286D01*
X60004095Y-72435429D01*
X59955714Y-72532190D01*
X59955714Y-72628952D01*
X60197619Y-72580571D02*
X60149238Y-72677333D01*
X60052476Y-72774095D01*
X59858952Y-72822476D01*
X59520286Y-72822476D01*
X59326762Y-72774095D01*
X59230000Y-72677333D01*
X59181619Y-72580571D01*
X59181619Y-72387048D01*
X59230000Y-72290286D01*
X59326762Y-72193524D01*
X59520286Y-72145143D01*
X59858952Y-72145143D01*
X60052476Y-72193524D01*
X60149238Y-72290286D01*
X60197619Y-72387048D01*
X60197619Y-72580571D01*
X60197619Y-71177524D02*
X60197619Y-71758095D01*
X60197619Y-71467809D02*
X59181619Y-71467809D01*
X59326762Y-71564571D01*
X59423524Y-71661333D01*
X59471905Y-71758095D01*
X61673238Y-75144761D02*
X61721619Y-74999618D01*
X61721619Y-74757714D01*
X61673238Y-74660952D01*
X61624857Y-74612571D01*
X61528095Y-74564190D01*
X61431333Y-74564190D01*
X61334571Y-74612571D01*
X61286190Y-74660952D01*
X61237810Y-74757714D01*
X61189429Y-74951237D01*
X61141048Y-75047999D01*
X61092667Y-75096380D01*
X60995905Y-75144761D01*
X60899143Y-75144761D01*
X60802381Y-75096380D01*
X60754000Y-75047999D01*
X60705619Y-74951237D01*
X60705619Y-74709333D01*
X60754000Y-74564190D01*
X60705619Y-74273904D02*
X60705619Y-73693333D01*
X61721619Y-73983618D02*
X60705619Y-73983618D01*
X61721619Y-73354666D02*
X60705619Y-73354666D01*
X61721619Y-72774095D01*
X60705619Y-72774095D01*
X60705619Y-72096761D02*
X60705619Y-72000000D01*
X60754000Y-71903238D01*
X60802381Y-71854857D01*
X60899143Y-71806476D01*
X61092667Y-71758095D01*
X61334571Y-71758095D01*
X61528095Y-71806476D01*
X61624857Y-71854857D01*
X61673238Y-71903238D01*
X61721619Y-72000000D01*
X61721619Y-72096761D01*
X61673238Y-72193523D01*
X61624857Y-72241904D01*
X61528095Y-72290285D01*
X61334571Y-72338666D01*
X61092667Y-72338666D01*
X60899143Y-72290285D01*
X60802381Y-72241904D01*
X60754000Y-72193523D01*
X60705619Y-72096761D01*
X60802381Y-71371047D02*
X60754000Y-71322666D01*
X60705619Y-71225904D01*
X60705619Y-70984000D01*
X60754000Y-70887238D01*
X60802381Y-70838857D01*
X60899143Y-70790476D01*
X60995905Y-70790476D01*
X61141048Y-70838857D01*
X61721619Y-71419428D01*
X61721619Y-70790476D01*
X61721619Y-69822857D02*
X61721619Y-70403428D01*
X61721619Y-70113142D02*
X60705619Y-70113142D01*
X60850762Y-70209904D01*
X60947524Y-70306666D01*
X60995905Y-70403428D01*
X61044286Y-68952000D02*
X61721619Y-68952000D01*
X60657238Y-69193904D02*
X61382952Y-69435809D01*
X61382952Y-68806857D01*
X62794381Y-80096762D02*
X62746000Y-80193524D01*
X62649238Y-80290286D01*
X62504095Y-80435429D01*
X62455714Y-80532190D01*
X62455714Y-80628952D01*
X62697619Y-80580571D02*
X62649238Y-80677333D01*
X62552476Y-80774095D01*
X62358952Y-80822476D01*
X62020286Y-80822476D01*
X61826762Y-80774095D01*
X61730000Y-80677333D01*
X61681619Y-80580571D01*
X61681619Y-80387048D01*
X61730000Y-80290286D01*
X61826762Y-80193524D01*
X62020286Y-80145143D01*
X62358952Y-80145143D01*
X62552476Y-80193524D01*
X62649238Y-80290286D01*
X62697619Y-80387048D01*
X62697619Y-80580571D01*
X61778381Y-79758095D02*
X61730000Y-79709714D01*
X61681619Y-79612952D01*
X61681619Y-79371048D01*
X61730000Y-79274286D01*
X61778381Y-79225905D01*
X61875143Y-79177524D01*
X61971905Y-79177524D01*
X62117048Y-79225905D01*
X62697619Y-79806476D01*
X62697619Y-79177524D01*
X64173238Y-83144761D02*
X64221619Y-82999618D01*
X64221619Y-82757714D01*
X64173238Y-82660952D01*
X64124857Y-82612571D01*
X64028095Y-82564190D01*
X63931333Y-82564190D01*
X63834571Y-82612571D01*
X63786190Y-82660952D01*
X63737810Y-82757714D01*
X63689429Y-82951237D01*
X63641048Y-83047999D01*
X63592667Y-83096380D01*
X63495905Y-83144761D01*
X63399143Y-83144761D01*
X63302381Y-83096380D01*
X63254000Y-83047999D01*
X63205619Y-82951237D01*
X63205619Y-82709333D01*
X63254000Y-82564190D01*
X63205619Y-82273904D02*
X63205619Y-81693333D01*
X64221619Y-81983618D02*
X63205619Y-81983618D01*
X64221619Y-81354666D02*
X63205619Y-81354666D01*
X64221619Y-80774095D01*
X63205619Y-80774095D01*
X63205619Y-80096761D02*
X63205619Y-80000000D01*
X63254000Y-79903238D01*
X63302381Y-79854857D01*
X63399143Y-79806476D01*
X63592667Y-79758095D01*
X63834571Y-79758095D01*
X64028095Y-79806476D01*
X64124857Y-79854857D01*
X64173238Y-79903238D01*
X64221619Y-80000000D01*
X64221619Y-80096761D01*
X64173238Y-80193523D01*
X64124857Y-80241904D01*
X64028095Y-80290285D01*
X63834571Y-80338666D01*
X63592667Y-80338666D01*
X63399143Y-80290285D01*
X63302381Y-80241904D01*
X63254000Y-80193523D01*
X63205619Y-80096761D01*
X63302381Y-79371047D02*
X63254000Y-79322666D01*
X63205619Y-79225904D01*
X63205619Y-78984000D01*
X63254000Y-78887238D01*
X63302381Y-78838857D01*
X63399143Y-78790476D01*
X63495905Y-78790476D01*
X63641048Y-78838857D01*
X64221619Y-79419428D01*
X64221619Y-78790476D01*
X64221619Y-77822857D02*
X64221619Y-78403428D01*
X64221619Y-78113142D02*
X63205619Y-78113142D01*
X63350762Y-78209904D01*
X63447524Y-78306666D01*
X63495905Y-78403428D01*
X63544286Y-76952000D02*
X64221619Y-76952000D01*
X63157238Y-77193904D02*
X63882952Y-77435809D01*
X63882952Y-76806857D01*
D10*
X75469762Y-76874619D02*
X75374524Y-76827000D01*
X75279286Y-76731762D01*
X75136429Y-76588905D01*
X75041190Y-76541286D01*
X74945952Y-76541286D01*
X74993571Y-76779381D02*
X74898333Y-76731762D01*
X74803095Y-76636524D01*
X74755476Y-76446048D01*
X74755476Y-76112714D01*
X74803095Y-75922238D01*
X74898333Y-75827000D01*
X74993571Y-75779381D01*
X75184048Y-75779381D01*
X75279286Y-75827000D01*
X75374524Y-75922238D01*
X75422143Y-76112714D01*
X75422143Y-76446048D01*
X75374524Y-76636524D01*
X75279286Y-76731762D01*
X75184048Y-76779381D01*
X74993571Y-76779381D01*
X75755476Y-75779381D02*
X76374524Y-75779381D01*
X76041190Y-76160333D01*
X76184048Y-76160333D01*
X76279286Y-76207952D01*
X76326905Y-76255571D01*
X76374524Y-76350810D01*
X76374524Y-76588905D01*
X76326905Y-76684143D01*
X76279286Y-76731762D01*
X76184048Y-76779381D01*
X75898333Y-76779381D01*
X75803095Y-76731762D01*
X75755476Y-76684143D01*
X67127381Y-68111666D02*
X66651190Y-68445000D01*
X67127381Y-68683095D02*
X66127381Y-68683095D01*
X66127381Y-68302142D01*
X66175000Y-68206904D01*
X66222619Y-68159285D01*
X66317857Y-68111666D01*
X66460714Y-68111666D01*
X66555952Y-68159285D01*
X66603571Y-68206904D01*
X66651190Y-68302142D01*
X66651190Y-68683095D01*
X67127381Y-67159285D02*
X67127381Y-67730714D01*
X67127381Y-67445000D02*
X66127381Y-67445000D01*
X66270238Y-67540238D01*
X66365476Y-67635476D01*
X66413095Y-67730714D01*
X73350381Y-68111666D02*
X72874190Y-68445000D01*
X73350381Y-68683095D02*
X72350381Y-68683095D01*
X72350381Y-68302142D01*
X72398000Y-68206904D01*
X72445619Y-68159285D01*
X72540857Y-68111666D01*
X72683714Y-68111666D01*
X72778952Y-68159285D01*
X72826571Y-68206904D01*
X72874190Y-68302142D01*
X72874190Y-68683095D01*
X72445619Y-67730714D02*
X72398000Y-67683095D01*
X72350381Y-67587857D01*
X72350381Y-67349761D01*
X72398000Y-67254523D01*
X72445619Y-67206904D01*
X72540857Y-67159285D01*
X72636095Y-67159285D01*
X72778952Y-67206904D01*
X73350381Y-67778333D01*
X73350381Y-67159285D01*
X67127381Y-73191666D02*
X66651190Y-73525000D01*
X67127381Y-73763095D02*
X66127381Y-73763095D01*
X66127381Y-73382142D01*
X66175000Y-73286904D01*
X66222619Y-73239285D01*
X66317857Y-73191666D01*
X66460714Y-73191666D01*
X66555952Y-73239285D01*
X66603571Y-73286904D01*
X66651190Y-73382142D01*
X66651190Y-73763095D01*
X66127381Y-72858333D02*
X66127381Y-72239285D01*
X66508333Y-72572619D01*
X66508333Y-72429761D01*
X66555952Y-72334523D01*
X66603571Y-72286904D01*
X66698810Y-72239285D01*
X66936905Y-72239285D01*
X67032143Y-72286904D01*
X67079762Y-72334523D01*
X67127381Y-72429761D01*
X67127381Y-72715476D01*
X67079762Y-72810714D01*
X67032143Y-72858333D01*
X73350381Y-73064666D02*
X72874190Y-73398000D01*
X73350381Y-73636095D02*
X72350381Y-73636095D01*
X72350381Y-73255142D01*
X72398000Y-73159904D01*
X72445619Y-73112285D01*
X72540857Y-73064666D01*
X72683714Y-73064666D01*
X72778952Y-73112285D01*
X72826571Y-73159904D01*
X72874190Y-73255142D01*
X72874190Y-73636095D01*
X72683714Y-72207523D02*
X73350381Y-72207523D01*
X72302762Y-72445619D02*
X73017048Y-72683714D01*
X73017048Y-72064666D01*
X45410381Y-57316666D02*
X44934190Y-57650000D01*
X45410381Y-57888095D02*
X44410381Y-57888095D01*
X44410381Y-57507142D01*
X44458000Y-57411904D01*
X44505619Y-57364285D01*
X44600857Y-57316666D01*
X44743714Y-57316666D01*
X44838952Y-57364285D01*
X44886571Y-57411904D01*
X44934190Y-57507142D01*
X44934190Y-57888095D01*
X44410381Y-56411904D02*
X44410381Y-56888095D01*
X44886571Y-56935714D01*
X44838952Y-56888095D01*
X44791333Y-56792857D01*
X44791333Y-56554761D01*
X44838952Y-56459523D01*
X44886571Y-56411904D01*
X44981810Y-56364285D01*
X45219905Y-56364285D01*
X45315143Y-56411904D01*
X45362762Y-56459523D01*
X45410381Y-56554761D01*
X45410381Y-56792857D01*
X45362762Y-56888095D01*
X45315143Y-56935714D01*
X55332334Y-76144381D02*
X54999000Y-75668190D01*
X54760905Y-76144381D02*
X54760905Y-75144381D01*
X55141858Y-75144381D01*
X55237096Y-75192000D01*
X55284715Y-75239619D01*
X55332334Y-75334857D01*
X55332334Y-75477714D01*
X55284715Y-75572952D01*
X55237096Y-75620571D01*
X55141858Y-75668190D01*
X54760905Y-75668190D01*
X56189477Y-75144381D02*
X55999000Y-75144381D01*
X55903762Y-75192000D01*
X55856143Y-75239619D01*
X55760905Y-75382476D01*
X55713286Y-75572952D01*
X55713286Y-75953905D01*
X55760905Y-76049143D01*
X55808524Y-76096762D01*
X55903762Y-76144381D01*
X56094239Y-76144381D01*
X56189477Y-76096762D01*
X56237096Y-76049143D01*
X56284715Y-75953905D01*
X56284715Y-75715810D01*
X56237096Y-75620571D01*
X56189477Y-75572952D01*
X56094239Y-75525333D01*
X55903762Y-75525333D01*
X55808524Y-75572952D01*
X55760905Y-75620571D01*
X55713286Y-75715810D01*
X50760334Y-80462381D02*
X50427000Y-79986190D01*
X50188905Y-80462381D02*
X50188905Y-79462381D01*
X50569858Y-79462381D01*
X50665096Y-79510000D01*
X50712715Y-79557619D01*
X50760334Y-79652857D01*
X50760334Y-79795714D01*
X50712715Y-79890952D01*
X50665096Y-79938571D01*
X50569858Y-79986190D01*
X50188905Y-79986190D01*
X51093667Y-79462381D02*
X51760334Y-79462381D01*
X51331762Y-80462381D01*
X52792334Y-84907381D02*
X52459000Y-84431190D01*
X52220905Y-84907381D02*
X52220905Y-83907381D01*
X52601858Y-83907381D01*
X52697096Y-83955000D01*
X52744715Y-84002619D01*
X52792334Y-84097857D01*
X52792334Y-84240714D01*
X52744715Y-84335952D01*
X52697096Y-84383571D01*
X52601858Y-84431190D01*
X52220905Y-84431190D01*
X53363762Y-84335952D02*
X53268524Y-84288333D01*
X53220905Y-84240714D01*
X53173286Y-84145476D01*
X53173286Y-84097857D01*
X53220905Y-84002619D01*
X53268524Y-83955000D01*
X53363762Y-83907381D01*
X53554239Y-83907381D01*
X53649477Y-83955000D01*
X53697096Y-84002619D01*
X53744715Y-84097857D01*
X53744715Y-84145476D01*
X53697096Y-84240714D01*
X53649477Y-84288333D01*
X53554239Y-84335952D01*
X53363762Y-84335952D01*
X53268524Y-84383571D01*
X53220905Y-84431190D01*
X53173286Y-84526429D01*
X53173286Y-84716905D01*
X53220905Y-84812143D01*
X53268524Y-84859762D01*
X53363762Y-84907381D01*
X53554239Y-84907381D01*
X53649477Y-84859762D01*
X53697096Y-84812143D01*
X53744715Y-84716905D01*
X53744715Y-84526429D01*
X53697096Y-84431190D01*
X53649477Y-84383571D01*
X53554239Y-84335952D01*
X72207381Y-82081666D02*
X71731190Y-82415000D01*
X72207381Y-82653095D02*
X71207381Y-82653095D01*
X71207381Y-82272142D01*
X71255000Y-82176904D01*
X71302619Y-82129285D01*
X71397857Y-82081666D01*
X71540714Y-82081666D01*
X71635952Y-82129285D01*
X71683571Y-82176904D01*
X71731190Y-82272142D01*
X71731190Y-82653095D01*
X72207381Y-81605476D02*
X72207381Y-81415000D01*
X72159762Y-81319761D01*
X72112143Y-81272142D01*
X71969286Y-81176904D01*
X71778810Y-81129285D01*
X71397857Y-81129285D01*
X71302619Y-81176904D01*
X71255000Y-81224523D01*
X71207381Y-81319761D01*
X71207381Y-81510238D01*
X71255000Y-81605476D01*
X71302619Y-81653095D01*
X71397857Y-81700714D01*
X71635952Y-81700714D01*
X71731190Y-81653095D01*
X71778810Y-81605476D01*
X71826429Y-81510238D01*
X71826429Y-81319761D01*
X71778810Y-81224523D01*
X71731190Y-81176904D01*
X71635952Y-81129285D01*
X81732381Y-82684857D02*
X81256190Y-83018191D01*
X81732381Y-83256286D02*
X80732381Y-83256286D01*
X80732381Y-82875333D01*
X80780000Y-82780095D01*
X80827619Y-82732476D01*
X80922857Y-82684857D01*
X81065714Y-82684857D01*
X81160952Y-82732476D01*
X81208571Y-82780095D01*
X81256190Y-82875333D01*
X81256190Y-83256286D01*
X81732381Y-81732476D02*
X81732381Y-82303905D01*
X81732381Y-82018191D02*
X80732381Y-82018191D01*
X80875238Y-82113429D01*
X80970476Y-82208667D01*
X81018095Y-82303905D01*
X80732381Y-81113429D02*
X80732381Y-81018190D01*
X80780000Y-80922952D01*
X80827619Y-80875333D01*
X80922857Y-80827714D01*
X81113333Y-80780095D01*
X81351429Y-80780095D01*
X81541905Y-80827714D01*
X81637143Y-80875333D01*
X81684762Y-80922952D01*
X81732381Y-81018190D01*
X81732381Y-81113429D01*
X81684762Y-81208667D01*
X81637143Y-81256286D01*
X81541905Y-81303905D01*
X81351429Y-81351524D01*
X81113333Y-81351524D01*
X80922857Y-81303905D01*
X80827619Y-81256286D01*
X80780000Y-81208667D01*
X80732381Y-81113429D01*
X45386667Y-41997381D02*
X45386667Y-42711667D01*
X45339047Y-42854524D01*
X45243809Y-42949762D01*
X45100952Y-42997381D01*
X45005714Y-42997381D01*
X46386667Y-42997381D02*
X45815238Y-42997381D01*
X46100952Y-42997381D02*
X46100952Y-41997381D01*
X46005714Y-42140238D01*
X45910476Y-42235476D01*
X45815238Y-42283095D01*
X67381381Y-64238095D02*
X66381381Y-64238095D01*
X66381381Y-64000000D01*
X66429000Y-63857142D01*
X66524238Y-63761904D01*
X66619476Y-63714285D01*
X66809952Y-63666666D01*
X66952810Y-63666666D01*
X67143286Y-63714285D01*
X67238524Y-63761904D01*
X67333762Y-63857142D01*
X67381381Y-64000000D01*
X67381381Y-64238095D01*
X67381381Y-62714285D02*
X67381381Y-63285714D01*
X67381381Y-63000000D02*
X66381381Y-63000000D01*
X66524238Y-63095238D01*
X66619476Y-63190476D01*
X66667095Y-63285714D01*
X73096381Y-64238095D02*
X72096381Y-64238095D01*
X72096381Y-64000000D01*
X72144000Y-63857142D01*
X72239238Y-63761904D01*
X72334476Y-63714285D01*
X72524952Y-63666666D01*
X72667810Y-63666666D01*
X72858286Y-63714285D01*
X72953524Y-63761904D01*
X73048762Y-63857142D01*
X73096381Y-64000000D01*
X73096381Y-64238095D01*
X72191619Y-63285714D02*
X72144000Y-63238095D01*
X72096381Y-63142857D01*
X72096381Y-62904761D01*
X72144000Y-62809523D01*
X72191619Y-62761904D01*
X72286857Y-62714285D01*
X72382095Y-62714285D01*
X72524952Y-62761904D01*
X73096381Y-63333333D01*
X73096381Y-62714285D01*
X57491334Y-43918143D02*
X57443715Y-43965762D01*
X57300858Y-44013381D01*
X57205620Y-44013381D01*
X57062762Y-43965762D01*
X56967524Y-43870524D01*
X56919905Y-43775286D01*
X56872286Y-43584810D01*
X56872286Y-43441952D01*
X56919905Y-43251476D01*
X56967524Y-43156238D01*
X57062762Y-43061000D01*
X57205620Y-43013381D01*
X57300858Y-43013381D01*
X57443715Y-43061000D01*
X57491334Y-43108619D01*
X57824667Y-43013381D02*
X58491334Y-43013381D01*
X58062762Y-44013381D01*
X57935905Y-84526381D02*
X57935905Y-83526381D01*
X58316858Y-83526381D01*
X58412096Y-83574000D01*
X58459715Y-83621619D01*
X58507334Y-83716857D01*
X58507334Y-83859714D01*
X58459715Y-83954952D01*
X58412096Y-84002571D01*
X58316858Y-84050190D01*
X57935905Y-84050190D01*
X59459715Y-84526381D02*
X58888286Y-84526381D01*
X59174000Y-84526381D02*
X59174000Y-83526381D01*
X59078762Y-83669238D01*
X58983524Y-83764476D01*
X58888286Y-83812095D01*
X68603905Y-83764381D02*
X68603905Y-82764381D01*
X68984858Y-82764381D01*
X69080096Y-82812000D01*
X69127715Y-82859619D01*
X69175334Y-82954857D01*
X69175334Y-83097714D01*
X69127715Y-83192952D01*
X69080096Y-83240571D01*
X68984858Y-83288190D01*
X68603905Y-83288190D01*
X69556286Y-82859619D02*
X69603905Y-82812000D01*
X69699143Y-82764381D01*
X69937239Y-82764381D01*
X70032477Y-82812000D01*
X70080096Y-82859619D01*
X70127715Y-82954857D01*
X70127715Y-83050095D01*
X70080096Y-83192952D01*
X69508667Y-83764381D01*
X70127715Y-83764381D01*
X75715905Y-83002381D02*
X75715905Y-82002381D01*
X76096858Y-82002381D01*
X76192096Y-82050000D01*
X76239715Y-82097619D01*
X76287334Y-82192857D01*
X76287334Y-82335714D01*
X76239715Y-82430952D01*
X76192096Y-82478571D01*
X76096858Y-82526190D01*
X75715905Y-82526190D01*
X76620667Y-82002381D02*
X77239715Y-82002381D01*
X76906381Y-82383333D01*
X77049239Y-82383333D01*
X77144477Y-82430952D01*
X77192096Y-82478571D01*
X77239715Y-82573810D01*
X77239715Y-82811905D01*
X77192096Y-82907143D01*
X77144477Y-82954762D01*
X77049239Y-83002381D01*
X76763524Y-83002381D01*
X76668286Y-82954762D01*
X76620667Y-82907143D01*
X75969905Y-72080381D02*
X75969905Y-71080381D01*
X76350858Y-71080381D01*
X76446096Y-71128000D01*
X76493715Y-71175619D01*
X76541334Y-71270857D01*
X76541334Y-71413714D01*
X76493715Y-71508952D01*
X76446096Y-71556571D01*
X76350858Y-71604190D01*
X75969905Y-71604190D01*
X77398477Y-71413714D02*
X77398477Y-72080381D01*
X77160381Y-71032762D02*
X76922286Y-71747048D01*
X77541334Y-71747048D01*
X85621905Y-42362381D02*
X85621905Y-41362381D01*
X85860000Y-41362381D01*
X86002858Y-41410000D01*
X86098096Y-41505238D01*
X86145715Y-41600476D01*
X86193334Y-41790952D01*
X86193334Y-41933810D01*
X86145715Y-42124286D01*
X86098096Y-42219524D01*
X86002858Y-42314762D01*
X85860000Y-42362381D01*
X85621905Y-42362381D01*
X87050477Y-41695714D02*
X87050477Y-42362381D01*
X86812381Y-41314762D02*
X86574286Y-42029048D01*
X87193334Y-42029048D01*
X88161905Y-42362381D02*
X88161905Y-41362381D01*
X88400000Y-41362381D01*
X88542858Y-41410000D01*
X88638096Y-41505238D01*
X88685715Y-41600476D01*
X88733334Y-41790952D01*
X88733334Y-41933810D01*
X88685715Y-42124286D01*
X88638096Y-42219524D01*
X88542858Y-42314762D01*
X88400000Y-42362381D01*
X88161905Y-42362381D01*
X89638096Y-41362381D02*
X89161905Y-41362381D01*
X89114286Y-41838571D01*
X89161905Y-41790952D01*
X89257143Y-41743333D01*
X89495239Y-41743333D01*
X89590477Y-41790952D01*
X89638096Y-41838571D01*
X89685715Y-41933810D01*
X89685715Y-42171905D01*
X89638096Y-42267143D01*
X89590477Y-42314762D01*
X89495239Y-42362381D01*
X89257143Y-42362381D01*
X89161905Y-42314762D01*
X89114286Y-42267143D01*
X90701905Y-42362381D02*
X90701905Y-41362381D01*
X90940000Y-41362381D01*
X91082858Y-41410000D01*
X91178096Y-41505238D01*
X91225715Y-41600476D01*
X91273334Y-41790952D01*
X91273334Y-41933810D01*
X91225715Y-42124286D01*
X91178096Y-42219524D01*
X91082858Y-42314762D01*
X90940000Y-42362381D01*
X90701905Y-42362381D01*
X92130477Y-41362381D02*
X91940000Y-41362381D01*
X91844762Y-41410000D01*
X91797143Y-41457619D01*
X91701905Y-41600476D01*
X91654286Y-41790952D01*
X91654286Y-42171905D01*
X91701905Y-42267143D01*
X91749524Y-42314762D01*
X91844762Y-42362381D01*
X92035239Y-42362381D01*
X92130477Y-42314762D01*
X92178096Y-42267143D01*
X92225715Y-42171905D01*
X92225715Y-41933810D01*
X92178096Y-41838571D01*
X92130477Y-41790952D01*
X92035239Y-41743333D01*
X91844762Y-41743333D01*
X91749524Y-41790952D01*
X91701905Y-41838571D01*
X91654286Y-41933810D01*
X93241905Y-42362381D02*
X93241905Y-41362381D01*
X93480000Y-41362381D01*
X93622858Y-41410000D01*
X93718096Y-41505238D01*
X93765715Y-41600476D01*
X93813334Y-41790952D01*
X93813334Y-41933810D01*
X93765715Y-42124286D01*
X93718096Y-42219524D01*
X93622858Y-42314762D01*
X93480000Y-42362381D01*
X93241905Y-42362381D01*
X94146667Y-41362381D02*
X94813334Y-41362381D01*
X94384762Y-42362381D01*
X97734381Y-63984095D02*
X96734381Y-63984095D01*
X96734381Y-63603142D01*
X96782000Y-63507904D01*
X96829619Y-63460285D01*
X96924857Y-63412666D01*
X97067714Y-63412666D01*
X97162952Y-63460285D01*
X97210571Y-63507904D01*
X97258190Y-63603142D01*
X97258190Y-63984095D01*
X96734381Y-62555523D02*
X96734381Y-62746000D01*
X96782000Y-62841238D01*
X96829619Y-62888857D01*
X96972476Y-62984095D01*
X97162952Y-63031714D01*
X97543905Y-63031714D01*
X97639143Y-62984095D01*
X97686762Y-62936476D01*
X97734381Y-62841238D01*
X97734381Y-62650761D01*
X97686762Y-62555523D01*
X97639143Y-62507904D01*
X97543905Y-62460285D01*
X97305810Y-62460285D01*
X97210571Y-62507904D01*
X97162952Y-62555523D01*
X97115333Y-62650761D01*
X97115333Y-62841238D01*
X97162952Y-62936476D01*
X97210571Y-62984095D01*
X97305810Y-63031714D01*
D12*
X99261905Y-60552381D02*
X99261905Y-59552381D01*
X99642858Y-59552381D01*
X99738096Y-59600000D01*
X99785715Y-59647619D01*
X99833334Y-59742857D01*
X99833334Y-59885714D01*
X99785715Y-59980952D01*
X99738096Y-60028571D01*
X99642858Y-60076190D01*
X99261905Y-60076190D01*
X100166667Y-59552381D02*
X100833334Y-59552381D01*
X100404762Y-60552381D01*
D10*
X87066381Y-52712857D02*
X86590190Y-53046191D01*
X87066381Y-53284286D02*
X86066381Y-53284286D01*
X86066381Y-52903333D01*
X86114000Y-52808095D01*
X86161619Y-52760476D01*
X86256857Y-52712857D01*
X86399714Y-52712857D01*
X86494952Y-52760476D01*
X86542571Y-52808095D01*
X86590190Y-52903333D01*
X86590190Y-53284286D01*
X87066381Y-51760476D02*
X87066381Y-52331905D01*
X87066381Y-52046191D02*
X86066381Y-52046191D01*
X86209238Y-52141429D01*
X86304476Y-52236667D01*
X86352095Y-52331905D01*
X86066381Y-50855714D02*
X86066381Y-51331905D01*
X86542571Y-51379524D01*
X86494952Y-51331905D01*
X86447333Y-51236667D01*
X86447333Y-50998571D01*
X86494952Y-50903333D01*
X86542571Y-50855714D01*
X86637810Y-50808095D01*
X86875905Y-50808095D01*
X86971143Y-50855714D01*
X87018762Y-50903333D01*
X87066381Y-50998571D01*
X87066381Y-51236667D01*
X87018762Y-51331905D01*
X86971143Y-51379524D01*
X89352381Y-52712857D02*
X88876190Y-53046191D01*
X89352381Y-53284286D02*
X88352381Y-53284286D01*
X88352381Y-52903333D01*
X88400000Y-52808095D01*
X88447619Y-52760476D01*
X88542857Y-52712857D01*
X88685714Y-52712857D01*
X88780952Y-52760476D01*
X88828571Y-52808095D01*
X88876190Y-52903333D01*
X88876190Y-53284286D01*
X89352381Y-51760476D02*
X89352381Y-52331905D01*
X89352381Y-52046191D02*
X88352381Y-52046191D01*
X88495238Y-52141429D01*
X88590476Y-52236667D01*
X88638095Y-52331905D01*
X88352381Y-50903333D02*
X88352381Y-51093810D01*
X88400000Y-51189048D01*
X88447619Y-51236667D01*
X88590476Y-51331905D01*
X88780952Y-51379524D01*
X89161905Y-51379524D01*
X89257143Y-51331905D01*
X89304762Y-51284286D01*
X89352381Y-51189048D01*
X89352381Y-50998571D01*
X89304762Y-50903333D01*
X89257143Y-50855714D01*
X89161905Y-50808095D01*
X88923810Y-50808095D01*
X88828571Y-50855714D01*
X88780952Y-50903333D01*
X88733333Y-50998571D01*
X88733333Y-51189048D01*
X88780952Y-51284286D01*
X88828571Y-51331905D01*
X88923810Y-51379524D01*
X91892381Y-52712857D02*
X91416190Y-53046191D01*
X91892381Y-53284286D02*
X90892381Y-53284286D01*
X90892381Y-52903333D01*
X90940000Y-52808095D01*
X90987619Y-52760476D01*
X91082857Y-52712857D01*
X91225714Y-52712857D01*
X91320952Y-52760476D01*
X91368571Y-52808095D01*
X91416190Y-52903333D01*
X91416190Y-53284286D01*
X91892381Y-51760476D02*
X91892381Y-52331905D01*
X91892381Y-52046191D02*
X90892381Y-52046191D01*
X91035238Y-52141429D01*
X91130476Y-52236667D01*
X91178095Y-52331905D01*
X90892381Y-51427143D02*
X90892381Y-50760476D01*
X91892381Y-51189048D01*
X94432381Y-52712857D02*
X93956190Y-53046191D01*
X94432381Y-53284286D02*
X93432381Y-53284286D01*
X93432381Y-52903333D01*
X93480000Y-52808095D01*
X93527619Y-52760476D01*
X93622857Y-52712857D01*
X93765714Y-52712857D01*
X93860952Y-52760476D01*
X93908571Y-52808095D01*
X93956190Y-52903333D01*
X93956190Y-53284286D01*
X94432381Y-51760476D02*
X94432381Y-52331905D01*
X94432381Y-52046191D02*
X93432381Y-52046191D01*
X93575238Y-52141429D01*
X93670476Y-52236667D01*
X93718095Y-52331905D01*
X93860952Y-51189048D02*
X93813333Y-51284286D01*
X93765714Y-51331905D01*
X93670476Y-51379524D01*
X93622857Y-51379524D01*
X93527619Y-51331905D01*
X93480000Y-51284286D01*
X93432381Y-51189048D01*
X93432381Y-50998571D01*
X93480000Y-50903333D01*
X93527619Y-50855714D01*
X93622857Y-50808095D01*
X93670476Y-50808095D01*
X93765714Y-50855714D01*
X93813333Y-50903333D01*
X93860952Y-50998571D01*
X93860952Y-51189048D01*
X93908571Y-51284286D01*
X93956190Y-51331905D01*
X94051429Y-51379524D01*
X94241905Y-51379524D01*
X94337143Y-51331905D01*
X94384762Y-51284286D01*
X94432381Y-51189048D01*
X94432381Y-50998571D01*
X94384762Y-50903333D01*
X94337143Y-50855714D01*
X94241905Y-50808095D01*
X94051429Y-50808095D01*
X93956190Y-50855714D01*
X93908571Y-50903333D01*
X93860952Y-50998571D01*
X40790905Y-83129381D02*
X40790905Y-82129381D01*
X41171858Y-82129381D01*
X41267096Y-82177000D01*
X41314715Y-82224619D01*
X41362334Y-82319857D01*
X41362334Y-82462714D01*
X41314715Y-82557952D01*
X41267096Y-82605571D01*
X41171858Y-82653190D01*
X40790905Y-82653190D01*
X41933762Y-82557952D02*
X41838524Y-82510333D01*
X41790905Y-82462714D01*
X41743286Y-82367476D01*
X41743286Y-82319857D01*
X41790905Y-82224619D01*
X41838524Y-82177000D01*
X41933762Y-82129381D01*
X42124239Y-82129381D01*
X42219477Y-82177000D01*
X42267096Y-82224619D01*
X42314715Y-82319857D01*
X42314715Y-82367476D01*
X42267096Y-82462714D01*
X42219477Y-82510333D01*
X42124239Y-82557952D01*
X41933762Y-82557952D01*
X41838524Y-82605571D01*
X41790905Y-82653190D01*
X41743286Y-82748429D01*
X41743286Y-82938905D01*
X41790905Y-83034143D01*
X41838524Y-83081762D01*
X41933762Y-83129381D01*
X42124239Y-83129381D01*
X42219477Y-83081762D01*
X42267096Y-83034143D01*
X42314715Y-82938905D01*
X42314715Y-82748429D01*
X42267096Y-82653190D01*
X42219477Y-82605571D01*
X42124239Y-82557952D01*
X67635381Y-54713095D02*
X66635381Y-54713095D01*
X66635381Y-54332142D01*
X66683000Y-54236904D01*
X66730619Y-54189285D01*
X66825857Y-54141666D01*
X66968714Y-54141666D01*
X67063952Y-54189285D01*
X67111571Y-54236904D01*
X67159190Y-54332142D01*
X67159190Y-54713095D01*
X67635381Y-53665476D02*
X67635381Y-53475000D01*
X67587762Y-53379761D01*
X67540143Y-53332142D01*
X67397286Y-53236904D01*
X67206810Y-53189285D01*
X66825857Y-53189285D01*
X66730619Y-53236904D01*
X66683000Y-53284523D01*
X66635381Y-53379761D01*
X66635381Y-53570238D01*
X66683000Y-53665476D01*
X66730619Y-53713095D01*
X66825857Y-53760714D01*
X67063952Y-53760714D01*
X67159190Y-53713095D01*
X67206810Y-53665476D01*
X67254429Y-53570238D01*
X67254429Y-53379761D01*
X67206810Y-53284523D01*
X67159190Y-53236904D01*
X67063952Y-53189285D01*
X44251714Y-83129381D02*
X44251714Y-82129381D01*
X44632667Y-82129381D01*
X44727905Y-82177000D01*
X44775524Y-82224619D01*
X44823143Y-82319857D01*
X44823143Y-82462714D01*
X44775524Y-82557952D01*
X44727905Y-82605571D01*
X44632667Y-82653190D01*
X44251714Y-82653190D01*
X45775524Y-83129381D02*
X45204095Y-83129381D01*
X45489809Y-83129381D02*
X45489809Y-82129381D01*
X45394571Y-82272238D01*
X45299333Y-82367476D01*
X45204095Y-82415095D01*
X46394571Y-82129381D02*
X46489810Y-82129381D01*
X46585048Y-82177000D01*
X46632667Y-82224619D01*
X46680286Y-82319857D01*
X46727905Y-82510333D01*
X46727905Y-82748429D01*
X46680286Y-82938905D01*
X46632667Y-83034143D01*
X46585048Y-83081762D01*
X46489810Y-83129381D01*
X46394571Y-83129381D01*
X46299333Y-83081762D01*
X46251714Y-83034143D01*
X46204095Y-82938905D01*
X46156476Y-82748429D01*
X46156476Y-82510333D01*
X46204095Y-82319857D01*
X46251714Y-82224619D01*
X46299333Y-82177000D01*
X46394571Y-82129381D01*
X67762381Y-51252286D02*
X66762381Y-51252286D01*
X66762381Y-50871333D01*
X66810000Y-50776095D01*
X66857619Y-50728476D01*
X66952857Y-50680857D01*
X67095714Y-50680857D01*
X67190952Y-50728476D01*
X67238571Y-50776095D01*
X67286190Y-50871333D01*
X67286190Y-51252286D01*
X67762381Y-49728476D02*
X67762381Y-50299905D01*
X67762381Y-50014191D02*
X66762381Y-50014191D01*
X66905238Y-50109429D01*
X67000476Y-50204667D01*
X67048095Y-50299905D01*
X67762381Y-48776095D02*
X67762381Y-49347524D01*
X67762381Y-49061810D02*
X66762381Y-49061810D01*
X66905238Y-49157048D01*
X67000476Y-49252286D01*
X67048095Y-49347524D01*
X52125714Y-55951381D02*
X52125714Y-54951381D01*
X52506667Y-54951381D01*
X52601905Y-54999000D01*
X52649524Y-55046619D01*
X52697143Y-55141857D01*
X52697143Y-55284714D01*
X52649524Y-55379952D01*
X52601905Y-55427571D01*
X52506667Y-55475190D01*
X52125714Y-55475190D01*
X53649524Y-55951381D02*
X53078095Y-55951381D01*
X53363809Y-55951381D02*
X53363809Y-54951381D01*
X53268571Y-55094238D01*
X53173333Y-55189476D01*
X53078095Y-55237095D01*
X54030476Y-55046619D02*
X54078095Y-54999000D01*
X54173333Y-54951381D01*
X54411429Y-54951381D01*
X54506667Y-54999000D01*
X54554286Y-55046619D01*
X54601905Y-55141857D01*
X54601905Y-55237095D01*
X54554286Y-55379952D01*
X53982857Y-55951381D01*
X54601905Y-55951381D01*
D12*
X50601714Y-54046381D02*
X50601714Y-53046381D01*
X50982667Y-53046381D01*
X51077905Y-53094000D01*
X51125524Y-53141619D01*
X51173143Y-53236857D01*
X51173143Y-53379714D01*
X51125524Y-53474952D01*
X51077905Y-53522571D01*
X50982667Y-53570190D01*
X50601714Y-53570190D01*
X52125524Y-54046381D02*
X51554095Y-54046381D01*
X51839809Y-54046381D02*
X51839809Y-53046381D01*
X51744571Y-53189238D01*
X51649333Y-53284476D01*
X51554095Y-53332095D01*
X52458857Y-53046381D02*
X53077905Y-53046381D01*
X52744571Y-53427333D01*
X52887429Y-53427333D01*
X52982667Y-53474952D01*
X53030286Y-53522571D01*
X53077905Y-53617810D01*
X53077905Y-53855905D01*
X53030286Y-53951143D01*
X52982667Y-53998762D01*
X52887429Y-54046381D01*
X52601714Y-54046381D01*
X52506476Y-53998762D01*
X52458857Y-53951143D01*
X48061714Y-54046381D02*
X48061714Y-53046381D01*
X48442667Y-53046381D01*
X48537905Y-53094000D01*
X48585524Y-53141619D01*
X48633143Y-53236857D01*
X48633143Y-53379714D01*
X48585524Y-53474952D01*
X48537905Y-53522571D01*
X48442667Y-53570190D01*
X48061714Y-53570190D01*
X49585524Y-54046381D02*
X49014095Y-54046381D01*
X49299809Y-54046381D02*
X49299809Y-53046381D01*
X49204571Y-53189238D01*
X49109333Y-53284476D01*
X49014095Y-53332095D01*
X50442667Y-53379714D02*
X50442667Y-54046381D01*
X50204571Y-52998762D02*
X49966476Y-53713048D01*
X50585524Y-53713048D01*
M02*
