G04 #@! TF.FileFunction,Copper,L1,Top,Signal*
%FSLAX46Y46*%
G04 Gerber Fmt 4.6, Leading zero omitted, Abs format (unit mm)*
G04 Created by KiCad (PCBNEW 0.201512281231+6406~40~ubuntu14.04.1-stable) date Son 03 Jan 2016 21:13:02 CET*
%MOMM*%
G01*
G04 APERTURE LIST*
%ADD10C,0.200000*%
%ADD11R,2.200000X1.000000*%
%ADD12R,1.500000X1.300000*%
%ADD13R,1.300000X1.500000*%
%ADD14R,1.727200X1.727200*%
%ADD15O,1.727200X1.727200*%
%ADD16R,0.797560X0.797560*%
%ADD17R,2.032000X2.032000*%
%ADD18O,2.032000X2.032000*%
%ADD19R,1.727200X2.032000*%
%ADD20O,1.727200X2.032000*%
%ADD21R,2.500000X2.000000*%
%ADD22R,1.200000X0.750000*%
%ADD23R,0.800000X1.100000*%
%ADD24C,3.500120*%
%ADD25C,1.998980*%
%ADD26R,2.032000X1.727200*%
%ADD27O,2.032000X1.727200*%
%ADD28R,2.032000X3.657600*%
%ADD29R,2.032000X1.016000*%
%ADD30R,3.657600X2.032000*%
%ADD31R,1.016000X2.032000*%
%ADD32R,1.422400X1.422400*%
%ADD33C,1.422400*%
%ADD34C,1.524000*%
%ADD35R,1.190000X3.300000*%
%ADD36R,1.600200X3.599180*%
%ADD37R,1.600200X2.999740*%
%ADD38C,0.600000*%
%ADD39C,1.000000*%
%ADD40C,1.000000*%
%ADD41C,0.500000*%
%ADD42C,0.350000*%
%ADD43C,0.254000*%
G04 APERTURE END LIST*
D10*
D11*
X47090000Y-62290000D03*
X47090000Y-64790000D03*
X47090000Y-67290000D03*
X47090000Y-69790000D03*
X59590000Y-69790000D03*
X59590000Y-67290000D03*
X59590000Y-64790000D03*
X59590000Y-62290000D03*
D12*
X58340000Y-84455000D03*
X61040000Y-84455000D03*
D13*
X65405000Y-84535000D03*
X65405000Y-81835000D03*
X62865000Y-78025000D03*
X62865000Y-80725000D03*
D12*
X51990000Y-73660000D03*
X54690000Y-73660000D03*
X58340000Y-82550000D03*
X61040000Y-82550000D03*
X46910000Y-73660000D03*
X49610000Y-73660000D03*
D14*
X46870000Y-39770000D03*
D15*
X46870000Y-37230000D03*
X49410000Y-39770000D03*
X49410000Y-37230000D03*
X51950000Y-39770000D03*
X51950000Y-37230000D03*
X54490000Y-39770000D03*
X54490000Y-37230000D03*
X57030000Y-39770000D03*
X57030000Y-37230000D03*
X59570000Y-39770000D03*
X59570000Y-37230000D03*
X62110000Y-39770000D03*
X62110000Y-37230000D03*
X64650000Y-39770000D03*
X64650000Y-37230000D03*
X67190000Y-39770000D03*
X67190000Y-37230000D03*
X69730000Y-39770000D03*
X69730000Y-37230000D03*
X72270000Y-39770000D03*
X72270000Y-37230000D03*
X74810000Y-39770000D03*
X74810000Y-37230000D03*
X77350000Y-39770000D03*
X77350000Y-37230000D03*
X79890000Y-39770000D03*
X79890000Y-37230000D03*
X82430000Y-39770000D03*
X82430000Y-37230000D03*
X84970000Y-39770000D03*
X84970000Y-37230000D03*
X87510000Y-39770000D03*
X87510000Y-37230000D03*
X90050000Y-39770000D03*
X90050000Y-37230000D03*
X92590000Y-39770000D03*
X92590000Y-37230000D03*
X95130000Y-39770000D03*
X95130000Y-37230000D03*
D16*
X64655700Y-55245000D03*
X66154300Y-55245000D03*
X64655700Y-53340000D03*
X66154300Y-53340000D03*
X64655700Y-51435000D03*
X66154300Y-51435000D03*
X87515700Y-61595000D03*
X89014300Y-61595000D03*
D12*
X44530000Y-73660000D03*
X41830000Y-73660000D03*
D13*
X85090000Y-45005000D03*
X85090000Y-47705000D03*
X88900000Y-45005000D03*
X88900000Y-47705000D03*
X90805000Y-45005000D03*
X90805000Y-47705000D03*
X92710000Y-45005000D03*
X92710000Y-47705000D03*
X94615000Y-60880000D03*
X94615000Y-63580000D03*
X92075000Y-63580000D03*
X92075000Y-60880000D03*
D12*
X82470000Y-57785000D03*
X85170000Y-57785000D03*
X85170000Y-61595000D03*
X82470000Y-61595000D03*
X85170000Y-65405000D03*
X82470000Y-65405000D03*
X85170000Y-63500000D03*
X82470000Y-63500000D03*
D17*
X67310000Y-60960000D03*
D18*
X64770000Y-60960000D03*
D19*
X53975000Y-47625000D03*
D20*
X51435000Y-47625000D03*
X48895000Y-47625000D03*
D21*
X59055000Y-76105000D03*
X59055000Y-80105000D03*
X46355000Y-76740000D03*
X46355000Y-80740000D03*
D22*
X100010000Y-73660000D03*
X98110000Y-73660000D03*
D23*
X58540000Y-73025000D03*
X60840000Y-73025000D03*
D16*
X64655700Y-57150000D03*
X66154300Y-57150000D03*
X87515700Y-65405000D03*
X89014300Y-65405000D03*
D19*
X71755000Y-66675000D03*
D20*
X74295000Y-66675000D03*
X76835000Y-66675000D03*
D17*
X67310000Y-64770000D03*
D18*
X64770000Y-64770000D03*
D17*
X76200000Y-62865000D03*
D18*
X78740000Y-62865000D03*
D24*
X100330000Y-77470000D03*
D25*
X92075000Y-57785000D03*
X88900000Y-57785000D03*
D26*
X41910000Y-45720000D03*
D27*
X41910000Y-48260000D03*
X41910000Y-50800000D03*
D19*
X64770000Y-47625000D03*
D20*
X62230000Y-47625000D03*
X59690000Y-47625000D03*
D19*
X75565000Y-43815000D03*
D20*
X73025000Y-43815000D03*
X70485000Y-43815000D03*
D17*
X99695000Y-44450000D03*
D18*
X97155000Y-44450000D03*
D17*
X55245000Y-43815000D03*
D18*
X52705000Y-43815000D03*
D17*
X78105000Y-47625000D03*
D18*
X75565000Y-47625000D03*
D28*
X70612000Y-73025000D03*
D29*
X64008000Y-73025000D03*
X64008000Y-75311000D03*
X64008000Y-70739000D03*
D30*
X52705000Y-83947000D03*
D31*
X52705000Y-77343000D03*
X50419000Y-77343000D03*
X54991000Y-77343000D03*
D12*
X85170000Y-59690000D03*
X82470000Y-59690000D03*
D13*
X81280000Y-47705000D03*
X81280000Y-45005000D03*
X83185000Y-47705000D03*
X83185000Y-45005000D03*
D32*
X57150000Y-86995000D03*
D33*
X64770000Y-86995000D03*
D34*
X65405000Y-78105000D03*
X64135000Y-67945000D03*
D24*
X41910000Y-77470000D03*
D35*
X73025000Y-79375000D03*
X70485000Y-85775000D03*
X67945000Y-79375000D03*
D36*
X49530000Y-57995820D03*
X49530000Y-52494180D03*
D37*
X56515000Y-58079640D03*
X56515000Y-53680360D03*
D38*
X72390000Y-46990000D03*
X71120000Y-46990000D03*
X73025000Y-46355000D03*
X71755000Y-46355000D03*
X70485000Y-46355000D03*
X86995000Y-45720000D03*
X86995000Y-44450000D03*
X86995000Y-51435000D03*
X85090000Y-51435000D03*
X83185000Y-51435000D03*
X73025000Y-77343000D03*
X88900000Y-59690000D03*
X57150000Y-80010000D03*
D39*
X55245000Y-53340000D03*
X47625000Y-52705000D03*
D38*
X66040000Y-80010000D03*
X45720000Y-69850000D03*
X45085000Y-69850000D03*
X44450000Y-69850000D03*
D39*
X47625000Y-57785000D03*
D38*
X44450000Y-43180000D03*
X57150000Y-84455000D03*
X81280000Y-51435000D03*
X86995000Y-57785000D03*
X81280000Y-48895000D03*
D39*
X55245000Y-58420000D03*
D38*
X62865000Y-57150000D03*
X81280000Y-43180000D03*
X83185000Y-43180000D03*
X67945000Y-76835000D03*
X81153000Y-57785000D03*
X71374000Y-59690000D03*
X62865000Y-83185000D03*
X68326000Y-49276000D03*
X66675000Y-50165000D03*
X56134000Y-77343000D03*
X62103000Y-56642000D03*
X59182000Y-57023000D03*
X73279000Y-60198000D03*
X62865000Y-55245000D03*
X62865000Y-53340000D03*
X62865000Y-51435000D03*
X73914000Y-62865000D03*
X62865000Y-84455000D03*
X59690000Y-81915000D03*
X66675000Y-84455000D03*
X76200000Y-50165000D03*
X74295000Y-54610000D03*
X73025000Y-53975000D03*
X69850000Y-53340000D03*
D40*
X73025000Y-77343000D02*
X73025000Y-79375000D01*
D41*
X98110000Y-73660000D02*
X93345000Y-73660000D01*
X92075000Y-72390000D02*
X92075000Y-63580000D01*
X93345000Y-73660000D02*
X92075000Y-72390000D01*
X88900000Y-59690000D02*
X89014300Y-59804300D01*
X89014300Y-59804300D02*
X89014300Y-61595000D01*
D42*
X92075000Y-63580000D02*
X88900000Y-63580000D01*
X88900000Y-63580000D02*
X88900000Y-63500000D01*
X89014300Y-65405000D02*
X89014300Y-64884300D01*
X89014300Y-64884300D02*
X88900000Y-64770000D01*
X88900000Y-64770000D02*
X88900000Y-63500000D01*
X88900000Y-63500000D02*
X88900000Y-62230000D01*
X88900000Y-62230000D02*
X89014300Y-62115700D01*
X89014300Y-62115700D02*
X89014300Y-61595000D01*
D41*
X57150000Y-80010000D02*
X57150000Y-80105000D01*
X66154300Y-51435000D02*
X66154300Y-50914300D01*
X66154300Y-50914300D02*
X65405000Y-50165000D01*
X65405000Y-50165000D02*
X56515000Y-50165000D01*
X66154300Y-53340000D02*
X66154300Y-51435000D01*
X66154300Y-55245000D02*
X66154300Y-53340000D01*
X66154300Y-57150000D02*
X66154300Y-55245000D01*
D40*
X56515000Y-50800000D02*
X51435000Y-50800000D01*
X51435000Y-50800000D02*
X49740820Y-52494180D01*
X49740820Y-52494180D02*
X49530000Y-52494180D01*
X57030000Y-39770000D02*
X57030000Y-41790000D01*
X57030000Y-41790000D02*
X57785000Y-42545000D01*
X57785000Y-42545000D02*
X57785000Y-45720000D01*
X57785000Y-45720000D02*
X56515000Y-46990000D01*
X56515000Y-46990000D02*
X56515000Y-50165000D01*
X56515000Y-50165000D02*
X56515000Y-50800000D01*
X56515000Y-50800000D02*
X56515000Y-53680360D01*
X49530000Y-52494180D02*
X49319180Y-52494180D01*
X49319180Y-52494180D02*
X47625000Y-50800000D01*
X47625000Y-50800000D02*
X45085000Y-48260000D01*
X45085000Y-48260000D02*
X41910000Y-48260000D01*
X56515000Y-53680360D02*
X55585360Y-53680360D01*
X55585360Y-53680360D02*
X55245000Y-53340000D01*
X49530000Y-52494180D02*
X47835820Y-52494180D01*
X47835820Y-52494180D02*
X47625000Y-52705000D01*
X57030000Y-39770000D02*
X57030000Y-40520000D01*
D41*
X65405000Y-80645000D02*
X65405000Y-81835000D01*
X66040000Y-80010000D02*
X65405000Y-80645000D01*
D40*
X62865000Y-80725000D02*
X61675000Y-80725000D01*
X61055000Y-80105000D02*
X59055000Y-80105000D01*
X61675000Y-80725000D02*
X61055000Y-80105000D01*
X65405000Y-81835000D02*
X65405000Y-81280000D01*
X65405000Y-81280000D02*
X64850000Y-80725000D01*
X64850000Y-80725000D02*
X62865000Y-80725000D01*
X65405000Y-81835000D02*
X73025000Y-81835000D01*
X73025000Y-81835000D02*
X73025000Y-81915000D01*
X70485000Y-85775000D02*
X72340000Y-85775000D01*
X73025000Y-85090000D02*
X73025000Y-81915000D01*
X73025000Y-81915000D02*
X73025000Y-79375000D01*
X72340000Y-85775000D02*
X73025000Y-85090000D01*
X59055000Y-80105000D02*
X57150000Y-80105000D01*
X57150000Y-80105000D02*
X51403000Y-80105000D01*
X51403000Y-80105000D02*
X50419000Y-79121000D01*
X46355000Y-80740000D02*
X48800000Y-80740000D01*
X50419000Y-79121000D02*
X50419000Y-77343000D01*
X48800000Y-80740000D02*
X50419000Y-79121000D01*
D42*
X51950000Y-37230000D02*
X52230000Y-37230000D01*
D41*
X59055000Y-76105000D02*
X59055000Y-74930000D01*
X58540000Y-74415000D02*
X58540000Y-73025000D01*
X59055000Y-74930000D02*
X58540000Y-74415000D01*
X54690000Y-73660000D02*
X55880000Y-73660000D01*
X56515000Y-73025000D02*
X58540000Y-73025000D01*
X55880000Y-73660000D02*
X56515000Y-73025000D01*
D40*
X47090000Y-62290000D02*
X45593000Y-60793000D01*
X45593000Y-60793000D02*
X45593000Y-57658000D01*
X44450000Y-69850000D02*
X45720000Y-69850000D01*
X45720000Y-69850000D02*
X47030000Y-69850000D01*
X47030000Y-69850000D02*
X47090000Y-69790000D01*
X45085000Y-69850000D02*
X44450000Y-69850000D01*
X41910000Y-50800000D02*
X44450000Y-50800000D01*
X45085000Y-57150000D02*
X45593000Y-57658000D01*
X45085000Y-51435000D02*
X45085000Y-57150000D01*
X44450000Y-50800000D02*
X45085000Y-51435000D01*
X45593000Y-57658000D02*
X45720000Y-57785000D01*
X45720000Y-57785000D02*
X47625000Y-57785000D01*
X49530000Y-57995820D02*
X47835820Y-57995820D01*
X47835820Y-57995820D02*
X47625000Y-57785000D01*
D41*
X46870000Y-37230000D02*
X45955000Y-37230000D01*
X45529500Y-42100500D02*
X44450000Y-43180000D01*
X45529500Y-37655500D02*
X45529500Y-42100500D01*
X45955000Y-37230000D02*
X45529500Y-37655500D01*
D40*
X40640000Y-50800000D02*
X40005000Y-50165000D01*
X40640000Y-50800000D02*
X41910000Y-50800000D01*
X41275000Y-43180000D02*
X44450000Y-43180000D01*
X40005000Y-44450000D02*
X41275000Y-43180000D01*
X40005000Y-50165000D02*
X40005000Y-44450000D01*
X49410000Y-37230000D02*
X46870000Y-37230000D01*
X47090000Y-69790000D02*
X47090000Y-67290000D01*
X47090000Y-67290000D02*
X47090000Y-64790000D01*
X47090000Y-64790000D02*
X47090000Y-62290000D01*
D41*
X57150000Y-84455000D02*
X58340000Y-84455000D01*
X100010000Y-73660000D02*
X100010000Y-65085000D01*
X98505000Y-63580000D02*
X94615000Y-63580000D01*
X100010000Y-65085000D02*
X98505000Y-63580000D01*
X100010000Y-73660000D02*
X100010000Y-74610000D01*
X100330000Y-74930000D02*
X100330000Y-77470000D01*
X100010000Y-74610000D02*
X100330000Y-74930000D01*
X100330000Y-73980000D02*
X100010000Y-73660000D01*
D40*
X56515000Y-58079640D02*
X61889640Y-58079640D01*
X61889640Y-58079640D02*
X62865000Y-59055000D01*
X62865000Y-59055000D02*
X67945000Y-59055000D01*
X67945000Y-59055000D02*
X68580000Y-58420000D01*
X68580000Y-58420000D02*
X68580000Y-52705000D01*
X68580000Y-52705000D02*
X69850000Y-51435000D01*
X69850000Y-51435000D02*
X81280000Y-51435000D01*
D42*
X85170000Y-57785000D02*
X86995000Y-57785000D01*
D41*
X81280000Y-48895000D02*
X81280000Y-47705000D01*
X81280000Y-47705000D02*
X83185000Y-47705000D01*
D40*
X56515000Y-58079640D02*
X55585360Y-58079640D01*
X55585360Y-58079640D02*
X55245000Y-58420000D01*
X41910000Y-45720000D02*
X45085000Y-45720000D01*
X46870000Y-43935000D02*
X46870000Y-39770000D01*
X45085000Y-45720000D02*
X46870000Y-43935000D01*
D42*
X64655700Y-57150000D02*
X62865000Y-57150000D01*
X81280000Y-45005000D02*
X81280000Y-43180000D01*
X81280000Y-43180000D02*
X79890000Y-41790000D01*
X79890000Y-41790000D02*
X79890000Y-39770000D01*
X83185000Y-45005000D02*
X83185000Y-43180000D01*
X83185000Y-43180000D02*
X81153000Y-41148000D01*
X81153000Y-41148000D02*
X81153000Y-38493000D01*
X81153000Y-38493000D02*
X79890000Y-37230000D01*
D41*
X64008000Y-75311000D02*
X66421000Y-75311000D01*
X66421000Y-75311000D02*
X67945000Y-76835000D01*
X67945000Y-79375000D02*
X67945000Y-76835000D01*
X64008000Y-75311000D02*
X63754000Y-75311000D01*
X63754000Y-75311000D02*
X62865000Y-76200000D01*
X62865000Y-76200000D02*
X62865000Y-78025000D01*
D42*
X82470000Y-57785000D02*
X82470000Y-57230000D01*
X82470000Y-57230000D02*
X83185000Y-56515000D01*
X83185000Y-56515000D02*
X87630000Y-56515000D01*
X87630000Y-56515000D02*
X88900000Y-57785000D01*
X81153000Y-57785000D02*
X82470000Y-57785000D01*
X82470000Y-63500000D02*
X82470000Y-61595000D01*
X82470000Y-61595000D02*
X81661000Y-61595000D01*
X81661000Y-61595000D02*
X80306002Y-60240002D01*
X80306002Y-60240002D02*
X74379998Y-60240002D01*
X74379998Y-60240002D02*
X73660000Y-60960000D01*
X73660000Y-60960000D02*
X72644000Y-60960000D01*
X72644000Y-60960000D02*
X71374000Y-59690000D01*
D41*
X62230000Y-82550000D02*
X61040000Y-82550000D01*
X62865000Y-83185000D02*
X62230000Y-82550000D01*
X60840000Y-73025000D02*
X64008000Y-73025000D01*
X59590000Y-62290000D02*
X59590000Y-64790000D01*
X59590000Y-64790000D02*
X59590000Y-67290000D01*
X59590000Y-67290000D02*
X59590000Y-69790000D01*
X59590000Y-69790000D02*
X60325000Y-70525000D01*
X60325000Y-70525000D02*
X60325000Y-72510000D01*
X60325000Y-72510000D02*
X60840000Y-73025000D01*
D42*
X68326000Y-49276000D02*
X68199000Y-49276000D01*
X67310000Y-50165000D02*
X68199000Y-49276000D01*
X67056000Y-50165000D02*
X67310000Y-50165000D01*
X66675000Y-50165000D02*
X67056000Y-50165000D01*
X56134000Y-77343000D02*
X54991000Y-77343000D01*
X61722000Y-57023000D02*
X62103000Y-56642000D01*
X61214000Y-57023000D02*
X61722000Y-57023000D01*
X59182000Y-57023000D02*
X61214000Y-57023000D01*
X85090000Y-45005000D02*
X85090000Y-43180000D01*
X85090000Y-43180000D02*
X83693000Y-41783000D01*
X83693000Y-41783000D02*
X83693000Y-38507000D01*
X83693000Y-38507000D02*
X84970000Y-37230000D01*
X82470000Y-65405000D02*
X83185000Y-65405000D01*
X83185000Y-65405000D02*
X83820000Y-64770000D01*
X83820000Y-64770000D02*
X83820000Y-60071000D01*
X83820000Y-60071000D02*
X83439000Y-59690000D01*
X83439000Y-59690000D02*
X82470000Y-59690000D01*
X82470000Y-59690000D02*
X73787000Y-59690000D01*
X73787000Y-59690000D02*
X73279000Y-60198000D01*
X62865000Y-55245000D02*
X64655700Y-55245000D01*
X64655700Y-53340000D02*
X62865000Y-53340000D01*
X62865000Y-51435000D02*
X64655700Y-51435000D01*
X85170000Y-61595000D02*
X87515700Y-61595000D01*
X88900000Y-45005000D02*
X88900000Y-41910000D01*
X88900000Y-41910000D02*
X88773000Y-41783000D01*
X88773000Y-41783000D02*
X88773000Y-38507000D01*
X88773000Y-38507000D02*
X90050000Y-37230000D01*
X90805000Y-45005000D02*
X90805000Y-41846500D01*
X90805000Y-41846500D02*
X91313000Y-41338500D01*
X91313000Y-41338500D02*
X91313000Y-38507000D01*
X91313000Y-38507000D02*
X92590000Y-37230000D01*
X92710000Y-45005000D02*
X92710000Y-41846500D01*
X92710000Y-41846500D02*
X93853000Y-40703500D01*
X93853000Y-40703500D02*
X93853000Y-38507000D01*
X93853000Y-38507000D02*
X95130000Y-37230000D01*
X73914000Y-62865000D02*
X76200000Y-62865000D01*
X76835000Y-62357000D02*
X76835000Y-62865000D01*
X53975000Y-47625000D02*
X53975000Y-46355000D01*
X54490000Y-41395000D02*
X54490000Y-39770000D01*
X53975000Y-41910000D02*
X54490000Y-41395000D01*
X52070000Y-41910000D02*
X53975000Y-41910000D01*
X51435000Y-42545000D02*
X52070000Y-41910000D01*
X51435000Y-45085000D02*
X51435000Y-42545000D01*
X52070000Y-45720000D02*
X51435000Y-45085000D01*
X53340000Y-45720000D02*
X52070000Y-45720000D01*
X53975000Y-46355000D02*
X53340000Y-45720000D01*
X55245000Y-43815000D02*
X55245000Y-41719500D01*
X55753000Y-38493000D02*
X54490000Y-37230000D01*
X55753000Y-41211500D02*
X55753000Y-38493000D01*
X55245000Y-41719500D02*
X55753000Y-41211500D01*
X77470000Y-45085000D02*
X77470000Y-42545000D01*
X77470000Y-42545000D02*
X76073000Y-41148000D01*
X76073000Y-41148000D02*
X76073000Y-38507000D01*
X75565000Y-47625000D02*
X75565000Y-46990000D01*
X75565000Y-46990000D02*
X77470000Y-45085000D01*
X76073000Y-38507000D02*
X77350000Y-37230000D01*
X59690000Y-47625000D02*
X59690000Y-41910000D01*
X59570000Y-41790000D02*
X59570000Y-39770000D01*
X59690000Y-41910000D02*
X59570000Y-41790000D01*
X62230000Y-47625000D02*
X62230000Y-41910000D01*
X62110000Y-41790000D02*
X62110000Y-39770000D01*
X62230000Y-41910000D02*
X62110000Y-41790000D01*
X64770000Y-47625000D02*
X64770000Y-41910000D01*
X64650000Y-41790000D02*
X64650000Y-39770000D01*
X64770000Y-41910000D02*
X64650000Y-41790000D01*
D41*
X46355000Y-76740000D02*
X46355000Y-75565000D01*
X46910000Y-75010000D02*
X46910000Y-73660000D01*
X46355000Y-75565000D02*
X46910000Y-75010000D01*
X44530000Y-73660000D02*
X46910000Y-73660000D01*
D42*
X85170000Y-65405000D02*
X87515700Y-65405000D01*
D41*
X62865000Y-84455000D02*
X61040000Y-84455000D01*
X64770000Y-64770000D02*
X64770000Y-60960000D01*
X64135000Y-67945000D02*
X64135000Y-67310000D01*
X64135000Y-67310000D02*
X64770000Y-66675000D01*
X64770000Y-66675000D02*
X64770000Y-64770000D01*
X64008000Y-70739000D02*
X64008000Y-69342000D01*
X64135000Y-69215000D02*
X64135000Y-67945000D01*
X64008000Y-69342000D02*
X64135000Y-69215000D01*
X58340000Y-82550000D02*
X59690000Y-82550000D01*
X59690000Y-82550000D02*
X59690000Y-81915000D01*
X41910000Y-77470000D02*
X41910000Y-75565000D01*
X41830000Y-75485000D02*
X41830000Y-73660000D01*
X41910000Y-75565000D02*
X41830000Y-75485000D01*
D42*
X92075000Y-60880000D02*
X92075000Y-57785000D01*
X92075000Y-60880000D02*
X94615000Y-60880000D01*
D41*
X52705000Y-77343000D02*
X52705000Y-76200000D01*
X51990000Y-75485000D02*
X51990000Y-73660000D01*
X52705000Y-76200000D02*
X51990000Y-75485000D01*
X49610000Y-73660000D02*
X51990000Y-73660000D01*
X66595000Y-84535000D02*
X65405000Y-84535000D01*
X66675000Y-84455000D02*
X66595000Y-84535000D01*
D42*
X76200000Y-50165000D02*
X83820000Y-50165000D01*
X83820000Y-50165000D02*
X85090000Y-48895000D01*
X85090000Y-48895000D02*
X85090000Y-47705000D01*
X88900000Y-47705000D02*
X88900000Y-53975000D01*
X88900000Y-53975000D02*
X88265000Y-54610000D01*
X88265000Y-54610000D02*
X74295000Y-54610000D01*
X73025000Y-53975000D02*
X73025000Y-54610000D01*
X73025000Y-54610000D02*
X73025000Y-55245000D01*
X73025000Y-55245000D02*
X73660000Y-55880000D01*
X73660000Y-55880000D02*
X74295000Y-55880000D01*
X74295000Y-55880000D02*
X74930000Y-55245000D01*
X74930000Y-55245000D02*
X89535000Y-55245000D01*
X89535000Y-55245000D02*
X90805000Y-53975000D01*
X90805000Y-53975000D02*
X90805000Y-47705000D01*
X92710000Y-47705000D02*
X92710000Y-54610000D01*
X92710000Y-54610000D02*
X91440000Y-55880000D01*
X91440000Y-55880000D02*
X75565000Y-55880000D01*
X75565000Y-55880000D02*
X74930000Y-56515000D01*
X74930000Y-56515000D02*
X73025000Y-56515000D01*
X73025000Y-56515000D02*
X69850000Y-53340000D01*
D43*
G36*
X97028000Y-37242536D02*
X96773561Y-37855294D01*
X96772441Y-39139074D01*
X97028000Y-39757575D01*
X97028000Y-41910000D01*
X97038006Y-41959410D01*
X97066447Y-42001035D01*
X97108841Y-42028315D01*
X97155000Y-42037000D01*
X102743000Y-42037000D01*
X102743000Y-84328000D01*
X100775810Y-84328000D01*
X100644706Y-84273561D01*
X99360926Y-84272441D01*
X99226463Y-84328000D01*
X96520000Y-84328000D01*
X96470590Y-84338006D01*
X96428965Y-84366447D01*
X96401685Y-84408841D01*
X96393000Y-84455000D01*
X96393000Y-90323000D01*
X45212000Y-90323000D01*
X45212000Y-88179479D01*
X45226439Y-88144706D01*
X45227559Y-86860926D01*
X45212000Y-86823270D01*
X45212000Y-84455000D01*
X45201994Y-84405590D01*
X45173553Y-84363965D01*
X45131159Y-84336685D01*
X45085000Y-84328000D01*
X42775810Y-84328000D01*
X42644706Y-84273561D01*
X41360926Y-84272441D01*
X41226463Y-84328000D01*
X39177000Y-84328000D01*
X39177000Y-81025750D01*
X44470000Y-81025750D01*
X44470000Y-81866309D01*
X44566673Y-82099698D01*
X44745301Y-82278327D01*
X44978690Y-82375000D01*
X46069250Y-82375000D01*
X46228000Y-82216250D01*
X46228000Y-80867000D01*
X46482000Y-80867000D01*
X46482000Y-82216250D01*
X46640750Y-82375000D01*
X47731310Y-82375000D01*
X47964699Y-82278327D01*
X48143327Y-82099698D01*
X48240000Y-81866309D01*
X48240000Y-81025750D01*
X48081250Y-80867000D01*
X46482000Y-80867000D01*
X46228000Y-80867000D01*
X44628750Y-80867000D01*
X44470000Y-81025750D01*
X39177000Y-81025750D01*
X39177000Y-72566680D01*
X39213841Y-72381468D01*
X39280983Y-72280983D01*
X39381468Y-72213841D01*
X39566679Y-72177000D01*
X40038394Y-72177000D01*
X39915197Y-72300197D01*
X39888006Y-72340590D01*
X39878000Y-72390000D01*
X39878000Y-75512394D01*
X39280197Y-76110197D01*
X39253006Y-76150590D01*
X39243000Y-76200000D01*
X39243000Y-78740000D01*
X39252334Y-78787789D01*
X39280197Y-78829803D01*
X40550197Y-80099803D01*
X40590590Y-80126994D01*
X40640000Y-80137000D01*
X43180000Y-80137000D01*
X43227789Y-80127666D01*
X43269803Y-80099803D01*
X43867606Y-79502000D01*
X44516264Y-79502000D01*
X44470000Y-79613691D01*
X44470000Y-80454250D01*
X44628750Y-80613000D01*
X46228000Y-80613000D01*
X46228000Y-80593000D01*
X46482000Y-80593000D01*
X46482000Y-80613000D01*
X48081250Y-80613000D01*
X48240000Y-80454250D01*
X48240000Y-79613691D01*
X48193736Y-79502000D01*
X48207394Y-79502000D01*
X48768000Y-80062606D01*
X48768000Y-85090000D01*
X48777334Y-85137789D01*
X48805197Y-85179803D01*
X50075197Y-86449803D01*
X50115590Y-86476994D01*
X50165000Y-86487000D01*
X54610000Y-86487000D01*
X54657789Y-86477666D01*
X54699803Y-86449803D01*
X54865806Y-86283800D01*
X55799517Y-86283800D01*
X55799517Y-87706200D01*
X55843237Y-87938552D01*
X55980557Y-88151953D01*
X56190083Y-88295117D01*
X56438800Y-88345483D01*
X57861200Y-88345483D01*
X58093552Y-88301763D01*
X58306953Y-88164443D01*
X58450117Y-87954917D01*
X58500483Y-87706200D01*
X58500483Y-87260017D01*
X63431568Y-87260017D01*
X63634868Y-87752039D01*
X64010981Y-88128809D01*
X64502648Y-88332967D01*
X65035017Y-88333432D01*
X65527039Y-88130132D01*
X65903809Y-87754019D01*
X66107967Y-87262352D01*
X66108432Y-86729983D01*
X65905132Y-86237961D01*
X65728231Y-86060750D01*
X69255000Y-86060750D01*
X69255000Y-87551310D01*
X69351673Y-87784699D01*
X69530302Y-87963327D01*
X69763691Y-88060000D01*
X70199250Y-88060000D01*
X70358000Y-87901250D01*
X70358000Y-85902000D01*
X70612000Y-85902000D01*
X70612000Y-87901250D01*
X70770750Y-88060000D01*
X71206309Y-88060000D01*
X71439698Y-87963327D01*
X71618327Y-87784699D01*
X71715000Y-87551310D01*
X71715000Y-86060750D01*
X71556250Y-85902000D01*
X70612000Y-85902000D01*
X70358000Y-85902000D01*
X69413750Y-85902000D01*
X69255000Y-86060750D01*
X65728231Y-86060750D01*
X65592001Y-85924283D01*
X66055000Y-85924283D01*
X66287352Y-85880563D01*
X66500753Y-85743243D01*
X66643917Y-85533717D01*
X66671653Y-85396753D01*
X66745506Y-85382062D01*
X66858583Y-85382161D01*
X67199417Y-85241331D01*
X67460414Y-84980789D01*
X67601839Y-84640201D01*
X67602161Y-84271417D01*
X67489473Y-83998690D01*
X69255000Y-83998690D01*
X69255000Y-85489250D01*
X69413750Y-85648000D01*
X70358000Y-85648000D01*
X70358000Y-83648750D01*
X70612000Y-83648750D01*
X70612000Y-85648000D01*
X71556250Y-85648000D01*
X71715000Y-85489250D01*
X71715000Y-83998690D01*
X71618327Y-83765301D01*
X71439698Y-83586673D01*
X71206309Y-83490000D01*
X70770750Y-83490000D01*
X70612000Y-83648750D01*
X70358000Y-83648750D01*
X70199250Y-83490000D01*
X69763691Y-83490000D01*
X69530302Y-83586673D01*
X69351673Y-83765301D01*
X69255000Y-83998690D01*
X67489473Y-83998690D01*
X67461331Y-83930583D01*
X67200789Y-83669586D01*
X66860201Y-83528161D01*
X66634679Y-83527964D01*
X66513243Y-83339247D01*
X66303717Y-83196083D01*
X66260284Y-83187288D01*
X66414699Y-83123327D01*
X66593327Y-82944698D01*
X66690000Y-82711309D01*
X66690000Y-82120750D01*
X66531250Y-81962000D01*
X65532000Y-81962000D01*
X65532000Y-81982000D01*
X65278000Y-81982000D01*
X65278000Y-81962000D01*
X64278750Y-81962000D01*
X64120000Y-82120750D01*
X64120000Y-82711309D01*
X64216673Y-82944698D01*
X64395301Y-83123327D01*
X64544829Y-83185263D01*
X64522648Y-83189437D01*
X64309247Y-83326757D01*
X64166083Y-83536283D01*
X64115717Y-83785000D01*
X64115717Y-85285000D01*
X64159437Y-85517352D01*
X64296757Y-85730753D01*
X64307567Y-85738139D01*
X64012961Y-85859868D01*
X63636191Y-86235981D01*
X63432033Y-86727648D01*
X63431568Y-87260017D01*
X58500483Y-87260017D01*
X58500483Y-86283800D01*
X58456763Y-86051448D01*
X58319443Y-85838047D01*
X58182216Y-85744283D01*
X59090000Y-85744283D01*
X59322352Y-85700563D01*
X59535753Y-85563243D01*
X59678917Y-85353717D01*
X59688558Y-85306108D01*
X59694437Y-85337352D01*
X59831757Y-85550753D01*
X60041283Y-85693917D01*
X60290000Y-85744283D01*
X61790000Y-85744283D01*
X62022352Y-85700563D01*
X62235753Y-85563243D01*
X62378917Y-85353717D01*
X62383315Y-85332000D01*
X62559774Y-85332000D01*
X62679799Y-85381839D01*
X63048583Y-85382161D01*
X63389417Y-85241331D01*
X63650414Y-84980789D01*
X63791839Y-84640201D01*
X63792161Y-84271417D01*
X63651331Y-83930583D01*
X63540976Y-83820036D01*
X63650414Y-83710789D01*
X63791839Y-83370201D01*
X63792161Y-83001417D01*
X63651331Y-82660583D01*
X63390789Y-82399586D01*
X63269479Y-82349213D01*
X62992002Y-82071736D01*
X62992002Y-81951252D01*
X63150750Y-82110000D01*
X63641310Y-82110000D01*
X63874699Y-82013327D01*
X64053327Y-81834698D01*
X64150000Y-81601309D01*
X64150000Y-81579250D01*
X64278750Y-81708000D01*
X65278000Y-81708000D01*
X65278000Y-80608750D01*
X65532000Y-80608750D01*
X65532000Y-81708000D01*
X66531250Y-81708000D01*
X66690000Y-81549250D01*
X66690000Y-80958691D01*
X66593327Y-80725302D01*
X66414699Y-80546673D01*
X66181310Y-80450000D01*
X65690750Y-80450000D01*
X65532000Y-80608750D01*
X65278000Y-80608750D01*
X65119250Y-80450000D01*
X64628690Y-80450000D01*
X64395301Y-80546673D01*
X64216673Y-80725302D01*
X64120000Y-80958691D01*
X64120000Y-80980750D01*
X63991250Y-80852000D01*
X62992000Y-80852000D01*
X62992000Y-80872000D01*
X62738000Y-80872000D01*
X62738000Y-80852000D01*
X61738750Y-80852000D01*
X61580000Y-81010750D01*
X61580000Y-81260717D01*
X60927819Y-81260717D01*
X60940000Y-81231309D01*
X60940000Y-80390750D01*
X60781250Y-80232000D01*
X59182000Y-80232000D01*
X59182000Y-80252000D01*
X58928000Y-80252000D01*
X58928000Y-80232000D01*
X57328750Y-80232000D01*
X57170000Y-80390750D01*
X57170000Y-81231309D01*
X57233406Y-81384385D01*
X57144247Y-81441757D01*
X57001083Y-81651283D01*
X56950717Y-81900000D01*
X56950717Y-83200000D01*
X56994437Y-83432352D01*
X57038730Y-83501185D01*
X57020486Y-83527886D01*
X56966417Y-83527839D01*
X56625583Y-83668669D01*
X56364586Y-83929211D01*
X56223161Y-84269799D01*
X56222839Y-84638583D01*
X56363669Y-84979417D01*
X56624211Y-85240414D01*
X56964799Y-85381839D01*
X57023096Y-85381890D01*
X57131757Y-85550753D01*
X57268984Y-85644517D01*
X56438800Y-85644517D01*
X56206448Y-85688237D01*
X55993047Y-85825557D01*
X55849883Y-86035083D01*
X55799517Y-86283800D01*
X54865806Y-86283800D01*
X55969803Y-85179803D01*
X55996994Y-85139410D01*
X56007000Y-85090000D01*
X56007000Y-79427606D01*
X56567606Y-78867000D01*
X57216264Y-78867000D01*
X57170000Y-78978691D01*
X57170000Y-79819250D01*
X57328750Y-79978000D01*
X58928000Y-79978000D01*
X58928000Y-79958000D01*
X59182000Y-79958000D01*
X59182000Y-79978000D01*
X60781250Y-79978000D01*
X60940000Y-79819250D01*
X60940000Y-78978691D01*
X60893736Y-78867000D01*
X60960000Y-78867000D01*
X61007789Y-78857666D01*
X61049803Y-78829803D01*
X61575717Y-78303889D01*
X61575717Y-78775000D01*
X61619437Y-79007352D01*
X61756757Y-79220753D01*
X61966283Y-79363917D01*
X62009716Y-79372712D01*
X61855301Y-79436673D01*
X61676673Y-79615302D01*
X61580000Y-79848691D01*
X61580000Y-80439250D01*
X61738750Y-80598000D01*
X62738000Y-80598000D01*
X62738000Y-80578000D01*
X62992000Y-80578000D01*
X62992000Y-80598000D01*
X63991250Y-80598000D01*
X64150000Y-80439250D01*
X64150000Y-79848691D01*
X64053327Y-79615302D01*
X63874699Y-79436673D01*
X63725171Y-79374737D01*
X63747352Y-79370563D01*
X63960753Y-79233243D01*
X64103917Y-79023717D01*
X64154283Y-78775000D01*
X64154283Y-78715328D01*
X64226777Y-78890777D01*
X64617167Y-79281850D01*
X65127499Y-79493758D01*
X65680077Y-79494240D01*
X66190777Y-79283223D01*
X66581850Y-78892833D01*
X66710717Y-78582486D01*
X66710717Y-81025000D01*
X66754437Y-81257352D01*
X66891757Y-81470753D01*
X67101283Y-81613917D01*
X67350000Y-81664283D01*
X68540000Y-81664283D01*
X68772352Y-81620563D01*
X68985753Y-81483243D01*
X69128917Y-81273717D01*
X69179283Y-81025000D01*
X69179283Y-79660750D01*
X71795000Y-79660750D01*
X71795000Y-81151310D01*
X71891673Y-81384699D01*
X72070302Y-81563327D01*
X72303691Y-81660000D01*
X72739250Y-81660000D01*
X72898000Y-81501250D01*
X72898000Y-79502000D01*
X73152000Y-79502000D01*
X73152000Y-81501250D01*
X73310750Y-81660000D01*
X73746309Y-81660000D01*
X73979698Y-81563327D01*
X74158327Y-81384699D01*
X74255000Y-81151310D01*
X74255000Y-79660750D01*
X74096250Y-79502000D01*
X73152000Y-79502000D01*
X72898000Y-79502000D01*
X71953750Y-79502000D01*
X71795000Y-79660750D01*
X69179283Y-79660750D01*
X69179283Y-77725000D01*
X69155517Y-77598690D01*
X71795000Y-77598690D01*
X71795000Y-79089250D01*
X71953750Y-79248000D01*
X72898000Y-79248000D01*
X72898000Y-77248750D01*
X73152000Y-77248750D01*
X73152000Y-79248000D01*
X74096250Y-79248000D01*
X74255000Y-79089250D01*
X74255000Y-77598690D01*
X74158327Y-77365301D01*
X73979698Y-77186673D01*
X73746309Y-77090000D01*
X73310750Y-77090000D01*
X73152000Y-77248750D01*
X72898000Y-77248750D01*
X72739250Y-77090000D01*
X72303691Y-77090000D01*
X72070302Y-77186673D01*
X71891673Y-77365301D01*
X71795000Y-77598690D01*
X69155517Y-77598690D01*
X69135563Y-77492648D01*
X68998243Y-77279247D01*
X68822000Y-77158824D01*
X68822000Y-77140226D01*
X68871839Y-77020201D01*
X68872161Y-76651417D01*
X68731331Y-76310583D01*
X68470789Y-76049586D01*
X68349478Y-75999213D01*
X67041133Y-74690867D01*
X66756613Y-74500758D01*
X66421000Y-74434000D01*
X65531632Y-74434000D01*
X65523910Y-74422000D01*
X67892394Y-74422000D01*
X69760197Y-76289803D01*
X69800590Y-76316994D01*
X69850000Y-76327000D01*
X72390000Y-76327000D01*
X72437789Y-76317666D01*
X72479803Y-76289803D01*
X73114803Y-75654803D01*
X73141994Y-75614410D01*
X73152000Y-75565000D01*
X73152000Y-72000000D01*
X81823000Y-72000000D01*
X81823000Y-87000000D01*
X81836008Y-87065396D01*
X81836008Y-87132076D01*
X81912128Y-87514758D01*
X81957985Y-87625466D01*
X82013215Y-87758804D01*
X82229988Y-88083228D01*
X82416772Y-88270012D01*
X82741196Y-88486785D01*
X82985241Y-88587872D01*
X83367924Y-88663992D01*
X83632076Y-88663992D01*
X84014758Y-88587872D01*
X84258804Y-88486785D01*
X84583228Y-88270012D01*
X84770012Y-88083228D01*
X84986785Y-87758804D01*
X85020669Y-87677000D01*
X85087872Y-87514759D01*
X85163992Y-87132076D01*
X85163992Y-87065396D01*
X85177000Y-87000000D01*
X85177000Y-73945750D01*
X96875000Y-73945750D01*
X96875000Y-74161310D01*
X96971673Y-74394699D01*
X97150302Y-74573327D01*
X97383691Y-74670000D01*
X97824250Y-74670000D01*
X97983000Y-74511250D01*
X97983000Y-73787000D01*
X97033750Y-73787000D01*
X96875000Y-73945750D01*
X85177000Y-73945750D01*
X85177000Y-73158690D01*
X96875000Y-73158690D01*
X96875000Y-73374250D01*
X97033750Y-73533000D01*
X97983000Y-73533000D01*
X97983000Y-72808750D01*
X97824250Y-72650000D01*
X97383691Y-72650000D01*
X97150302Y-72746673D01*
X96971673Y-72925301D01*
X96875000Y-73158690D01*
X85177000Y-73158690D01*
X85177000Y-72000000D01*
X85163992Y-71934604D01*
X85163992Y-71867924D01*
X85087872Y-71485241D01*
X84986785Y-71241196D01*
X84770012Y-70916772D01*
X84583228Y-70729988D01*
X84258804Y-70513215D01*
X84014758Y-70412128D01*
X83632076Y-70336008D01*
X83500000Y-70336008D01*
X82985241Y-70412128D01*
X82773100Y-70500000D01*
X82741196Y-70513215D01*
X82416772Y-70729988D01*
X82229988Y-70916772D01*
X82013215Y-71241196D01*
X81912128Y-71485242D01*
X81836008Y-71867924D01*
X81836008Y-71934604D01*
X81823000Y-72000000D01*
X73152000Y-72000000D01*
X73152000Y-70485000D01*
X73142666Y-70437211D01*
X73114803Y-70395197D01*
X72479803Y-69760197D01*
X72439410Y-69733006D01*
X72390000Y-69723000D01*
X69850000Y-69723000D01*
X69802211Y-69732334D01*
X69760197Y-69760197D01*
X67892394Y-71628000D01*
X65522531Y-71628000D01*
X65612917Y-71495717D01*
X65663283Y-71247000D01*
X65663283Y-70231000D01*
X65619563Y-69998648D01*
X65482243Y-69785247D01*
X65272717Y-69642083D01*
X65024000Y-69591717D01*
X64917777Y-69591717D01*
X64945242Y-69550613D01*
X65012000Y-69215000D01*
X65012000Y-69032159D01*
X65311850Y-68732833D01*
X65523758Y-68222501D01*
X65524240Y-67669923D01*
X65375447Y-67309818D01*
X65390130Y-67295135D01*
X65390133Y-67295133D01*
X65580242Y-67010613D01*
X65610283Y-66859588D01*
X65647001Y-66675000D01*
X65647000Y-66674995D01*
X65647000Y-66154246D01*
X65744123Y-66089350D01*
X65835757Y-66231753D01*
X66045283Y-66374917D01*
X66294000Y-66425283D01*
X68326000Y-66425283D01*
X68558352Y-66381563D01*
X68771753Y-66244243D01*
X68914917Y-66034717D01*
X68965283Y-65786000D01*
X68965283Y-65659000D01*
X70252117Y-65659000D01*
X70252117Y-67691000D01*
X70295837Y-67923352D01*
X70433157Y-68136753D01*
X70642683Y-68279917D01*
X70891400Y-68330283D01*
X72618600Y-68330283D01*
X72850952Y-68286563D01*
X73064353Y-68149243D01*
X73207517Y-67939717D01*
X73219360Y-67881234D01*
X73240987Y-67913601D01*
X73724572Y-68236723D01*
X74295000Y-68350188D01*
X74865428Y-68236723D01*
X75349013Y-67913601D01*
X75565000Y-67590354D01*
X75780987Y-67913601D01*
X76264572Y-68236723D01*
X76835000Y-68350188D01*
X77405428Y-68236723D01*
X77889013Y-67913601D01*
X78212135Y-67430016D01*
X78325600Y-66859588D01*
X78325600Y-66490412D01*
X78212135Y-65919984D01*
X77889013Y-65436399D01*
X77405428Y-65113277D01*
X76835000Y-64999812D01*
X76264572Y-65113277D01*
X75780987Y-65436399D01*
X75565000Y-65759646D01*
X75349013Y-65436399D01*
X74865428Y-65113277D01*
X74295000Y-64999812D01*
X73724572Y-65113277D01*
X73240987Y-65436399D01*
X73221489Y-65465580D01*
X73214163Y-65426648D01*
X73076843Y-65213247D01*
X72867317Y-65070083D01*
X72618600Y-65019717D01*
X70891400Y-65019717D01*
X70659048Y-65063437D01*
X70445647Y-65200757D01*
X70302483Y-65410283D01*
X70252117Y-65659000D01*
X68965283Y-65659000D01*
X68965283Y-63754000D01*
X68921563Y-63521648D01*
X68784243Y-63308247D01*
X68574717Y-63165083D01*
X68326000Y-63114717D01*
X66294000Y-63114717D01*
X66061648Y-63158437D01*
X65848247Y-63295757D01*
X65742949Y-63449865D01*
X65647000Y-63385754D01*
X65647000Y-63048583D01*
X72986839Y-63048583D01*
X73127669Y-63389417D01*
X73388211Y-63650414D01*
X73728799Y-63791839D01*
X74097583Y-63792161D01*
X74400495Y-63667000D01*
X74544717Y-63667000D01*
X74544717Y-63881000D01*
X74588437Y-64113352D01*
X74725757Y-64326753D01*
X74935283Y-64469917D01*
X75184000Y-64520283D01*
X77216000Y-64520283D01*
X77448352Y-64476563D01*
X77661753Y-64339243D01*
X77767051Y-64185135D01*
X78111251Y-64415122D01*
X78740000Y-64540188D01*
X79368749Y-64415122D01*
X79901776Y-64058964D01*
X80257934Y-63525937D01*
X80383000Y-62897188D01*
X80383000Y-62832812D01*
X80257934Y-62204063D01*
X79901776Y-61671036D01*
X79368749Y-61314878D01*
X78740000Y-61189812D01*
X78111251Y-61314878D01*
X77765877Y-61545650D01*
X77674243Y-61403247D01*
X77464717Y-61260083D01*
X77216000Y-61209717D01*
X75184000Y-61209717D01*
X74951648Y-61253437D01*
X74738247Y-61390757D01*
X74595083Y-61600283D01*
X74544717Y-61849000D01*
X74544717Y-62063000D01*
X74399846Y-62063000D01*
X74099201Y-61938161D01*
X73730417Y-61937839D01*
X73389583Y-62078669D01*
X73128586Y-62339211D01*
X72987161Y-62679799D01*
X72986839Y-63048583D01*
X65647000Y-63048583D01*
X65647000Y-62344246D01*
X65744123Y-62279350D01*
X65835757Y-62421753D01*
X66045283Y-62564917D01*
X66294000Y-62615283D01*
X68326000Y-62615283D01*
X68558352Y-62571563D01*
X68771753Y-62434243D01*
X68914917Y-62224717D01*
X68965283Y-61976000D01*
X68965283Y-59944000D01*
X68921563Y-59711648D01*
X68906139Y-59687679D01*
X69376910Y-59216909D01*
X69621212Y-58851284D01*
X69707000Y-58420000D01*
X69707000Y-54331200D01*
X72457900Y-57082100D01*
X72718088Y-57255951D01*
X73025000Y-57317000D01*
X74929995Y-57317000D01*
X74930000Y-57317001D01*
X75236912Y-57255951D01*
X75497100Y-57082100D01*
X75897199Y-56682000D01*
X81270665Y-56682000D01*
X81150410Y-56857997D01*
X80969417Y-56857839D01*
X80628583Y-56998669D01*
X80367586Y-57259211D01*
X80226161Y-57599799D01*
X80225839Y-57968583D01*
X80366669Y-58309417D01*
X80627211Y-58570414D01*
X80967799Y-58711839D01*
X81153168Y-58712001D01*
X81168730Y-58736185D01*
X81131083Y-58791283D01*
X81111497Y-58888000D01*
X73787000Y-58888000D01*
X73480088Y-58949049D01*
X73219900Y-59122900D01*
X73219898Y-59122903D01*
X73055446Y-59287355D01*
X72754583Y-59411669D01*
X72493586Y-59672211D01*
X72492654Y-59674455D01*
X72284645Y-59466445D01*
X72160331Y-59165583D01*
X71899789Y-58904586D01*
X71559201Y-58763161D01*
X71190417Y-58762839D01*
X70849583Y-58903669D01*
X70588586Y-59164211D01*
X70447161Y-59504799D01*
X70446839Y-59873583D01*
X70587669Y-60214417D01*
X70848211Y-60475414D01*
X71150904Y-60601103D01*
X72076898Y-61527097D01*
X72076900Y-61527100D01*
X72337088Y-61700951D01*
X72644000Y-61762000D01*
X73659995Y-61762000D01*
X73660000Y-61762001D01*
X73966912Y-61700951D01*
X74227100Y-61527100D01*
X74712198Y-61042002D01*
X79973802Y-61042002D01*
X81080717Y-62148916D01*
X81080717Y-62245000D01*
X81124437Y-62477352D01*
X81168730Y-62546185D01*
X81131083Y-62601283D01*
X81080717Y-62850000D01*
X81080717Y-64150000D01*
X81124437Y-64382352D01*
X81168730Y-64451185D01*
X81131083Y-64506283D01*
X81080717Y-64755000D01*
X81080717Y-66055000D01*
X81124437Y-66287352D01*
X81261757Y-66500753D01*
X81471283Y-66643917D01*
X81720000Y-66694283D01*
X83220000Y-66694283D01*
X83452352Y-66650563D01*
X83665753Y-66513243D01*
X83808917Y-66303717D01*
X83818558Y-66256108D01*
X83824437Y-66287352D01*
X83961757Y-66500753D01*
X84171283Y-66643917D01*
X84420000Y-66694283D01*
X85920000Y-66694283D01*
X86152352Y-66650563D01*
X86365753Y-66513243D01*
X86508917Y-66303717D01*
X86528503Y-66207000D01*
X86631308Y-66207000D01*
X86658677Y-66249533D01*
X86868203Y-66392697D01*
X87116920Y-66443063D01*
X87914480Y-66443063D01*
X88146832Y-66399343D01*
X88247974Y-66334260D01*
X88255822Y-66342107D01*
X88489211Y-66438780D01*
X88728550Y-66438780D01*
X88887300Y-66280030D01*
X88887300Y-65532000D01*
X89141300Y-65532000D01*
X89141300Y-66280030D01*
X89300050Y-66438780D01*
X89539389Y-66438780D01*
X89772778Y-66342107D01*
X89951407Y-66163479D01*
X90048080Y-65930090D01*
X90048080Y-65690750D01*
X89889330Y-65532000D01*
X89141300Y-65532000D01*
X88887300Y-65532000D01*
X88867300Y-65532000D01*
X88867300Y-65278000D01*
X88887300Y-65278000D01*
X88887300Y-64529970D01*
X89141300Y-64529970D01*
X89141300Y-65278000D01*
X89889330Y-65278000D01*
X90048080Y-65119250D01*
X90048080Y-64879910D01*
X89951407Y-64646521D01*
X89772778Y-64467893D01*
X89539389Y-64371220D01*
X89300050Y-64371220D01*
X89141300Y-64529970D01*
X88887300Y-64529970D01*
X88728550Y-64371220D01*
X88489211Y-64371220D01*
X88255822Y-64467893D01*
X88248278Y-64475437D01*
X88163197Y-64417303D01*
X87914480Y-64366937D01*
X87116920Y-64366937D01*
X86884568Y-64410657D01*
X86671167Y-64547977D01*
X86633571Y-64603000D01*
X86530682Y-64603000D01*
X86515563Y-64522648D01*
X86471270Y-64453815D01*
X86508917Y-64398717D01*
X86559283Y-64150000D01*
X86559283Y-63865750D01*
X90790000Y-63865750D01*
X90790000Y-64456309D01*
X90886673Y-64689698D01*
X91065301Y-64868327D01*
X91298690Y-64965000D01*
X91789250Y-64965000D01*
X91948000Y-64806250D01*
X91948000Y-63707000D01*
X90948750Y-63707000D01*
X90790000Y-63865750D01*
X86559283Y-63865750D01*
X86559283Y-62850000D01*
X86515563Y-62617648D01*
X86471270Y-62548815D01*
X86508917Y-62493717D01*
X86528503Y-62397000D01*
X86631308Y-62397000D01*
X86658677Y-62439533D01*
X86868203Y-62582697D01*
X87116920Y-62633063D01*
X87914480Y-62633063D01*
X88146832Y-62589343D01*
X88247974Y-62524260D01*
X88255822Y-62532107D01*
X88489211Y-62628780D01*
X88728550Y-62628780D01*
X88887300Y-62470030D01*
X88887300Y-61722000D01*
X89141300Y-61722000D01*
X89141300Y-62470030D01*
X89300050Y-62628780D01*
X89539389Y-62628780D01*
X89772778Y-62532107D01*
X89951407Y-62353479D01*
X90048080Y-62120090D01*
X90048080Y-61880750D01*
X89889330Y-61722000D01*
X89141300Y-61722000D01*
X88887300Y-61722000D01*
X88867300Y-61722000D01*
X88867300Y-61468000D01*
X88887300Y-61468000D01*
X88887300Y-60719970D01*
X89141300Y-60719970D01*
X89141300Y-61468000D01*
X89889330Y-61468000D01*
X90048080Y-61309250D01*
X90048080Y-61069910D01*
X89951407Y-60836521D01*
X89772778Y-60657893D01*
X89539389Y-60561220D01*
X89300050Y-60561220D01*
X89141300Y-60719970D01*
X88887300Y-60719970D01*
X88728550Y-60561220D01*
X88489211Y-60561220D01*
X88255822Y-60657893D01*
X88248278Y-60665437D01*
X88163197Y-60607303D01*
X87914480Y-60556937D01*
X87116920Y-60556937D01*
X86884568Y-60600657D01*
X86671167Y-60737977D01*
X86633571Y-60793000D01*
X86530682Y-60793000D01*
X86515563Y-60712648D01*
X86471270Y-60643815D01*
X86508917Y-60588717D01*
X86559283Y-60340000D01*
X86559283Y-59040000D01*
X86515563Y-58807648D01*
X86471270Y-58738815D01*
X86508917Y-58683717D01*
X86527002Y-58594411D01*
X86809799Y-58711839D01*
X87178583Y-58712161D01*
X87472970Y-58590522D01*
X87520325Y-58705129D01*
X87977464Y-59163067D01*
X88575052Y-59411207D01*
X89222110Y-59411772D01*
X89820129Y-59164675D01*
X90278067Y-58707536D01*
X90487709Y-58202661D01*
X90695325Y-58705129D01*
X91152464Y-59163067D01*
X91273000Y-59213118D01*
X91273000Y-59519318D01*
X91192648Y-59534437D01*
X90979247Y-59671757D01*
X90836083Y-59881283D01*
X90785717Y-60130000D01*
X90785717Y-61630000D01*
X90829437Y-61862352D01*
X90966757Y-62075753D01*
X91176283Y-62218917D01*
X91219716Y-62227712D01*
X91065301Y-62291673D01*
X90886673Y-62470302D01*
X90790000Y-62703691D01*
X90790000Y-63294250D01*
X90948750Y-63453000D01*
X91948000Y-63453000D01*
X91948000Y-63433000D01*
X92202000Y-63433000D01*
X92202000Y-63453000D01*
X92222000Y-63453000D01*
X92222000Y-63707000D01*
X92202000Y-63707000D01*
X92202000Y-64806250D01*
X92360750Y-64965000D01*
X92851310Y-64965000D01*
X93084699Y-64868327D01*
X93263327Y-64689698D01*
X93352769Y-64473767D01*
X93369437Y-64562352D01*
X93506757Y-64775753D01*
X93716283Y-64918917D01*
X93965000Y-64969283D01*
X95265000Y-64969283D01*
X95497352Y-64925563D01*
X95710753Y-64788243D01*
X95853917Y-64578717D01*
X95878565Y-64457000D01*
X98141734Y-64457000D01*
X99133000Y-65448265D01*
X99133000Y-72718167D01*
X99077138Y-72754113D01*
X99069698Y-72746673D01*
X98836309Y-72650000D01*
X98395750Y-72650000D01*
X98237000Y-72808750D01*
X98237000Y-73533000D01*
X98257000Y-73533000D01*
X98257000Y-73787000D01*
X98237000Y-73787000D01*
X98237000Y-74511250D01*
X98395750Y-74670000D01*
X98836309Y-74670000D01*
X99069698Y-74573327D01*
X99076820Y-74566205D01*
X99133000Y-74604592D01*
X99133000Y-74610000D01*
X99199758Y-74945613D01*
X99389867Y-75230133D01*
X99429734Y-75270000D01*
X98985263Y-75453652D01*
X98316002Y-76121746D01*
X97953354Y-76995099D01*
X97952529Y-77940752D01*
X98313652Y-78814737D01*
X98981746Y-79483998D01*
X99855099Y-79846646D01*
X100800752Y-79847471D01*
X101674737Y-79486348D01*
X102343998Y-78818254D01*
X102706646Y-77944901D01*
X102707471Y-76999248D01*
X102346348Y-76125263D01*
X101678254Y-75456002D01*
X101207000Y-75260320D01*
X101207000Y-74930000D01*
X101172142Y-74754758D01*
X101140242Y-74594386D01*
X101064301Y-74480733D01*
X101198917Y-74283717D01*
X101249283Y-74035000D01*
X101249283Y-73285000D01*
X101205563Y-73052648D01*
X101068243Y-72839247D01*
X100887000Y-72715408D01*
X100887000Y-65085000D01*
X100843901Y-64868327D01*
X100820242Y-64749386D01*
X100722430Y-64603000D01*
X100630133Y-64464867D01*
X100630130Y-64464865D01*
X99125133Y-62959867D01*
X98840613Y-62769758D01*
X98505000Y-62703000D01*
X95880386Y-62703000D01*
X95860563Y-62597648D01*
X95723243Y-62384247D01*
X95513717Y-62241083D01*
X95466108Y-62231442D01*
X95497352Y-62225563D01*
X95710753Y-62088243D01*
X95853917Y-61878717D01*
X95904283Y-61630000D01*
X95904283Y-60130000D01*
X95860563Y-59897648D01*
X95723243Y-59684247D01*
X95513717Y-59541083D01*
X95265000Y-59490717D01*
X93965000Y-59490717D01*
X93732648Y-59534437D01*
X93519247Y-59671757D01*
X93376083Y-59881283D01*
X93345708Y-60031281D01*
X93320563Y-59897648D01*
X93183243Y-59684247D01*
X92973717Y-59541083D01*
X92877000Y-59521497D01*
X92877000Y-59213485D01*
X92995129Y-59164675D01*
X93453067Y-58707536D01*
X93701207Y-58109948D01*
X93701772Y-57462890D01*
X93454675Y-56864871D01*
X92997536Y-56406933D01*
X92399948Y-56158793D01*
X92295498Y-56158702D01*
X93277097Y-55177102D01*
X93277100Y-55177100D01*
X93450951Y-54916912D01*
X93512000Y-54610000D01*
X93512000Y-49065682D01*
X93592352Y-49050563D01*
X93805753Y-48913243D01*
X93948917Y-48703717D01*
X93999283Y-48455000D01*
X93999283Y-46955000D01*
X93955563Y-46722648D01*
X93818243Y-46509247D01*
X93608717Y-46366083D01*
X93561108Y-46356442D01*
X93592352Y-46350563D01*
X93805753Y-46213243D01*
X93948917Y-46003717D01*
X93999283Y-45755000D01*
X93999283Y-44417812D01*
X95512000Y-44417812D01*
X95512000Y-44482188D01*
X95637066Y-45110937D01*
X95993224Y-45643964D01*
X96526251Y-46000122D01*
X97155000Y-46125188D01*
X97783749Y-46000122D01*
X98119889Y-45775520D01*
X98140673Y-45825698D01*
X98319301Y-46004327D01*
X98552690Y-46101000D01*
X99409250Y-46101000D01*
X99568000Y-45942250D01*
X99568000Y-44577000D01*
X99822000Y-44577000D01*
X99822000Y-45942250D01*
X99980750Y-46101000D01*
X100837310Y-46101000D01*
X101070699Y-46004327D01*
X101249327Y-45825698D01*
X101346000Y-45592309D01*
X101346000Y-44735750D01*
X101187250Y-44577000D01*
X99822000Y-44577000D01*
X99568000Y-44577000D01*
X99548000Y-44577000D01*
X99548000Y-44323000D01*
X99568000Y-44323000D01*
X99568000Y-42957750D01*
X99822000Y-42957750D01*
X99822000Y-44323000D01*
X101187250Y-44323000D01*
X101346000Y-44164250D01*
X101346000Y-43307691D01*
X101249327Y-43074302D01*
X101070699Y-42895673D01*
X100837310Y-42799000D01*
X99980750Y-42799000D01*
X99822000Y-42957750D01*
X99568000Y-42957750D01*
X99409250Y-42799000D01*
X98552690Y-42799000D01*
X98319301Y-42895673D01*
X98140673Y-43074302D01*
X98119889Y-43124480D01*
X97783749Y-42899878D01*
X97155000Y-42774812D01*
X96526251Y-42899878D01*
X95993224Y-43256036D01*
X95637066Y-43789063D01*
X95512000Y-44417812D01*
X93999283Y-44417812D01*
X93999283Y-44255000D01*
X93955563Y-44022648D01*
X93818243Y-43809247D01*
X93608717Y-43666083D01*
X93512000Y-43646497D01*
X93512000Y-42178700D01*
X94420100Y-41270600D01*
X94506692Y-41141005D01*
X94559572Y-41176338D01*
X95130000Y-41289803D01*
X95700428Y-41176338D01*
X96184013Y-40853216D01*
X96507135Y-40369631D01*
X96620600Y-39799203D01*
X96620600Y-39740797D01*
X96507135Y-39170369D01*
X96184013Y-38686784D01*
X95904472Y-38500000D01*
X96184013Y-38313216D01*
X96507135Y-37829631D01*
X96620600Y-37259203D01*
X96620600Y-37200797D01*
X96507135Y-36630369D01*
X96184013Y-36146784D01*
X95700428Y-35823662D01*
X95130000Y-35710197D01*
X94559572Y-35823662D01*
X94075987Y-36146784D01*
X93860000Y-36470031D01*
X93644013Y-36146784D01*
X93160428Y-35823662D01*
X92590000Y-35710197D01*
X92019572Y-35823662D01*
X91535987Y-36146784D01*
X91320000Y-36470031D01*
X91104013Y-36146784D01*
X90620428Y-35823662D01*
X90050000Y-35710197D01*
X89479572Y-35823662D01*
X88995987Y-36146784D01*
X88780000Y-36470031D01*
X88564013Y-36146784D01*
X88080428Y-35823662D01*
X87510000Y-35710197D01*
X86939572Y-35823662D01*
X86455987Y-36146784D01*
X86240000Y-36470031D01*
X86024013Y-36146784D01*
X85540428Y-35823662D01*
X84970000Y-35710197D01*
X84399572Y-35823662D01*
X83915987Y-36146784D01*
X83700000Y-36470031D01*
X83484013Y-36146784D01*
X83000428Y-35823662D01*
X82430000Y-35710197D01*
X81859572Y-35823662D01*
X81375987Y-36146784D01*
X81160000Y-36470031D01*
X80944013Y-36146784D01*
X80460428Y-35823662D01*
X79890000Y-35710197D01*
X79319572Y-35823662D01*
X78835987Y-36146784D01*
X78620000Y-36470031D01*
X78404013Y-36146784D01*
X77920428Y-35823662D01*
X77350000Y-35710197D01*
X76779572Y-35823662D01*
X76295987Y-36146784D01*
X76080000Y-36470031D01*
X75864013Y-36146784D01*
X75380428Y-35823662D01*
X74810000Y-35710197D01*
X74239572Y-35823662D01*
X73755987Y-36146784D01*
X73540000Y-36470031D01*
X73324013Y-36146784D01*
X72840428Y-35823662D01*
X72270000Y-35710197D01*
X71699572Y-35823662D01*
X71215987Y-36146784D01*
X71000000Y-36470031D01*
X70784013Y-36146784D01*
X70300428Y-35823662D01*
X69730000Y-35710197D01*
X69159572Y-35823662D01*
X68675987Y-36146784D01*
X68460000Y-36470031D01*
X68244013Y-36146784D01*
X67760428Y-35823662D01*
X67190000Y-35710197D01*
X66619572Y-35823662D01*
X66135987Y-36146784D01*
X65920000Y-36470031D01*
X65704013Y-36146784D01*
X65220428Y-35823662D01*
X64650000Y-35710197D01*
X64079572Y-35823662D01*
X63595987Y-36146784D01*
X63380000Y-36470031D01*
X63164013Y-36146784D01*
X62680428Y-35823662D01*
X62110000Y-35710197D01*
X61539572Y-35823662D01*
X61055987Y-36146784D01*
X60840000Y-36470031D01*
X60624013Y-36146784D01*
X60140428Y-35823662D01*
X59570000Y-35710197D01*
X58999572Y-35823662D01*
X58515987Y-36146784D01*
X58300000Y-36470031D01*
X58084013Y-36146784D01*
X57600428Y-35823662D01*
X57030000Y-35710197D01*
X56459572Y-35823662D01*
X55975987Y-36146784D01*
X55760000Y-36470031D01*
X55544013Y-36146784D01*
X55060428Y-35823662D01*
X54490000Y-35710197D01*
X53919572Y-35823662D01*
X53435987Y-36146784D01*
X53218269Y-36472621D01*
X53156821Y-36341510D01*
X52724947Y-35947312D01*
X52309026Y-35775042D01*
X52077000Y-35896183D01*
X52077000Y-37103000D01*
X52097000Y-37103000D01*
X52097000Y-37357000D01*
X52077000Y-37357000D01*
X52077000Y-37377000D01*
X51823000Y-37377000D01*
X51823000Y-37357000D01*
X51803000Y-37357000D01*
X51803000Y-37103000D01*
X51823000Y-37103000D01*
X51823000Y-35896183D01*
X51590974Y-35775042D01*
X51175053Y-35947312D01*
X50743179Y-36341510D01*
X50681731Y-36472621D01*
X50464013Y-36146784D01*
X49980428Y-35823662D01*
X49410000Y-35710197D01*
X48839572Y-35823662D01*
X48421514Y-36103000D01*
X47858486Y-36103000D01*
X47440428Y-35823662D01*
X46870000Y-35710197D01*
X46299572Y-35823662D01*
X45815987Y-36146784D01*
X45635768Y-36416499D01*
X45619387Y-36419758D01*
X45334867Y-36609867D01*
X45212000Y-36732734D01*
X45212000Y-35687000D01*
X97028000Y-35687000D01*
X97028000Y-37242536D01*
X97028000Y-37242536D01*
G37*
X97028000Y-37242536D02*
X96773561Y-37855294D01*
X96772441Y-39139074D01*
X97028000Y-39757575D01*
X97028000Y-41910000D01*
X97038006Y-41959410D01*
X97066447Y-42001035D01*
X97108841Y-42028315D01*
X97155000Y-42037000D01*
X102743000Y-42037000D01*
X102743000Y-84328000D01*
X100775810Y-84328000D01*
X100644706Y-84273561D01*
X99360926Y-84272441D01*
X99226463Y-84328000D01*
X96520000Y-84328000D01*
X96470590Y-84338006D01*
X96428965Y-84366447D01*
X96401685Y-84408841D01*
X96393000Y-84455000D01*
X96393000Y-90323000D01*
X45212000Y-90323000D01*
X45212000Y-88179479D01*
X45226439Y-88144706D01*
X45227559Y-86860926D01*
X45212000Y-86823270D01*
X45212000Y-84455000D01*
X45201994Y-84405590D01*
X45173553Y-84363965D01*
X45131159Y-84336685D01*
X45085000Y-84328000D01*
X42775810Y-84328000D01*
X42644706Y-84273561D01*
X41360926Y-84272441D01*
X41226463Y-84328000D01*
X39177000Y-84328000D01*
X39177000Y-81025750D01*
X44470000Y-81025750D01*
X44470000Y-81866309D01*
X44566673Y-82099698D01*
X44745301Y-82278327D01*
X44978690Y-82375000D01*
X46069250Y-82375000D01*
X46228000Y-82216250D01*
X46228000Y-80867000D01*
X46482000Y-80867000D01*
X46482000Y-82216250D01*
X46640750Y-82375000D01*
X47731310Y-82375000D01*
X47964699Y-82278327D01*
X48143327Y-82099698D01*
X48240000Y-81866309D01*
X48240000Y-81025750D01*
X48081250Y-80867000D01*
X46482000Y-80867000D01*
X46228000Y-80867000D01*
X44628750Y-80867000D01*
X44470000Y-81025750D01*
X39177000Y-81025750D01*
X39177000Y-72566680D01*
X39213841Y-72381468D01*
X39280983Y-72280983D01*
X39381468Y-72213841D01*
X39566679Y-72177000D01*
X40038394Y-72177000D01*
X39915197Y-72300197D01*
X39888006Y-72340590D01*
X39878000Y-72390000D01*
X39878000Y-75512394D01*
X39280197Y-76110197D01*
X39253006Y-76150590D01*
X39243000Y-76200000D01*
X39243000Y-78740000D01*
X39252334Y-78787789D01*
X39280197Y-78829803D01*
X40550197Y-80099803D01*
X40590590Y-80126994D01*
X40640000Y-80137000D01*
X43180000Y-80137000D01*
X43227789Y-80127666D01*
X43269803Y-80099803D01*
X43867606Y-79502000D01*
X44516264Y-79502000D01*
X44470000Y-79613691D01*
X44470000Y-80454250D01*
X44628750Y-80613000D01*
X46228000Y-80613000D01*
X46228000Y-80593000D01*
X46482000Y-80593000D01*
X46482000Y-80613000D01*
X48081250Y-80613000D01*
X48240000Y-80454250D01*
X48240000Y-79613691D01*
X48193736Y-79502000D01*
X48207394Y-79502000D01*
X48768000Y-80062606D01*
X48768000Y-85090000D01*
X48777334Y-85137789D01*
X48805197Y-85179803D01*
X50075197Y-86449803D01*
X50115590Y-86476994D01*
X50165000Y-86487000D01*
X54610000Y-86487000D01*
X54657789Y-86477666D01*
X54699803Y-86449803D01*
X54865806Y-86283800D01*
X55799517Y-86283800D01*
X55799517Y-87706200D01*
X55843237Y-87938552D01*
X55980557Y-88151953D01*
X56190083Y-88295117D01*
X56438800Y-88345483D01*
X57861200Y-88345483D01*
X58093552Y-88301763D01*
X58306953Y-88164443D01*
X58450117Y-87954917D01*
X58500483Y-87706200D01*
X58500483Y-87260017D01*
X63431568Y-87260017D01*
X63634868Y-87752039D01*
X64010981Y-88128809D01*
X64502648Y-88332967D01*
X65035017Y-88333432D01*
X65527039Y-88130132D01*
X65903809Y-87754019D01*
X66107967Y-87262352D01*
X66108432Y-86729983D01*
X65905132Y-86237961D01*
X65728231Y-86060750D01*
X69255000Y-86060750D01*
X69255000Y-87551310D01*
X69351673Y-87784699D01*
X69530302Y-87963327D01*
X69763691Y-88060000D01*
X70199250Y-88060000D01*
X70358000Y-87901250D01*
X70358000Y-85902000D01*
X70612000Y-85902000D01*
X70612000Y-87901250D01*
X70770750Y-88060000D01*
X71206309Y-88060000D01*
X71439698Y-87963327D01*
X71618327Y-87784699D01*
X71715000Y-87551310D01*
X71715000Y-86060750D01*
X71556250Y-85902000D01*
X70612000Y-85902000D01*
X70358000Y-85902000D01*
X69413750Y-85902000D01*
X69255000Y-86060750D01*
X65728231Y-86060750D01*
X65592001Y-85924283D01*
X66055000Y-85924283D01*
X66287352Y-85880563D01*
X66500753Y-85743243D01*
X66643917Y-85533717D01*
X66671653Y-85396753D01*
X66745506Y-85382062D01*
X66858583Y-85382161D01*
X67199417Y-85241331D01*
X67460414Y-84980789D01*
X67601839Y-84640201D01*
X67602161Y-84271417D01*
X67489473Y-83998690D01*
X69255000Y-83998690D01*
X69255000Y-85489250D01*
X69413750Y-85648000D01*
X70358000Y-85648000D01*
X70358000Y-83648750D01*
X70612000Y-83648750D01*
X70612000Y-85648000D01*
X71556250Y-85648000D01*
X71715000Y-85489250D01*
X71715000Y-83998690D01*
X71618327Y-83765301D01*
X71439698Y-83586673D01*
X71206309Y-83490000D01*
X70770750Y-83490000D01*
X70612000Y-83648750D01*
X70358000Y-83648750D01*
X70199250Y-83490000D01*
X69763691Y-83490000D01*
X69530302Y-83586673D01*
X69351673Y-83765301D01*
X69255000Y-83998690D01*
X67489473Y-83998690D01*
X67461331Y-83930583D01*
X67200789Y-83669586D01*
X66860201Y-83528161D01*
X66634679Y-83527964D01*
X66513243Y-83339247D01*
X66303717Y-83196083D01*
X66260284Y-83187288D01*
X66414699Y-83123327D01*
X66593327Y-82944698D01*
X66690000Y-82711309D01*
X66690000Y-82120750D01*
X66531250Y-81962000D01*
X65532000Y-81962000D01*
X65532000Y-81982000D01*
X65278000Y-81982000D01*
X65278000Y-81962000D01*
X64278750Y-81962000D01*
X64120000Y-82120750D01*
X64120000Y-82711309D01*
X64216673Y-82944698D01*
X64395301Y-83123327D01*
X64544829Y-83185263D01*
X64522648Y-83189437D01*
X64309247Y-83326757D01*
X64166083Y-83536283D01*
X64115717Y-83785000D01*
X64115717Y-85285000D01*
X64159437Y-85517352D01*
X64296757Y-85730753D01*
X64307567Y-85738139D01*
X64012961Y-85859868D01*
X63636191Y-86235981D01*
X63432033Y-86727648D01*
X63431568Y-87260017D01*
X58500483Y-87260017D01*
X58500483Y-86283800D01*
X58456763Y-86051448D01*
X58319443Y-85838047D01*
X58182216Y-85744283D01*
X59090000Y-85744283D01*
X59322352Y-85700563D01*
X59535753Y-85563243D01*
X59678917Y-85353717D01*
X59688558Y-85306108D01*
X59694437Y-85337352D01*
X59831757Y-85550753D01*
X60041283Y-85693917D01*
X60290000Y-85744283D01*
X61790000Y-85744283D01*
X62022352Y-85700563D01*
X62235753Y-85563243D01*
X62378917Y-85353717D01*
X62383315Y-85332000D01*
X62559774Y-85332000D01*
X62679799Y-85381839D01*
X63048583Y-85382161D01*
X63389417Y-85241331D01*
X63650414Y-84980789D01*
X63791839Y-84640201D01*
X63792161Y-84271417D01*
X63651331Y-83930583D01*
X63540976Y-83820036D01*
X63650414Y-83710789D01*
X63791839Y-83370201D01*
X63792161Y-83001417D01*
X63651331Y-82660583D01*
X63390789Y-82399586D01*
X63269479Y-82349213D01*
X62992002Y-82071736D01*
X62992002Y-81951252D01*
X63150750Y-82110000D01*
X63641310Y-82110000D01*
X63874699Y-82013327D01*
X64053327Y-81834698D01*
X64150000Y-81601309D01*
X64150000Y-81579250D01*
X64278750Y-81708000D01*
X65278000Y-81708000D01*
X65278000Y-80608750D01*
X65532000Y-80608750D01*
X65532000Y-81708000D01*
X66531250Y-81708000D01*
X66690000Y-81549250D01*
X66690000Y-80958691D01*
X66593327Y-80725302D01*
X66414699Y-80546673D01*
X66181310Y-80450000D01*
X65690750Y-80450000D01*
X65532000Y-80608750D01*
X65278000Y-80608750D01*
X65119250Y-80450000D01*
X64628690Y-80450000D01*
X64395301Y-80546673D01*
X64216673Y-80725302D01*
X64120000Y-80958691D01*
X64120000Y-80980750D01*
X63991250Y-80852000D01*
X62992000Y-80852000D01*
X62992000Y-80872000D01*
X62738000Y-80872000D01*
X62738000Y-80852000D01*
X61738750Y-80852000D01*
X61580000Y-81010750D01*
X61580000Y-81260717D01*
X60927819Y-81260717D01*
X60940000Y-81231309D01*
X60940000Y-80390750D01*
X60781250Y-80232000D01*
X59182000Y-80232000D01*
X59182000Y-80252000D01*
X58928000Y-80252000D01*
X58928000Y-80232000D01*
X57328750Y-80232000D01*
X57170000Y-80390750D01*
X57170000Y-81231309D01*
X57233406Y-81384385D01*
X57144247Y-81441757D01*
X57001083Y-81651283D01*
X56950717Y-81900000D01*
X56950717Y-83200000D01*
X56994437Y-83432352D01*
X57038730Y-83501185D01*
X57020486Y-83527886D01*
X56966417Y-83527839D01*
X56625583Y-83668669D01*
X56364586Y-83929211D01*
X56223161Y-84269799D01*
X56222839Y-84638583D01*
X56363669Y-84979417D01*
X56624211Y-85240414D01*
X56964799Y-85381839D01*
X57023096Y-85381890D01*
X57131757Y-85550753D01*
X57268984Y-85644517D01*
X56438800Y-85644517D01*
X56206448Y-85688237D01*
X55993047Y-85825557D01*
X55849883Y-86035083D01*
X55799517Y-86283800D01*
X54865806Y-86283800D01*
X55969803Y-85179803D01*
X55996994Y-85139410D01*
X56007000Y-85090000D01*
X56007000Y-79427606D01*
X56567606Y-78867000D01*
X57216264Y-78867000D01*
X57170000Y-78978691D01*
X57170000Y-79819250D01*
X57328750Y-79978000D01*
X58928000Y-79978000D01*
X58928000Y-79958000D01*
X59182000Y-79958000D01*
X59182000Y-79978000D01*
X60781250Y-79978000D01*
X60940000Y-79819250D01*
X60940000Y-78978691D01*
X60893736Y-78867000D01*
X60960000Y-78867000D01*
X61007789Y-78857666D01*
X61049803Y-78829803D01*
X61575717Y-78303889D01*
X61575717Y-78775000D01*
X61619437Y-79007352D01*
X61756757Y-79220753D01*
X61966283Y-79363917D01*
X62009716Y-79372712D01*
X61855301Y-79436673D01*
X61676673Y-79615302D01*
X61580000Y-79848691D01*
X61580000Y-80439250D01*
X61738750Y-80598000D01*
X62738000Y-80598000D01*
X62738000Y-80578000D01*
X62992000Y-80578000D01*
X62992000Y-80598000D01*
X63991250Y-80598000D01*
X64150000Y-80439250D01*
X64150000Y-79848691D01*
X64053327Y-79615302D01*
X63874699Y-79436673D01*
X63725171Y-79374737D01*
X63747352Y-79370563D01*
X63960753Y-79233243D01*
X64103917Y-79023717D01*
X64154283Y-78775000D01*
X64154283Y-78715328D01*
X64226777Y-78890777D01*
X64617167Y-79281850D01*
X65127499Y-79493758D01*
X65680077Y-79494240D01*
X66190777Y-79283223D01*
X66581850Y-78892833D01*
X66710717Y-78582486D01*
X66710717Y-81025000D01*
X66754437Y-81257352D01*
X66891757Y-81470753D01*
X67101283Y-81613917D01*
X67350000Y-81664283D01*
X68540000Y-81664283D01*
X68772352Y-81620563D01*
X68985753Y-81483243D01*
X69128917Y-81273717D01*
X69179283Y-81025000D01*
X69179283Y-79660750D01*
X71795000Y-79660750D01*
X71795000Y-81151310D01*
X71891673Y-81384699D01*
X72070302Y-81563327D01*
X72303691Y-81660000D01*
X72739250Y-81660000D01*
X72898000Y-81501250D01*
X72898000Y-79502000D01*
X73152000Y-79502000D01*
X73152000Y-81501250D01*
X73310750Y-81660000D01*
X73746309Y-81660000D01*
X73979698Y-81563327D01*
X74158327Y-81384699D01*
X74255000Y-81151310D01*
X74255000Y-79660750D01*
X74096250Y-79502000D01*
X73152000Y-79502000D01*
X72898000Y-79502000D01*
X71953750Y-79502000D01*
X71795000Y-79660750D01*
X69179283Y-79660750D01*
X69179283Y-77725000D01*
X69155517Y-77598690D01*
X71795000Y-77598690D01*
X71795000Y-79089250D01*
X71953750Y-79248000D01*
X72898000Y-79248000D01*
X72898000Y-77248750D01*
X73152000Y-77248750D01*
X73152000Y-79248000D01*
X74096250Y-79248000D01*
X74255000Y-79089250D01*
X74255000Y-77598690D01*
X74158327Y-77365301D01*
X73979698Y-77186673D01*
X73746309Y-77090000D01*
X73310750Y-77090000D01*
X73152000Y-77248750D01*
X72898000Y-77248750D01*
X72739250Y-77090000D01*
X72303691Y-77090000D01*
X72070302Y-77186673D01*
X71891673Y-77365301D01*
X71795000Y-77598690D01*
X69155517Y-77598690D01*
X69135563Y-77492648D01*
X68998243Y-77279247D01*
X68822000Y-77158824D01*
X68822000Y-77140226D01*
X68871839Y-77020201D01*
X68872161Y-76651417D01*
X68731331Y-76310583D01*
X68470789Y-76049586D01*
X68349478Y-75999213D01*
X67041133Y-74690867D01*
X66756613Y-74500758D01*
X66421000Y-74434000D01*
X65531632Y-74434000D01*
X65523910Y-74422000D01*
X67892394Y-74422000D01*
X69760197Y-76289803D01*
X69800590Y-76316994D01*
X69850000Y-76327000D01*
X72390000Y-76327000D01*
X72437789Y-76317666D01*
X72479803Y-76289803D01*
X73114803Y-75654803D01*
X73141994Y-75614410D01*
X73152000Y-75565000D01*
X73152000Y-72000000D01*
X81823000Y-72000000D01*
X81823000Y-87000000D01*
X81836008Y-87065396D01*
X81836008Y-87132076D01*
X81912128Y-87514758D01*
X81957985Y-87625466D01*
X82013215Y-87758804D01*
X82229988Y-88083228D01*
X82416772Y-88270012D01*
X82741196Y-88486785D01*
X82985241Y-88587872D01*
X83367924Y-88663992D01*
X83632076Y-88663992D01*
X84014758Y-88587872D01*
X84258804Y-88486785D01*
X84583228Y-88270012D01*
X84770012Y-88083228D01*
X84986785Y-87758804D01*
X85020669Y-87677000D01*
X85087872Y-87514759D01*
X85163992Y-87132076D01*
X85163992Y-87065396D01*
X85177000Y-87000000D01*
X85177000Y-73945750D01*
X96875000Y-73945750D01*
X96875000Y-74161310D01*
X96971673Y-74394699D01*
X97150302Y-74573327D01*
X97383691Y-74670000D01*
X97824250Y-74670000D01*
X97983000Y-74511250D01*
X97983000Y-73787000D01*
X97033750Y-73787000D01*
X96875000Y-73945750D01*
X85177000Y-73945750D01*
X85177000Y-73158690D01*
X96875000Y-73158690D01*
X96875000Y-73374250D01*
X97033750Y-73533000D01*
X97983000Y-73533000D01*
X97983000Y-72808750D01*
X97824250Y-72650000D01*
X97383691Y-72650000D01*
X97150302Y-72746673D01*
X96971673Y-72925301D01*
X96875000Y-73158690D01*
X85177000Y-73158690D01*
X85177000Y-72000000D01*
X85163992Y-71934604D01*
X85163992Y-71867924D01*
X85087872Y-71485241D01*
X84986785Y-71241196D01*
X84770012Y-70916772D01*
X84583228Y-70729988D01*
X84258804Y-70513215D01*
X84014758Y-70412128D01*
X83632076Y-70336008D01*
X83500000Y-70336008D01*
X82985241Y-70412128D01*
X82773100Y-70500000D01*
X82741196Y-70513215D01*
X82416772Y-70729988D01*
X82229988Y-70916772D01*
X82013215Y-71241196D01*
X81912128Y-71485242D01*
X81836008Y-71867924D01*
X81836008Y-71934604D01*
X81823000Y-72000000D01*
X73152000Y-72000000D01*
X73152000Y-70485000D01*
X73142666Y-70437211D01*
X73114803Y-70395197D01*
X72479803Y-69760197D01*
X72439410Y-69733006D01*
X72390000Y-69723000D01*
X69850000Y-69723000D01*
X69802211Y-69732334D01*
X69760197Y-69760197D01*
X67892394Y-71628000D01*
X65522531Y-71628000D01*
X65612917Y-71495717D01*
X65663283Y-71247000D01*
X65663283Y-70231000D01*
X65619563Y-69998648D01*
X65482243Y-69785247D01*
X65272717Y-69642083D01*
X65024000Y-69591717D01*
X64917777Y-69591717D01*
X64945242Y-69550613D01*
X65012000Y-69215000D01*
X65012000Y-69032159D01*
X65311850Y-68732833D01*
X65523758Y-68222501D01*
X65524240Y-67669923D01*
X65375447Y-67309818D01*
X65390130Y-67295135D01*
X65390133Y-67295133D01*
X65580242Y-67010613D01*
X65610283Y-66859588D01*
X65647001Y-66675000D01*
X65647000Y-66674995D01*
X65647000Y-66154246D01*
X65744123Y-66089350D01*
X65835757Y-66231753D01*
X66045283Y-66374917D01*
X66294000Y-66425283D01*
X68326000Y-66425283D01*
X68558352Y-66381563D01*
X68771753Y-66244243D01*
X68914917Y-66034717D01*
X68965283Y-65786000D01*
X68965283Y-65659000D01*
X70252117Y-65659000D01*
X70252117Y-67691000D01*
X70295837Y-67923352D01*
X70433157Y-68136753D01*
X70642683Y-68279917D01*
X70891400Y-68330283D01*
X72618600Y-68330283D01*
X72850952Y-68286563D01*
X73064353Y-68149243D01*
X73207517Y-67939717D01*
X73219360Y-67881234D01*
X73240987Y-67913601D01*
X73724572Y-68236723D01*
X74295000Y-68350188D01*
X74865428Y-68236723D01*
X75349013Y-67913601D01*
X75565000Y-67590354D01*
X75780987Y-67913601D01*
X76264572Y-68236723D01*
X76835000Y-68350188D01*
X77405428Y-68236723D01*
X77889013Y-67913601D01*
X78212135Y-67430016D01*
X78325600Y-66859588D01*
X78325600Y-66490412D01*
X78212135Y-65919984D01*
X77889013Y-65436399D01*
X77405428Y-65113277D01*
X76835000Y-64999812D01*
X76264572Y-65113277D01*
X75780987Y-65436399D01*
X75565000Y-65759646D01*
X75349013Y-65436399D01*
X74865428Y-65113277D01*
X74295000Y-64999812D01*
X73724572Y-65113277D01*
X73240987Y-65436399D01*
X73221489Y-65465580D01*
X73214163Y-65426648D01*
X73076843Y-65213247D01*
X72867317Y-65070083D01*
X72618600Y-65019717D01*
X70891400Y-65019717D01*
X70659048Y-65063437D01*
X70445647Y-65200757D01*
X70302483Y-65410283D01*
X70252117Y-65659000D01*
X68965283Y-65659000D01*
X68965283Y-63754000D01*
X68921563Y-63521648D01*
X68784243Y-63308247D01*
X68574717Y-63165083D01*
X68326000Y-63114717D01*
X66294000Y-63114717D01*
X66061648Y-63158437D01*
X65848247Y-63295757D01*
X65742949Y-63449865D01*
X65647000Y-63385754D01*
X65647000Y-63048583D01*
X72986839Y-63048583D01*
X73127669Y-63389417D01*
X73388211Y-63650414D01*
X73728799Y-63791839D01*
X74097583Y-63792161D01*
X74400495Y-63667000D01*
X74544717Y-63667000D01*
X74544717Y-63881000D01*
X74588437Y-64113352D01*
X74725757Y-64326753D01*
X74935283Y-64469917D01*
X75184000Y-64520283D01*
X77216000Y-64520283D01*
X77448352Y-64476563D01*
X77661753Y-64339243D01*
X77767051Y-64185135D01*
X78111251Y-64415122D01*
X78740000Y-64540188D01*
X79368749Y-64415122D01*
X79901776Y-64058964D01*
X80257934Y-63525937D01*
X80383000Y-62897188D01*
X80383000Y-62832812D01*
X80257934Y-62204063D01*
X79901776Y-61671036D01*
X79368749Y-61314878D01*
X78740000Y-61189812D01*
X78111251Y-61314878D01*
X77765877Y-61545650D01*
X77674243Y-61403247D01*
X77464717Y-61260083D01*
X77216000Y-61209717D01*
X75184000Y-61209717D01*
X74951648Y-61253437D01*
X74738247Y-61390757D01*
X74595083Y-61600283D01*
X74544717Y-61849000D01*
X74544717Y-62063000D01*
X74399846Y-62063000D01*
X74099201Y-61938161D01*
X73730417Y-61937839D01*
X73389583Y-62078669D01*
X73128586Y-62339211D01*
X72987161Y-62679799D01*
X72986839Y-63048583D01*
X65647000Y-63048583D01*
X65647000Y-62344246D01*
X65744123Y-62279350D01*
X65835757Y-62421753D01*
X66045283Y-62564917D01*
X66294000Y-62615283D01*
X68326000Y-62615283D01*
X68558352Y-62571563D01*
X68771753Y-62434243D01*
X68914917Y-62224717D01*
X68965283Y-61976000D01*
X68965283Y-59944000D01*
X68921563Y-59711648D01*
X68906139Y-59687679D01*
X69376910Y-59216909D01*
X69621212Y-58851284D01*
X69707000Y-58420000D01*
X69707000Y-54331200D01*
X72457900Y-57082100D01*
X72718088Y-57255951D01*
X73025000Y-57317000D01*
X74929995Y-57317000D01*
X74930000Y-57317001D01*
X75236912Y-57255951D01*
X75497100Y-57082100D01*
X75897199Y-56682000D01*
X81270665Y-56682000D01*
X81150410Y-56857997D01*
X80969417Y-56857839D01*
X80628583Y-56998669D01*
X80367586Y-57259211D01*
X80226161Y-57599799D01*
X80225839Y-57968583D01*
X80366669Y-58309417D01*
X80627211Y-58570414D01*
X80967799Y-58711839D01*
X81153168Y-58712001D01*
X81168730Y-58736185D01*
X81131083Y-58791283D01*
X81111497Y-58888000D01*
X73787000Y-58888000D01*
X73480088Y-58949049D01*
X73219900Y-59122900D01*
X73219898Y-59122903D01*
X73055446Y-59287355D01*
X72754583Y-59411669D01*
X72493586Y-59672211D01*
X72492654Y-59674455D01*
X72284645Y-59466445D01*
X72160331Y-59165583D01*
X71899789Y-58904586D01*
X71559201Y-58763161D01*
X71190417Y-58762839D01*
X70849583Y-58903669D01*
X70588586Y-59164211D01*
X70447161Y-59504799D01*
X70446839Y-59873583D01*
X70587669Y-60214417D01*
X70848211Y-60475414D01*
X71150904Y-60601103D01*
X72076898Y-61527097D01*
X72076900Y-61527100D01*
X72337088Y-61700951D01*
X72644000Y-61762000D01*
X73659995Y-61762000D01*
X73660000Y-61762001D01*
X73966912Y-61700951D01*
X74227100Y-61527100D01*
X74712198Y-61042002D01*
X79973802Y-61042002D01*
X81080717Y-62148916D01*
X81080717Y-62245000D01*
X81124437Y-62477352D01*
X81168730Y-62546185D01*
X81131083Y-62601283D01*
X81080717Y-62850000D01*
X81080717Y-64150000D01*
X81124437Y-64382352D01*
X81168730Y-64451185D01*
X81131083Y-64506283D01*
X81080717Y-64755000D01*
X81080717Y-66055000D01*
X81124437Y-66287352D01*
X81261757Y-66500753D01*
X81471283Y-66643917D01*
X81720000Y-66694283D01*
X83220000Y-66694283D01*
X83452352Y-66650563D01*
X83665753Y-66513243D01*
X83808917Y-66303717D01*
X83818558Y-66256108D01*
X83824437Y-66287352D01*
X83961757Y-66500753D01*
X84171283Y-66643917D01*
X84420000Y-66694283D01*
X85920000Y-66694283D01*
X86152352Y-66650563D01*
X86365753Y-66513243D01*
X86508917Y-66303717D01*
X86528503Y-66207000D01*
X86631308Y-66207000D01*
X86658677Y-66249533D01*
X86868203Y-66392697D01*
X87116920Y-66443063D01*
X87914480Y-66443063D01*
X88146832Y-66399343D01*
X88247974Y-66334260D01*
X88255822Y-66342107D01*
X88489211Y-66438780D01*
X88728550Y-66438780D01*
X88887300Y-66280030D01*
X88887300Y-65532000D01*
X89141300Y-65532000D01*
X89141300Y-66280030D01*
X89300050Y-66438780D01*
X89539389Y-66438780D01*
X89772778Y-66342107D01*
X89951407Y-66163479D01*
X90048080Y-65930090D01*
X90048080Y-65690750D01*
X89889330Y-65532000D01*
X89141300Y-65532000D01*
X88887300Y-65532000D01*
X88867300Y-65532000D01*
X88867300Y-65278000D01*
X88887300Y-65278000D01*
X88887300Y-64529970D01*
X89141300Y-64529970D01*
X89141300Y-65278000D01*
X89889330Y-65278000D01*
X90048080Y-65119250D01*
X90048080Y-64879910D01*
X89951407Y-64646521D01*
X89772778Y-64467893D01*
X89539389Y-64371220D01*
X89300050Y-64371220D01*
X89141300Y-64529970D01*
X88887300Y-64529970D01*
X88728550Y-64371220D01*
X88489211Y-64371220D01*
X88255822Y-64467893D01*
X88248278Y-64475437D01*
X88163197Y-64417303D01*
X87914480Y-64366937D01*
X87116920Y-64366937D01*
X86884568Y-64410657D01*
X86671167Y-64547977D01*
X86633571Y-64603000D01*
X86530682Y-64603000D01*
X86515563Y-64522648D01*
X86471270Y-64453815D01*
X86508917Y-64398717D01*
X86559283Y-64150000D01*
X86559283Y-63865750D01*
X90790000Y-63865750D01*
X90790000Y-64456309D01*
X90886673Y-64689698D01*
X91065301Y-64868327D01*
X91298690Y-64965000D01*
X91789250Y-64965000D01*
X91948000Y-64806250D01*
X91948000Y-63707000D01*
X90948750Y-63707000D01*
X90790000Y-63865750D01*
X86559283Y-63865750D01*
X86559283Y-62850000D01*
X86515563Y-62617648D01*
X86471270Y-62548815D01*
X86508917Y-62493717D01*
X86528503Y-62397000D01*
X86631308Y-62397000D01*
X86658677Y-62439533D01*
X86868203Y-62582697D01*
X87116920Y-62633063D01*
X87914480Y-62633063D01*
X88146832Y-62589343D01*
X88247974Y-62524260D01*
X88255822Y-62532107D01*
X88489211Y-62628780D01*
X88728550Y-62628780D01*
X88887300Y-62470030D01*
X88887300Y-61722000D01*
X89141300Y-61722000D01*
X89141300Y-62470030D01*
X89300050Y-62628780D01*
X89539389Y-62628780D01*
X89772778Y-62532107D01*
X89951407Y-62353479D01*
X90048080Y-62120090D01*
X90048080Y-61880750D01*
X89889330Y-61722000D01*
X89141300Y-61722000D01*
X88887300Y-61722000D01*
X88867300Y-61722000D01*
X88867300Y-61468000D01*
X88887300Y-61468000D01*
X88887300Y-60719970D01*
X89141300Y-60719970D01*
X89141300Y-61468000D01*
X89889330Y-61468000D01*
X90048080Y-61309250D01*
X90048080Y-61069910D01*
X89951407Y-60836521D01*
X89772778Y-60657893D01*
X89539389Y-60561220D01*
X89300050Y-60561220D01*
X89141300Y-60719970D01*
X88887300Y-60719970D01*
X88728550Y-60561220D01*
X88489211Y-60561220D01*
X88255822Y-60657893D01*
X88248278Y-60665437D01*
X88163197Y-60607303D01*
X87914480Y-60556937D01*
X87116920Y-60556937D01*
X86884568Y-60600657D01*
X86671167Y-60737977D01*
X86633571Y-60793000D01*
X86530682Y-60793000D01*
X86515563Y-60712648D01*
X86471270Y-60643815D01*
X86508917Y-60588717D01*
X86559283Y-60340000D01*
X86559283Y-59040000D01*
X86515563Y-58807648D01*
X86471270Y-58738815D01*
X86508917Y-58683717D01*
X86527002Y-58594411D01*
X86809799Y-58711839D01*
X87178583Y-58712161D01*
X87472970Y-58590522D01*
X87520325Y-58705129D01*
X87977464Y-59163067D01*
X88575052Y-59411207D01*
X89222110Y-59411772D01*
X89820129Y-59164675D01*
X90278067Y-58707536D01*
X90487709Y-58202661D01*
X90695325Y-58705129D01*
X91152464Y-59163067D01*
X91273000Y-59213118D01*
X91273000Y-59519318D01*
X91192648Y-59534437D01*
X90979247Y-59671757D01*
X90836083Y-59881283D01*
X90785717Y-60130000D01*
X90785717Y-61630000D01*
X90829437Y-61862352D01*
X90966757Y-62075753D01*
X91176283Y-62218917D01*
X91219716Y-62227712D01*
X91065301Y-62291673D01*
X90886673Y-62470302D01*
X90790000Y-62703691D01*
X90790000Y-63294250D01*
X90948750Y-63453000D01*
X91948000Y-63453000D01*
X91948000Y-63433000D01*
X92202000Y-63433000D01*
X92202000Y-63453000D01*
X92222000Y-63453000D01*
X92222000Y-63707000D01*
X92202000Y-63707000D01*
X92202000Y-64806250D01*
X92360750Y-64965000D01*
X92851310Y-64965000D01*
X93084699Y-64868327D01*
X93263327Y-64689698D01*
X93352769Y-64473767D01*
X93369437Y-64562352D01*
X93506757Y-64775753D01*
X93716283Y-64918917D01*
X93965000Y-64969283D01*
X95265000Y-64969283D01*
X95497352Y-64925563D01*
X95710753Y-64788243D01*
X95853917Y-64578717D01*
X95878565Y-64457000D01*
X98141734Y-64457000D01*
X99133000Y-65448265D01*
X99133000Y-72718167D01*
X99077138Y-72754113D01*
X99069698Y-72746673D01*
X98836309Y-72650000D01*
X98395750Y-72650000D01*
X98237000Y-72808750D01*
X98237000Y-73533000D01*
X98257000Y-73533000D01*
X98257000Y-73787000D01*
X98237000Y-73787000D01*
X98237000Y-74511250D01*
X98395750Y-74670000D01*
X98836309Y-74670000D01*
X99069698Y-74573327D01*
X99076820Y-74566205D01*
X99133000Y-74604592D01*
X99133000Y-74610000D01*
X99199758Y-74945613D01*
X99389867Y-75230133D01*
X99429734Y-75270000D01*
X98985263Y-75453652D01*
X98316002Y-76121746D01*
X97953354Y-76995099D01*
X97952529Y-77940752D01*
X98313652Y-78814737D01*
X98981746Y-79483998D01*
X99855099Y-79846646D01*
X100800752Y-79847471D01*
X101674737Y-79486348D01*
X102343998Y-78818254D01*
X102706646Y-77944901D01*
X102707471Y-76999248D01*
X102346348Y-76125263D01*
X101678254Y-75456002D01*
X101207000Y-75260320D01*
X101207000Y-74930000D01*
X101172142Y-74754758D01*
X101140242Y-74594386D01*
X101064301Y-74480733D01*
X101198917Y-74283717D01*
X101249283Y-74035000D01*
X101249283Y-73285000D01*
X101205563Y-73052648D01*
X101068243Y-72839247D01*
X100887000Y-72715408D01*
X100887000Y-65085000D01*
X100843901Y-64868327D01*
X100820242Y-64749386D01*
X100722430Y-64603000D01*
X100630133Y-64464867D01*
X100630130Y-64464865D01*
X99125133Y-62959867D01*
X98840613Y-62769758D01*
X98505000Y-62703000D01*
X95880386Y-62703000D01*
X95860563Y-62597648D01*
X95723243Y-62384247D01*
X95513717Y-62241083D01*
X95466108Y-62231442D01*
X95497352Y-62225563D01*
X95710753Y-62088243D01*
X95853917Y-61878717D01*
X95904283Y-61630000D01*
X95904283Y-60130000D01*
X95860563Y-59897648D01*
X95723243Y-59684247D01*
X95513717Y-59541083D01*
X95265000Y-59490717D01*
X93965000Y-59490717D01*
X93732648Y-59534437D01*
X93519247Y-59671757D01*
X93376083Y-59881283D01*
X93345708Y-60031281D01*
X93320563Y-59897648D01*
X93183243Y-59684247D01*
X92973717Y-59541083D01*
X92877000Y-59521497D01*
X92877000Y-59213485D01*
X92995129Y-59164675D01*
X93453067Y-58707536D01*
X93701207Y-58109948D01*
X93701772Y-57462890D01*
X93454675Y-56864871D01*
X92997536Y-56406933D01*
X92399948Y-56158793D01*
X92295498Y-56158702D01*
X93277097Y-55177102D01*
X93277100Y-55177100D01*
X93450951Y-54916912D01*
X93512000Y-54610000D01*
X93512000Y-49065682D01*
X93592352Y-49050563D01*
X93805753Y-48913243D01*
X93948917Y-48703717D01*
X93999283Y-48455000D01*
X93999283Y-46955000D01*
X93955563Y-46722648D01*
X93818243Y-46509247D01*
X93608717Y-46366083D01*
X93561108Y-46356442D01*
X93592352Y-46350563D01*
X93805753Y-46213243D01*
X93948917Y-46003717D01*
X93999283Y-45755000D01*
X93999283Y-44417812D01*
X95512000Y-44417812D01*
X95512000Y-44482188D01*
X95637066Y-45110937D01*
X95993224Y-45643964D01*
X96526251Y-46000122D01*
X97155000Y-46125188D01*
X97783749Y-46000122D01*
X98119889Y-45775520D01*
X98140673Y-45825698D01*
X98319301Y-46004327D01*
X98552690Y-46101000D01*
X99409250Y-46101000D01*
X99568000Y-45942250D01*
X99568000Y-44577000D01*
X99822000Y-44577000D01*
X99822000Y-45942250D01*
X99980750Y-46101000D01*
X100837310Y-46101000D01*
X101070699Y-46004327D01*
X101249327Y-45825698D01*
X101346000Y-45592309D01*
X101346000Y-44735750D01*
X101187250Y-44577000D01*
X99822000Y-44577000D01*
X99568000Y-44577000D01*
X99548000Y-44577000D01*
X99548000Y-44323000D01*
X99568000Y-44323000D01*
X99568000Y-42957750D01*
X99822000Y-42957750D01*
X99822000Y-44323000D01*
X101187250Y-44323000D01*
X101346000Y-44164250D01*
X101346000Y-43307691D01*
X101249327Y-43074302D01*
X101070699Y-42895673D01*
X100837310Y-42799000D01*
X99980750Y-42799000D01*
X99822000Y-42957750D01*
X99568000Y-42957750D01*
X99409250Y-42799000D01*
X98552690Y-42799000D01*
X98319301Y-42895673D01*
X98140673Y-43074302D01*
X98119889Y-43124480D01*
X97783749Y-42899878D01*
X97155000Y-42774812D01*
X96526251Y-42899878D01*
X95993224Y-43256036D01*
X95637066Y-43789063D01*
X95512000Y-44417812D01*
X93999283Y-44417812D01*
X93999283Y-44255000D01*
X93955563Y-44022648D01*
X93818243Y-43809247D01*
X93608717Y-43666083D01*
X93512000Y-43646497D01*
X93512000Y-42178700D01*
X94420100Y-41270600D01*
X94506692Y-41141005D01*
X94559572Y-41176338D01*
X95130000Y-41289803D01*
X95700428Y-41176338D01*
X96184013Y-40853216D01*
X96507135Y-40369631D01*
X96620600Y-39799203D01*
X96620600Y-39740797D01*
X96507135Y-39170369D01*
X96184013Y-38686784D01*
X95904472Y-38500000D01*
X96184013Y-38313216D01*
X96507135Y-37829631D01*
X96620600Y-37259203D01*
X96620600Y-37200797D01*
X96507135Y-36630369D01*
X96184013Y-36146784D01*
X95700428Y-35823662D01*
X95130000Y-35710197D01*
X94559572Y-35823662D01*
X94075987Y-36146784D01*
X93860000Y-36470031D01*
X93644013Y-36146784D01*
X93160428Y-35823662D01*
X92590000Y-35710197D01*
X92019572Y-35823662D01*
X91535987Y-36146784D01*
X91320000Y-36470031D01*
X91104013Y-36146784D01*
X90620428Y-35823662D01*
X90050000Y-35710197D01*
X89479572Y-35823662D01*
X88995987Y-36146784D01*
X88780000Y-36470031D01*
X88564013Y-36146784D01*
X88080428Y-35823662D01*
X87510000Y-35710197D01*
X86939572Y-35823662D01*
X86455987Y-36146784D01*
X86240000Y-36470031D01*
X86024013Y-36146784D01*
X85540428Y-35823662D01*
X84970000Y-35710197D01*
X84399572Y-35823662D01*
X83915987Y-36146784D01*
X83700000Y-36470031D01*
X83484013Y-36146784D01*
X83000428Y-35823662D01*
X82430000Y-35710197D01*
X81859572Y-35823662D01*
X81375987Y-36146784D01*
X81160000Y-36470031D01*
X80944013Y-36146784D01*
X80460428Y-35823662D01*
X79890000Y-35710197D01*
X79319572Y-35823662D01*
X78835987Y-36146784D01*
X78620000Y-36470031D01*
X78404013Y-36146784D01*
X77920428Y-35823662D01*
X77350000Y-35710197D01*
X76779572Y-35823662D01*
X76295987Y-36146784D01*
X76080000Y-36470031D01*
X75864013Y-36146784D01*
X75380428Y-35823662D01*
X74810000Y-35710197D01*
X74239572Y-35823662D01*
X73755987Y-36146784D01*
X73540000Y-36470031D01*
X73324013Y-36146784D01*
X72840428Y-35823662D01*
X72270000Y-35710197D01*
X71699572Y-35823662D01*
X71215987Y-36146784D01*
X71000000Y-36470031D01*
X70784013Y-36146784D01*
X70300428Y-35823662D01*
X69730000Y-35710197D01*
X69159572Y-35823662D01*
X68675987Y-36146784D01*
X68460000Y-36470031D01*
X68244013Y-36146784D01*
X67760428Y-35823662D01*
X67190000Y-35710197D01*
X66619572Y-35823662D01*
X66135987Y-36146784D01*
X65920000Y-36470031D01*
X65704013Y-36146784D01*
X65220428Y-35823662D01*
X64650000Y-35710197D01*
X64079572Y-35823662D01*
X63595987Y-36146784D01*
X63380000Y-36470031D01*
X63164013Y-36146784D01*
X62680428Y-35823662D01*
X62110000Y-35710197D01*
X61539572Y-35823662D01*
X61055987Y-36146784D01*
X60840000Y-36470031D01*
X60624013Y-36146784D01*
X60140428Y-35823662D01*
X59570000Y-35710197D01*
X58999572Y-35823662D01*
X58515987Y-36146784D01*
X58300000Y-36470031D01*
X58084013Y-36146784D01*
X57600428Y-35823662D01*
X57030000Y-35710197D01*
X56459572Y-35823662D01*
X55975987Y-36146784D01*
X55760000Y-36470031D01*
X55544013Y-36146784D01*
X55060428Y-35823662D01*
X54490000Y-35710197D01*
X53919572Y-35823662D01*
X53435987Y-36146784D01*
X53218269Y-36472621D01*
X53156821Y-36341510D01*
X52724947Y-35947312D01*
X52309026Y-35775042D01*
X52077000Y-35896183D01*
X52077000Y-37103000D01*
X52097000Y-37103000D01*
X52097000Y-37357000D01*
X52077000Y-37357000D01*
X52077000Y-37377000D01*
X51823000Y-37377000D01*
X51823000Y-37357000D01*
X51803000Y-37357000D01*
X51803000Y-37103000D01*
X51823000Y-37103000D01*
X51823000Y-35896183D01*
X51590974Y-35775042D01*
X51175053Y-35947312D01*
X50743179Y-36341510D01*
X50681731Y-36472621D01*
X50464013Y-36146784D01*
X49980428Y-35823662D01*
X49410000Y-35710197D01*
X48839572Y-35823662D01*
X48421514Y-36103000D01*
X47858486Y-36103000D01*
X47440428Y-35823662D01*
X46870000Y-35710197D01*
X46299572Y-35823662D01*
X45815987Y-36146784D01*
X45635768Y-36416499D01*
X45619387Y-36419758D01*
X45334867Y-36609867D01*
X45212000Y-36732734D01*
X45212000Y-35687000D01*
X97028000Y-35687000D01*
X97028000Y-37242536D01*
G36*
X57157000Y-39643000D02*
X57177000Y-39643000D01*
X57177000Y-39897000D01*
X57157000Y-39897000D01*
X57157000Y-41103817D01*
X57389026Y-41224958D01*
X57804947Y-41052688D01*
X58236821Y-40658490D01*
X58298269Y-40527379D01*
X58515987Y-40853216D01*
X58768000Y-41021606D01*
X58768000Y-41789995D01*
X58767999Y-41790000D01*
X58829049Y-42096912D01*
X58888000Y-42185139D01*
X58888000Y-46218009D01*
X58635987Y-46386399D01*
X58312865Y-46869984D01*
X58199400Y-47440412D01*
X58199400Y-47809588D01*
X58312865Y-48380016D01*
X58635987Y-48863601D01*
X59119572Y-49186723D01*
X59690000Y-49300188D01*
X60260428Y-49186723D01*
X60744013Y-48863601D01*
X60960000Y-48540354D01*
X61175987Y-48863601D01*
X61659572Y-49186723D01*
X62230000Y-49300188D01*
X62800428Y-49186723D01*
X63284013Y-48863601D01*
X63303511Y-48834420D01*
X63310837Y-48873352D01*
X63448157Y-49086753D01*
X63657683Y-49229917D01*
X63906400Y-49280283D01*
X65633600Y-49280283D01*
X65865952Y-49236563D01*
X66079353Y-49099243D01*
X66222517Y-48889717D01*
X66272883Y-48641000D01*
X66272883Y-46609000D01*
X66229163Y-46376648D01*
X66091843Y-46163247D01*
X65882317Y-46020083D01*
X65633600Y-45969717D01*
X65572000Y-45969717D01*
X65572000Y-41910005D01*
X65572001Y-41910000D01*
X65510951Y-41603088D01*
X65468522Y-41539588D01*
X65452000Y-41514861D01*
X65452000Y-41021606D01*
X65704013Y-40853216D01*
X65920000Y-40529969D01*
X66135987Y-40853216D01*
X66619572Y-41176338D01*
X67190000Y-41289803D01*
X67760428Y-41176338D01*
X68244013Y-40853216D01*
X68460000Y-40529969D01*
X68675987Y-40853216D01*
X69159572Y-41176338D01*
X69730000Y-41289803D01*
X70300428Y-41176338D01*
X70784013Y-40853216D01*
X71000000Y-40529969D01*
X71215987Y-40853216D01*
X71699572Y-41176338D01*
X72270000Y-41289803D01*
X72840428Y-41176338D01*
X73324013Y-40853216D01*
X73540000Y-40529969D01*
X73755987Y-40853216D01*
X74239572Y-41176338D01*
X74810000Y-41289803D01*
X75280586Y-41196198D01*
X75332049Y-41454912D01*
X75505900Y-41715100D01*
X75950517Y-42159717D01*
X74701400Y-42159717D01*
X74469048Y-42203437D01*
X74255647Y-42340757D01*
X74112483Y-42550283D01*
X74100640Y-42608766D01*
X74079013Y-42576399D01*
X73595428Y-42253277D01*
X73025000Y-42139812D01*
X72454572Y-42253277D01*
X71970987Y-42576399D01*
X71755000Y-42899646D01*
X71539013Y-42576399D01*
X71055428Y-42253277D01*
X70485000Y-42139812D01*
X69914572Y-42253277D01*
X69430987Y-42576399D01*
X69107865Y-43059984D01*
X68994400Y-43630412D01*
X68994400Y-43999588D01*
X69107865Y-44570016D01*
X69430987Y-45053601D01*
X69914572Y-45376723D01*
X70485000Y-45490188D01*
X71055428Y-45376723D01*
X71539013Y-45053601D01*
X71755000Y-44730354D01*
X71970987Y-45053601D01*
X72454572Y-45376723D01*
X73025000Y-45490188D01*
X73595428Y-45376723D01*
X74079013Y-45053601D01*
X74098511Y-45024420D01*
X74105837Y-45063352D01*
X74243157Y-45276753D01*
X74452683Y-45419917D01*
X74701400Y-45470283D01*
X75950517Y-45470283D01*
X75447645Y-45973155D01*
X74936251Y-46074878D01*
X74403224Y-46431036D01*
X74047066Y-46964063D01*
X73922000Y-47592812D01*
X73922000Y-47657188D01*
X74047066Y-48285937D01*
X74403224Y-48818964D01*
X74936251Y-49175122D01*
X75565000Y-49300188D01*
X76193749Y-49175122D01*
X76539123Y-48944350D01*
X76630757Y-49086753D01*
X76840283Y-49229917D01*
X77089000Y-49280283D01*
X79121000Y-49280283D01*
X79353352Y-49236563D01*
X79566753Y-49099243D01*
X79709917Y-48889717D01*
X79760283Y-48641000D01*
X79760283Y-46609000D01*
X79716563Y-46376648D01*
X79579243Y-46163247D01*
X79369717Y-46020083D01*
X79121000Y-45969717D01*
X77719483Y-45969717D01*
X78037100Y-45652100D01*
X78210951Y-45391912D01*
X78272001Y-45085000D01*
X78272000Y-45084995D01*
X78272000Y-42545000D01*
X78210951Y-42238088D01*
X78037100Y-41977900D01*
X78037097Y-41977898D01*
X77348755Y-41289555D01*
X77350000Y-41289803D01*
X77920428Y-41176338D01*
X78404013Y-40853216D01*
X78620000Y-40529969D01*
X78835987Y-40853216D01*
X79088000Y-41021606D01*
X79088000Y-41789995D01*
X79087999Y-41790000D01*
X79149049Y-42096912D01*
X79322900Y-42357100D01*
X80369355Y-43403555D01*
X80469497Y-43645918D01*
X80397648Y-43659437D01*
X80184247Y-43796757D01*
X80041083Y-44006283D01*
X79990717Y-44255000D01*
X79990717Y-45755000D01*
X80034437Y-45987352D01*
X80171757Y-46200753D01*
X80381283Y-46343917D01*
X80428892Y-46353558D01*
X80397648Y-46359437D01*
X80184247Y-46496757D01*
X80041083Y-46706283D01*
X79990717Y-46955000D01*
X79990717Y-48455000D01*
X80034437Y-48687352D01*
X80171757Y-48900753D01*
X80352886Y-49024514D01*
X80352839Y-49078583D01*
X80470358Y-49363000D01*
X76685846Y-49363000D01*
X76385201Y-49238161D01*
X76016417Y-49237839D01*
X75675583Y-49378669D01*
X75414586Y-49639211D01*
X75273161Y-49979799D01*
X75272874Y-50308000D01*
X69850000Y-50308000D01*
X69418716Y-50393788D01*
X69053090Y-50638091D01*
X67783091Y-51908091D01*
X67538788Y-52273716D01*
X67453000Y-52705000D01*
X67453000Y-57928000D01*
X67071886Y-57928000D01*
X67091407Y-57908479D01*
X67188080Y-57675090D01*
X67188080Y-57435750D01*
X67029330Y-57277000D01*
X66281300Y-57277000D01*
X66281300Y-57297000D01*
X66027300Y-57297000D01*
X66027300Y-57277000D01*
X66007300Y-57277000D01*
X66007300Y-57023000D01*
X66027300Y-57023000D01*
X66027300Y-56274970D01*
X65949830Y-56197500D01*
X66027300Y-56120030D01*
X66027300Y-55372000D01*
X66281300Y-55372000D01*
X66281300Y-56120030D01*
X66358770Y-56197500D01*
X66281300Y-56274970D01*
X66281300Y-57023000D01*
X67029330Y-57023000D01*
X67188080Y-56864250D01*
X67188080Y-56624910D01*
X67091407Y-56391521D01*
X66912778Y-56212893D01*
X66875616Y-56197500D01*
X66912778Y-56182107D01*
X67091407Y-56003479D01*
X67188080Y-55770090D01*
X67188080Y-55530750D01*
X67029330Y-55372000D01*
X66281300Y-55372000D01*
X66027300Y-55372000D01*
X66007300Y-55372000D01*
X66007300Y-55118000D01*
X66027300Y-55118000D01*
X66027300Y-54369970D01*
X65949830Y-54292500D01*
X66027300Y-54215030D01*
X66027300Y-53467000D01*
X66281300Y-53467000D01*
X66281300Y-54215030D01*
X66358770Y-54292500D01*
X66281300Y-54369970D01*
X66281300Y-55118000D01*
X67029330Y-55118000D01*
X67188080Y-54959250D01*
X67188080Y-54719910D01*
X67091407Y-54486521D01*
X66912778Y-54307893D01*
X66875616Y-54292500D01*
X66912778Y-54277107D01*
X67091407Y-54098479D01*
X67188080Y-53865090D01*
X67188080Y-53625750D01*
X67029330Y-53467000D01*
X66281300Y-53467000D01*
X66027300Y-53467000D01*
X66007300Y-53467000D01*
X66007300Y-53213000D01*
X66027300Y-53213000D01*
X66027300Y-52464970D01*
X65949830Y-52387500D01*
X66027300Y-52310030D01*
X66027300Y-51562000D01*
X66281300Y-51562000D01*
X66281300Y-52310030D01*
X66358770Y-52387500D01*
X66281300Y-52464970D01*
X66281300Y-53213000D01*
X67029330Y-53213000D01*
X67188080Y-53054250D01*
X67188080Y-52814910D01*
X67091407Y-52581521D01*
X66912778Y-52402893D01*
X66875616Y-52387500D01*
X66912778Y-52372107D01*
X67091407Y-52193479D01*
X67188080Y-51960090D01*
X67188080Y-51720750D01*
X67029330Y-51562000D01*
X66281300Y-51562000D01*
X66027300Y-51562000D01*
X66007300Y-51562000D01*
X66007300Y-51308000D01*
X66027300Y-51308000D01*
X66027300Y-51288000D01*
X66281300Y-51288000D01*
X66281300Y-51308000D01*
X67029330Y-51308000D01*
X67188080Y-51149250D01*
X67188080Y-50967000D01*
X67309995Y-50967000D01*
X67310000Y-50967001D01*
X67616912Y-50905951D01*
X67877100Y-50732100D01*
X68406129Y-50203071D01*
X68509583Y-50203161D01*
X68850417Y-50062331D01*
X69111414Y-49801789D01*
X69252839Y-49461201D01*
X69253161Y-49092417D01*
X69112331Y-48751583D01*
X68851789Y-48490586D01*
X68511201Y-48349161D01*
X68142417Y-48348839D01*
X67801583Y-48489669D01*
X67540586Y-48750211D01*
X67505079Y-48835721D01*
X67031506Y-49309294D01*
X66860201Y-49238161D01*
X66491417Y-49237839D01*
X66150583Y-49378669D01*
X65889586Y-49639211D01*
X65748161Y-49979799D01*
X65747839Y-50348583D01*
X65769588Y-50401220D01*
X65629211Y-50401220D01*
X65395822Y-50497893D01*
X65388278Y-50505437D01*
X65303197Y-50447303D01*
X65054480Y-50396937D01*
X64256920Y-50396937D01*
X64024568Y-50440657D01*
X63811167Y-50577977D01*
X63773571Y-50633000D01*
X63350846Y-50633000D01*
X63050201Y-50508161D01*
X62681417Y-50507839D01*
X62340583Y-50648669D01*
X62079586Y-50909211D01*
X61938161Y-51249799D01*
X61937839Y-51618583D01*
X62078669Y-51959417D01*
X62339211Y-52220414D01*
X62679799Y-52361839D01*
X63048583Y-52362161D01*
X63351495Y-52237000D01*
X63771308Y-52237000D01*
X63798677Y-52279533D01*
X63958074Y-52388445D01*
X63811167Y-52482977D01*
X63773571Y-52538000D01*
X63350846Y-52538000D01*
X63050201Y-52413161D01*
X62681417Y-52412839D01*
X62340583Y-52553669D01*
X62079586Y-52814211D01*
X61938161Y-53154799D01*
X61937839Y-53523583D01*
X62078669Y-53864417D01*
X62339211Y-54125414D01*
X62679799Y-54266839D01*
X63048583Y-54267161D01*
X63351495Y-54142000D01*
X63771308Y-54142000D01*
X63798677Y-54184533D01*
X63958074Y-54293445D01*
X63811167Y-54387977D01*
X63773571Y-54443000D01*
X63350846Y-54443000D01*
X63050201Y-54318161D01*
X62681417Y-54317839D01*
X62340583Y-54458669D01*
X62079586Y-54719211D01*
X61938161Y-55059799D01*
X61937839Y-55428583D01*
X62056167Y-55714958D01*
X61919417Y-55714839D01*
X61578583Y-55855669D01*
X61317586Y-56116211D01*
X61274074Y-56221000D01*
X59667846Y-56221000D01*
X59367201Y-56096161D01*
X58998417Y-56095839D01*
X58657583Y-56236669D01*
X58396586Y-56497211D01*
X58255161Y-56837799D01*
X58255061Y-56952640D01*
X57954383Y-56952640D01*
X57954383Y-56579770D01*
X57910663Y-56347418D01*
X57773343Y-56134017D01*
X57563817Y-55990853D01*
X57315100Y-55940487D01*
X55714900Y-55940487D01*
X55482548Y-55984207D01*
X55269147Y-56121527D01*
X55125983Y-56331053D01*
X55075617Y-56579770D01*
X55075617Y-57090852D01*
X54788451Y-57282730D01*
X54448785Y-57622397D01*
X54290133Y-57780772D01*
X54118196Y-58194842D01*
X54117805Y-58643191D01*
X54289019Y-59057560D01*
X54605772Y-59374867D01*
X55019842Y-59546804D01*
X55075617Y-59546853D01*
X55075617Y-59579510D01*
X55119337Y-59811862D01*
X55256657Y-60025263D01*
X55466183Y-60168427D01*
X55714900Y-60218793D01*
X57085025Y-60218793D01*
X57061447Y-60233965D01*
X57033006Y-60275590D01*
X57023000Y-60325000D01*
X57023000Y-71067394D01*
X56462394Y-71628000D01*
X43942000Y-71628000D01*
X43942000Y-71325830D01*
X43986785Y-71258804D01*
X43994078Y-71241196D01*
X44087872Y-71014759D01*
X44108879Y-70909147D01*
X44450000Y-70977000D01*
X47030000Y-70977000D01*
X47269889Y-70929283D01*
X48190000Y-70929283D01*
X48422352Y-70885563D01*
X48635753Y-70748243D01*
X48778917Y-70538717D01*
X48829283Y-70290000D01*
X48829283Y-69290000D01*
X48785563Y-69057648D01*
X48648243Y-68844247D01*
X48438717Y-68701083D01*
X48217000Y-68656185D01*
X48217000Y-68424203D01*
X48422352Y-68385563D01*
X48635753Y-68248243D01*
X48778917Y-68038717D01*
X48829283Y-67790000D01*
X48829283Y-66790000D01*
X48785563Y-66557648D01*
X48648243Y-66344247D01*
X48438717Y-66201083D01*
X48217000Y-66156185D01*
X48217000Y-65924203D01*
X48422352Y-65885563D01*
X48635753Y-65748243D01*
X48778917Y-65538717D01*
X48829283Y-65290000D01*
X48829283Y-64290000D01*
X48785563Y-64057648D01*
X48648243Y-63844247D01*
X48438717Y-63701083D01*
X48217000Y-63656185D01*
X48217000Y-63424203D01*
X48422352Y-63385563D01*
X48635753Y-63248243D01*
X48778917Y-63038717D01*
X48829283Y-62790000D01*
X48829283Y-61790000D01*
X48785563Y-61557648D01*
X48648243Y-61344247D01*
X48438717Y-61201083D01*
X48190000Y-61150717D01*
X47544536Y-61150717D01*
X46720000Y-60326182D01*
X46720000Y-58912000D01*
X47217412Y-58912000D01*
X47217704Y-58912195D01*
X47404536Y-59037032D01*
X47835820Y-59122820D01*
X48090617Y-59122820D01*
X48090617Y-59795410D01*
X48134337Y-60027762D01*
X48271657Y-60241163D01*
X48481183Y-60384327D01*
X48729900Y-60434693D01*
X50330100Y-60434693D01*
X50562452Y-60390973D01*
X50775853Y-60253653D01*
X50919017Y-60044127D01*
X50969383Y-59795410D01*
X50969383Y-56196230D01*
X50925663Y-55963878D01*
X50788343Y-55750477D01*
X50578817Y-55607313D01*
X50330100Y-55556947D01*
X48729900Y-55556947D01*
X48497548Y-55600667D01*
X48284147Y-55737987D01*
X48140983Y-55947513D01*
X48090617Y-56196230D01*
X48090617Y-56758043D01*
X47850158Y-56658196D01*
X47401809Y-56657805D01*
X47401337Y-56658000D01*
X46212000Y-56658000D01*
X46212000Y-52779930D01*
X48094900Y-52779930D01*
X48094900Y-54420079D01*
X48191573Y-54653468D01*
X48370201Y-54832097D01*
X48603590Y-54928770D01*
X49244250Y-54928770D01*
X49403000Y-54770020D01*
X49403000Y-52621180D01*
X49657000Y-52621180D01*
X49657000Y-54770020D01*
X49815750Y-54928770D01*
X50456410Y-54928770D01*
X50689799Y-54832097D01*
X50868427Y-54653468D01*
X50965100Y-54420079D01*
X50965100Y-53966110D01*
X55079900Y-53966110D01*
X55079900Y-55306539D01*
X55176573Y-55539928D01*
X55355201Y-55718557D01*
X55588590Y-55815230D01*
X56229250Y-55815230D01*
X56388000Y-55656480D01*
X56388000Y-53807360D01*
X56642000Y-53807360D01*
X56642000Y-55656480D01*
X56800750Y-55815230D01*
X57441410Y-55815230D01*
X57674799Y-55718557D01*
X57853427Y-55539928D01*
X57950100Y-55306539D01*
X57950100Y-53966110D01*
X57791350Y-53807360D01*
X56642000Y-53807360D01*
X56388000Y-53807360D01*
X55238650Y-53807360D01*
X55079900Y-53966110D01*
X50965100Y-53966110D01*
X50965100Y-52779930D01*
X50806350Y-52621180D01*
X49657000Y-52621180D01*
X49403000Y-52621180D01*
X48253650Y-52621180D01*
X48094900Y-52779930D01*
X46212000Y-52779930D01*
X46212000Y-51435000D01*
X46126212Y-51003716D01*
X46101679Y-50967000D01*
X45881910Y-50638091D01*
X45812100Y-50568281D01*
X48094900Y-50568281D01*
X48094900Y-52208430D01*
X48253650Y-52367180D01*
X49403000Y-52367180D01*
X49403000Y-50218340D01*
X49657000Y-50218340D01*
X49657000Y-52367180D01*
X50806350Y-52367180D01*
X50965100Y-52208430D01*
X50965100Y-52054181D01*
X55079900Y-52054181D01*
X55079900Y-53394610D01*
X55238650Y-53553360D01*
X56388000Y-53553360D01*
X56388000Y-51704240D01*
X56642000Y-51704240D01*
X56642000Y-53553360D01*
X57791350Y-53553360D01*
X57950100Y-53394610D01*
X57950100Y-52054181D01*
X57853427Y-51820792D01*
X57674799Y-51642163D01*
X57441410Y-51545490D01*
X56800750Y-51545490D01*
X56642000Y-51704240D01*
X56388000Y-51704240D01*
X56229250Y-51545490D01*
X55588590Y-51545490D01*
X55355201Y-51642163D01*
X55176573Y-51820792D01*
X55079900Y-52054181D01*
X50965100Y-52054181D01*
X50965100Y-50568281D01*
X50868427Y-50334892D01*
X50689799Y-50156263D01*
X50456410Y-50059590D01*
X49815750Y-50059590D01*
X49657000Y-50218340D01*
X49403000Y-50218340D01*
X49244250Y-50059590D01*
X48603590Y-50059590D01*
X48370201Y-50156263D01*
X48191573Y-50334892D01*
X48094900Y-50568281D01*
X45812100Y-50568281D01*
X45246909Y-50003091D01*
X44881284Y-49758788D01*
X44450000Y-49673000D01*
X43039369Y-49673000D01*
X42838821Y-49538998D01*
X43260732Y-49162036D01*
X43514709Y-48634791D01*
X43517358Y-48619026D01*
X43396217Y-48387000D01*
X42037000Y-48387000D01*
X42037000Y-48407000D01*
X41783000Y-48407000D01*
X41783000Y-48387000D01*
X41763000Y-48387000D01*
X41763000Y-48133000D01*
X41783000Y-48133000D01*
X41783000Y-48113000D01*
X42037000Y-48113000D01*
X42037000Y-48133000D01*
X43396217Y-48133000D01*
X43517358Y-47900974D01*
X43514709Y-47885209D01*
X43260732Y-47357964D01*
X43077614Y-47194355D01*
X43158352Y-47179163D01*
X43371753Y-47041843D01*
X43504884Y-46847000D01*
X45085000Y-46847000D01*
X45516284Y-46761212D01*
X45881909Y-46516909D01*
X47666909Y-44731909D01*
X47911212Y-44366284D01*
X47933348Y-44255000D01*
X47997000Y-43935000D01*
X47997000Y-41209184D01*
X48179353Y-41091843D01*
X48322517Y-40882317D01*
X48334824Y-40821543D01*
X48355987Y-40853216D01*
X48839572Y-41176338D01*
X49410000Y-41289803D01*
X49980428Y-41176338D01*
X50464013Y-40853216D01*
X50680000Y-40529969D01*
X50895987Y-40853216D01*
X51379572Y-41176338D01*
X51666702Y-41233452D01*
X51502900Y-41342900D01*
X51502898Y-41342903D01*
X50867900Y-41977900D01*
X50694049Y-42238088D01*
X50632999Y-42545000D01*
X50633000Y-42545005D01*
X50633000Y-45084995D01*
X50632999Y-45085000D01*
X50694049Y-45391912D01*
X50867900Y-45652100D01*
X51210307Y-45994506D01*
X50864572Y-46063277D01*
X50380987Y-46386399D01*
X50165000Y-46709646D01*
X49949013Y-46386399D01*
X49465428Y-46063277D01*
X48895000Y-45949812D01*
X48324572Y-46063277D01*
X47840987Y-46386399D01*
X47517865Y-46869984D01*
X47404400Y-47440412D01*
X47404400Y-47809588D01*
X47517865Y-48380016D01*
X47840987Y-48863601D01*
X48324572Y-49186723D01*
X48895000Y-49300188D01*
X49465428Y-49186723D01*
X49949013Y-48863601D01*
X50165000Y-48540354D01*
X50380987Y-48863601D01*
X50864572Y-49186723D01*
X51435000Y-49300188D01*
X52005428Y-49186723D01*
X52489013Y-48863601D01*
X52508511Y-48834420D01*
X52515837Y-48873352D01*
X52653157Y-49086753D01*
X52862683Y-49229917D01*
X53111400Y-49280283D01*
X54838600Y-49280283D01*
X55070952Y-49236563D01*
X55284353Y-49099243D01*
X55427517Y-48889717D01*
X55477883Y-48641000D01*
X55477883Y-46609000D01*
X55434163Y-46376648D01*
X55296843Y-46163247D01*
X55087317Y-46020083D01*
X54838600Y-45969717D01*
X54663585Y-45969717D01*
X54650285Y-45949812D01*
X54542100Y-45787900D01*
X54542097Y-45787898D01*
X54223335Y-45469136D01*
X54229000Y-45470283D01*
X56261000Y-45470283D01*
X56493352Y-45426563D01*
X56706753Y-45289243D01*
X56849917Y-45079717D01*
X56900283Y-44831000D01*
X56900283Y-42799000D01*
X56856563Y-42566648D01*
X56719243Y-42353247D01*
X56509717Y-42210083D01*
X56261000Y-42159717D01*
X56047000Y-42159717D01*
X56047000Y-42051700D01*
X56320097Y-41778602D01*
X56320100Y-41778600D01*
X56493951Y-41518412D01*
X56555000Y-41211500D01*
X56555000Y-41176923D01*
X56670974Y-41224958D01*
X56903000Y-41103817D01*
X56903000Y-39897000D01*
X56883000Y-39897000D01*
X56883000Y-39643000D01*
X56903000Y-39643000D01*
X56903000Y-39623000D01*
X57157000Y-39623000D01*
X57157000Y-39643000D01*
X57157000Y-39643000D01*
G37*
X57157000Y-39643000D02*
X57177000Y-39643000D01*
X57177000Y-39897000D01*
X57157000Y-39897000D01*
X57157000Y-41103817D01*
X57389026Y-41224958D01*
X57804947Y-41052688D01*
X58236821Y-40658490D01*
X58298269Y-40527379D01*
X58515987Y-40853216D01*
X58768000Y-41021606D01*
X58768000Y-41789995D01*
X58767999Y-41790000D01*
X58829049Y-42096912D01*
X58888000Y-42185139D01*
X58888000Y-46218009D01*
X58635987Y-46386399D01*
X58312865Y-46869984D01*
X58199400Y-47440412D01*
X58199400Y-47809588D01*
X58312865Y-48380016D01*
X58635987Y-48863601D01*
X59119572Y-49186723D01*
X59690000Y-49300188D01*
X60260428Y-49186723D01*
X60744013Y-48863601D01*
X60960000Y-48540354D01*
X61175987Y-48863601D01*
X61659572Y-49186723D01*
X62230000Y-49300188D01*
X62800428Y-49186723D01*
X63284013Y-48863601D01*
X63303511Y-48834420D01*
X63310837Y-48873352D01*
X63448157Y-49086753D01*
X63657683Y-49229917D01*
X63906400Y-49280283D01*
X65633600Y-49280283D01*
X65865952Y-49236563D01*
X66079353Y-49099243D01*
X66222517Y-48889717D01*
X66272883Y-48641000D01*
X66272883Y-46609000D01*
X66229163Y-46376648D01*
X66091843Y-46163247D01*
X65882317Y-46020083D01*
X65633600Y-45969717D01*
X65572000Y-45969717D01*
X65572000Y-41910005D01*
X65572001Y-41910000D01*
X65510951Y-41603088D01*
X65468522Y-41539588D01*
X65452000Y-41514861D01*
X65452000Y-41021606D01*
X65704013Y-40853216D01*
X65920000Y-40529969D01*
X66135987Y-40853216D01*
X66619572Y-41176338D01*
X67190000Y-41289803D01*
X67760428Y-41176338D01*
X68244013Y-40853216D01*
X68460000Y-40529969D01*
X68675987Y-40853216D01*
X69159572Y-41176338D01*
X69730000Y-41289803D01*
X70300428Y-41176338D01*
X70784013Y-40853216D01*
X71000000Y-40529969D01*
X71215987Y-40853216D01*
X71699572Y-41176338D01*
X72270000Y-41289803D01*
X72840428Y-41176338D01*
X73324013Y-40853216D01*
X73540000Y-40529969D01*
X73755987Y-40853216D01*
X74239572Y-41176338D01*
X74810000Y-41289803D01*
X75280586Y-41196198D01*
X75332049Y-41454912D01*
X75505900Y-41715100D01*
X75950517Y-42159717D01*
X74701400Y-42159717D01*
X74469048Y-42203437D01*
X74255647Y-42340757D01*
X74112483Y-42550283D01*
X74100640Y-42608766D01*
X74079013Y-42576399D01*
X73595428Y-42253277D01*
X73025000Y-42139812D01*
X72454572Y-42253277D01*
X71970987Y-42576399D01*
X71755000Y-42899646D01*
X71539013Y-42576399D01*
X71055428Y-42253277D01*
X70485000Y-42139812D01*
X69914572Y-42253277D01*
X69430987Y-42576399D01*
X69107865Y-43059984D01*
X68994400Y-43630412D01*
X68994400Y-43999588D01*
X69107865Y-44570016D01*
X69430987Y-45053601D01*
X69914572Y-45376723D01*
X70485000Y-45490188D01*
X71055428Y-45376723D01*
X71539013Y-45053601D01*
X71755000Y-44730354D01*
X71970987Y-45053601D01*
X72454572Y-45376723D01*
X73025000Y-45490188D01*
X73595428Y-45376723D01*
X74079013Y-45053601D01*
X74098511Y-45024420D01*
X74105837Y-45063352D01*
X74243157Y-45276753D01*
X74452683Y-45419917D01*
X74701400Y-45470283D01*
X75950517Y-45470283D01*
X75447645Y-45973155D01*
X74936251Y-46074878D01*
X74403224Y-46431036D01*
X74047066Y-46964063D01*
X73922000Y-47592812D01*
X73922000Y-47657188D01*
X74047066Y-48285937D01*
X74403224Y-48818964D01*
X74936251Y-49175122D01*
X75565000Y-49300188D01*
X76193749Y-49175122D01*
X76539123Y-48944350D01*
X76630757Y-49086753D01*
X76840283Y-49229917D01*
X77089000Y-49280283D01*
X79121000Y-49280283D01*
X79353352Y-49236563D01*
X79566753Y-49099243D01*
X79709917Y-48889717D01*
X79760283Y-48641000D01*
X79760283Y-46609000D01*
X79716563Y-46376648D01*
X79579243Y-46163247D01*
X79369717Y-46020083D01*
X79121000Y-45969717D01*
X77719483Y-45969717D01*
X78037100Y-45652100D01*
X78210951Y-45391912D01*
X78272001Y-45085000D01*
X78272000Y-45084995D01*
X78272000Y-42545000D01*
X78210951Y-42238088D01*
X78037100Y-41977900D01*
X78037097Y-41977898D01*
X77348755Y-41289555D01*
X77350000Y-41289803D01*
X77920428Y-41176338D01*
X78404013Y-40853216D01*
X78620000Y-40529969D01*
X78835987Y-40853216D01*
X79088000Y-41021606D01*
X79088000Y-41789995D01*
X79087999Y-41790000D01*
X79149049Y-42096912D01*
X79322900Y-42357100D01*
X80369355Y-43403555D01*
X80469497Y-43645918D01*
X80397648Y-43659437D01*
X80184247Y-43796757D01*
X80041083Y-44006283D01*
X79990717Y-44255000D01*
X79990717Y-45755000D01*
X80034437Y-45987352D01*
X80171757Y-46200753D01*
X80381283Y-46343917D01*
X80428892Y-46353558D01*
X80397648Y-46359437D01*
X80184247Y-46496757D01*
X80041083Y-46706283D01*
X79990717Y-46955000D01*
X79990717Y-48455000D01*
X80034437Y-48687352D01*
X80171757Y-48900753D01*
X80352886Y-49024514D01*
X80352839Y-49078583D01*
X80470358Y-49363000D01*
X76685846Y-49363000D01*
X76385201Y-49238161D01*
X76016417Y-49237839D01*
X75675583Y-49378669D01*
X75414586Y-49639211D01*
X75273161Y-49979799D01*
X75272874Y-50308000D01*
X69850000Y-50308000D01*
X69418716Y-50393788D01*
X69053090Y-50638091D01*
X67783091Y-51908091D01*
X67538788Y-52273716D01*
X67453000Y-52705000D01*
X67453000Y-57928000D01*
X67071886Y-57928000D01*
X67091407Y-57908479D01*
X67188080Y-57675090D01*
X67188080Y-57435750D01*
X67029330Y-57277000D01*
X66281300Y-57277000D01*
X66281300Y-57297000D01*
X66027300Y-57297000D01*
X66027300Y-57277000D01*
X66007300Y-57277000D01*
X66007300Y-57023000D01*
X66027300Y-57023000D01*
X66027300Y-56274970D01*
X65949830Y-56197500D01*
X66027300Y-56120030D01*
X66027300Y-55372000D01*
X66281300Y-55372000D01*
X66281300Y-56120030D01*
X66358770Y-56197500D01*
X66281300Y-56274970D01*
X66281300Y-57023000D01*
X67029330Y-57023000D01*
X67188080Y-56864250D01*
X67188080Y-56624910D01*
X67091407Y-56391521D01*
X66912778Y-56212893D01*
X66875616Y-56197500D01*
X66912778Y-56182107D01*
X67091407Y-56003479D01*
X67188080Y-55770090D01*
X67188080Y-55530750D01*
X67029330Y-55372000D01*
X66281300Y-55372000D01*
X66027300Y-55372000D01*
X66007300Y-55372000D01*
X66007300Y-55118000D01*
X66027300Y-55118000D01*
X66027300Y-54369970D01*
X65949830Y-54292500D01*
X66027300Y-54215030D01*
X66027300Y-53467000D01*
X66281300Y-53467000D01*
X66281300Y-54215030D01*
X66358770Y-54292500D01*
X66281300Y-54369970D01*
X66281300Y-55118000D01*
X67029330Y-55118000D01*
X67188080Y-54959250D01*
X67188080Y-54719910D01*
X67091407Y-54486521D01*
X66912778Y-54307893D01*
X66875616Y-54292500D01*
X66912778Y-54277107D01*
X67091407Y-54098479D01*
X67188080Y-53865090D01*
X67188080Y-53625750D01*
X67029330Y-53467000D01*
X66281300Y-53467000D01*
X66027300Y-53467000D01*
X66007300Y-53467000D01*
X66007300Y-53213000D01*
X66027300Y-53213000D01*
X66027300Y-52464970D01*
X65949830Y-52387500D01*
X66027300Y-52310030D01*
X66027300Y-51562000D01*
X66281300Y-51562000D01*
X66281300Y-52310030D01*
X66358770Y-52387500D01*
X66281300Y-52464970D01*
X66281300Y-53213000D01*
X67029330Y-53213000D01*
X67188080Y-53054250D01*
X67188080Y-52814910D01*
X67091407Y-52581521D01*
X66912778Y-52402893D01*
X66875616Y-52387500D01*
X66912778Y-52372107D01*
X67091407Y-52193479D01*
X67188080Y-51960090D01*
X67188080Y-51720750D01*
X67029330Y-51562000D01*
X66281300Y-51562000D01*
X66027300Y-51562000D01*
X66007300Y-51562000D01*
X66007300Y-51308000D01*
X66027300Y-51308000D01*
X66027300Y-51288000D01*
X66281300Y-51288000D01*
X66281300Y-51308000D01*
X67029330Y-51308000D01*
X67188080Y-51149250D01*
X67188080Y-50967000D01*
X67309995Y-50967000D01*
X67310000Y-50967001D01*
X67616912Y-50905951D01*
X67877100Y-50732100D01*
X68406129Y-50203071D01*
X68509583Y-50203161D01*
X68850417Y-50062331D01*
X69111414Y-49801789D01*
X69252839Y-49461201D01*
X69253161Y-49092417D01*
X69112331Y-48751583D01*
X68851789Y-48490586D01*
X68511201Y-48349161D01*
X68142417Y-48348839D01*
X67801583Y-48489669D01*
X67540586Y-48750211D01*
X67505079Y-48835721D01*
X67031506Y-49309294D01*
X66860201Y-49238161D01*
X66491417Y-49237839D01*
X66150583Y-49378669D01*
X65889586Y-49639211D01*
X65748161Y-49979799D01*
X65747839Y-50348583D01*
X65769588Y-50401220D01*
X65629211Y-50401220D01*
X65395822Y-50497893D01*
X65388278Y-50505437D01*
X65303197Y-50447303D01*
X65054480Y-50396937D01*
X64256920Y-50396937D01*
X64024568Y-50440657D01*
X63811167Y-50577977D01*
X63773571Y-50633000D01*
X63350846Y-50633000D01*
X63050201Y-50508161D01*
X62681417Y-50507839D01*
X62340583Y-50648669D01*
X62079586Y-50909211D01*
X61938161Y-51249799D01*
X61937839Y-51618583D01*
X62078669Y-51959417D01*
X62339211Y-52220414D01*
X62679799Y-52361839D01*
X63048583Y-52362161D01*
X63351495Y-52237000D01*
X63771308Y-52237000D01*
X63798677Y-52279533D01*
X63958074Y-52388445D01*
X63811167Y-52482977D01*
X63773571Y-52538000D01*
X63350846Y-52538000D01*
X63050201Y-52413161D01*
X62681417Y-52412839D01*
X62340583Y-52553669D01*
X62079586Y-52814211D01*
X61938161Y-53154799D01*
X61937839Y-53523583D01*
X62078669Y-53864417D01*
X62339211Y-54125414D01*
X62679799Y-54266839D01*
X63048583Y-54267161D01*
X63351495Y-54142000D01*
X63771308Y-54142000D01*
X63798677Y-54184533D01*
X63958074Y-54293445D01*
X63811167Y-54387977D01*
X63773571Y-54443000D01*
X63350846Y-54443000D01*
X63050201Y-54318161D01*
X62681417Y-54317839D01*
X62340583Y-54458669D01*
X62079586Y-54719211D01*
X61938161Y-55059799D01*
X61937839Y-55428583D01*
X62056167Y-55714958D01*
X61919417Y-55714839D01*
X61578583Y-55855669D01*
X61317586Y-56116211D01*
X61274074Y-56221000D01*
X59667846Y-56221000D01*
X59367201Y-56096161D01*
X58998417Y-56095839D01*
X58657583Y-56236669D01*
X58396586Y-56497211D01*
X58255161Y-56837799D01*
X58255061Y-56952640D01*
X57954383Y-56952640D01*
X57954383Y-56579770D01*
X57910663Y-56347418D01*
X57773343Y-56134017D01*
X57563817Y-55990853D01*
X57315100Y-55940487D01*
X55714900Y-55940487D01*
X55482548Y-55984207D01*
X55269147Y-56121527D01*
X55125983Y-56331053D01*
X55075617Y-56579770D01*
X55075617Y-57090852D01*
X54788451Y-57282730D01*
X54448785Y-57622397D01*
X54290133Y-57780772D01*
X54118196Y-58194842D01*
X54117805Y-58643191D01*
X54289019Y-59057560D01*
X54605772Y-59374867D01*
X55019842Y-59546804D01*
X55075617Y-59546853D01*
X55075617Y-59579510D01*
X55119337Y-59811862D01*
X55256657Y-60025263D01*
X55466183Y-60168427D01*
X55714900Y-60218793D01*
X57085025Y-60218793D01*
X57061447Y-60233965D01*
X57033006Y-60275590D01*
X57023000Y-60325000D01*
X57023000Y-71067394D01*
X56462394Y-71628000D01*
X43942000Y-71628000D01*
X43942000Y-71325830D01*
X43986785Y-71258804D01*
X43994078Y-71241196D01*
X44087872Y-71014759D01*
X44108879Y-70909147D01*
X44450000Y-70977000D01*
X47030000Y-70977000D01*
X47269889Y-70929283D01*
X48190000Y-70929283D01*
X48422352Y-70885563D01*
X48635753Y-70748243D01*
X48778917Y-70538717D01*
X48829283Y-70290000D01*
X48829283Y-69290000D01*
X48785563Y-69057648D01*
X48648243Y-68844247D01*
X48438717Y-68701083D01*
X48217000Y-68656185D01*
X48217000Y-68424203D01*
X48422352Y-68385563D01*
X48635753Y-68248243D01*
X48778917Y-68038717D01*
X48829283Y-67790000D01*
X48829283Y-66790000D01*
X48785563Y-66557648D01*
X48648243Y-66344247D01*
X48438717Y-66201083D01*
X48217000Y-66156185D01*
X48217000Y-65924203D01*
X48422352Y-65885563D01*
X48635753Y-65748243D01*
X48778917Y-65538717D01*
X48829283Y-65290000D01*
X48829283Y-64290000D01*
X48785563Y-64057648D01*
X48648243Y-63844247D01*
X48438717Y-63701083D01*
X48217000Y-63656185D01*
X48217000Y-63424203D01*
X48422352Y-63385563D01*
X48635753Y-63248243D01*
X48778917Y-63038717D01*
X48829283Y-62790000D01*
X48829283Y-61790000D01*
X48785563Y-61557648D01*
X48648243Y-61344247D01*
X48438717Y-61201083D01*
X48190000Y-61150717D01*
X47544536Y-61150717D01*
X46720000Y-60326182D01*
X46720000Y-58912000D01*
X47217412Y-58912000D01*
X47217704Y-58912195D01*
X47404536Y-59037032D01*
X47835820Y-59122820D01*
X48090617Y-59122820D01*
X48090617Y-59795410D01*
X48134337Y-60027762D01*
X48271657Y-60241163D01*
X48481183Y-60384327D01*
X48729900Y-60434693D01*
X50330100Y-60434693D01*
X50562452Y-60390973D01*
X50775853Y-60253653D01*
X50919017Y-60044127D01*
X50969383Y-59795410D01*
X50969383Y-56196230D01*
X50925663Y-55963878D01*
X50788343Y-55750477D01*
X50578817Y-55607313D01*
X50330100Y-55556947D01*
X48729900Y-55556947D01*
X48497548Y-55600667D01*
X48284147Y-55737987D01*
X48140983Y-55947513D01*
X48090617Y-56196230D01*
X48090617Y-56758043D01*
X47850158Y-56658196D01*
X47401809Y-56657805D01*
X47401337Y-56658000D01*
X46212000Y-56658000D01*
X46212000Y-52779930D01*
X48094900Y-52779930D01*
X48094900Y-54420079D01*
X48191573Y-54653468D01*
X48370201Y-54832097D01*
X48603590Y-54928770D01*
X49244250Y-54928770D01*
X49403000Y-54770020D01*
X49403000Y-52621180D01*
X49657000Y-52621180D01*
X49657000Y-54770020D01*
X49815750Y-54928770D01*
X50456410Y-54928770D01*
X50689799Y-54832097D01*
X50868427Y-54653468D01*
X50965100Y-54420079D01*
X50965100Y-53966110D01*
X55079900Y-53966110D01*
X55079900Y-55306539D01*
X55176573Y-55539928D01*
X55355201Y-55718557D01*
X55588590Y-55815230D01*
X56229250Y-55815230D01*
X56388000Y-55656480D01*
X56388000Y-53807360D01*
X56642000Y-53807360D01*
X56642000Y-55656480D01*
X56800750Y-55815230D01*
X57441410Y-55815230D01*
X57674799Y-55718557D01*
X57853427Y-55539928D01*
X57950100Y-55306539D01*
X57950100Y-53966110D01*
X57791350Y-53807360D01*
X56642000Y-53807360D01*
X56388000Y-53807360D01*
X55238650Y-53807360D01*
X55079900Y-53966110D01*
X50965100Y-53966110D01*
X50965100Y-52779930D01*
X50806350Y-52621180D01*
X49657000Y-52621180D01*
X49403000Y-52621180D01*
X48253650Y-52621180D01*
X48094900Y-52779930D01*
X46212000Y-52779930D01*
X46212000Y-51435000D01*
X46126212Y-51003716D01*
X46101679Y-50967000D01*
X45881910Y-50638091D01*
X45812100Y-50568281D01*
X48094900Y-50568281D01*
X48094900Y-52208430D01*
X48253650Y-52367180D01*
X49403000Y-52367180D01*
X49403000Y-50218340D01*
X49657000Y-50218340D01*
X49657000Y-52367180D01*
X50806350Y-52367180D01*
X50965100Y-52208430D01*
X50965100Y-52054181D01*
X55079900Y-52054181D01*
X55079900Y-53394610D01*
X55238650Y-53553360D01*
X56388000Y-53553360D01*
X56388000Y-51704240D01*
X56642000Y-51704240D01*
X56642000Y-53553360D01*
X57791350Y-53553360D01*
X57950100Y-53394610D01*
X57950100Y-52054181D01*
X57853427Y-51820792D01*
X57674799Y-51642163D01*
X57441410Y-51545490D01*
X56800750Y-51545490D01*
X56642000Y-51704240D01*
X56388000Y-51704240D01*
X56229250Y-51545490D01*
X55588590Y-51545490D01*
X55355201Y-51642163D01*
X55176573Y-51820792D01*
X55079900Y-52054181D01*
X50965100Y-52054181D01*
X50965100Y-50568281D01*
X50868427Y-50334892D01*
X50689799Y-50156263D01*
X50456410Y-50059590D01*
X49815750Y-50059590D01*
X49657000Y-50218340D01*
X49403000Y-50218340D01*
X49244250Y-50059590D01*
X48603590Y-50059590D01*
X48370201Y-50156263D01*
X48191573Y-50334892D01*
X48094900Y-50568281D01*
X45812100Y-50568281D01*
X45246909Y-50003091D01*
X44881284Y-49758788D01*
X44450000Y-49673000D01*
X43039369Y-49673000D01*
X42838821Y-49538998D01*
X43260732Y-49162036D01*
X43514709Y-48634791D01*
X43517358Y-48619026D01*
X43396217Y-48387000D01*
X42037000Y-48387000D01*
X42037000Y-48407000D01*
X41783000Y-48407000D01*
X41783000Y-48387000D01*
X41763000Y-48387000D01*
X41763000Y-48133000D01*
X41783000Y-48133000D01*
X41783000Y-48113000D01*
X42037000Y-48113000D01*
X42037000Y-48133000D01*
X43396217Y-48133000D01*
X43517358Y-47900974D01*
X43514709Y-47885209D01*
X43260732Y-47357964D01*
X43077614Y-47194355D01*
X43158352Y-47179163D01*
X43371753Y-47041843D01*
X43504884Y-46847000D01*
X45085000Y-46847000D01*
X45516284Y-46761212D01*
X45881909Y-46516909D01*
X47666909Y-44731909D01*
X47911212Y-44366284D01*
X47933348Y-44255000D01*
X47997000Y-43935000D01*
X47997000Y-41209184D01*
X48179353Y-41091843D01*
X48322517Y-40882317D01*
X48334824Y-40821543D01*
X48355987Y-40853216D01*
X48839572Y-41176338D01*
X49410000Y-41289803D01*
X49980428Y-41176338D01*
X50464013Y-40853216D01*
X50680000Y-40529969D01*
X50895987Y-40853216D01*
X51379572Y-41176338D01*
X51666702Y-41233452D01*
X51502900Y-41342900D01*
X51502898Y-41342903D01*
X50867900Y-41977900D01*
X50694049Y-42238088D01*
X50632999Y-42545000D01*
X50633000Y-42545005D01*
X50633000Y-45084995D01*
X50632999Y-45085000D01*
X50694049Y-45391912D01*
X50867900Y-45652100D01*
X51210307Y-45994506D01*
X50864572Y-46063277D01*
X50380987Y-46386399D01*
X50165000Y-46709646D01*
X49949013Y-46386399D01*
X49465428Y-46063277D01*
X48895000Y-45949812D01*
X48324572Y-46063277D01*
X47840987Y-46386399D01*
X47517865Y-46869984D01*
X47404400Y-47440412D01*
X47404400Y-47809588D01*
X47517865Y-48380016D01*
X47840987Y-48863601D01*
X48324572Y-49186723D01*
X48895000Y-49300188D01*
X49465428Y-49186723D01*
X49949013Y-48863601D01*
X50165000Y-48540354D01*
X50380987Y-48863601D01*
X50864572Y-49186723D01*
X51435000Y-49300188D01*
X52005428Y-49186723D01*
X52489013Y-48863601D01*
X52508511Y-48834420D01*
X52515837Y-48873352D01*
X52653157Y-49086753D01*
X52862683Y-49229917D01*
X53111400Y-49280283D01*
X54838600Y-49280283D01*
X55070952Y-49236563D01*
X55284353Y-49099243D01*
X55427517Y-48889717D01*
X55477883Y-48641000D01*
X55477883Y-46609000D01*
X55434163Y-46376648D01*
X55296843Y-46163247D01*
X55087317Y-46020083D01*
X54838600Y-45969717D01*
X54663585Y-45969717D01*
X54650285Y-45949812D01*
X54542100Y-45787900D01*
X54542097Y-45787898D01*
X54223335Y-45469136D01*
X54229000Y-45470283D01*
X56261000Y-45470283D01*
X56493352Y-45426563D01*
X56706753Y-45289243D01*
X56849917Y-45079717D01*
X56900283Y-44831000D01*
X56900283Y-42799000D01*
X56856563Y-42566648D01*
X56719243Y-42353247D01*
X56509717Y-42210083D01*
X56261000Y-42159717D01*
X56047000Y-42159717D01*
X56047000Y-42051700D01*
X56320097Y-41778602D01*
X56320100Y-41778600D01*
X56493951Y-41518412D01*
X56555000Y-41211500D01*
X56555000Y-41176923D01*
X56670974Y-41224958D01*
X56903000Y-41103817D01*
X56903000Y-39897000D01*
X56883000Y-39897000D01*
X56883000Y-39643000D01*
X56903000Y-39643000D01*
X56903000Y-39623000D01*
X57157000Y-39623000D01*
X57157000Y-39643000D01*
G36*
X86455987Y-40853216D02*
X86939572Y-41176338D01*
X87510000Y-41289803D01*
X87971000Y-41198105D01*
X87971000Y-41782995D01*
X87970999Y-41783000D01*
X88032049Y-42089912D01*
X88098000Y-42188615D01*
X88098000Y-43644318D01*
X88017648Y-43659437D01*
X87804247Y-43796757D01*
X87661083Y-44006283D01*
X87610717Y-44255000D01*
X87610717Y-45755000D01*
X87654437Y-45987352D01*
X87791757Y-46200753D01*
X88001283Y-46343917D01*
X88048892Y-46353558D01*
X88017648Y-46359437D01*
X87804247Y-46496757D01*
X87661083Y-46706283D01*
X87610717Y-46955000D01*
X87610717Y-48455000D01*
X87654437Y-48687352D01*
X87791757Y-48900753D01*
X88001283Y-49043917D01*
X88098000Y-49063503D01*
X88098000Y-53642801D01*
X87932800Y-53808000D01*
X74780846Y-53808000D01*
X74480201Y-53683161D01*
X74111417Y-53682839D01*
X73937064Y-53754880D01*
X73811331Y-53450583D01*
X73550789Y-53189586D01*
X73210201Y-53048161D01*
X72841417Y-53047839D01*
X72500583Y-53188669D01*
X72239586Y-53449211D01*
X72098161Y-53789799D01*
X72097839Y-54158583D01*
X72223000Y-54461495D01*
X72223000Y-54578800D01*
X70760645Y-53116445D01*
X70636331Y-52815583D01*
X70383190Y-52562000D01*
X81280000Y-52562000D01*
X81711284Y-52476212D01*
X82076909Y-52231909D01*
X82321212Y-51866284D01*
X82407000Y-51435000D01*
X82321212Y-51003716D01*
X82296679Y-50967000D01*
X83819995Y-50967000D01*
X83820000Y-50967001D01*
X84126912Y-50905951D01*
X84387100Y-50732100D01*
X85657097Y-49462102D01*
X85657100Y-49462100D01*
X85830951Y-49201912D01*
X85856729Y-49072319D01*
X85972352Y-49050563D01*
X86185753Y-48913243D01*
X86328917Y-48703717D01*
X86379283Y-48455000D01*
X86379283Y-46955000D01*
X86335563Y-46722648D01*
X86198243Y-46509247D01*
X85988717Y-46366083D01*
X85941108Y-46356442D01*
X85972352Y-46350563D01*
X86185753Y-46213243D01*
X86328917Y-46003717D01*
X86379283Y-45755000D01*
X86379283Y-44255000D01*
X86335563Y-44022648D01*
X86198243Y-43809247D01*
X85988717Y-43666083D01*
X85892000Y-43646497D01*
X85892000Y-43180000D01*
X85830951Y-42873088D01*
X85657100Y-42612900D01*
X85657097Y-42612898D01*
X84495000Y-41450800D01*
X84495000Y-41195320D01*
X84970000Y-41289803D01*
X85540428Y-41176338D01*
X86024013Y-40853216D01*
X86240000Y-40529969D01*
X86455987Y-40853216D01*
X86455987Y-40853216D01*
G37*
X86455987Y-40853216D02*
X86939572Y-41176338D01*
X87510000Y-41289803D01*
X87971000Y-41198105D01*
X87971000Y-41782995D01*
X87970999Y-41783000D01*
X88032049Y-42089912D01*
X88098000Y-42188615D01*
X88098000Y-43644318D01*
X88017648Y-43659437D01*
X87804247Y-43796757D01*
X87661083Y-44006283D01*
X87610717Y-44255000D01*
X87610717Y-45755000D01*
X87654437Y-45987352D01*
X87791757Y-46200753D01*
X88001283Y-46343917D01*
X88048892Y-46353558D01*
X88017648Y-46359437D01*
X87804247Y-46496757D01*
X87661083Y-46706283D01*
X87610717Y-46955000D01*
X87610717Y-48455000D01*
X87654437Y-48687352D01*
X87791757Y-48900753D01*
X88001283Y-49043917D01*
X88098000Y-49063503D01*
X88098000Y-53642801D01*
X87932800Y-53808000D01*
X74780846Y-53808000D01*
X74480201Y-53683161D01*
X74111417Y-53682839D01*
X73937064Y-53754880D01*
X73811331Y-53450583D01*
X73550789Y-53189586D01*
X73210201Y-53048161D01*
X72841417Y-53047839D01*
X72500583Y-53188669D01*
X72239586Y-53449211D01*
X72098161Y-53789799D01*
X72097839Y-54158583D01*
X72223000Y-54461495D01*
X72223000Y-54578800D01*
X70760645Y-53116445D01*
X70636331Y-52815583D01*
X70383190Y-52562000D01*
X81280000Y-52562000D01*
X81711284Y-52476212D01*
X82076909Y-52231909D01*
X82321212Y-51866284D01*
X82407000Y-51435000D01*
X82321212Y-51003716D01*
X82296679Y-50967000D01*
X83819995Y-50967000D01*
X83820000Y-50967001D01*
X84126912Y-50905951D01*
X84387100Y-50732100D01*
X85657097Y-49462102D01*
X85657100Y-49462100D01*
X85830951Y-49201912D01*
X85856729Y-49072319D01*
X85972352Y-49050563D01*
X86185753Y-48913243D01*
X86328917Y-48703717D01*
X86379283Y-48455000D01*
X86379283Y-46955000D01*
X86335563Y-46722648D01*
X86198243Y-46509247D01*
X85988717Y-46366083D01*
X85941108Y-46356442D01*
X85972352Y-46350563D01*
X86185753Y-46213243D01*
X86328917Y-46003717D01*
X86379283Y-45755000D01*
X86379283Y-44255000D01*
X86335563Y-44022648D01*
X86198243Y-43809247D01*
X85988717Y-43666083D01*
X85892000Y-43646497D01*
X85892000Y-43180000D01*
X85830951Y-42873088D01*
X85657100Y-42612900D01*
X85657097Y-42612898D01*
X84495000Y-41450800D01*
X84495000Y-41195320D01*
X84970000Y-41289803D01*
X85540428Y-41176338D01*
X86024013Y-40853216D01*
X86240000Y-40529969D01*
X86455987Y-40853216D01*
M02*
